<svg xmlns="http://www.w3.org/2000/svg" xmlns:xlink="http://www.w3.org/1999/xlink" width="100" height="100" viewBox="0 0 100 100">
  <defs>
    <clipPath id="clip-add_to_favorites">
      <rect width="100" height="100"/>
    </clipPath>
  </defs>
  <g id="add_to_favorites" data-name="add to favorites" clip-path="url(#clip-add_to_favorites)">
    <g id="add_to_favorites-2" data-name="add to favorites" transform="translate(6.75 1.75)">
      <path id="Layer_2" data-name="Layer 2" d="M75.545,1.25H11.283A8.042,8.042,0,0,0,3.25,9.283V88.211a8.033,8.033,0,0,0,12.293,6.816L42.8,77.989a1.189,1.189,0,0,1,1.226,0L71.29,95.028a8.033,8.033,0,0,0,12.288-6.816V9.283A8.042,8.042,0,0,0,75.545,1.25ZM62.684,35.814l-8.125,6.5a2.144,2.144,0,0,0-.711,2.291l3.718,12.407a2.144,2.144,0,0,1-3.337,2.332L44.7,52.192a2.144,2.144,0,0,0-2.571,0L32.6,59.339a2.144,2.144,0,0,1-3.342-2.332L32.981,44.6a2.144,2.144,0,0,0-.716-2.3l-8.12-6.491A2.144,2.144,0,0,1,25.485,32h9.3a2.144,2.144,0,0,0,1.974-1.3l4.682-10.925a2.144,2.144,0,0,1,3.938,0L50.07,30.7A2.144,2.144,0,0,0,52.044,32h9.3a2.144,2.144,0,0,1,1.34,3.814Z" transform="translate(0 0)" fill="#72798b"/>
    </g>
  </g>
</svg>
