<svg xmlns="http://www.w3.org/2000/svg" xmlns:xlink="http://www.w3.org/1999/xlink" width="100" height="100" viewBox="0 0 100 100">
  <defs>
    <clipPath id="clip-Cooling-Off_Period">
      <rect width="100" height="100"/>
    </clipPath>
  </defs>
  <g id="Cooling-Off_Period" data-name="Cooling-Off Period" clip-path="url(#clip-Cooling-Off_Period)">
    <g id="Cooling-Off_Period-2" data-name="Cooling-Off Period" transform="translate(3.81 1)">
      <path id="Path_413" data-name="Path 413" d="M67.349,51.434A22.783,22.783,0,1,0,90.115,74.2,22.8,22.8,0,0,0,67.349,51.434Zm7.193,25.175a3.41,3.41,0,0,1-2.409,5.8,3.425,3.425,0,0,1-2.409-1.018l-2.375-2.375L64.94,81.393a3.367,3.367,0,0,1-2.409,1.018,3.383,3.383,0,0,1-2.375-5.8L62.531,74.2l-2.375-2.375a3.395,3.395,0,1,1,4.784-4.818l2.409,2.409,2.375-2.409a3.407,3.407,0,0,1,4.818,4.818L72.133,74.2ZM3.19,25.411v3.427H79.7V25.411a15.371,15.371,0,0,0-15.336-15.37H60.309V5.393a3.393,3.393,0,1,0-6.786,0v4.648H29.359V5.393a3.393,3.393,0,1,0-6.786,0v4.648H18.526A15.37,15.37,0,0,0,3.19,25.411Z" transform="translate(0)" fill="#72798b"/>
      <path id="Path_414" data-name="Path 414" d="M3.19,47.5a15.371,15.371,0,0,0,15.336,15.37H40.511a29.148,29.148,0,0,1-2.748-12.384A29.562,29.562,0,0,1,79.7,23.649V11.91H3.19ZM41.461,23.446H41.5a3.376,3.376,0,1,1-.034,0Zm-17.541,0h.034a3.376,3.376,0,1,1-.034,0Zm0,14.284h.034a3.376,3.376,0,1,1-.034,0Z" transform="translate(0 23.713)" fill="#72798b"/>
    </g>
  </g>
</svg>
