<svg xmlns="http://www.w3.org/2000/svg" xmlns:xlink="http://www.w3.org/1999/xlink" width="100" height="100" viewBox="0 0 100 100">
  <defs>
    <clipPath id="clip-history">
      <rect width="100" height="100"/>
    </clipPath>
  </defs>
  <g id="history" clip-path="url(#clip-history)">
    <g id="history-2" data-name="history" transform="translate(-10.52 3)">
      <path id="Path_410" data-name="Path 410" d="M58.764,75.122a26.125,26.125,0,0,1,40.3-21.939c.028-1.935.043-4,.043-6.229a235.045,235.045,0,0,0-1.16-26.016h.109A22.156,22.156,0,0,0,83.645,2.412c-.206-.078-.412-.152-.62-.223a22.149,22.149,0,0,0-4.746-1.033l-.154-.017C71.963.507,70.974,0,57.981,0A141.144,141.144,0,0,0,36.728,1.149l-.154.017A22.11,22.11,0,0,0,31.6,2.279V2.2a22.169,22.169,0,0,0-14.914,18.7,235.176,235.176,0,0,0-1.165,26.06,235.176,235.176,0,0,0,1.165,26.06A22.19,22.19,0,0,0,36.461,92.788l.154.017c6.162.642,7.149,1.149,20.143,1.149,4.3,0,7.422-.056,9.869-.154a26.043,26.043,0,0,1-7.863-18.677ZM37.055,24.706H77.561a4.42,4.42,0,1,1,0,8.839h-40.5a4.42,4.42,0,1,1,0-8.839Zm0,27.752a4.421,4.421,0,1,1,0-8.842h23.1a4.421,4.421,0,1,1,0,8.842Z" fill="#72798b"/>
      <path id="Path_411" data-name="Path 411" d="M302.1,297.74a19.878,19.878,0,1,0,19.878,19.878A19.878,19.878,0,0,0,302.1,297.74Zm7.878,22.787H301.7a2.366,2.366,0,0,1-2.366-2.366v-12.71a2.366,2.366,0,0,1,4.731,0V315.8h5.908a2.366,2.366,0,0,1,0,4.731Z" transform="translate(-217.215 -242.495)" fill="#72798b"/>
    </g>
  </g>
</svg>
