<svg xmlns="http://www.w3.org/2000/svg" xmlns:xlink="http://www.w3.org/1999/xlink" width="100" height="100" viewBox="0 0 100 100">
  <defs>
    <clipPath id="clip-Info">
      <rect width="100" height="100"/>
    </clipPath>
  </defs>
  <g id="Info" clip-path="url(#clip-Info)">
    <g id="info-2" data-name="info" transform="translate(0.005 1)">
      <path id="Layer_2" data-name="Layer 2" d="M88.564,14.493C81.771,6.75,67.189,2,49.519,2S17.266,6.75,10.474,14.493c-11.305,13.11-11.305,57,0,70.015C17.266,92.25,31.849,97,49.519,97s32.253-4.75,39.045-12.493c11.305-13.11,11.305-56.9,0-70.015ZM49.519,24.563A5.938,5.938,0,1,1,43.581,30.5,5.937,5.937,0,0,1,49.519,24.563Zm4.75,51.063h-9.5a4.75,4.75,0,0,1,0-9.5V51.875a4.75,4.75,0,0,1,0-9.5h4.75a4.75,4.75,0,0,1,4.75,4.75v19a4.75,4.75,0,0,1,0,9.5Z" fill="#72798b"/>
    </g>
  </g>
</svg>
