<svg id="Group_13168" data-name="Group 13168" xmlns="http://www.w3.org/2000/svg" width="23.532" height="22.524"
     viewBox="0 0 23.532 22.524">
    <path id="Path_18724" data-name="Path 18724"
          d="M3868.364-6162.476a1.435,1.435,0,0,1-1.082-.509,1.379,1.379,0,0,1-.306-1.139l1.1-6.4-4.651-4.529a1.4,1.4,0,0,1-.356-1.445,1.4,1.4,0,0,1,1.135-.958l6.427-.936,2.872-5.824a1.38,1.38,0,0,1,1.26-.784,1.4,1.4,0,0,1,1.266.784l2.872,5.824,6.427.936a1.4,1.4,0,0,1,1.135.957,1.4,1.4,0,0,1-.356,1.446l-1.522,1.482a6.1,6.1,0,0,0-3.666-1.21,6.16,6.16,0,0,0-6.153,6.153,6.11,6.11,0,0,0,1.136,3.563l-1.136-.6-5.748,3.021A1.382,1.382,0,0,1,3868.364-6162.476Z"
          transform="translate(-3863 6185)" fill="#f0b80c"/>
    <path id="Icon_awesome-plus-circle" data-name="Icon awesome-plus-circle"
          d="M6.063.563a5.5,5.5,0,1,0,5.5,5.5A5.5,5.5,0,0,0,6.063.563ZM9.256,6.683a.267.267,0,0,1-.266.266H6.95V8.99a.267.267,0,0,1-.266.266H5.442a.267.267,0,0,1-.266-.266V6.95H3.135a.267.267,0,0,1-.266-.266V5.442a.267.267,0,0,1,.266-.266h2.04V3.135a.267.267,0,0,1,.266-.266H6.683a.267.267,0,0,1,.266.266v2.04H8.99a.267.267,0,0,1,.266.266Z"
          transform="translate(11.97 10.463)" fill="#f0b80c"/>
</svg>
