<?xml version="1.0" encoding="utf-8"?>
<!-- Generator: Adobe Illustrator 28.1.0, SVG Export Plug-In . SVG Version: 6.00 Build 0)  -->
<svg version="1.1" id="Layer_1" xmlns="http://www.w3.org/2000/svg" xmlns:xlink="http://www.w3.org/1999/xlink" x="0px" y="0px"
	 viewBox="0 0 100 100" style="enable-background:new 0 0 100 100;" xml:space="preserve">
<g id="_x33_4-globe">
	<g>
		<path d="M68.8,36.9H30.5c-0.7,4.1-1,8.6-1,13.1s0.3,9,1,13.5h38.3c0.7-4.1,1-8.6,1-13.5C70.2,45.5,69.8,41,68.8,36.9z"/>
		<path d="M77.1,50c0,4.5-0.3,9-1,13.5h20.4c1.4-4.1,2.1-8.6,2.1-13.5c0-4.5-0.7-9-1.7-13.1H76.4C76.8,41,77.1,45.5,77.1,50L77.1,50
			z"/>
		<path d="M67.4,70.4H32.2c3.5,12.4,10,21.4,17.6,21.4C57.1,91.4,64,82.8,67.4,70.4L67.4,70.4z"/>
		<path d="M74.7,30h19C86.4,13.8,70.5,2.7,51.9,1.7C62.3,3.1,70.5,14.1,74.7,30z"/>
		<path d="M74.7,70.4c-3.8,15.5-12.4,26.6-22.4,28c18.3-0.7,34.2-12.1,41.8-28H74.7z"/>
		<path d="M25,30C29.1,14.1,37.4,3.1,47.4,1.7C29.1,2.7,13.2,13.8,6,30H25z"/>
		<path d="M25,70.4H6c7.2,15.9,23.1,27.3,41.4,28C37.4,96.9,29.1,85.9,25,70.4z"/>
		<path d="M32.2,30h35.2C64,17.2,57.4,8.6,49.8,8.6S35.7,17.2,32.2,30L32.2,30z"/>
		<path d="M22.6,50c0-4.5,0.3-9,1-13.1H3.2C2.2,41,1.5,45.5,1.5,50s0.7,9,2.1,13.5h20.4C22.9,59,22.6,54.5,22.6,50z"/>
	</g>
</g>
</svg>
