<svg id="lock" xmlns="http://www.w3.org/2000/svg" width="10.151" height="12.407" viewBox="0 0 10.151 12.407">
  <path id="Path_18712" data-name="Path 18712" d="M2.82,5.639H7.331V3.948A2.173,2.173,0,0,0,6.67,2.353a2.173,2.173,0,0,0-1.595-.661,2.173,2.173,0,0,0-1.595.661A2.173,2.173,0,0,0,2.82,3.948Zm7.331.846v5.075a.842.842,0,0,1-.846.846H.846a.816.816,0,0,1-.6-.247.816.816,0,0,1-.247-.6V6.485a.816.816,0,0,1,.247-.6.816.816,0,0,1,.6-.247h.282V3.948A3.8,3.8,0,0,1,2.291,1.163,3.8,3.8,0,0,1,5.075,0,3.8,3.8,0,0,1,7.86,1.163,3.8,3.8,0,0,1,9.023,3.948V5.639h.282a.842.842,0,0,1,.846.846Z" transform="translate(0 0)"/>
</svg>
