<svg xmlns="http://www.w3.org/2000/svg" width="10.151" height="9.688" viewBox="0 0 10.151 9.688">
  <path id="Path_18711" data-name="Path 18711" d="M12.206,7.637a.68.68,0,0,0-.4-1.225l-2.756-.1a.07.07,0,0,1-.061-.046L8.041,3.69a.68.68,0,0,0-1.277,0L5.814,6.271a.07.07,0,0,1-.061.046L3,6.421a.68.68,0,0,0-.4,1.225l2.162,1.7a.07.07,0,0,1,.024.073l-.744,2.637a.68.68,0,0,0,1.035.75l2.285-1.531a.067.067,0,0,1,.077,0l2.285,1.531a.672.672,0,0,0,1.035-.735l-.75-2.646a.067.067,0,0,1,.024-.073Z" transform="translate(-2.328 -3.243)"/>
</svg>
