<svg xmlns="http://www.w3.org/2000/svg" width="18.333" height="24.444" viewBox="0 0 18.333 24.444">
  <path id="Icon_awesome-file-pdf" data-name="Icon awesome-file-pdf" d="M8.684,12.227a4.606,4.606,0,0,1-.1-2.239C8.99,9.988,8.952,11.749,8.684,12.227ZM8.6,14.48a22.029,22.029,0,0,1-1.356,2.993,17.58,17.58,0,0,1,3-1.046A6.184,6.184,0,0,1,8.6,14.48ZM4.111,20.438c0,.038.63-.258,1.666-1.919A6.6,6.6,0,0,0,4.111,20.438Zm7.729-12.8h6.493V23.3a1.143,1.143,0,0,1-1.146,1.146H1.146A1.143,1.143,0,0,1,0,23.3V1.146A1.143,1.143,0,0,1,1.146,0h9.548V6.493A1.149,1.149,0,0,0,11.84,7.639Zm-.382,8.2a4.792,4.792,0,0,1-2.039-2.569,6.862,6.862,0,0,0,.3-3.065,1.2,1.2,0,0,0-2.282-.325,7.938,7.938,0,0,0,.387,3.676,44.831,44.831,0,0,1-1.948,4.1s0,0-.01,0c-1.294.664-3.514,2.125-2.6,3.246a1.483,1.483,0,0,0,1.026.477c.855,0,1.7-.859,2.917-2.95a27.214,27.214,0,0,1,3.772-1.108,7.235,7.235,0,0,0,3.055.931,1.236,1.236,0,0,0,.941-2.072c-.664-.649-2.592-.463-3.514-.344ZM18,5.013,13.32.334A1.145,1.145,0,0,0,12.508,0h-.286V6.111h6.111V5.82A1.142,1.142,0,0,0,18,5.013ZM14.461,17.2c.2-.129-.119-.568-2.043-.43C14.189,17.526,14.461,17.2,14.461,17.2Z" fill="#f0b80c"/>
</svg>
