<svg xmlns="http://www.w3.org/2000/svg" width="19.561" height="19.561" viewBox="0 0 19.561 19.561">
  <g id="Icon_feather-download" data-name="Icon feather-download" transform="translate(-3 -3)">
    <path id="Path_10702" data-name="Path 10702" d="M19.461,29.109H6.1a3.1,3.1,0,0,1-3.1-3.1V22.191a1.191,1.191,0,1,1,2.383,0v3.817a.718.718,0,0,0,.717.717H19.461a.718.718,0,0,0,.717-.717V22.191a1.191,1.191,0,0,1,2.383,0v3.817A3.1,3.1,0,0,1,19.461,29.109Z" transform="translate(0 -6.548)"/>
    <path id="Path_10703" data-name="Path 10703" d="M14.963,20.654a1.188,1.188,0,0,1-.842-.349L9.349,15.534a1.191,1.191,0,0,1,1.685-1.685l3.929,3.929,3.929-3.929a1.191,1.191,0,1,1,1.685,1.685l-4.772,4.772A1.188,1.188,0,0,1,14.963,20.654Z" transform="translate(-2.183 -3.819)"/>
    <path id="Path_10704" data-name="Path 10704" d="M17.691,16.835A1.191,1.191,0,0,1,16.5,15.644V4.191a1.191,1.191,0,0,1,2.383,0V15.644A1.191,1.191,0,0,1,17.691,16.835Z" transform="translate(-4.911 0)"/>
  </g>
</svg>
