<svg id="Group_12849" data-name="Group 12849" xmlns="http://www.w3.org/2000/svg" xmlns:xlink="http://www.w3.org/1999/xlink" width="24.438" height="24.425" viewBox="0 0 24.438 24.425">
  <defs>
    <clipPath id="clip-path">
      <rect id="Rectangle_20868" data-name="Rectangle 20868" width="24.438" height="24.425" fill="none"/>
    </clipPath>
  </defs>
  <g id="Group_12848" data-name="Group 12848" clip-path="url(#clip-path)">
    <path id="Path_10689" data-name="Path 10689" d="M22.126,14.65a2.961,2.961,0,0,1-.586.584.163.163,0,0,0-.064-.152c-.1-.085-.195-.169-.285-.26-.454-.461-.93-.9-1.36-1.383a.161.161,0,0,0-.254-.026,5.19,5.19,0,0,1-.632.5,6.282,6.282,0,0,1-1.344.639c-.14.044-.171.021-.185-.129a4.512,4.512,0,0,0-.133-.752,8.588,8.588,0,0,0-.594-1.7c-.134-.265-.253-.54-.408-.792a9.841,9.841,0,0,0-.933-1.263c-.148-.171-.141-.177-.292-.019-.037.039-.076.076-.113.114L13.5,11.451c-.172.172-.164.189-.01.366a4.342,4.342,0,0,1,.64.963c.028.059.013.124.053.188a2.516,2.516,0,0,1,.279.5c.094.268.128.555.229.817a4.78,4.78,0,0,1,.143.819c.036.178.015.186.2.186.777,0,1.554,0,2.33,0,.124,0,.168.038.16.161a3.237,3.237,0,0,0,0,.428c.009.133-.045.164-.17.166-.789.009-1.579-.031-2.368.021-.092.006-.134.04-.138.12,0,.1-.039.19-.052.283a6.572,6.572,0,0,1-.3,1.25,8.526,8.526,0,0,1-.486,1.046,4.983,4.983,0,0,1-.322.469,1.331,1.331,0,0,1-.212.284c-.144.126-.159.2-.013.328.3.253.562.547.843.821.246.24.484.488.732.727.058.056.065.165.173.167a2.522,2.522,0,0,1-.554.538c-.065-.06-.133-.116-.194-.179-.513-.527-1.056-1.024-1.548-1.572-.068-.076-.127-.1-.22-.012a5.337,5.337,0,0,1-1.056.727,4.543,4.543,0,0,1-.886.387,5.425,5.425,0,0,1-1.468.3c-.114.005-.152.045-.154.161-.01.837.033,1.676-.022,2.512H8.36a4.11,4.11,0,0,0,.026-.732c0-.58,0-1.16,0-1.739,0-.031,0-.063,0-.094-.007-.073-.041-.117-.121-.107a4.136,4.136,0,0,1-.684-.083,2.621,2.621,0,0,1-.55-.144,5.134,5.134,0,0,1-1.167-.476,4.052,4.052,0,0,1-.691-.425c-.128-.108-.26-.209-.392-.312a.085.085,0,0,0-.128.006c-.217.208-.434.416-.645.629q-.49.5-.97,1c-.056.059-.157.078-.168.179a2.666,2.666,0,0,1-.562-.562l.4-.39c.464-.449.9-.928,1.382-1.359a.143.143,0,0,0,.008-.223A6.211,6.211,0,0,1,3.134,18a7.419,7.419,0,0,1-.451-1.747c-.031-.211-.025-.211-.235-.211q-1.1,0-2.194,0a.483.483,0,0,0-.244.053,6.793,6.793,0,0,1,0-.778,5.544,5.544,0,0,1,.827-.023c.362,0,.723,0,1.085,0h.616c.077,0,.139-.025.139-.109a3.878,3.878,0,0,1,.116-.786,5.961,5.961,0,0,1,1.293-2.64c.091-.108.094-.172-.018-.252a1.287,1.287,0,0,1-.16-.141Q3.2,10.66,2.5,9.955a.845.845,0,0,0-.21-.179,3.014,3.014,0,0,1,.553-.537c.132.119.268.233.394.358q.694.688,1.382,1.383c.085.086.146.109.242.013a3.256,3.256,0,0,1,.554-.41A6.164,6.164,0,0,1,8.164,9.61c.248-.025.222,0,.222-.233q0-1.145,0-2.289c0-.176,0-.176.181-.177h.375c.194,0,.194,0,.194.19,0,.785,0,1.571,0,2.356,0,.093.018.129.123.138a5.313,5.313,0,0,1,.6.091,6.092,6.092,0,0,1,1.387.413,6.151,6.151,0,0,1,1.289.777c.293.235.214.252.48-.009q.758-.746,1.517-1.49c.146-.143.154-.177.01-.278-.282-.2-.534-.434-.823-.625a10.165,10.165,0,0,0-.888-.541,8.492,8.492,0,0,0-1.709-.681,7.654,7.654,0,0,0-1.008-.222c-.27-.035-.309.018-.189-.336a6.074,6.074,0,0,1,.732-1.418,1.969,1.969,0,0,1,.334-.413c.1-.084.106-.153.015-.238-.533-.5-1.053-1.014-1.548-1.552a.785.785,0,0,0-.242-.2,4.953,4.953,0,0,1,.534-.538c.125.112.254.218.373.336.466.462.928.927,1.392,1.39.122.122.149.127.269,0a2.207,2.207,0,0,1,.267-.213,5.563,5.563,0,0,1,1.5-.8A5.125,5.125,0,0,1,14.9,2.727c.083-.006.166-.021.251-.024s.149-.048.151-.159c.01-.846-.031-1.693.023-2.539L16.017,0c.022,0,.045,0,.058.024a.779.779,0,0,0-.028.224q0,1.13,0,2.26c0,.172.013.188.186.2a5.14,5.14,0,0,1,1.249.241,5.728,5.728,0,0,1,1.227.527,6.973,6.973,0,0,1,.85.594c.142.114.138.118.266-.01q.7-.7,1.4-1.4c.116-.116.229-.237.343-.355.179.2.434.336.565.586a.4.4,0,0,0-.188.121c-.53.529-1.059,1.061-1.591,1.588a.153.153,0,0,0-.014.241,6.607,6.607,0,0,1,.685,1,6.213,6.213,0,0,1,.6,1.578,4.989,4.989,0,0,1,.126.853c.007.106.06.117.147.115.842-.019,1.684.032,2.526-.03a2.67,2.67,0,0,1-.014.754c-.187,0-.372.029-.559.027-.656-.005-1.312,0-1.968,0-.1,0-.144.032-.151.136a5.716,5.716,0,0,1-.3,1.466,9.472,9.472,0,0,1-.472,1.015,4.694,4.694,0,0,1-.62.91.14.14,0,0,0,.011.22c.165.162.327.327.492.49l1.294,1.282" transform="translate(0 -0.001)" fill="#e2e2e2"/>
    <path id="Path_10690" data-name="Path 10690" d="M32.814,26.663a.786.786,0,0,1,.242.2c.5.538,1.015,1.052,1.548,1.552.091.085.083.154-.015.238a1.969,1.969,0,0,0-.334.413,6.074,6.074,0,0,0-.732,1.418c-.12.354-.081.3.189.336a7.654,7.654,0,0,1,1.008.222,8.491,8.491,0,0,1,1.709.681,10.147,10.147,0,0,1,.888.541c.289.191.541.427.823.625.144.1.136.135-.01.278q-.76.744-1.517,1.49c-.266.261-.187.245-.48.009a5.835,5.835,0,0,0-2.676-1.19,5.311,5.311,0,0,0-.6-.091c-.1-.008-.123-.045-.123-.138,0-.785,0-1.571,0-2.356,0-.189,0-.189-.194-.19h-.375c-.18,0-.181,0-.181.177q0,1.145,0,2.289c0,.235.026.209-.222.233a6.164,6.164,0,0,0-2.751.972,3.252,3.252,0,0,0-.554.41c-.1.1-.158.073-.242-.013q-.687-.7-1.382-1.383c-.126-.125-.263-.239-.394-.358a3.386,3.386,0,0,1,.5-.444,9.055,9.055,0,0,1,1.18-.79,2.144,2.144,0,0,1,.464-.258c.384-.107.732-.305,1.116-.41a8.245,8.245,0,0,1,.87-.224c.12-.019.132-.1.15-.19a8.575,8.575,0,0,1,.808-2.228,9.028,9.028,0,0,1,.824-1.28c.146-.191.3-.371.464-.548" transform="translate(-23.596 -23.798)" fill="#b1b2b4"/>
    <path id="Path_10691" data-name="Path 10691" d="M126.207,102.823c-.108,0-.116-.112-.173-.167-.247-.239-.485-.487-.732-.727-.281-.274-.542-.567-.844-.821-.146-.123-.131-.2.014-.328a1.325,1.325,0,0,0,.212-.284,4.928,4.928,0,0,0,.322-.469,8.507,8.507,0,0,0,.486-1.046,6.558,6.558,0,0,0,.3-1.25c.013-.093.047-.185.052-.283,0-.08.046-.114.138-.12.789-.051,1.578-.011,2.368-.021.125,0,.18-.032.17-.166a3.231,3.231,0,0,1,0-.428c.008-.124-.036-.162-.16-.161-.777,0-1.554,0-2.33,0-.181,0-.16-.009-.2-.186a4.792,4.792,0,0,0-.143-.819c-.1-.262-.136-.549-.229-.817a2.516,2.516,0,0,0-.279-.5c-.04-.063-.025-.129-.053-.188a4.337,4.337,0,0,0-.64-.963c-.154-.178-.162-.195.01-.367l1.439-1.439c.038-.038.077-.075.113-.114.151-.158.144-.153.292.019a9.816,9.816,0,0,1,.932,1.263c.155.252.273.527.408.792a8.58,8.58,0,0,1,.594,1.7,4.512,4.512,0,0,1,.133.752c.014.15.045.173.185.129a6.29,6.29,0,0,0,1.344-.639,5.21,5.21,0,0,0,.632-.5.161.161,0,0,1,.254.026c.431.484.907.923,1.36,1.383.09.092.188.175.285.26a.163.163,0,0,1,.064.152,7.906,7.906,0,0,1-.876.7,8.458,8.458,0,0,1-3.127,1.366.254.254,0,0,0-.234.223,8.621,8.621,0,0,1-1.234,2.942,7.793,7.793,0,0,1-.856,1.095" transform="translate(-110.994 -81.262)" fill="#b1b2b4"/>
    <path id="Path_10692" data-name="Path 10692" d="M.1,149.352a.484.484,0,0,1,.244-.053q1.1,0,2.194,0c.21,0,.2,0,.235.211a7.419,7.419,0,0,0,.451,1.747,6.208,6.208,0,0,0,.965,1.588.143.143,0,0,1-.008.223c-.482.431-.918.91-1.382,1.359l-.4.39a7.8,7.8,0,0,1-1.1-1.468c-.147-.238-.271-.49-.395-.736a3.434,3.434,0,0,1-.3-.767.892.892,0,0,0-.1-.257c-.085-.14-.014-.332-.166-.44a.623.623,0,0,0-.06-.376,7.312,7.312,0,0,1-.132-.76,6.512,6.512,0,0,1-.052-.662" transform="translate(-0.087 -133.256)" fill="#b1b2b4"/>
    <path id="Path_10693" data-name="Path 10693" d="M2.382,90.972a.843.843,0,0,1,.21.179q.707.7,1.412,1.41a1.285,1.285,0,0,0,.16.141c.112.08.109.144.018.252A5.962,5.962,0,0,0,2.888,95.6a3.878,3.878,0,0,0-.116.786c0,.084-.062.109-.139.109H2.018c-.361,0-.723,0-1.085,0a5.547,5.547,0,0,0-.827.023c-.006-.257.066-.508.061-.763a2.943,2.943,0,0,1,.065-.465,5.005,5.005,0,0,1,.143-.631A9.76,9.76,0,0,1,.8,93.422a8.488,8.488,0,0,1,.779-1.431,8.4,8.4,0,0,1,.8-1.019" transform="translate(-0.094 -81.197)" fill="#b1b2b4"/>
    <path id="Path_10694" data-name="Path 10694" d="M190.592,90.3,189.3,89.018c-.164-.163-.327-.328-.492-.49a.14.14,0,0,1-.011-.22,4.7,4.7,0,0,0,.62-.91,9.468,9.468,0,0,0,.472-1.015,5.716,5.716,0,0,0,.3-1.466c.007-.1.049-.136.151-.136.656,0,1.312,0,1.968,0,.188,0,.373-.023.559-.027a9.635,9.635,0,0,1-.227,1.675,8.924,8.924,0,0,1-.923,2.316,8.652,8.652,0,0,1-1.129,1.551" transform="translate(-168.466 -75.65)" fill="#b1b2b4"/>
    <path id="Path_10695" data-name="Path 10695" d="M96.319.047c-.054.846-.013,1.693-.023,2.539,0,.111-.052.155-.151.159s-.168.018-.251.024a5.127,5.127,0,0,0-1.347.319,5.566,5.566,0,0,0-1.5.8,2.188,2.188,0,0,0-.267.213c-.12.123-.147.118-.269,0-.464-.464-.926-.929-1.392-1.39-.119-.118-.248-.224-.373-.336a7.307,7.307,0,0,1,1.438-1.1,8.311,8.311,0,0,1,1.7-.765,11.334,11.334,0,0,1,1.3-.329A5.18,5.18,0,0,1,95.9.094c.1-.006.2-.02.3-.03a.059.059,0,0,0,.06-.013l.052,0" transform="translate(-80.997 -0.042)" fill="#b1b2b4"/>
    <path id="Path_10696" data-name="Path 10696" d="M154.855,2.5c-.114.118-.227.239-.343.355q-.7.7-1.4,1.4c-.128.128-.125.124-.266.01a6.965,6.965,0,0,0-.85-.594,5.728,5.728,0,0,0-1.227-.527,5.14,5.14,0,0,0-1.249-.241c-.173-.008-.186-.024-.186-.2q0-1.13,0-2.26a.783.783,0,0,1,.028-.224,6.484,6.484,0,0,1,1.564.205,12.232,12.232,0,0,1,1.223.394c.316.111.6.272.907.407a6.348,6.348,0,0,1,1.05.667,6.741,6.741,0,0,1,.748.605" transform="translate(-133.289 -0.195)" fill="#b1b2b4"/>
    <path id="Path_10697" data-name="Path 10697" d="M26.692,190.591c.011-.1.112-.12.168-.179q.481-.5.97-1c.211-.214.428-.421.645-.629a.085.085,0,0,1,.128-.006c.132.1.264.2.392.312a4.042,4.042,0,0,0,.691.425,5.132,5.132,0,0,0,1.167.476,2.622,2.622,0,0,0,.55.144,4.135,4.135,0,0,0,.684.083c.08-.01.114.035.122.107,0,.031,0,.062,0,.094,0,.58,0,1.16,0,1.739a4.108,4.108,0,0,1-.026.732,5.3,5.3,0,0,1-1.271-.168,8.062,8.062,0,0,1-1.451-.416,10.108,10.108,0,0,1-1.021-.463,6.477,6.477,0,0,1-.656-.377c-.223-.148-.423-.329-.642-.484a2.19,2.19,0,0,1-.45-.39" transform="translate(-23.824 -168.467)" fill="#b1b2b4"/>
    <path id="Path_10698" data-name="Path 10698" d="M192.921,32.355c-.841.062-1.684.012-2.526.03-.087,0-.14-.009-.147-.115a4.988,4.988,0,0,0-.126-.853,6.218,6.218,0,0,0-.6-1.578,6.623,6.623,0,0,0-.685-1,.153.153,0,0,1,.014-.241c.533-.527,1.061-1.058,1.591-1.588a.4.4,0,0,1,.187-.121,7.606,7.606,0,0,1,.8,1.007,5.56,5.56,0,0,1,.405.648,10.155,10.155,0,0,1,.684,1.612c.08.249.144.5.2.755a5.806,5.806,0,0,1,.119.742q.036.35.07.7" transform="translate(-168.503 -24.001)" fill="#b1b2b4"/>
    <path id="Path_10699" data-name="Path 10699" d="M84.795,192.848c.055-.837.013-1.675.023-2.512,0-.116.04-.155.154-.161a5.422,5.422,0,0,0,1.468-.3,4.541,4.541,0,0,0,.886-.387,5.334,5.334,0,0,0,1.056-.727c.093-.091.152-.064.22.012.491.548,1.035,1.045,1.548,1.572.061.063.129.12.194.179a7.664,7.664,0,0,1-1.521,1.139,8.464,8.464,0,0,1-.928.467,8.779,8.779,0,0,1-1.514.49,7.925,7.925,0,0,1-1.5.21l-.035.013h-.052" transform="translate(-75.684 -168.429)" fill="#b1b2b4"/>
    <path id="Path_10700" data-name="Path 10700" d="M141.614.053a.059.059,0,0,1-.06.013.055.055,0,0,1,.06-.013" transform="translate(-126.344 -0.044)" fill="#fed92b"/>
    <path id="Path_10701" data-name="Path 10701" d="M85.281,227.138l.035-.013-.035.013" transform="translate(-76.117 -202.72)" fill="#fed92b"/>
  </g>
</svg>
