<svg id="Group_611" data-name="Group 611" xmlns="http://www.w3.org/2000/svg" xmlns:xlink="http://www.w3.org/1999/xlink" width="15" height="15" viewBox="0 0 15 15">
  <defs>
    <clipPath id="clip-path">
      <rect id="Rectangle_17158" data-name="Rectangle 17158" width="15" height="15" fill="#959595"/>
    </clipPath>
  </defs>
  <g id="Group_610" data-name="Group 610" clip-path="url(#clip-path)">
    <path id="Path_525" data-name="Path 525" d="M7.512,0A7.5,7.5,0,1,1,0,7.27,7.512,7.512,0,0,1,7.512,0m-.7,8.647-.043-.04L5.408,7.25c-.081-.081-.16-.165-.249-.238a.638.638,0,0,0-.727-.045.631.631,0,0,0-.281.678.849.849,0,0,0,.277.412c.628.626,1.261,1.246,1.878,1.882a.651.651,0,0,0,.979-.005,1.277,1.277,0,0,1,.091-.1L10.6,6.616c.233-.233.47-.463.7-.7a.6.6,0,0,0,.139-.689.586.586,0,0,0-.561-.388.7.7,0,0,0-.544.255Q8.615,6.824,6.892,8.545c-.029.029-.053.064-.084.1" transform="translate(0)" fill="#959595"/>
    <path id="Path_526" data-name="Path 526" d="M72.992,86.2c.031-.038.054-.073.084-.1q1.722-1.723,3.443-3.447a.7.7,0,0,1,.544-.255.586.586,0,0,1,.561.388.6.6,0,0,1-.139.689c-.233.233-.47.463-.7.7L73.559,87.4a1.279,1.279,0,0,0-.091.1.651.651,0,0,1-.979.005c-.617-.636-1.251-1.256-1.878-1.882a.849.849,0,0,1-.277-.412.631.631,0,0,1,.281-.678.638.638,0,0,1,.727.045c.088.073.167.157.249.238l1.358,1.357.043.04" transform="translate(-66.184 -77.558)" fill="#fff"/>
  </g>
</svg>
