<svg id="Group_7343" data-name="Group 7343" xmlns="http://www.w3.org/2000/svg" xmlns:xlink="http://www.w3.org/1999/xlink" width="18.917" height="18.899" viewBox="0 0 18.917 18.899">
  <defs>
    <clipPath id="clip-path">
      <rect id="Rectangle_17161" data-name="Rectangle 17161" width="18.917" height="18.899" fill="#b1b2b4"/>
    </clipPath>
  </defs>
  <g id="Group_7342" data-name="Group 7342" clip-path="url(#clip-path)">
    <path id="Path_1211" data-name="Path 1211" d="M62.4,4.883c-.974,0-1.949.011-2.923,0A1.719,1.719,0,0,1,57.744,3.1q0-1.484,0-2.967V0h-.079L53.92,0q-2.113,0-4.226,0a1.751,1.751,0,0,0-1.045.339,1.7,1.7,0,0,0-.715,1.441c0,1.259,0,2.518,0,3.777v.114a5.857,5.857,0,0,1,4.545,1.038A5.737,5.737,0,0,1,54.884,10.7a5.626,5.626,0,0,1-.843,3.991,5.9,5.9,0,0,1-6.073,2.731.434.434,0,0,0,0,.049A1.765,1.765,0,0,0,49.738,18.9q5.562,0,11.124,0a1.759,1.759,0,0,0,1.163-.412,1.789,1.789,0,0,0,.623-1.437q0-5.956,0-11.913c0-.253,0-.253-.249-.253m-7.816.7q-1.056,0-2.111,0a.337.337,0,0,1-.335-.287A.348.348,0,0,1,52.36,4.9a.433.433,0,0,1,.139-.02c.346,0,.693,0,1.039,0h1.039a.351.351,0,1,1,.006.7m1.121,2.242a.317.317,0,0,1,.27-.14h4.235a.35.35,0,0,1,0,.7q-1.056,0-2.112,0H55.983a.322.322,0,0,1-.308-.19.344.344,0,0,1,.03-.372m4.843,3.016a.332.332,0,0,1-.341.348c-.587,0-1.175,0-1.762,0H56.684a.322.322,0,0,1-.308-.19.344.344,0,0,1,.03-.372.317.317,0,0,1,.27-.14h3.535a.333.333,0,0,1,.337.352m-.38,3.152q-2.063,0-4.126,0a.366.366,0,0,1-.36-.178.345.345,0,0,1,.008-.364A.338.338,0,0,1,56,13.291c.7,0,1.393,0,2.09,0h2.079a.352.352,0,1,1,0,.7" transform="translate(-43.733 0)" fill="#b1b2b4"/>
    <path id="Path_1212" data-name="Path 1212" d="M10.507,77.135a5.23,5.23,0,0,1-5.358,5.173A5.248,5.248,0,1,1,5.36,71.814a5.246,5.246,0,0,1,5.146,5.321M5.6,76.045c0-.354,0-.708,0-1.062a.351.351,0,1,0-.7.009c0,.584,0,1.168,0,1.751a.356.356,0,0,1-.117.279q-.418.41-.825.831a.414.414,0,0,0-.107.185.341.341,0,0,0,.178.387.335.335,0,0,0,.413-.057c.16-.149.313-.306.468-.46q.291-.29.579-.582a.387.387,0,0,0,.112-.3c-.006-.328,0-.657,0-.985" transform="translate(0 -65.521)" fill="#b1b2b4"/>
    <path id="Path_1213" data-name="Path 1213" d="M167.932,2.8c.166.145.315.261.448.394q1.269,1.262,2.531,2.531c.26.261.515.527.769.793.057.059.1.129.166.211-.056,0-.09.008-.125.008-.9,0-1.8,0-2.693,0a1.059,1.059,0,0,1-1.1-1.084c-.006-.912,0-1.824,0-2.736,0-.025,0-.05.008-.116" transform="translate(-153.212 -2.552)" fill="#b1b2b4"/>
  </g>
</svg>
