<?xml version="1.0" encoding="utf-8"?>
<!-- Generator: Adobe Illustrator 27.6.1, SVG Export Plug-In . SVG Version: 6.00 Build 0)  -->
<svg version="1.1" id="Layer_1" xmlns="http://www.w3.org/2000/svg" xmlns:xlink="http://www.w3.org/1999/xlink" x="0px" y="0px"
	 viewBox="0 0 38 38" style="enable-background:new 0 0 38 38;" xml:space="preserve">
<style type="text/css">
	.st0{fill:#828282;}
</style>
<path class="st0" d="M19,0C8.5,0,0,8.5,0,19s8.5,19,19,19s19-8.5,19-19S29.5,0,19,0z M25.6,10.8H23c-1.6,0-2.2,1.6-2.2,3.3v2.3h4.7
	l-0.6,4.2h-4V32c-0.7,0.1-1.4,0.2-2.1,0.2c-0.8,0-1.6-0.1-2.4-0.2V20.7h-3.9v-4.2h3.9v-2.8c0-4.6,2.2-6.6,6-6.6
	c1.8,0,2.7,0.1,3.2,0.2V10.8z"/>
</svg>
