<svg xmlns="http://www.w3.org/2000/svg" width="17.504" height="17.504">
    <g data-name="Group 7507">
        <g data-name="Group 7336">
            <circle cx="8.752" cy="8.752" r="8.752" fill="#fc0000" data-name="Ellipse 180"/>
        </g>
        <g fill="#fff" stroke="#fff" stroke-width=".25" data-name="Group 7381">
            <path d="M12.189 6.621c.405-.424.768-.8 1.121-1.177a.582.582 0 0 1 .648-.231c.048.015.134-.037.181-.082.146-.139.278-.291.421-.433a.306.306 0 0 1 .457-.018l.033.03c.524.46.526.51.044 1.013a2.247 2.247 0 0 0-.2.211.186.186 0 0 0-.03.15.535.535 0 0 1-.173.623c-.093.086-.2.16-.277.224a.667.667 0 0 0 .031.077c.454.528.452.626-.028 1.132-.39.41-.779.823-1.176 1.226-.052.053-.156.054-.237.079a.65.65 0 0 1 .082-.226c.416-.448.841-.887 1.26-1.331.295-.313.275-.458-.1-.712-.306.321-.615.643-.922.967-.333.351-.672.7-.994 1.06a.577.577 0 0 0-.139.347c-.011 1.073-.006 2.146-.007 3.219a.747.747 0 0 1-.807.831q-3.287.008-6.573 0a.753.753 0 0 1-.806-.836V3.843a.758.758 0 0 1 .826-.839c1.55-.005 3.1 0 4.65 0a.681.681 0 0 1 .517.214q.99 1 1.991 1.993a.633.633 0 0 1 .206.5c-.005.274.001.557.001.91ZM9.622 3.25a1.228 1.228 0 0 0-.156-.024h-4.65a.539.539 0 0 0-.593.62v8.9c0 .429.2.631.627.632h6.506c.42 0 .608-.2.609-.623V9.826c0-.064-.006-.127-.009-.19l-.061-.043a1.669 1.669 0 0 1-.138.2c-.428.457-.855.915-1.293 1.361a1 1 0 0 1-.367.232c-.433.155-.873.293-1.312.431a1.275 1.275 0 0 1-.252.028 1.011 1.011 0 0 1 0-.269c.122-.473.255-.943.391-1.434H5.546a.65.65 0 0 1-.178-.006c-.042-.012-.108-.067-.1-.086a.2.2 0 0 1 .1-.122.47.47 0 0 1 .177-.009c1.11 0 2.221 0 3.331-.006a.51.51 0 0 0 .321-.139c.384-.385.753-.785 1.126-1.181.042-.044.078-.095.144-.175H5.573a.572.572 0 0 1-.3-.1c.019-.2.188-.12.3-.12 1.64 0 3.279 0 4.919-.008a.489.489 0 0 0 .315-.109c.36-.356.7-.728 1.052-1.1a.338.338 0 0 0 .106-.185c.01-.4 0-.8 0-1.219h-1.787a.507.507 0 0 1-.553-.537c-.008-.387 0-.775 0-1.163Zm4.48 3.754-1.032-.983-3.856 4.058 1.033.981Zm-4.256-3.6v1.579c0 .263.1.36.369.362h1.409a.937.937 0 0 0 .139-.021Zm3.393 2.468 1 .953c.122-.117.233-.215.335-.323a.284.284 0 0 0-.009-.448q-.152-.147-.306-.293c-.5-.473-.483-.522-1.009.076a.185.185 0 0 0-.014.039Zm-4.128 4.417-.349 1.3 1.27-.418Zm5.56-4.449.586-.629c-.14-.133-.253-.252-.379-.353a.171.171 0 0 0-.165 0c-.176.168-.34.348-.515.531Z"
                  data-name="Path 8099"/>
            <path d="M8.106 6.465h2.547a.586.586 0 0 1 .177.007c.04.013.092.063.093.1a.144.144 0 0 1-.084.107.671.671 0 0 1-.2.011H5.545a.112.112 0 0 1-.044 0c-.082-.039-.164-.08-.245-.12a.708.708 0 0 1 .235-.1c.872-.007 1.743-.005 2.615-.005Z"
                  data-name="Path 8100"/>
            <path d="M6.927 4.949H5.451c-.065 0-.129-.062-.194-.1.066-.041.131-.118.2-.118q1.465-.012 2.929 0c.064 0 .127.08.191.122-.064.032-.129.09-.194.092-.487.007-.972.004-1.456.004Z"
                  data-name="Path 8101"/>
            <path d="M6.336 11.876c-.3 0-.6.006-.894-.005-.063 0-.124-.071-.186-.109.062-.036.123-.1.185-.1q.894-.012 1.789 0c.062 0 .123.067.184.1-.061.038-.121.108-.184.11-.297.011-.596.004-.894.004Z"
                  data-name="Path 8102"/>
        </g>
    </g>
</svg>