<svg xmlns="http://www.w3.org/2000/svg" width="13.941" height="13.941" viewBox="0 0 13.941 13.941">
  <path id="Icon_ionic-ios-close-circle" data-name="Icon ionic-ios-close-circle" d="M10.346,3.375a6.971,6.971,0,1,0,6.971,6.971A6.97,6.97,0,0,0,10.346,3.375Zm1.766,9.494L10.346,11.1,8.58,12.869a.536.536,0,1,1-.757-.757l1.766-1.766L7.822,8.579a.536.536,0,0,1,.757-.757l1.766,1.766,1.766-1.766a.536.536,0,1,1,.757.757L11.1,10.346l1.766,1.766a.538.538,0,0,1,0,.757A.532.532,0,0,1,12.112,12.869Z" transform="translate(-3.375 -3.375)" fill="#f84960"/>
</svg>
