<svg xmlns="http://www.w3.org/2000/svg" width="9.421" height="13.703" viewBox="0 0 9.421 13.703">
  <path id="Icon_awesome-lightbulb" data-name="Icon awesome-lightbulb" d="M2.571,12.16a.857.857,0,0,0,.143.473l.457.688a.856.856,0,0,0,.713.382H5.536a.856.856,0,0,0,.713-.382l.457-.688a.856.856,0,0,0,.143-.473V11.134H2.57ZM0,4.71a4.684,4.684,0,0,0,1.166,3.1,7.691,7.691,0,0,1,1.4,2.448l0,.021H6.855l0-.021a7.691,7.691,0,0,1,1.4-2.448A4.709,4.709,0,1,0,0,4.71ZM4.71,2.569A2.144,2.144,0,0,0,2.569,4.71a.428.428,0,0,1-.856,0,3,3,0,0,1,3-3,.428.428,0,1,1,0,.856Z" transform="translate(0 0)"/>
</svg>
