<svg width="14" height="14" viewBox="0 0 14 14" fill="none" xmlns="http://www.w3.org/2000/svg">
<g clip-path="url(#clip0_180_14)">
<mask id="mask0_180_14" style="mask-type:luminance" maskUnits="userSpaceOnUse" x="0" y="0" width="14" height="14">
<path d="M14 0H0V14H14V0Z" fill="white"/>
</mask>
<g mask="url(#mask0_180_14)">
<path d="M7 0C8.38447 0 9.73785 0.410543 10.889 1.17971C12.0401 1.94888 12.9373 3.04213 13.4672 4.32122C13.997 5.6003 14.1356 7.00777 13.8655 8.36563C13.5954 9.7235 12.9287 10.9708 11.9497 11.9497C10.9708 12.9287 9.7235 13.5954 8.36563 13.8655C7.00777 14.1356 5.6003 13.997 4.32122 13.4672C3.04213 12.9373 1.94888 12.0401 1.17971 10.889C0.410543 9.73785 0 8.38447 0 7C0 5.14348 0.737498 3.36301 2.05025 2.05025C3.36301 0.737498 5.14348 0 7 0Z" fill="white"/>
<path d="M7.00101 2.302C7.48162 2.302 7.95144 2.44452 8.35105 2.71153C8.75066 2.97854 9.06212 3.35806 9.24604 3.80208C9.42996 4.24611 9.47808 4.7347 9.38432 5.20607C9.29056 5.67745 9.05912 6.11043 8.71928 6.45027C8.37944 6.79011 7.94646 7.02155 7.47508 7.11531C7.00371 7.20907 6.51512 7.16095 6.07109 6.97703C5.62707 6.79311 5.24755 6.48165 4.98054 6.08204C4.71353 5.68243 4.57101 5.21261 4.57101 4.732C4.57312 4.08817 4.82982 3.47132 5.28507 3.01606C5.74033 2.56081 6.35719 2.30411 7.00101 2.302ZM7.00101 14.002C5.96432 14.001 4.94104 13.7676 4.00651 13.3188C3.07197 12.8701 2.24997 12.2174 1.60101 11.409C1.64001 9.789 5.37801 8.897 7.00101 8.897C8.62401 8.897 12.282 9.932 12.321 11.552C11.6787 12.3376 10.8657 12.9663 9.94381 13.3903C9.02193 13.8144 8.01547 14.0225 7.00101 13.999V14.002Z" fill="#F0B90B"/>
</g>
</g>
<defs>
<clipPath id="clip0_180_14">
<rect width="14" height="14" fill="white"/>
</clipPath>
</defs>
</svg>
