<svg id="Group_12774" data-name="Group 12774" xmlns="http://www.w3.org/2000/svg" width="8.152" height="8.152" viewBox="0 0 8.152 8.152">
  <circle id="Ellipse_188" data-name="Ellipse 188" cx="4.076" cy="4.076" r="4.076" transform="translate(0 0)" fill="#00b389"/>
  <g id="Group_7358" data-name="Group 7358" transform="translate(1.747 2.099)">
    <path id="Path_8062" data-name="Path 8062" d="M210.974,456.752a.494.494,0,0,1,.354.148l.774.706c.118.108.157.108.262-.011l2.467-2.788.062-.07a.135.135,0,0,1,.2-.027.132.132,0,0,1,.019.194q-.255.408-.509.818-1.005,1.619-2.01,3.238a.472.472,0,0,1-.422.253.417.417,0,0,1-.335-.157q-.621-.758-1.238-1.519a.483.483,0,0,1,.376-.785Z" transform="translate(-210.488 -454.676)" fill="#fff"/>
  </g>
</svg>
