<svg xmlns="http://www.w3.org/2000/svg" width="11.483" height="13.909" viewBox="0 0 11.483 13.909">
  <g id="Group_7346" data-name="Group 7346" transform="translate(-95.07 -604.759)">
    <path id="Subtraction_5" data-name="Subtraction 5" d="M18499.922-1383.359h-7.633a.772.772,0,0,1-.889-.868q0-1.842,0-3.687t0-3.687c0-.192.045-.242.217-.242h.025c.25.005.52.008.852.008h.566l.568,0a1.066,1.066,0,0,0,1.17-1.165v-.54c0-.573,0-1.033,0-1.448,0-.1,0-.161.041-.2a.258.258,0,0,1,.191-.05c1.059.009,2.107.01,2.992.01h2a.732.732,0,0,1,.8.794v10.2C18500.813-1383.622,18500.545-1383.359,18499.922-1383.359Zm-6.162-3.2c-.277,0-.426.119-.432.344s.168.348.432.348c.4,0,.8,0,1.2,0s.8,0,1.2,0a.5.5,0,0,0,.365-.129.324.324,0,0,0,.09-.229c-.014-.212-.178-.334-.449-.334Zm.826-1.089h1.672c.822,0,1.672,0,2.512,0,.258,0,.418-.135.418-.353s-.154-.344-.4-.344c-1.68,0-3.389,0-5.041,0a.427.427,0,0,0-.275.079.318.318,0,0,0-.125.367.388.388,0,0,0,.408.26Zm-.846-2.6a.4.4,0,0,0-.2.043.336.336,0,0,0-.209.33.325.325,0,0,0,.246.306,1.136,1.136,0,0,0,.283.028c.8,0,1.613,0,2.4,0s1.588,0,2.377,0h.117a.527.527,0,0,0,.143-.016.325.325,0,0,0,.293-.316.346.346,0,0,0-.273-.362.434.434,0,0,0-.129-.016h-5.045Z" transform="translate(-18395.826 2000.499)" fill="#040505" stroke="rgba(0,0,0,0)" stroke-miterlimit="10" stroke-width="1"/>
    <path id="Path_8076" data-name="Path 8076" d="M119.681,625.565c0,1.665-.011,3.33.006,4.995a.844.844,0,0,1-.942.937c-2.536-.021-5.072-.008-7.608-.008a.8.8,0,0,1-.874-.983c.018-.171.125-.112.2-.113q1.66,0,3.321,0c1.142,0,2.284-.026,3.425.009a1.258,1.258,0,0,0,1.335-1.344c-.026-3.06-.008-6.119-.016-9.179,0-.218.05-.275.269-.269.591.016.879.29.88.884Q119.682,623.028,119.681,625.565Z" transform="translate(-13.134 -12.829)" fill="#050605"/>
    <path id="Path_8077" data-name="Path 8077" d="M98.743,606.77c0,.322,0,.645,0,.967a.623.623,0,0,1-.631.655c-.653.012-1.306,0-1.959,0a.337.337,0,0,1-.338-.2.32.32,0,0,1,.094-.378q1.126-1.128,2.254-2.254a.32.32,0,0,1,.4-.105.349.349,0,0,1,.187.367C98.739,606.143,98.743,606.457,98.743,606.77Z" transform="translate(-0.194 -0.15)" fill="#050605"/>
  </g>
</svg>
