<svg id="Group_608" data-name="Group 608" xmlns="http://www.w3.org/2000/svg" xmlns:xlink="http://www.w3.org/1999/xlink" width="22.976" height="26.635" viewBox="0 0 22.976 26.635">
  <defs>
    <clipPath id="clip-path">
      <rect id="Rectangle_17153" data-name="Rectangle 17153" width="22.976" height="26.635" fill="#b1b2b4"/>
    </clipPath>
  </defs>
  <g id="Group_607" data-name="Group 607" clip-path="url(#clip-path)">
    <path id="Path_522" data-name="Path 522" d="M13.7,138.554H33.6c.174,0,.173,0,.173.17q0,4.988,0,9.975a1.816,1.816,0,0,1-.24,1,1.618,1.618,0,0,1-1.423.8c-.826.011-1.652,0-2.478,0H15.371a1.642,1.642,0,0,1-1.645-1.349,2.585,2.585,0,0,1-.033-.474q0-5.021,0-10.041c0-.021,0-.042.005-.081m10.033,7.271v0H19.64a2.534,2.534,0,0,0-.291,0,.408.408,0,0,0-.361.379.4.4,0,0,0,.306.434,1.44,1.44,0,0,0,.328.03q3.807,0,7.615-.006c.256,0,.512,0,.768,0a.446.446,0,0,0,.347-.135.42.42,0,0,0-.356-.707H23.732m-.008-2.617h4.318a.4.4,0,0,0,.429-.391.413.413,0,0,0-.387-.435c-.11-.01-.22-.016-.331-.016h-8.12a2.07,2.07,0,0,0-.238.015.417.417,0,0,0-.41.442.407.407,0,0,0,.459.385h4.278" transform="translate(-12.242 -123.866)" fill="#b1b2b4"/>
    <path id="Path_523" data-name="Path 523" d="M11.482,89.95H1.44a1.33,1.33,0,0,1-1.43-1.379c-.015-.713-.012-1.427.005-2.14a1.32,1.32,0,0,1,1.3-1.291c.141-.005.283-.007.424-.007q9.8,0,19.6,0a2.425,2.425,0,0,1,.742.088,1.2,1.2,0,0,1,.879,1.152c.03.782.027,1.568,0,2.35a1.32,1.32,0,0,1-1.339,1.222c-.318,0-.636,0-.954,0H11.482" transform="translate(0 -76.108)" fill="#b1b2b4"/>
    <path id="Path_524" data-name="Path 524" d="M63.947,8.179c-.037-.138-.013-.21.129-.269a1.522,1.522,0,0,0,1.016-1.416,1.593,1.593,0,0,0-1.473-1.61c-.075-.006-.15-.01-.224-.02a.73.73,0,0,1-.628-.681.747.747,0,0,1,.581-.74.709.709,0,0,1,.809.4,1.351,1.351,0,0,1,.091.355.4.4,0,0,0,.379.372.394.394,0,0,0,.441-.315,1.474,1.474,0,0,0-.042-.532,1.5,1.5,0,0,0-.963-1.047A.167.167,0,0,1,63.93,2.5a.393.393,0,0,0-.39-.4.4.4,0,0,0-.447.37.21.21,0,0,1-.166.22,1.585,1.585,0,0,0-1,1.508,1.631,1.631,0,0,0,1.233,1.49,2.385,2.385,0,0,0,.368.039.764.764,0,0,1,.716.717.771.771,0,0,1-.685.737.743.743,0,0,1-.76-.619c-.01-.061-.02-.122-.029-.182a.412.412,0,0,0-.387-.352.418.418,0,0,0-.435.315,1.27,1.27,0,0,0,.232.95,1.638,1.638,0,0,0,.8.65.222.222,0,0,1,.108.125c.028.078-.011.119-.1.118-.216,0-.433,0-.649,0-1.029,0-2.058,0-3.087,0a.3.3,0,0,1-.3-.176,5.252,5.252,0,0,1-.479-4.388A5.173,5.173,0,0,1,60.4,1a5.064,5.064,0,0,1,3.133-1,5.269,5.269,0,0,1,5.222,4.484,5.2,5.2,0,0,1-.7,3.564.242.242,0,0,1-.231.139q-1.888,0-3.776,0c-.03,0-.061,0-.1-.007" transform="translate(-52.02 0)" fill="#b1b2b4"/>
  </g>
</svg>
