<svg xmlns="http://www.w3.org/2000/svg" width="14.276" height="14.276" viewBox="0 0 14.276 14.276">
  <path id="Subtraction_3" data-name="Subtraction 3" d="M7.138,14.274a7.138,7.138,0,1,1,7.138-7.138A7.146,7.146,0,0,1,7.138,14.274ZM3.029,9.72h0a4.775,4.775,0,0,0,2.588.754,4.746,4.746,0,0,0,4.79-4.794c0-.074,0-.145,0-.219a3.589,3.589,0,0,0,.844-.872,3.289,3.289,0,0,1-.971.261,1.67,1.67,0,0,0,.741-.928,3.226,3.226,0,0,1-1.07.406A1.685,1.685,0,0,0,7.035,5.484a1.856,1.856,0,0,0,.039.385A4.8,4.8,0,0,1,3.6,4.107a1.685,1.685,0,0,0,.522,2.252,1.7,1.7,0,0,1-.76-.212v.018A1.7,1.7,0,0,0,4.712,7.821a1.843,1.843,0,0,1-.441.057,2.447,2.447,0,0,1-.321-.025A1.7,1.7,0,0,0,5.527,9.021a3.371,3.371,0,0,1-2.093.717A3.761,3.761,0,0,1,3.029,9.72Z" transform="translate(0.001 0.002)" fill="#a7a7a7"/>
</svg>
