<svg id="Group_7341" data-name="Group 7341" xmlns="http://www.w3.org/2000/svg" xmlns:xlink="http://www.w3.org/1999/xlink" width="16.528" height="18.898" viewBox="0 0 16.528 18.898">
  <defs>
    <clipPath id="clip-path">
      <rect id="Rectangle_17160" data-name="Rectangle 17160" width="16.528" height="18.898" fill="#b1b2b4"/>
    </clipPath>
  </defs>
  <g id="Group_7341-2" data-name="Group 7341" clip-path="url(#clip-path)">
    <path id="Path_1208" data-name="Path 1208" d="M.006,157.024a5.068,5.068,0,0,0,1.443.078q7.212.007,14.425,0c.213,0,.426-.033.65-.052,0,.014,0,.049,0,.084q0,3.289,0,6.579a.581.581,0,0,1-.568.584H.622A.555.555,0,0,1,.1,164.02.723.723,0,0,1,0,163.689Q0,160.395,0,157.1c0-.024,0-.048.005-.077" transform="translate(0 -145.4)" fill="#b1b2b4"/>
    <path id="Path_1209" data-name="Path 1209" d="M59.732,7.12q-2.024,0-4.048,0c-.083,0-.1-.027-.1-.106q.008-3.044.011-6.088c0-.12,0-.24,0-.36A.561.561,0,0,1,56.152,0h7.1a.65.65,0,0,1,.368.1.515.515,0,0,1,.246.411c.006.095,0,.191,0,.286q0,2.938,0,5.876c0,.12,0,.24.01.36,0,.062-.016.091-.082.089-.117,0-.234,0-.35,0H59.732Zm-.6-3.16c-.07-.075-.128-.139-.188-.2-.2-.2-.4-.414-.614-.611a.555.555,0,0,0-.911.254.587.587,0,0,0,.19.608c.366.364.729.731,1.1,1.093a.566.566,0,0,0,.875-.007q1.137-1.138,2.275-2.275a.841.841,0,0,0,.129-.155.541.541,0,0,0,0-.593.531.531,0,0,0-.517-.255.669.669,0,0,0-.441.242L59.408,3.677c-.089.089-.176.179-.277.283" transform="translate(-51.468)" fill="#b1b2b4"/>
    <path id="Path_1210" data-name="Path 1210" d="M8.395,69.92H.888a1.962,1.962,0,0,1-.276-.008.531.531,0,0,1-.444-.679c.141-.585.29-1.167.436-1.751q.366-1.465.734-2.929a.555.555,0,0,1,.627-.483c.36,0,.719,0,1.079,0,.078,0,.1.017.1.1q-.006,1.084,0,2.168c0,.079-.023.106-.1.111a.547.547,0,0,0-.005,1.089c.1.009.2.008.3.008H13.406a2.955,2.955,0,0,0,.349-.006.55.55,0,0,0-.007-1.086c-.08-.008-.092-.038-.092-.108q0-1.1,0-2.205c0-.066.034-.07.08-.07h1.153a.536.536,0,0,1,.563.424c.108.4.2.8.3,1.2.288,1.152.572,2.305.867,3.456a.569.569,0,0,1-.543.766H8.395" transform="translate(-0.138 -59.325)" fill="#b1b2b4"/>
  </g>
</svg>
