<svg xmlns="http://www.w3.org/2000/svg" width="14.275" height="14.275" viewBox="0 0 14.275 14.275">
  <path id="web" d="M7.138,14.275a7.138,7.138,0,1,1,7.138-7.138A7.146,7.146,0,0,1,7.138,14.275ZM8.45,10.932a4.037,4.037,0,0,0,2.307-2.057H9.122a7.292,7.292,0,0,1-.4,1.5A4.267,4.267,0,0,1,8.45,10.932ZM3.518,8.875a4.037,4.037,0,0,0,2.307,2.057,4.274,4.274,0,0,1-.27-.56,7.29,7.29,0,0,1-.4-1.5ZM5.825,3.343A4.037,4.037,0,0,0,3.518,5.4H5.153a7.29,7.29,0,0,1,.4-1.5,4.267,4.267,0,0,1,.27-.56Zm1.312-.22c-.293,0-.636.4-.9,1.054A6.4,6.4,0,0,0,5.9,5.4H8.373a6.4,6.4,0,0,0-.339-1.223C7.774,3.527,7.43,3.123,7.138,3.123ZM3.123,7.138a4.009,4.009,0,0,0,.126,1H5.06c-.029-.325-.045-.659-.045-1s.016-.674.045-1H3.248a4.009,4.009,0,0,0-.126,1Zm2.678,1H8.475c.031-.323.047-.657.047-1s-.016-.676-.047-1H5.8c-.031.323-.047.657-.047,1S5.769,7.813,5.8,8.136Zm1.337,3.016c.293,0,.636-.4.9-1.054a6.4,6.4,0,0,0,.339-1.223H5.9A6.4,6.4,0,0,0,6.241,10.1C6.5,10.748,6.845,11.152,7.138,11.152Zm4.015-4.015a4.009,4.009,0,0,0-.126-1H9.216c.029.325.045.659.045,1s-.016.674-.045,1h1.811A4.009,4.009,0,0,0,11.152,7.138Zm-.4-1.737A4.037,4.037,0,0,0,8.45,3.343a4.273,4.273,0,0,1,.27.56,7.289,7.289,0,0,1,.4,1.5h1.635Zm1.134,1.737A4.753,4.753,0,1,1,7.138,2.384,4.759,4.759,0,0,1,11.891,7.138Z" fill="#a7a7a7" fill-rule="evenodd"/>
</svg>
