<svg width="20" height="21" viewBox="0 0 20 21" fill="none" xmlns="http://www.w3.org/2000/svg">
<path d="M13.3337 11.2501V14.7501C13.3337 17.6667 12.167 18.8334 9.25033 18.8334H5.75033C2.83366 18.8334 1.66699 17.6667 1.66699 14.7501V11.2501C1.66699 8.33341 2.83366 7.16675 5.75033 7.16675H9.25033C12.167 7.16675 13.3337 8.33341 13.3337 11.2501Z" fill="#474EFF"/>
<path opacity="0.4" d="M14.2498 2.16675H10.7498C7.8748 2.16675 6.70814 3.30841 6.6748 6.12508H9.2498C12.7498 6.12508 14.3748 7.75008 14.3748 11.2501V13.8251C17.1915 13.7917 18.3331 12.6251 18.3331 9.75008V6.25008C18.3331 3.33341 17.1665 2.16675 14.2498 2.16675Z" fill="#474EFF"/>
</svg>
