<svg width="79" height="45" viewBox="0 0 79 45" fill="none" xmlns="http://www.w3.org/2000/svg">
<path d="M0.734375 16C0.734375 7.16344 7.89782 0 16.7344 0H62.2651C71.1016 0 78.2651 7.16344 78.2651 16V28.6418C78.2651 37.4784 71.1016 44.6418 62.2651 44.6418H16.7344C7.89781 44.6418 0.734375 37.4784 0.734375 28.6418V16Z" fill="#EB5757"/>
<path d="M48.6444 15.4952C47.0212 15.3339 45.3979 15.2129 43.7646 15.1222V15.1121L43.5428 13.8014C43.3916 12.8738 43.1698 11.4825 40.8105 11.4825H38.169C35.8198 11.4825 35.598 12.8133 35.4367 13.7913L35.2249 15.0818C34.2873 15.1423 33.3496 15.2028 32.412 15.2936L30.3552 15.4952C29.9318 15.5356 29.6293 15.9086 29.6696 16.322C29.7099 16.7353 30.0729 17.0378 30.4964 16.9975L32.5531 16.7958C37.8363 16.2716 43.1597 16.4732 48.5033 17.0076C48.5335 17.0076 48.5537 17.0076 48.5839 17.0076C48.9671 17.0076 49.2998 16.7152 49.3401 16.322C49.3704 15.9086 49.0679 15.5356 48.6444 15.4952Z" fill="white"/>
<path d="M46.789 18.4292C46.547 18.1771 46.2143 18.0359 45.8715 18.0359H33.1275C32.7848 18.0359 32.442 18.1771 32.2101 18.4292C31.9782 18.6812 31.8471 19.024 31.8673 19.3769L32.4924 29.7213C32.6033 31.2538 32.7444 33.1694 36.2631 33.1694H42.7359C46.2547 33.1694 46.3958 31.2639 46.5067 29.7213L47.1318 19.387C47.152 19.024 47.0209 18.6812 46.789 18.4292ZM41.1732 28.1182H37.8158C37.4024 28.1182 37.0596 27.7754 37.0596 27.362C37.0596 26.9487 37.4024 26.6059 37.8158 26.6059H41.1732C41.5866 26.6059 41.9294 26.9487 41.9294 27.362C41.9294 27.7754 41.5866 28.1182 41.1732 28.1182ZM42.0201 24.0853H36.979C36.5656 24.0853 36.2228 23.7425 36.2228 23.3291C36.2228 22.9158 36.5656 22.573 36.979 22.573H42.0201C42.4335 22.573 42.7763 22.9158 42.7763 23.3291C42.7763 23.7425 42.4335 24.0853 42.0201 24.0853Z" fill="white"/>
</svg>
