<svg width="28" height="29" viewBox="0 0 28 29" fill="none" xmlns="http://www.w3.org/2000/svg">
<path d="M13.75 1.7C6.68076 1.7 0.95 7.43076 0.95 14.5C0.95 21.5692 6.68076 27.3 13.75 27.3C20.8192 27.3 26.55 21.5692 26.55 14.5C26.55 7.43076 20.8192 1.7 13.75 1.7Z" fill="#474EFF"/>
<path d="M13.75 1.7C6.68076 1.7 0.95 7.43076 0.95 14.5C0.95 21.5692 6.68076 27.3 13.75 27.3C20.8192 27.3 26.55 21.5692 26.55 14.5C26.55 7.43076 20.8192 1.7 13.75 1.7Z" stroke="#0A0A0B" stroke-width="1.6"/>
<path d="M16.5293 8.84181L16.5293 8.84181L16.5309 8.84024C17.0923 8.27881 17.5698 8.07438 17.9803 8.07668C18.3918 8.07899 18.8627 8.28966 19.409 8.83879C19.9647 9.40075 20.1706 9.87474 20.1706 10.2934C20.1706 10.702 19.968 11.1622 19.4104 11.7198L19.4088 11.7214L18.7715 12.3645C17.4133 11.9275 16.3232 10.8374 15.8862 9.47921L16.5293 8.84181Z" fill="white" stroke="white"/>
<path fill-rule="evenodd" clip-rule="evenodd" d="M15.3677 8.5H10.764C8.46398 8.5 7.08398 9.87333 7.08398 12.18V17.48C7.08398 19.7933 8.46398 21.1667 10.764 21.1667H16.064C18.3707 21.1667 19.744 19.7933 19.744 17.4867V12.8454L19.083 13.4172C19.0447 13.45 18.9963 13.474 18.944 13.4875V17.4867C18.944 18.4812 18.651 19.1783 18.2033 19.626C17.7556 20.0737 17.0585 20.3667 16.064 20.3667H10.764C9.77336 20.3667 9.07603 20.074 8.62717 19.6251C8.17837 19.1763 7.88398 18.4774 7.88398 17.48V12.18C7.88398 11.1865 8.178 10.4893 8.6268 10.0411C9.07576 9.59268 9.77334 9.3 10.764 9.3H14.4263L15.336 8.52696C15.3466 8.51792 15.3571 8.50893 15.3677 8.5Z" fill="white"/>
<path d="M16.9349 13.5145C17.1082 13.6226 17.2911 13.7142 17.4661 13.7987L14.3075 16.9572L14.3075 16.9572L14.3036 16.9612C14.2267 17.0403 14.0987 17.1313 13.9452 17.2088C13.7919 17.2861 13.6426 17.3352 13.5341 17.3507C13.534 17.3507 13.5339 17.3507 13.5338 17.3507L11.5643 17.6293C11.4929 17.6357 11.4403 17.6401 11.3904 17.6401C11.1494 17.6401 10.9557 17.5597 10.8199 17.4239C10.6646 17.2686 10.5742 17.0092 10.6197 16.6902C10.6197 16.6901 10.6197 16.69 10.6197 16.69L10.9063 14.7039L10.9064 14.7033C10.9216 14.5967 10.9713 14.4481 11.0502 14.2932C11.1288 14.1389 11.221 14.0085 11.2999 13.9296L14.4606 10.7689C14.5435 10.9474 14.6341 11.1211 14.7385 11.2955C14.8193 11.4366 14.9103 11.5785 14.9953 11.6892C15.0816 11.8262 15.1775 11.9507 15.2533 12.0379C15.2977 12.1077 15.3432 12.1576 15.3678 12.183C15.5768 12.4313 15.8053 12.6681 16.0297 12.8515C16.0561 12.8774 16.0812 12.9007 16.1039 12.9203C16.1045 12.9207 16.105 12.9212 16.1057 12.9218C16.1149 12.9298 16.1365 12.9485 16.1647 12.9682C16.271 13.0569 16.4008 13.1646 16.5248 13.244C16.6592 13.3424 16.7983 13.4325 16.9349 13.5145Z" stroke="white" stroke-width="0.8"/>
</svg>
