<svg width="132" height="132" viewBox="0 0 132 132" fill="none" xmlns="http://www.w3.org/2000/svg">
<circle cx="65.9992" cy="65.9997" r="57.5002" fill="url(#paint0_radial_742_21892)"/>
<circle cx="66" cy="66" r="66" fill="url(#paint1_radial_742_21892)"/>
<path d="M91.9963 64.0213V91.3087C91.9944 92.1123 91.6744 92.8824 91.1062 93.4505C90.538 94.0187 89.7679 94.3388 88.9644 94.3407H42.2995C41.496 94.3388 40.7259 94.0187 40.1577 93.4505C39.5895 92.8824 39.2695 92.1123 39.2676 91.3087V64.0213C39.2672 63.6342 39.3419 63.2508 39.4877 62.8923C39.7164 62.3274 40.1093 61.844 40.6157 61.5048C41.122 61.1655 41.7185 60.986 42.3279 60.9893H88.9928C89.6025 60.985 90.1993 61.1642 90.7059 61.5036C91.2124 61.8429 91.6051 62.3268 91.833 62.8923C91.9594 63.2546 92.0149 63.638 91.9963 64.0213Z" fill="#0008F5"/>
<path opacity="0.3" d="M91.7758 62.8923L66.8742 83.562C66.5244 83.8505 66.085 84.0084 65.6316 84.0084C65.1781 84.0084 64.7388 83.8505 64.389 83.562L39.4873 62.8923C39.716 62.3273 40.109 61.844 40.6153 61.5048C41.1216 61.1655 41.7181 60.986 42.3275 60.9893H88.9924C89.5924 60.9963 90.1769 61.1807 90.6722 61.5194C91.1675 61.858 91.5515 62.3357 91.7758 62.8923Z" fill="#0A0A0B"/>
<path d="M73.7478 46.4331H48.9385V70.7312L64.3893 83.5619C64.7391 83.8505 65.1784 84.0083 65.6319 84.0083C66.0854 84.0083 66.5247 83.8505 66.8745 83.5619L82.3324 70.7312V51.865L73.7478 46.4331Z" fill="#FAFAFA"/>
<path d="M65.6324 84.4425C65.0764 84.4428 64.5382 84.2466 64.1129 83.8886L48.6621 71.0366C48.6135 70.9956 48.5743 70.9445 48.5474 70.8869C48.5204 70.8292 48.5062 70.7665 48.5059 70.7029V46.4332C48.5059 46.3183 48.5515 46.2081 48.6327 46.1269C48.714 46.0457 48.8241 46 48.939 46H73.7483C73.8286 45.9991 73.9075 46.0213 73.9756 46.0639L82.5956 51.4817C82.6578 51.5208 82.7088 51.5754 82.7436 51.6401C82.7785 51.7048 82.796 51.7774 82.7945 51.8509V70.7313C82.7941 70.7949 82.7799 70.8577 82.7529 70.9153C82.726 70.9729 82.6869 71.024 82.6382 71.065L67.1519 83.8886C66.7266 84.2466 66.1884 84.4428 65.6324 84.4425ZM49.365 70.5254L64.6667 83.2283C64.9382 83.4534 65.2797 83.5767 65.6324 83.5767C65.9851 83.5767 66.3267 83.4534 66.5981 83.2283L81.8998 70.5254V52.0639L73.585 46.8947H49.365V70.5254Z" fill="#0008F5"/>
<path d="M82.332 51.8511L73.7119 46.4263L76.5024 53.612L82.332 51.8511Z" fill="#EBEBFF"/>
<path d="M76.5027 54.045C76.4153 54.0442 76.3302 54.0174 76.2581 53.9681C76.1861 53.9188 76.1303 53.8492 76.0979 53.7681L73.3074 46.5823C73.2767 46.498 73.2729 46.4062 73.2966 46.3197C73.3203 46.2332 73.3703 46.1561 73.4397 46.0992C73.5091 46.0423 73.5944 46.0084 73.6839 46.0021C73.7734 45.9957 73.8627 46.0174 73.9393 46.064L82.5594 51.4817C82.6294 51.5267 82.6853 51.5906 82.7205 51.666C82.7556 51.7414 82.7688 51.8252 82.7582 51.9077C82.7476 51.9903 82.713 52.0679 82.6587 52.131C82.6045 52.1941 82.5329 52.2399 82.4529 52.2628L76.6234 53.9953C76.5868 54.0197 76.5458 54.0365 76.5027 54.045ZM74.5855 47.4912L76.7583 53.0793L81.2955 51.7089L74.5855 47.4912Z" fill="#0008F5"/>
<path d="M72.3916 69.4389H74.3514C73.638 70.6906 72.5776 71.7091 71.2981 72.3714C69.6183 73.2191 67.7542 73.6363 65.8733 73.5856C64.0946 73.6375 62.3272 73.2855 60.7041 72.556C59.3532 71.9453 58.267 70.8692 57.6437 69.5241C57.0365 68.156 56.7919 66.6544 56.9337 65.1643C57.0649 63.4487 57.6133 61.7912 58.5313 60.336C59.402 58.9053 60.6533 57.745 62.1455 56.9845C63.6897 56.2213 65.3935 55.8367 67.1159 55.8626C68.5202 55.8325 69.9111 56.1419 71.1703 56.7644C72.2813 57.3199 73.1812 58.2222 73.7336 59.3348C74.3006 60.4581 74.5463 61.7162 74.4437 62.9703C74.3253 64.5443 73.7028 66.0382 72.6685 67.2306C72.0996 67.9754 71.367 68.5793 70.5272 68.9955C69.6875 69.4117 68.7632 69.629 67.8259 69.6306C67.4309 69.6585 67.0367 69.5643 66.697 69.3608C66.5733 69.2671 66.4694 69.1499 66.3914 69.0158C66.3134 68.8817 66.2628 68.7335 66.2425 68.5797C65.5433 69.2462 64.6168 69.6219 63.6508 69.6306C63.1885 69.6476 62.7281 69.5615 62.3032 69.3785C61.8782 69.1955 61.4994 68.9202 61.194 68.5726C60.8716 68.1805 60.6349 67.7251 60.4992 67.2359C60.3634 66.7468 60.3317 66.2346 60.4059 65.7324C60.5119 64.2932 61.0405 62.9173 61.9254 61.7774C62.3576 61.1219 62.9429 60.5815 63.6308 60.203C64.3186 59.8244 65.0883 59.619 65.8733 59.6046C66.3404 59.5684 66.808 59.6669 67.2208 59.8884C67.6336 60.1099 67.9742 60.4451 68.2023 60.8543L68.5076 59.8318H70.9431L69.0401 66.4424C68.9542 66.7066 68.8901 66.9773 68.8484 67.2519C68.8276 67.3736 68.8557 67.4987 68.9265 67.5998C68.9573 67.6356 68.9954 67.6643 69.0383 67.6839C69.0812 67.7035 69.1279 67.7136 69.175 67.7134C69.6112 67.6539 70.0207 67.4688 70.3537 67.1809C71.0436 66.6862 71.6137 66.0433 72.0224 65.2992C72.4565 64.5522 72.7185 63.7178 72.7892 62.8567C72.8662 62.1643 72.7854 61.4636 72.553 60.8069C72.3206 60.1503 71.9425 59.5547 71.4472 59.065C70.3821 58.0519 68.8674 57.5454 66.9029 57.5454C65.4027 57.5071 63.9181 57.8568 62.5928 58.5608C61.3979 59.2218 60.4136 60.2062 59.7526 61.401C59.0842 62.5827 58.6819 63.8962 58.5739 65.2495C58.4555 66.4771 58.7025 67.7123 59.284 68.7998C59.8418 69.8531 60.7514 70.6773 61.8544 71.1288C63.1277 71.6332 64.49 71.8747 65.8591 71.8389C67.1633 71.8649 68.4618 71.6581 69.6934 71.2282C70.7281 70.8665 71.6558 70.2513 72.3916 69.4389ZM62.7206 65.6543C62.6206 66.2495 62.7418 66.8607 63.0615 67.3726C63.1929 67.5489 63.3646 67.6912 63.5622 67.7875C63.7599 67.8839 63.9777 67.9315 64.1976 67.9265C64.5472 67.9247 64.8911 67.8369 65.1987 67.6708C65.4648 67.5156 65.7045 67.3191 65.9088 67.0886C66.3273 66.6048 66.6545 66.0491 66.8745 65.4484C67.1523 64.8105 67.3249 64.1319 67.3857 63.4389C67.4742 62.8806 67.3473 62.3096 67.0307 61.8413C66.8934 61.6603 66.7147 61.5149 66.5096 61.4173C66.3045 61.3197 66.079 61.2728 65.852 61.2803C65.2888 61.2923 64.7501 61.5123 64.3396 61.8981C63.811 62.3706 63.4145 62.9726 63.1893 63.6448C62.9389 64.2891 62.7811 64.9657 62.7206 65.6543Z" fill="#0008F5"/>
<path d="M105.486 69C105.192 69 104.895 69 104.604 68.9637C104.564 68.9608 104.525 68.9499 104.489 68.9317C104.453 68.9134 104.421 68.8881 104.396 68.8573C104.37 68.8265 104.35 68.7908 104.339 68.7524C104.327 68.714 104.323 68.6736 104.327 68.6336C104.334 68.5532 104.373 68.4791 104.435 68.4272C104.497 68.3753 104.577 68.3498 104.657 68.3562C105.049 68.3925 105.443 68.4024 105.836 68.3859C105.916 68.385 105.993 68.415 106.052 68.4698C106.11 68.5245 106.145 68.5998 106.149 68.6798C106.152 68.7598 106.123 68.8376 106.069 68.8964C106.014 68.9551 105.939 68.99 105.859 68.9934C105.73 69 105.608 69 105.486 69ZM107.051 68.8746C106.974 68.8759 106.899 68.8478 106.842 68.796C106.784 68.7442 106.749 68.6726 106.743 68.5957C106.736 68.5188 106.76 68.4424 106.808 68.382C106.856 68.3215 106.925 68.2816 107.001 68.2704C107.389 68.207 107.771 68.1177 108.147 68.0029C108.223 67.9838 108.303 67.9947 108.371 68.0333C108.439 68.0718 108.489 68.1351 108.512 68.2099C108.534 68.2847 108.527 68.3654 108.492 68.4351C108.456 68.5047 108.396 68.5581 108.322 68.584C107.922 68.7073 107.513 68.8032 107.1 68.8713L107.051 68.8746ZM103.419 68.7887H103.359C102.951 68.7009 102.547 68.5907 102.151 68.4586C102.075 68.4322 102.012 68.3771 101.975 68.305C101.939 68.2328 101.932 68.1493 101.956 68.0723C101.982 67.996 102.038 67.9331 102.11 67.8973C102.182 67.8615 102.266 67.8555 102.342 67.8808C102.716 68.004 103.096 68.1055 103.482 68.1845C103.521 68.1924 103.558 68.208 103.591 68.2304C103.624 68.2528 103.653 68.2816 103.674 68.3152C103.696 68.3487 103.711 68.3862 103.718 68.4256C103.725 68.465 103.725 68.5054 103.716 68.5444C103.702 68.6121 103.666 68.6731 103.614 68.7176C103.561 68.762 103.494 68.7871 103.425 68.7887H103.419ZM109.362 68.1581C109.293 68.1583 109.226 68.1351 109.172 68.0922C109.118 68.0493 109.08 67.9893 109.065 67.922C109.049 67.8548 109.057 67.7843 109.087 67.7222C109.117 67.6601 109.168 67.6101 109.23 67.5803L109.441 67.478C109.477 67.4578 109.516 67.445 109.557 67.4405C109.598 67.436 109.639 67.4398 109.679 67.4517C109.718 67.4636 109.754 67.4833 109.786 67.5097C109.817 67.5361 109.843 67.5686 109.862 67.6053C109.88 67.6419 109.891 67.6819 109.894 67.7229C109.896 67.7639 109.891 67.8049 109.877 67.8437C109.863 67.8824 109.842 67.9179 109.814 67.9481C109.786 67.9783 109.753 68.0026 109.715 68.0194L109.491 68.1317C109.453 68.1513 109.411 68.1625 109.368 68.1647L109.362 68.1581ZM101.108 68.0293C101.063 68.029 101.019 68.0189 100.979 67.9996C100.602 67.824 100.235 67.6278 99.8794 67.4119C99.8454 67.3903 99.8159 67.3621 99.7928 67.329C99.7696 67.296 99.7532 67.2587 99.7445 67.2193C99.7357 67.1799 99.7349 67.1392 99.7419 67.0994C99.7489 67.0597 99.7636 67.0217 99.7853 66.9877C99.807 66.9536 99.8352 66.9242 99.8682 66.901C99.9013 66.8779 99.9386 66.8615 99.978 66.8527C100.017 66.844 100.058 66.8431 100.098 66.8501C100.138 66.8571 100.176 66.8719 100.21 66.8936C100.547 67.0972 100.895 67.2824 101.253 67.4482C101.314 67.479 101.363 67.5292 101.392 67.5908C101.421 67.6525 101.429 67.7222 101.414 67.7889C101.4 67.8555 101.363 67.9154 101.311 67.9589C101.258 68.0025 101.192 68.0272 101.124 68.0293H101.108ZM99.0276 66.7747C98.9625 66.7732 98.8993 66.7525 98.846 66.7153C98.5158 66.4709 98.1856 66.2035 97.8885 65.9196C97.859 65.8927 97.8351 65.8603 97.8181 65.8241C97.8012 65.788 97.7915 65.7489 97.7897 65.7091C97.7878 65.6692 97.7939 65.6294 97.8074 65.5918C97.821 65.5543 97.8418 65.5198 97.8687 65.4903C97.8956 65.4609 97.928 65.437 97.9641 65.42C98.0002 65.4031 98.0393 65.3934 98.0792 65.3915C98.119 65.3897 98.1589 65.3957 98.1964 65.4093C98.2339 65.4228 98.2684 65.4437 98.2979 65.4705C98.595 65.7413 98.9021 65.9955 99.2125 66.2299C99.2628 66.2686 99.2998 66.322 99.3183 66.3827C99.3367 66.4435 99.3356 66.5085 99.3152 66.5686C99.2948 66.6287 99.2561 66.6809 99.2045 66.7179C99.1529 66.7548 99.091 66.7747 99.0276 66.7747ZM97.2348 65.1404C97.1925 65.1406 97.1506 65.1319 97.1119 65.1148C97.0732 65.0977 97.0386 65.0727 97.0102 65.0413C96.7362 64.7409 96.4655 64.4206 96.2145 64.0904C96.1902 64.0588 96.1724 64.0227 96.1621 63.9841C96.1518 63.9456 96.1492 63.9054 96.1544 63.8658C96.1649 63.786 96.2067 63.7135 96.2707 63.6645C96.3346 63.6155 96.4154 63.5938 96.4952 63.6044C96.5751 63.6149 96.6475 63.6567 96.6966 63.7206C96.9376 64.0508 97.1951 64.3414 97.4593 64.6319C97.4862 64.6614 97.507 64.6959 97.5205 64.7334C97.5341 64.7709 97.5401 64.8108 97.5383 64.8506C97.5364 64.8905 97.5268 64.9296 97.5098 64.9657C97.4929 65.0018 97.4689 65.0342 97.4395 65.0611C97.3876 65.1082 97.3212 65.1362 97.2513 65.1404H97.2348ZM95.7721 63.2122C95.7211 63.2123 95.6709 63.1993 95.6264 63.1745C95.5819 63.1496 95.5445 63.1137 95.5179 63.0702C95.3858 62.8655 95.257 62.6542 95.1349 62.4429C95.0523 62.2976 94.9698 62.149 94.8906 62.0005C94.8602 61.9304 94.8575 61.8514 94.8827 61.7794C94.908 61.7073 94.9595 61.6474 95.0269 61.6116C95.0944 61.5758 95.1728 61.5667 95.2467 61.5862C95.3205 61.6056 95.3843 61.6521 95.4254 61.7165C95.5014 61.8585 95.5806 62.0005 95.6598 62.1391C95.7787 62.3438 95.9009 62.5452 96.0296 62.7433C96.0583 62.7896 96.0742 62.8426 96.0756 62.8971C96.0771 62.9515 96.064 63.0053 96.0378 63.053C96.0116 63.1007 95.9732 63.1406 95.9265 63.1685C95.8798 63.1965 95.8265 63.2116 95.7721 63.2122ZM94.6363 61.0661C94.5765 61.0663 94.518 61.0489 94.4681 61.016C94.4182 60.9831 94.3791 60.9362 94.3557 60.8812C94.1939 60.4982 94.0486 60.1053 93.9232 59.7157C93.9108 59.6777 93.906 59.6377 93.9091 59.598C93.9122 59.5582 93.9231 59.5194 93.9412 59.4838C93.9593 59.4483 93.9842 59.4166 94.0145 59.3907C94.0449 59.3647 94.08 59.345 94.118 59.3327C94.195 59.3088 94.2784 59.3161 94.3501 59.3532C94.4217 59.3903 94.4759 59.4541 94.501 59.5308C94.6198 59.9039 94.7585 60.277 94.9137 60.6435C94.9341 60.6894 94.9427 60.7398 94.9386 60.7899C94.9346 60.8401 94.918 60.8884 94.8904 60.9305C94.8628 60.9725 94.825 61.007 94.7806 61.0307C94.7363 61.0544 94.6866 61.0666 94.6363 61.0661ZM93.8967 58.7549C93.8272 58.7543 93.76 58.7301 93.706 58.6863C93.6521 58.6425 93.6145 58.5817 93.5996 58.5139C93.5113 58.1072 93.4452 57.6961 93.4015 57.2823C93.3941 57.2028 93.4184 57.1235 93.4691 57.0617C93.5197 56.9999 93.5927 56.9605 93.6722 56.9522C93.7146 56.9423 93.7586 56.9423 93.801 56.9522C93.8232 56.9111 93.8548 56.8759 93.8932 56.8495C93.9317 56.8231 93.9759 56.8062 94.0222 56.8003C94.4069 56.7471 94.7867 56.6632 95.158 56.5494C95.235 56.5253 95.3185 56.5328 95.39 56.5703C95.4615 56.6077 95.5153 56.6721 95.5393 56.7491C95.5634 56.8262 95.5559 56.9096 95.5184 56.9812C95.481 57.0527 95.4166 57.1064 95.3396 57.1305C94.9357 57.2537 94.5228 57.3453 94.1047 57.4045C94.0795 57.4078 94.054 57.4078 94.0288 57.4045C94.0684 57.7347 94.1246 58.0648 94.1939 58.3752C94.2026 58.4143 94.2034 58.4546 94.1963 58.494C94.1891 58.5334 94.1742 58.5709 94.1524 58.6044C94.1305 58.638 94.1022 58.6668 94.0691 58.6892C94.036 58.7117 93.9987 58.7272 93.9595 58.7351C93.9399 58.7461 93.9188 58.7539 93.8967 58.7582V58.7549ZM92.8501 57.4936C92.4312 57.4872 92.0132 57.453 91.5988 57.3913C91.5197 57.3788 91.4487 57.3356 91.4013 57.2711C91.3539 57.2065 91.3339 57.1259 91.3457 57.0467C91.3574 56.9675 91.4 56.8961 91.4641 56.8481C91.5282 56.8001 91.6086 56.7794 91.6879 56.7904C92.0748 56.8497 92.4653 56.8817 92.8567 56.8861C92.9373 56.8861 93.0145 56.9181 93.0715 56.9751C93.1285 57.0321 93.1605 57.1093 93.1605 57.1899C93.1605 57.2704 93.1285 57.3477 93.0715 57.4047C93.0145 57.4616 92.9373 57.4936 92.8567 57.4936H92.8501ZM90.4531 57.1371C90.4258 57.1418 90.3978 57.1418 90.3705 57.1371C89.9688 57.0196 89.575 56.8762 89.1918 56.7078C89.1178 56.6759 89.0596 56.6158 89.0298 56.5409C89.0001 56.466 89.0014 56.3823 89.0333 56.3083C89.0653 56.2343 89.1254 56.1761 89.2003 56.1464C89.2752 56.1166 89.3589 56.1179 89.4329 56.1499C89.7935 56.3053 90.1641 56.4365 90.5422 56.5428C90.6193 56.5658 90.6842 56.6181 90.7231 56.6885C90.762 56.7588 90.7717 56.8417 90.7502 56.9192C90.7311 56.9831 90.6918 57.0391 90.6383 57.079C90.5848 57.1188 90.5198 57.1403 90.4531 57.1404V57.1371ZM96.373 56.6979C96.3058 56.6968 96.2409 56.6734 96.1885 56.6314C96.136 56.5894 96.099 56.5312 96.0831 56.4659C96.0673 56.4006 96.0735 56.3319 96.1009 56.2705C96.1282 56.2091 96.1752 56.1586 96.2343 56.1267C96.5744 55.9523 96.8934 55.7396 97.1852 55.4928C97.2464 55.4405 97.3256 55.4144 97.4059 55.4199C97.4862 55.4255 97.5611 55.4623 97.6144 55.5225C97.6405 55.5529 97.6604 55.588 97.6729 55.626C97.6853 55.664 97.6902 55.7041 97.6871 55.744C97.684 55.7839 97.6731 55.8228 97.655 55.8584C97.6369 55.8941 97.6119 55.9258 97.5814 55.9518C97.256 56.2317 96.898 56.4711 96.515 56.6649C96.4712 56.6882 96.4226 56.7006 96.373 56.7012V56.6979ZM93.6491 56.3414C93.5683 56.3396 93.4913 56.3061 93.4351 56.2479C93.3788 56.1898 93.3478 56.1119 93.3487 56.031C93.3553 55.6134 93.3873 55.1966 93.4444 54.783C93.4485 54.7422 93.4609 54.7028 93.4806 54.6669C93.5004 54.6311 93.5272 54.5996 93.5595 54.5744C93.5917 54.5492 93.6287 54.5307 93.6682 54.5202C93.7078 54.5096 93.749 54.5072 93.7896 54.5129C93.8301 54.5187 93.869 54.5327 93.904 54.5539C93.939 54.5751 93.9694 54.6031 93.9933 54.6364C94.0172 54.6696 94.0341 54.7073 94.043 54.7473C94.052 54.7872 94.0527 54.8285 94.0453 54.8688C93.992 55.2573 93.9623 55.6488 93.9562 56.0409C93.9553 56.1218 93.9226 56.199 93.8651 56.2559C93.8076 56.3128 93.73 56.3447 93.6491 56.3447V56.3414ZM88.2211 56.1862C88.1681 56.1854 88.116 56.1718 88.0693 56.1466C87.7081 55.9362 87.3597 55.7047 87.0259 55.4532C86.9938 55.4297 86.9666 55.4001 86.9462 55.3659C86.9257 55.3318 86.9123 55.2939 86.9067 55.2545C86.9012 55.2151 86.9036 55.1749 86.9139 55.1365C86.9242 55.098 86.942 55.062 86.9665 55.0306C86.9903 54.9984 87.0202 54.9713 87.0545 54.9507C87.0888 54.9301 87.1268 54.9166 87.1664 54.9107C87.206 54.9049 87.2463 54.9069 87.2851 54.9168C87.3239 54.9266 87.3604 54.9439 87.3924 54.9679C87.7082 55.2088 88.039 55.4294 88.3829 55.6282C88.4414 55.6614 88.4872 55.713 88.5131 55.775C88.5391 55.837 88.5437 55.9059 88.5264 55.9708C88.509 56.0357 88.4706 56.0931 88.4171 56.1338C88.3637 56.1746 88.2983 56.1965 88.231 56.1961L88.2211 56.1862ZM98.1658 55.1032C98.1126 55.1034 98.0603 55.0897 98.014 55.0636C97.9794 55.0435 97.9493 55.0167 97.9251 54.9849C97.9009 54.9531 97.8833 54.9168 97.8732 54.8782C97.8631 54.8396 97.8607 54.7993 97.8661 54.7597C97.8716 54.7202 97.8848 54.682 97.905 54.6476C97.9917 54.4971 98.0647 54.3391 98.1229 54.1754C98.1855 54.0011 98.2232 53.8188 98.2352 53.634C98.2376 53.5936 98.2482 53.5541 98.2663 53.5179C98.2844 53.4817 98.3096 53.4495 98.3405 53.4233C98.3713 53.3971 98.4071 53.3774 98.4458 53.3654C98.4844 53.3533 98.5251 53.3492 98.5653 53.3533C98.6056 53.3562 98.6448 53.3671 98.6808 53.3854C98.7168 53.4036 98.7488 53.4288 98.7749 53.4596C98.801 53.4903 98.8207 53.5259 98.833 53.5644C98.8452 53.6028 98.8496 53.6433 98.846 53.6835C98.8286 53.9222 98.7797 54.1575 98.7007 54.3834C98.6302 54.5825 98.5418 54.7748 98.4366 54.9579C98.4086 55.0044 98.3688 55.0426 98.3212 55.0687C98.2737 55.0948 98.2201 55.1079 98.1658 55.1065V55.1032ZM86.2797 54.7268C86.2009 54.7264 86.1252 54.6957 86.0684 54.641L85.867 54.4363C85.6458 54.2085 85.4312 53.9674 85.2265 53.7165C85.1757 53.6539 85.1519 53.5737 85.1602 53.4935C85.1686 53.4133 85.2085 53.3397 85.2711 53.2889C85.3337 53.2382 85.4139 53.2143 85.4941 53.2227C85.5743 53.231 85.6479 53.2709 85.6986 53.3335C85.8901 53.5712 86.0948 53.7991 86.3028 54.0137L86.491 54.2052C86.5196 54.2331 86.5423 54.2665 86.5578 54.3034C86.5732 54.3402 86.5812 54.3798 86.5812 54.4198C86.5812 54.4597 86.5732 54.4993 86.5578 54.5362C86.5423 54.573 86.5196 54.6064 86.491 54.6344C86.4373 54.6909 86.3642 54.7251 86.2863 54.7301L86.2797 54.7268ZM93.9925 53.941C93.963 53.9458 93.9329 53.9458 93.9033 53.941C93.8652 53.9293 93.8297 53.9102 93.7989 53.8848C93.7681 53.8594 93.7427 53.8282 93.7239 53.7929C93.7052 53.7577 93.6937 53.7191 93.6899 53.6793C93.6861 53.6396 93.6902 53.5995 93.7019 53.5613C93.8241 53.147 94.0007 52.7506 94.2269 52.3826C94.2707 52.3143 94.3398 52.2662 94.4191 52.2489C94.4983 52.2315 94.5812 52.2464 94.6495 52.2902C94.7178 52.334 94.7659 52.4031 94.7833 52.4823C94.8006 52.5616 94.7858 52.6445 94.742 52.7128C94.5438 53.0354 94.3894 53.3829 94.283 53.7462C94.2619 53.8045 94.2233 53.8548 94.1725 53.8903C94.1216 53.9258 94.0611 53.9446 93.9991 53.9443L93.9925 53.941ZM84.7478 52.8449C84.6971 52.845 84.6473 52.8324 84.6028 52.8082C84.5584 52.7839 84.5208 52.7489 84.4935 52.7062C84.2674 52.3582 84.0591 51.999 83.8695 51.6298C83.8327 51.558 83.826 51.4746 83.8507 51.3978C83.8755 51.321 83.9298 51.2572 84.0016 51.2204C84.0734 51.1837 84.1568 51.1769 84.2336 51.2017C84.3104 51.2264 84.3742 51.2807 84.411 51.3525C84.5903 51.7036 84.7875 52.0452 85.002 52.376C85.0316 52.4218 85.0484 52.4748 85.0505 52.5293C85.0527 52.5838 85.04 52.6379 85.014 52.6859C84.988 52.7339 84.9496 52.774 84.9027 52.8019C84.8558 52.8299 84.8023 52.8447 84.7478 52.8449ZM98.3408 52.7689C98.2807 52.7689 98.2219 52.751 98.1719 52.7174C98.1219 52.6839 98.0831 52.6364 98.0602 52.5807C97.9338 52.2569 97.7144 51.9777 97.4295 51.7784C97.3723 51.7307 97.3345 51.6637 97.3235 51.59C97.3124 51.5163 97.3288 51.4411 97.3696 51.3787C97.4104 51.3164 97.4726 51.2712 97.5446 51.2517C97.6165 51.2323 97.6931 51.2399 97.7597 51.2733C98.1439 51.5399 98.4403 51.9145 98.6116 52.3496C98.6272 52.3862 98.6355 52.4256 98.6358 52.4654C98.6362 52.5052 98.6286 52.5447 98.6136 52.5816C98.5985 52.6184 98.5763 52.6519 98.5482 52.6801C98.52 52.7083 98.4866 52.7307 98.4498 52.7458C98.4175 52.7605 98.3828 52.7695 98.3474 52.7722L98.3408 52.7689ZM95.3132 51.9567C95.2638 51.9565 95.2152 51.9444 95.1715 51.9214C95.1279 51.8984 95.0904 51.8652 95.0622 51.8246C95.0397 51.7917 95.0238 51.7546 95.0155 51.7156C95.0073 51.6765 95.0069 51.6362 95.0142 51.5969C95.0216 51.5576 95.0366 51.5202 95.0584 51.4868C95.0803 51.4533 95.1085 51.4245 95.1415 51.402C95.5196 51.1405 95.9583 50.9803 96.4159 50.9365C96.4569 50.9305 96.4986 50.933 96.5385 50.9437C96.5784 50.9545 96.6158 50.9732 96.6482 50.9989C96.6806 51.0246 96.7075 51.0566 96.7271 51.093C96.7467 51.1294 96.7587 51.1694 96.7623 51.2106C96.7659 51.2518 96.761 51.2933 96.748 51.3326C96.735 51.3718 96.7141 51.408 96.6867 51.4389C96.6592 51.4698 96.6257 51.4948 96.5882 51.5123C96.5507 51.5298 96.5101 51.5395 96.4688 51.5407C96.1124 51.575 95.7711 51.7013 95.4783 51.9072C95.4308 51.9381 95.3763 51.9563 95.3198 51.96L95.3132 51.9567ZM83.6351 50.6889C83.5745 50.6885 83.5155 50.6701 83.4655 50.636C83.4155 50.6019 83.3768 50.5536 83.3544 50.4974C83.2026 50.1177 83.0639 49.7248 82.945 49.3253C82.9314 49.2865 82.9258 49.2454 82.9285 49.2045C82.9312 49.1635 82.9422 49.1235 82.9607 49.0869C82.9793 49.0503 83.0052 49.0178 83.0367 48.9915C83.0682 48.9651 83.1047 48.9454 83.144 48.9336C83.1833 48.9218 83.2246 48.918 83.2654 48.9226C83.3062 48.9272 83.3457 48.94 83.3814 48.9602C83.4171 48.9805 83.4483 49.0077 83.4732 49.0404C83.4981 49.0731 83.5161 49.1105 83.5261 49.1503C83.6417 49.53 83.7738 49.9097 83.919 50.2728C83.9473 50.3478 83.9452 50.4308 83.9131 50.5042C83.881 50.5776 83.8216 50.6356 83.7473 50.6657C83.7143 50.6818 83.6784 50.6908 83.6417 50.6922L83.6351 50.6889ZM82.9318 48.3777C82.8622 48.3777 82.7946 48.3537 82.7405 48.3098C82.6864 48.2659 82.6491 48.2048 82.6347 48.1366C82.5488 47.7371 82.4795 47.3277 82.4234 46.915C82.4185 46.8382 82.443 46.7624 82.4919 46.7029C82.5408 46.6434 82.6105 46.6048 82.6868 46.5947C82.7631 46.5846 82.8404 46.6039 82.9031 46.6487C82.9657 46.6934 83.009 46.7603 83.0243 46.8358C83.0771 47.232 83.1464 47.6249 83.229 48.0112C83.2456 48.09 83.2302 48.1722 83.1863 48.2397C83.1423 48.3072 83.0734 48.3544 82.9946 48.3711L82.9318 48.3777ZM82.6017 45.9707C82.5241 45.9701 82.4497 45.9401 82.3933 45.8868C82.337 45.8335 82.3029 45.7609 82.2979 45.6835C82.2979 45.3533 82.2715 45.0232 82.2715 44.693V44.4388C82.2749 44.3588 82.3091 44.2832 82.3669 44.2278C82.4248 44.1724 82.5018 44.1415 82.5818 44.1416C82.6217 44.1416 82.6612 44.1496 82.6979 44.1651C82.7346 44.1807 82.7678 44.2035 82.7955 44.2321C82.8233 44.2608 82.8449 44.2947 82.8593 44.3319C82.8736 44.3691 82.8803 44.4088 82.879 44.4487V44.693C82.879 45.0232 82.879 45.3269 82.9054 45.6406C82.9086 45.6809 82.9037 45.7215 82.8911 45.76C82.8785 45.7984 82.8585 45.834 82.8321 45.8647C82.8057 45.8954 82.7735 45.9205 82.7374 45.9387C82.7012 45.9569 82.6618 45.9678 82.6215 45.9707H82.6017Z" fill="#7075FF"/>
<path d="M85.6459 34.9167L83.83 42.8078L64 38.5519L85.6459 34.9167Z" fill="#FD9501"/>
<path opacity="0.3" d="M85.6459 34.9167L83.83 42.8078L64 38.5519L85.6459 34.9167Z" fill="#0A0A0B"/>
<path d="M64 38.5517L88.6901 37.8914L94.4911 46.8323L64 38.5517Z" fill="#FD9501"/>
<path d="M64 38.5518L85.6459 34.9166L80.5448 29L64 38.5518Z" fill="#FD9501"/>
<defs>
<radialGradient id="paint0_radial_742_21892" cx="0" cy="0" r="1" gradientUnits="userSpaceOnUse" gradientTransform="translate(65.9992 65.9997) rotate(90) scale(89.0898)">
<stop stop-color="#5C6CFF" stop-opacity="0"/>
<stop offset="0.520833" stop-color="#5C6CFF" stop-opacity="0.0625"/>
<stop offset="1" stop-color="#142DFF"/>
</radialGradient>
<radialGradient id="paint1_radial_742_21892" cx="0" cy="0" r="1" gradientUnits="userSpaceOnUse" gradientTransform="translate(66 66) rotate(90) scale(102.259)">
<stop stop-color="#5C6CFF" stop-opacity="0"/>
<stop offset="0.589355" stop-color="#5C6CFF" stop-opacity="0.0625"/>
<stop offset="1" stop-color="#142DFF"/>
</radialGradient>
</defs>
</svg>
