<svg xmlns="http://www.w3.org/2000/svg" width="49.115" height="46.767" viewBox="0 0 49.115 46.767">
    <g id="Star" transform="translate(-11.637 -2.893)">
        <path id="Star-2" data-name="Star"
              d="M23.884,1.031,29.3,11.925a1.867,1.867,0,0,0,1.4,1.022L42.828,14.7a1.866,1.866,0,0,1,1.235.716,1.8,1.8,0,0,1-.2,2.413l-8.788,8.5a1.782,1.782,0,0,0-.528,1.639l2.1,11.991a1.84,1.84,0,0,1-1.525,2.086,2.029,2.029,0,0,1-1.207-.187l-10.8-5.661a1.813,1.813,0,0,0-1.735,0L10.509,41.884a1.9,1.9,0,0,1-2.518-.772A1.861,1.861,0,0,1,7.8,39.944l2.1-11.991a1.843,1.843,0,0,0-.528-1.637L.543,17.82a1.837,1.837,0,0,1-.007-2.6l.007-.009A2.126,2.126,0,0,1,1.6,14.692L13.727,12.94a1.9,1.9,0,0,0,1.4-1.024L20.541,1.031A1.839,1.839,0,0,1,21.612.1a1.866,1.866,0,0,1,1.426.1A1.916,1.916,0,0,1,23.884,1.031Z"
              transform="translate(13.887 5.156)" fill="none" stroke="#000" stroke-linecap="round"
              stroke-linejoin="round" stroke-width="3"/>
    </g>
</svg>
