<svg xmlns="http://www.w3.org/2000/svg" width="54.838" height="53.183" viewBox="0 0 54.838 53.183">
  <g id="Home" transform="translate(0.5 0.5)">
    <path id="Home-2" data-name="Home" d="M18.826,49V41a3.87,3.87,0,0,1,4.009-3.688h8.144A3.873,3.873,0,0,1,35.013,41h0v7.979a3.359,3.359,0,0,0,3.476,3.2h5.556a10.256,10.256,0,0,0,6.923-2.607,8.56,8.56,0,0,0,2.87-6.322V20.523A6.264,6.264,0,0,0,51.3,15.559L32.425,1.759a9.42,9.42,0,0,0-11.214.186L2.74,15.559A6.3,6.3,0,0,0,0,20.523V43.23c0,4.944,4.385,8.953,9.793,8.953h5.43A3.652,3.652,0,0,0,17.7,51.26,3.047,3.047,0,0,0,18.724,49Z" transform="translate(0 0)" fill="#757681" stroke="rgba(0,0,0,0)" stroke-width="1"/>
  </g>
</svg>
