<svg xmlns="http://www.w3.org/2000/svg" width="15.668" height="12.242" viewBox="0 0 15.668 12.242">
  <path id="Icon_awesome-exchange-alt" data-name="Icon awesome-exchange-alt" d="M0,7.364v-.49A.734.734,0,0,1,.734,6.14H11.751V4.671a.735.735,0,0,1,1.254-.519L15.453,6.6a.734.734,0,0,1,0,1.039l-2.448,2.448a.735.735,0,0,1-1.254-.519V8.1H.734A.734.734,0,0,1,0,7.364Zm14.934,4.652H3.917V10.547a.735.735,0,0,0-1.254-.519L.215,12.475a.734.734,0,0,0,0,1.039l2.448,2.448a.735.735,0,0,0,1.254-.519V13.974H14.934a.734.734,0,0,0,.734-.734v-.49A.734.734,0,0,0,14.934,12.016Z" transform="translate(0 -3.936)" fill="#12161c"/>
</svg>
