<svg width="24" height="24" viewBox="0 0 24 24" fill="none" xmlns="http://www.w3.org/2000/svg">
<path d="M13.002 21C13.002 21.553 12.554 22 12.002 22H8.00195C5.24495 22 3.00195 19.757 3.00195 17V7C3.00195 4.243 5.24495 2 8.00195 2H12.002C12.554 2 13.002 2.447 13.002 3C13.002 3.553 12.554 4 12.002 4H8.00195C6.34795 4 5.00195 5.346 5.00195 7V17C5.00195 18.654 6.34795 20 8.00195 20H12.002C12.554 20 13.002 20.447 13.002 21ZM20.924 12.382C21.025 12.138 21.025 11.862 20.924 11.618C20.8729 11.495 20.7999 11.385 20.7069 11.292L16.7079 7.29297C16.3169 6.90197 15.6849 6.90197 15.2939 7.29297C14.9029 7.68397 14.9029 8.31603 15.2939 8.70703L17.5869 11H10.0009C9.44895 11 9.00095 11.447 9.00095 12C9.00095 12.553 9.44895 13 10.0009 13H17.5869L15.2939 15.293C14.9029 15.684 14.9029 16.316 15.2939 16.707C15.4889 16.902 15.7449 17 16.0009 17C16.2569 17 16.5129 16.902 16.7079 16.707L20.7069 12.708C20.7999 12.615 20.874 12.505 20.924 12.382Z" fill="#7E7E8B"/>
</svg>
