<?xml version="1.0" encoding="utf-8"?>
<!-- Generator: Adobe Illustrator 26.5.0, SVG Export Plug-In . SVG Version: 6.00 Build 0)  -->
<svg version="1.1" id="Layer_1" xmlns="http://www.w3.org/2000/svg" xmlns:xlink="http://www.w3.org/1999/xlink" x="0px" y="0px"
	 width="300px" height="90px" viewBox="0 0 300 90" enable-background="new 0 0 300 90" xml:space="preserve">
<g>
	<path fill-rule="evenodd" clip-rule="evenodd" fill="#009EE3" d="M28.085,26.056h20.349c10.785,0,14.854,5.494,14.244,13.43
		c-1.221,13.43-9.157,20.756-19.942,20.756h-5.291c-1.424,0-2.442,1.017-2.849,3.459l-2.238,15.261
		c-0.203,1.017-0.61,1.628-1.424,1.628H18.318c-1.221,0-1.628-1.017-1.221-2.849l7.732-48.837
		C25.033,26.87,26.05,26.056,28.085,26.056z"/>
	<path fill-rule="evenodd" clip-rule="evenodd" fill="#113984" d="M115.787,25.242c6.715,0,13.023,3.663,12.209,12.82
		c-1.017,10.988-6.919,17.093-16.075,17.093h-7.936c-1.221,0-1.831,1.017-2.035,2.849l-1.628,9.971
		c-0.203,1.424-1.017,2.238-2.035,2.238h-7.529c-1.221,0-1.628-0.814-1.221-2.442l6.105-40.087c0.407-1.831,1.017-2.645,2.442-2.645
		L115.787,25.242L115.787,25.242z M103.578,46.405h6.105c3.866-0.203,6.512-2.645,6.512-7.529c0.203-2.849-1.831-5.087-4.884-4.884
		h-5.698L103.578,46.405L103.578,46.405z M148.345,66.957c0.61-0.61,1.424-1.017,1.221-0.203l-0.407,1.831
		c-0.203,1.017,0.407,1.424,1.221,1.424h6.715c1.221,0,1.628-0.407,1.831-2.238l4.273-25.843c0.203-1.221-0.203-1.831-1.221-1.831
		h-7.325c-0.61,0-1.017,0.407-1.221,1.424l0,1.424c-0.203,0.814-0.407,1.017-0.814,0.203c-1.221-2.849-4.477-4.273-8.75-4.273
		c-10.378,0.203-17.093,7.936-17.907,17.907c-0.61,7.732,4.884,13.837,12.413,13.837C143.462,71.026,145.7,69.602,148.345,66.957
		L148.345,66.957L148.345,66.957z M142.851,63.09c-4.477,0-7.529-3.459-6.919-7.936c0.61-4.273,4.884-7.936,9.157-7.936
		c4.477,0,7.529,3.459,6.919,7.936C151.397,59.631,147.328,63.09,142.851,63.09L142.851,63.09z M176.426,40.097h-6.715
		c-1.424,0-1.831,1.017-1.424,2.238l8.139,24.622l-8.139,11.802c-0.61,1.017-0.203,1.831,0.814,1.831h7.529
		c1.017,0.203,1.831-0.407,2.238-1.221l25.843-37.034c0.814-1.221,0.407-2.442-1.017-2.442h-7.325c-1.221,0-1.831,0.407-2.442,1.424
		l-10.785,15.668l-4.884-15.668C178.461,40.707,177.647,40.097,176.426,40.097L176.426,40.097z"/>
	<path fill-rule="evenodd" clip-rule="evenodd" fill="#009EE3" d="M231.571,25.242c6.715,0,13.023,3.663,12.209,12.82
		c-1.017,10.988-6.919,17.093-16.075,17.093h-7.936c-1.221,0-1.831,1.017-2.035,2.849l-1.628,9.971
		c-0.203,1.424-1.017,2.238-2.035,2.238h-7.529c-1.221,0-1.628-0.814-1.221-2.442l6.308-39.883c0.407-1.831,1.017-2.645,2.442-2.645
		L231.571,25.242L231.571,25.242z M219.362,46.405h6.105c3.866-0.203,6.512-2.645,6.512-7.529c0.203-2.849-1.831-5.087-4.884-4.884
		h-5.698L219.362,46.405L219.362,46.405z M264.332,66.957c0.61-0.61,1.424-1.017,1.221-0.203l-0.407,1.831
		c-0.203,1.017,0.407,1.424,1.221,1.424h6.715c1.221,0,1.628-0.407,1.831-2.238l4.273-25.843c0.203-1.221-0.203-1.831-1.221-1.831
		h-7.326c-0.61,0-1.017,0.407-1.221,1.424l-0.407,1.628c-0.203,0.814-0.407,1.017-0.814,0.203c-1.221-2.849-4.477-4.273-8.75-4.273
		c-10.378,0.203-17.093,7.936-17.907,17.907c-0.61,7.732,4.884,13.837,12.413,13.837C259.245,71.026,261.687,69.602,264.332,66.957
		L264.332,66.957L264.332,66.957z M258.838,63.09c-4.477,0-7.529-3.459-6.919-7.936c0.61-4.477,4.884-7.936,9.157-7.936
		c4.273,0,7.529,3.459,6.918,7.936C267.384,59.631,263.111,63.09,258.838,63.09L258.838,63.09z M289.564,70.212h-7.732
		c-0.407,0-1.017-0.407-1.017-0.814v-0.203l6.715-42.935c0.203-0.61,0.61-1.017,1.221-1.017h7.732c0.407,0,1.017,0.407,1.017,0.814
		v0.203l-6.715,42.935C290.581,69.806,290.174,70.212,289.564,70.212L289.564,70.212z"/>
	<path fill-rule="evenodd" clip-rule="evenodd" fill="#113984" d="M15.469,9.37h20.349c5.698,0,12.413,0.203,16.889,4.273
		c3.052,2.645,4.68,6.919,4.273,11.395C55.556,40.3,46.399,49.05,33.986,49.05h-9.971c-1.831,0-2.849,1.221-3.459,4.273
		l-2.645,17.703c-0.203,1.221-0.61,1.831-1.628,1.831H4.074c-1.424,0-1.831-1.017-1.424-3.459l8.953-56.772
		C11.806,10.184,13.027,9.37,15.469,9.37z"/>
	<path fill-rule="evenodd" clip-rule="evenodd" fill="#172C70" d="M21.167,51.288l3.459-22.383c0.407-1.831,1.424-2.849,3.459-2.849
		h20.349c3.459,0,6.105,0.407,8.139,1.424c-2.035,13.634-10.988,21.366-22.587,21.366h-9.971
		C22.795,48.847,21.777,49.457,21.167,51.288z"/>
</g>
</svg>
