<svg width="24" height="24" viewBox="0 0 24 24" fill="none" xmlns="http://www.w3.org/2000/svg">
<path d="M5 21.9999C5.88421 21.9966 6.74241 21.7004 7.44043 21.1576C8.13845 20.6148 8.63695 19.8561 8.858 18.9999H15.142C15.3333 19.7846 15.7552 20.4939 16.3534 21.0366C16.9515 21.5792 17.6985 21.9303 18.498 22.0445C19.2975 22.1588 20.1129 22.031 20.8391 21.6776C21.5653 21.3242 22.169 20.7614 22.5724 20.0617C22.9758 19.3621 23.1605 18.5576 23.1025 17.7521C23.0446 16.9466 22.7467 16.1768 22.2473 15.5421C21.7479 14.9074 21.0698 14.4368 20.3005 14.191C19.5312 13.9452 18.7059 13.9354 17.931 14.1629L14.816 8.83593C15.3792 8.27804 15.7639 7.56538 15.9213 6.78843C16.0788 6.01148 16.0018 5.20527 15.7001 4.47216C15.3985 3.73905 14.8858 3.1121 14.2272 2.6709C13.5686 2.22969 12.7937 1.99414 12.001 1.99414C11.2083 1.99414 10.4334 2.22969 9.77478 2.6709C9.11617 3.1121 8.6035 3.73905 8.30187 4.47216C8.00023 5.20527 7.92324 6.01148 8.08066 6.78843C8.23807 7.56538 8.6228 8.27804 9.186 8.83593L6.078 14.1659C5.72804 14.0612 5.36527 14.0053 5 13.9999C3.93913 13.9999 2.92172 14.4214 2.17157 15.1715C1.42143 15.9216 1 16.9391 1 17.9999C1 19.0608 1.42143 20.0782 2.17157 20.8284C2.92172 21.5785 3.93913 21.9999 5 21.9999ZM19 15.9999C19.3956 15.9999 19.7822 16.1172 20.1111 16.337C20.44 16.5568 20.6964 16.8691 20.8478 17.2346C20.9991 17.6 21.0387 18.0021 20.9616 18.3901C20.8844 18.7781 20.6939 19.1344 20.4142 19.4141C20.1345 19.6938 19.7781 19.8843 19.3902 19.9615C19.0022 20.0387 18.6001 19.9991 18.2346 19.8477C17.8692 19.6963 17.5568 19.44 17.3371 19.1111C17.1173 18.7822 17 18.3955 17 17.9999C17 17.4695 17.2107 16.9608 17.5858 16.5857C17.9609 16.2106 18.4696 15.9999 19 15.9999ZM12 3.99993C12.3956 3.99993 12.7822 4.11723 13.1111 4.33699C13.44 4.55675 13.6964 4.86911 13.8478 5.23456C13.9991 5.60002 14.0387 6.00215 13.9616 6.39011C13.8844 6.77807 13.6939 7.13444 13.4142 7.41414C13.1345 7.69385 12.7781 7.88433 12.3902 7.9615C12.0022 8.03867 11.6001 7.99906 11.2346 7.84769C10.8692 7.69631 10.5568 7.43997 10.3371 7.11107C10.1173 6.78217 10 6.39549 10 5.99993C10 5.4695 10.2107 4.96079 10.5858 4.58572C10.9609 4.21064 11.4696 3.99993 12 3.99993ZM10.922 9.83393C11.272 9.93871 11.6347 9.99457 12 9.99993C12.3668 9.99497 12.731 9.93842 13.082 9.83193L16.194 15.1549C15.6835 15.6639 15.32 16.3014 15.142 16.9999H8.858C8.68138 16.3046 8.32075 15.6697 7.814 15.1619L10.922 9.83393ZM5 15.9999C5.39556 15.9999 5.78224 16.1172 6.11114 16.337C6.44004 16.5568 6.69638 16.8691 6.84776 17.2346C6.99913 17.6 7.03874 18.0021 6.96157 18.3901C6.8844 18.7781 6.69392 19.1344 6.41421 19.4141C6.13451 19.6938 5.77814 19.8843 5.39018 19.9615C5.00222 20.0387 4.60009 19.9991 4.23463 19.8477C3.86918 19.6963 3.55682 19.44 3.33706 19.1111C3.1173 18.7822 3 18.3955 3 17.9999C3 17.4695 3.21071 16.9608 3.58579 16.5857C3.96086 16.2106 4.46957 15.9999 5 15.9999Z" fill="#7E7E8B"/>
</svg>
