<svg width="16" height="16" viewBox="0 0 16 16" fill="none" xmlns="http://www.w3.org/2000/svg">
<path d="M10.6673 8.60016V11.4002C10.6673 13.7335 9.73398 14.6668 7.40065 14.6668H4.60065C2.26732 14.6668 1.33398 13.7335 1.33398 11.4002V8.60016C1.33398 6.26683 2.26732 5.3335 4.60065 5.3335H7.40065C9.73398 5.3335 10.6673 6.26683 10.6673 8.60016Z" fill="white"/>
<path opacity="0.4" d="M11.3998 1.3335H8.59984C6.29984 1.3335 5.36651 2.24683 5.33984 4.50016H7.39984C10.1998 4.50016 11.4998 5.80016 11.4998 8.60016V10.6602C13.7532 10.6335 14.6665 9.70016 14.6665 7.40016V4.60016C14.6665 2.26683 13.7332 1.3335 11.3998 1.3335Z" fill="white"/>
</svg>
