<svg width="148" height="104" viewBox="0 0 148 104" fill="none" xmlns="http://www.w3.org/2000/svg">
<path opacity="0.2" d="M0 97.0828C0 93.2624 3.09707 90.1653 6.9175 90.1653H140.547C144.367 90.1653 147.465 93.2624 147.465 97.0828V97.0828C147.465 100.903 144.367 104 140.547 104H6.91751C3.09708 104 0 100.903 0 97.0828V97.0828Z" fill="#474EFF"/>
<circle cx="71.1152" cy="51.1472" r="44.5605" fill="url(#paint0_radial_742_21943)"/>
<circle cx="71.1163" cy="51.1475" r="51.1475" fill="url(#paint1_radial_742_21943)"/>
<path d="M99.7596 56.3423C95.3495 57.9678 93.1444 57.9174 88.6461 56.9723C88.5579 56.9534 88.5106 57.0794 88.5988 57.1078C92.9365 58.4466 95.6928 58.9065 99.8509 56.5597C100.053 56.4368 99.9706 56.2636 99.7596 56.3423Z" fill="#8E5301"/>
<path d="M100.313 61.2895C95.5883 62.5778 93.21 62.5495 88.4061 61.8911C88.34 61.8911 88.3148 61.9982 88.3841 62.0108C93.0399 63.0472 95.8025 63.4441 100.354 61.5383C100.553 61.4501 100.531 61.2296 100.313 61.2895Z" fill="#8E5301"/>
<path d="M100.392 66.6962C95.7389 67.616 93.1149 67.6916 88.5347 66.4599C88.5144 66.4569 88.4936 66.4611 88.476 66.4718C88.4585 66.4825 88.4452 66.4989 88.4384 66.5183C88.4317 66.5378 88.432 66.5589 88.4392 66.5782C88.4464 66.5974 88.4601 66.6135 88.478 66.6237C93.0267 68.3374 96.3028 68.2649 100.404 66.8411C100.685 66.7434 100.685 66.6363 100.392 66.6962Z" fill="#8E5301"/>
<path d="M77.3523 48.2273C77.3523 48.2273 84.1628 46.4538 86.8026 46.4475C89.4423 46.4412 99.2927 50.0355 98.6626 52.209C97.8184 55.0157 91.7167 54.0581 88.7903 53.2013C88.7903 53.2013 86.8372 59.6936 82.3137 59.9551C80.2977 60.0716 77.3586 58.065 76.6436 55.4662L77.3523 48.2273Z" fill="#140C00"/>
<path d="M98.1616 52.9034C95.5439 54.9068 91.7764 53.5334 88.8752 52.9034C88.833 52.892 88.7886 52.891 88.746 52.9005C88.7033 52.91 88.6636 52.9296 88.6301 52.9578C88.5967 52.9859 88.5706 53.0218 88.554 53.0622C88.5374 53.1027 88.5309 53.1465 88.535 53.19C87.5364 55.8581 85.3471 59.3295 82.4364 60.0698C82.4204 60.0748 82.4068 60.0853 82.398 60.0995C82.3893 60.1137 82.3859 60.1306 82.3886 60.1471C82.3913 60.1636 82.3998 60.1785 82.4126 60.1892C82.4255 60.1999 82.4417 60.2056 82.4584 60.2053C85.6904 59.8335 88.1286 56.6016 89.0264 53.609C91.9906 54.2926 95.8305 55.499 98.1837 52.9191C98.1963 52.9128 98.1805 52.8908 98.1616 52.9034Z" fill="#8E5301"/>
<path d="M70.5672 46.6129C70.5672 46.6129 68.1795 60.3535 65.7539 67.2774C68.5113 69.237 71.7996 70.3115 75.1821 70.3582C75.1821 70.3582 78.9622 56.7908 79.0063 47.5925C79.0063 47.5925 73.7079 45.3024 70.5672 46.6129Z" fill="white"/>
<path d="M70.5675 46.6116C69.6572 51.8407 68.6239 57.0541 67.3072 62.2014C66.8599 63.9119 66.3905 65.6223 65.8109 67.2982L65.792 67.2289C66.4659 67.7218 67.1828 68.153 67.9341 68.5173C70.1896 69.6318 72.6638 70.2332 75.1793 70.2782L75.1037 70.3349C75.6035 68.4763 76.0686 66.6062 76.4992 64.7246C77.7592 59.0922 78.8491 53.3843 78.9625 47.5881C76.5118 46.7345 73.2924 45.6004 70.5644 46.6116H70.5675ZM70.5675 46.6116C73.2798 45.613 76.4519 46.5769 79.0507 47.5566C78.9562 53.3622 77.8789 59.0954 76.6378 64.7498C76.2093 66.6398 75.7589 68.5488 75.2391 70.4199C73.5264 70.3942 71.8273 70.1107 70.199 69.5789C68.5892 69.0664 67.0709 68.302 65.7007 67.3139L65.666 67.2856V67.2446C67.8868 60.5224 69.1973 53.5386 70.5392 46.599L70.5675 46.6116Z" fill="#7E7E8B"/>
<path d="M56.782 65.737C56.399 65.0478 55.9052 64.4263 55.3203 63.8974C54.7911 63.4249 54.0225 62.8075 53.2917 62.7539C53.2825 62.7546 53.2737 62.758 53.2664 62.7636C53.2591 62.7692 53.2537 62.7769 53.2506 62.7856C53.2476 62.7943 53.2472 62.8036 53.2495 62.8126C53.2517 62.8215 53.2565 62.8296 53.2633 62.8358C53.5558 63.0445 53.8609 63.2349 54.1768 63.406C54.5342 63.6485 54.8647 63.9283 55.1628 64.2407C55.688 64.8075 56.1331 65.4434 56.4859 66.1308C57.2523 67.6792 57.8257 69.3158 58.1932 71.004C58.1932 71.0418 58.2531 71.0229 58.2468 71.004C57.9255 69.2021 57.686 67.3751 56.782 65.737Z" fill="#140C00"/>
<path d="M55.4807 67.8103C55.446 67.7725 55.3767 67.8261 55.4114 67.8702C55.4462 67.9151 55.4682 67.9685 55.4752 68.0249C55.4821 68.0813 55.4737 68.1385 55.4507 68.1905C55.4278 68.2424 55.3913 68.2872 55.345 68.3201C55.2987 68.353 55.2443 68.3728 55.1877 68.3774C55.0804 68.3704 54.9763 68.3382 54.8838 68.2835C54.7913 68.2288 54.7131 68.153 54.6553 68.0623C54.4334 67.6645 54.26 67.2414 54.1387 66.8023C53.8237 65.9392 53.474 65.0666 53.0771 64.235C53.0519 64.1814 52.9826 64.235 52.9921 64.2728C53.1229 64.92 53.2933 65.5586 53.5024 66.1849C53.6775 66.7838 53.8879 67.3718 54.1324 67.9458C54.3277 68.3679 54.7435 68.79 55.2475 68.5758C55.3204 68.5492 55.3861 68.506 55.4395 68.4497C55.4928 68.3934 55.5324 68.3254 55.555 68.2512C55.5776 68.177 55.5826 68.0985 55.5697 68.022C55.5568 67.9455 55.5263 67.873 55.4807 67.8103Z" fill="#140C00"/>
<path d="M57.5732 59.4151C56.7769 60.4757 55.7779 61.3676 54.6342 62.0391C53.5184 62.7388 52.318 63.2934 51.062 63.6897C51.0499 63.6935 51.0397 63.7019 51.0338 63.7131C51.0279 63.7244 51.0267 63.7375 51.0305 63.7496C51.0342 63.7617 51.0426 63.7718 51.0539 63.7777C51.0651 63.7836 51.0782 63.7848 51.0903 63.7811C51.7747 63.6418 52.4493 63.4576 53.1095 63.2298C53.7462 62.9879 54.358 62.6851 54.9366 62.3257C56.0706 61.6187 56.995 60.6214 57.6141 59.4371C57.6156 59.4344 57.6165 59.4315 57.6168 59.4284C57.6171 59.4254 57.6168 59.4223 57.6159 59.4194C57.6151 59.4165 57.6136 59.4138 57.6117 59.4114C57.6098 59.409 57.6074 59.4071 57.6047 59.4056C57.602 59.4042 57.5991 59.4033 57.596 59.403C57.593 59.4026 57.5899 59.4029 57.587 59.4038C57.5841 59.4047 57.5813 59.4061 57.579 59.4081C57.5766 59.41 57.5746 59.4124 57.5732 59.4151Z" fill="#140C00"/>
<path d="M57.758 56.4729C57.3533 57.5313 56.7369 58.4959 55.9467 59.308C55.9026 59.3521 55.9719 59.412 56.016 59.3742C56.8928 58.6127 57.5306 57.6139 57.8525 56.4982C57.8683 56.454 57.7801 56.4162 57.758 56.4729Z" fill="#140C00"/>
<path d="M91.6986 74.8914L44.8789 70.3521L53.8661 17.9189L91.9821 23.2678L91.6986 74.8914Z" fill="#8E5301"/>
<path d="M102.5 75.9362L87.9688 74.5281L90.892 23.1597L104.749 25.7301L102.5 75.9362Z" fill="#140C00"/>
<path d="M49.364 17.4841L48.3623 27.7944L90.1734 30.5633L91.3168 18.7599L49.364 17.4841Z" fill="#FEAA34"/>
<path d="M105.728 33.3585L90.1729 30.5643L91.3163 18.761L107.618 23.1302L105.728 33.3585Z" fill="#8E5301"/>
<path d="M71.7264 72.9546L61.9297 72.0064L66.1697 17.9951L77.8124 18.3511L71.7264 72.9546Z" fill="#FD9501"/>
<path opacity="0.1" d="M77.8127 18.3511L77.1764 24.0653H65.6943L66.17 17.9951L77.8127 18.3511Z" fill="black"/>
<path d="M93.9697 75.1088L97.2994 75.4332L102.213 21.6802L97.6301 20.4517L93.9697 75.1088Z" fill="#FD9501"/>
<path opacity="0.1" d="M93.9697 75.1088L97.2994 75.4332L102.213 21.6802L97.6301 20.4517L93.9697 75.1088Z" fill="black"/>
<path d="M64.4813 17.144C64.4813 17.144 57.7243 17.4433 54.7412 21.3967C51.7581 25.35 51.4021 29.5396 50.3122 30.8469C49.2223 32.1542 44.4404 33.367 44.4404 33.367L51.1879 40.8516C51.1879 40.8516 54.1836 40.9114 55.9918 36.4824C57.7999 32.0534 57.4629 26.8085 59.7719 23.7057C62.0809 20.6028 66.2548 18.9301 66.2548 18.9301L64.4813 17.144Z" fill="#FD9501"/>
<path opacity="0.1" d="M58.4742 26.3415C57.1055 24.6566 56.0444 22.7436 55.3398 20.6903C58.5435 17.4016 64.4751 17.1401 64.4751 17.1401L66.2454 18.9136C66.2454 18.9136 62.0716 20.5895 59.7626 23.6892C59.1916 24.4973 58.7564 25.3932 58.4742 26.3415Z" fill="black"/>
<path d="M75.4183 16.7145C75.4183 16.7145 81.772 15.3946 85.8545 18.1982C89.937 21.0017 91.7483 24.3345 93.1911 25.2197C94.6338 26.1049 99.5605 25.7552 99.5605 25.7552L95.5284 34.9881C95.5284 34.9881 92.6933 35.993 89.5874 32.3641C86.4814 28.7352 85.1331 23.6509 81.9673 21.4396C78.8015 19.2282 74.3252 18.9195 74.3252 18.9195L75.4183 16.7145Z" fill="#FD9501"/>
<path opacity="0.1" d="M89.968 21.8282C89.9129 24.9183 89.4132 27.9843 88.4843 30.9319C86.106 27.5015 84.7325 23.3717 81.9605 21.4407C78.7915 19.2357 74.3184 18.9207 74.3184 18.9207L75.4177 16.7156C75.4177 16.7156 81.7715 15.3926 85.854 18.1993C87.359 19.2484 88.7393 20.4659 89.968 21.8282Z" fill="black"/>
<path d="M87.5088 18.1394C87.1088 19.7649 79.0194 20.5524 74.2344 17.941C74.2344 17.941 78.5972 14.8822 82.4561 15.2508C86.3149 15.6193 87.6821 17.4338 87.5088 18.1394Z" fill="#FD9501"/>
<path opacity="0.2" d="M87.5088 18.1394C87.1088 19.7649 79.0194 20.5524 74.2344 17.941C74.2344 17.941 78.5972 14.8822 82.4561 15.2508C86.3149 15.6193 87.6821 17.4338 87.5088 18.1394Z" fill="black"/>
<path d="M74.2344 17.9403L74.31 17.3796L74.4013 16.7306L74.4328 16.4881C78.235 11.2306 84.0122 9.5579 84.428 9.61775C84.8439 9.6776 86.7906 11.7945 87.4679 13.7475C88.1451 15.7006 87.4994 18.6837 87.5088 18.1387C87.5183 17.5938 86.1826 15.9652 83.2279 15.6502C80.2731 15.3352 75.0061 17.263 74.2344 17.9403Z" fill="#FD9501"/>
<path opacity="0.2" d="M74.3086 17.3778L74.3999 16.7289C75.1977 15.7754 76.1845 14.9978 77.298 14.4451C77.3264 14.4451 77.3484 14.4734 77.3264 14.4923C76.7594 14.9418 76.2144 15.4143 75.6915 15.9099C77.0544 15.1491 78.4935 14.5335 79.985 14.0734C80.048 14.0513 80.089 14.1458 80.0228 14.1679C77.9249 14.9239 76.1608 16.1934 74.3086 17.3778Z" fill="black"/>
<path d="M82.4805 30.0445C80.6818 30.8603 75.3298 24.9224 74.2588 18.5813C74.2588 18.5813 79.0406 19.3468 81.504 23.1899C83.9673 27.033 83.2617 29.6916 82.4805 30.0445Z" fill="#FD9501"/>
<path opacity="0.2" d="M82.4805 30.0445C80.6818 30.8603 75.3298 24.9224 74.2588 18.5813C74.2588 18.5813 79.0406 19.3468 81.504 23.1899C83.9673 27.033 83.2617 29.6916 82.4805 30.0445Z" fill="black"/>
<path d="M74.2588 18.5832L74.5171 16.6616C82.1624 16.3466 87.927 20.4827 88.1759 20.9142C88.4247 21.3458 87.8798 24.6943 86.5662 26.7419C85.2526 28.7895 82.0143 30.3739 82.5246 29.9865C83.0349 29.599 83.5767 27.1514 81.6867 24.1935C79.7966 21.2355 75.4527 18.8005 74.2588 18.5832Z" fill="#FD9501"/>
<path opacity="0.2" d="M74.3535 17.8813L74.4165 17.4277C76.7602 17.7679 79.0503 18.8421 80.9718 20.1494C81.0285 20.1904 80.9718 20.2912 80.9088 20.2565C79.7791 19.6078 78.5904 19.0678 77.3587 18.6437C76.3752 18.3225 75.3712 18.0678 74.3535 17.8813Z" fill="black"/>
<path d="M85.2783 28.1982C85.8311 27.5874 86.3515 26.9481 86.8376 26.283C86.5288 27.0675 85.9839 27.7367 85.2783 28.1982Z" fill="#140C00"/>
<path d="M58.4113 14.2198C58.3703 15.8925 65.9715 18.7937 71.2668 17.54C71.2668 17.54 67.871 13.4449 64.0499 12.7707C60.2289 12.0966 58.4302 13.4953 58.4113 14.2198Z" fill="#FD9501"/>
<path opacity="0.2" d="M58.4113 14.2198C58.3703 15.8925 65.9715 18.7937 71.2668 17.54C71.2668 17.54 67.871 13.4449 64.0499 12.7707C60.2289 12.0966 58.4302 13.4953 58.4113 14.2198Z" fill="black"/>
<path d="M59.6024 9.99889C60.7711 8.2947 63.2092 6.76691 63.625 6.82046C64.0408 6.87401 69.1723 10.0115 71.4467 16.088L71.4057 16.403L71.3018 17.1779L71.2577 17.5402C70.6938 16.6834 66.1483 13.464 63.2029 12.9694C60.2576 12.4749 58.5377 13.6939 58.4022 14.2295C58.2668 14.765 58.4432 11.6999 59.6024 9.99889Z" fill="#FD9501"/>
<path opacity="0.2" d="M66.6129 11.3418C67.8994 12.2175 69.0491 13.2791 70.0244 14.4919C70.5241 15.1015 70.9889 15.7388 71.4167 16.4008L71.3128 17.1758C70.8636 16.356 70.3529 15.5714 69.785 14.8289C68.8025 13.6081 67.6973 12.4913 66.4868 11.4961C66.4707 11.4783 66.4616 11.4552 66.461 11.4311C66.4604 11.4071 66.4684 11.3836 66.4837 11.3649C66.4989 11.3463 66.5203 11.3337 66.544 11.3295C66.5677 11.3252 66.5921 11.3296 66.6129 11.3418Z" fill="black"/>
<path d="M60.0892 27.0218C61.6075 28.2818 68.3613 23.9882 71.0704 18.1511C71.0704 18.1511 66.2571 17.6251 62.8518 20.6712C59.4466 23.7173 59.4308 26.4768 60.0892 27.0218Z" fill="#FD9501"/>
<path opacity="0.2" d="M60.0892 27.0218C61.6075 28.2818 68.3613 23.9882 71.0704 18.1511C71.0704 18.1511 66.2571 17.6251 62.8518 20.6712C59.4466 23.7173 59.4308 26.4768 60.0892 27.0218Z" fill="black"/>
<path d="M57.0339 16.7217C57.3868 16.372 64.0397 13.9087 71.329 16.2334L71.0707 18.155C69.8642 18.051 65.032 19.2355 62.4237 21.598C59.8155 23.9606 59.6926 26.4554 60.0832 26.9532C60.4738 27.4509 57.7711 25.082 57.0434 22.7572C56.3157 20.4325 56.6811 17.0713 57.0339 16.7217Z" fill="#FD9501"/>
<path opacity="0.2" d="M63.322 19.0409C64.4088 18.0392 65.7129 17.5825 67.1525 17.3053C68.1902 17.1011 69.2449 16.9957 70.3026 16.9902C69.6607 16.8714 69.013 16.7873 68.3621 16.7382C67.1937 16.7084 66.0255 16.8055 64.8781 17.028C64.7962 17.028 64.7836 16.9272 64.8466 16.8989C66.6863 16.0452 69.2567 16.3098 71.2476 16.8422L71.1625 17.4722C70.0159 17.4367 68.8682 17.4862 67.7289 17.6203C66.2893 17.825 64.5537 18.181 63.3976 19.1292C63.3472 19.1638 63.2747 19.0851 63.322 19.0409Z" fill="black"/>
<path d="M70.3433 16.3925C70.4063 16.0019 70.7214 14.5875 71.2884 14.4363C71.8554 14.2851 72.7563 14.7514 73.0052 14.7829C73.254 14.8144 74.24 14.6033 74.7472 14.9026C75.2543 15.2018 75.1882 16.6477 75.1472 17.0415C75.1063 17.4352 74.8669 18.9504 74.3408 19.0575C73.8147 19.1646 72.6839 18.6795 72.4823 18.6512C72.2806 18.6228 71.0616 18.7929 70.5922 18.5503C70.1228 18.3078 70.2803 16.7832 70.3433 16.3925Z" fill="#FD9501"/>
<path d="M71.1162 95.4759C94.2097 95.4759 112.931 93.7536 112.931 91.629C112.931 89.5043 94.2097 87.782 71.1162 87.782C48.0227 87.782 29.3018 89.5043 29.3018 91.629C29.3018 93.7536 48.0227 95.4759 71.1162 95.4759Z" fill="#FECC85"/>
<path d="M105.885 82.5188V90.3924H36.3477V82.5188C37.9758 82.5188 39.5374 81.8722 40.6889 80.7211C41.8404 79.57 42.4876 78.0088 42.4883 76.3806H99.7562C99.7569 78.0067 100.402 79.5661 101.551 80.7168C102.7 81.8675 104.259 82.5156 105.885 82.5188Z" fill="#140C00"/>
<g opacity="0.2">
<path d="M42.9733 76.6185H42.4878C42.4235 76.6185 42.3617 76.5929 42.3162 76.5474C42.2707 76.5019 42.2451 76.4401 42.2451 76.3758C42.2451 76.3114 42.2707 76.2497 42.3162 76.2041C42.3617 76.1586 42.4235 76.1331 42.4878 76.1331H42.9733C43.0376 76.1331 43.0994 76.1586 43.1449 76.2041C43.1904 76.2497 43.216 76.3114 43.216 76.3758C43.216 76.4401 43.1904 76.5019 43.1449 76.5474C43.0994 76.5929 43.0376 76.6185 42.9733 76.6185Z" fill="black"/>
<path d="M97.0566 76.6185H96.0857C96.0214 76.6185 95.9596 76.5929 95.9141 76.5474C95.8686 76.5019 95.843 76.4401 95.843 76.3758C95.843 76.3114 95.8686 76.2497 95.9141 76.2041C95.9596 76.1586 96.0214 76.1331 96.0857 76.1331H97.0566C97.121 76.1331 97.1827 76.1586 97.2282 76.2041C97.2737 76.2497 97.2993 76.3114 97.2993 76.3758C97.2993 76.4401 97.2737 76.5019 97.2282 76.5474C97.1827 76.5929 97.121 76.6185 97.0566 76.6185ZM93.8746 76.6185H92.9038C92.8394 76.6185 92.7777 76.5929 92.7322 76.5474C92.6866 76.5019 92.6611 76.4401 92.6611 76.3758C92.6611 76.3114 92.6866 76.2497 92.7322 76.2041C92.7777 76.1586 92.8394 76.1331 92.9038 76.1331H93.8746C93.939 76.1331 94.0007 76.1586 94.0463 76.2041C94.0918 76.2497 94.1173 76.3114 94.1173 76.3758C94.1173 76.4401 94.0918 76.5019 94.0463 76.5474C94.0007 76.5929 93.939 76.6185 93.8746 76.6185ZM90.6927 76.6185H89.7218C89.6575 76.6185 89.5957 76.5929 89.5502 76.5474C89.5047 76.5019 89.4791 76.4401 89.4791 76.3758C89.4791 76.3114 89.5047 76.2497 89.5502 76.2041C89.5957 76.1586 89.6575 76.1331 89.7218 76.1331H90.6927C90.757 76.1331 90.8188 76.1586 90.8643 76.2041C90.9098 76.2497 90.9354 76.3114 90.9354 76.3758C90.9354 76.4401 90.9098 76.5019 90.8643 76.5474C90.8188 76.5929 90.757 76.6185 90.6927 76.6185ZM87.5107 76.6185H86.5399C86.4755 76.6185 86.4138 76.5929 86.3682 76.5474C86.3227 76.5019 86.2971 76.4401 86.2971 76.3758C86.2971 76.3114 86.3227 76.2497 86.3682 76.2041C86.4138 76.1586 86.4755 76.1331 86.5399 76.1331H87.5107C87.5751 76.1331 87.6368 76.1586 87.6823 76.2041C87.7279 76.2497 87.7534 76.3114 87.7534 76.3758C87.7534 76.4401 87.7279 76.5019 87.6823 76.5474C87.6368 76.5929 87.5751 76.6185 87.5107 76.6185ZM84.3312 76.6185H83.3603C83.296 76.6185 83.2342 76.5929 83.1887 76.5474C83.1432 76.5019 83.1176 76.4401 83.1176 76.3758C83.1176 76.3114 83.1432 76.2497 83.1887 76.2041C83.2342 76.1586 83.296 76.1331 83.3603 76.1331H84.3312C84.3956 76.1331 84.4573 76.1586 84.5028 76.2041C84.5483 76.2497 84.5739 76.3114 84.5739 76.3758C84.5739 76.4401 84.5483 76.5019 84.5028 76.5474C84.4573 76.5929 84.3956 76.6185 84.3312 76.6185ZM81.1492 76.6185H80.1784C80.114 76.6185 80.0523 76.5929 80.0068 76.5474C79.9612 76.5019 79.9357 76.4401 79.9357 76.3758C79.9357 76.3114 79.9612 76.2497 80.0068 76.2041C80.0523 76.1586 80.114 76.1331 80.1784 76.1331H81.1492C81.2136 76.1331 81.2753 76.1586 81.3209 76.2041C81.3664 76.2497 81.3919 76.3114 81.3919 76.3758C81.3919 76.4401 81.3664 76.5019 81.3209 76.5474C81.2753 76.5929 81.2136 76.6185 81.1492 76.6185ZM77.9673 76.6185H76.9964C76.932 76.6185 76.8703 76.5929 76.8248 76.5474C76.7793 76.5019 76.7537 76.4401 76.7537 76.3758C76.7537 76.3114 76.7793 76.2497 76.8248 76.2041C76.8703 76.1586 76.932 76.1331 76.9964 76.1331H77.9673C78.0316 76.1331 78.0934 76.1586 78.1389 76.2041C78.1844 76.2497 78.21 76.3114 78.21 76.3758C78.21 76.4401 78.1844 76.5019 78.1389 76.5474C78.0934 76.5929 78.0316 76.6185 77.9673 76.6185ZM74.7853 76.6185H73.8145C73.7501 76.6185 73.6884 76.5929 73.6428 76.5474C73.5973 76.5019 73.5717 76.4401 73.5717 76.3758C73.5717 76.3114 73.5973 76.2497 73.6428 76.2041C73.6884 76.1586 73.7501 76.1331 73.8145 76.1331H74.7853C74.8497 76.1331 74.9114 76.1586 74.9569 76.2041C75.0025 76.2497 75.028 76.3114 75.028 76.3758C75.028 76.4401 75.0025 76.5019 74.9569 76.5474C74.9114 76.5929 74.8497 76.6185 74.7853 76.6185ZM71.6058 76.6185H70.6349C70.5706 76.6185 70.5088 76.5929 70.4633 76.5474C70.4178 76.5019 70.3922 76.4401 70.3922 76.3758C70.3922 76.3114 70.4178 76.2497 70.4633 76.2041C70.5088 76.1586 70.5706 76.1331 70.6349 76.1331H71.6058C71.6701 76.1331 71.7319 76.1586 71.7774 76.2041C71.8229 76.2497 71.8485 76.3114 71.8485 76.3758C71.8485 76.4401 71.8229 76.5019 71.7774 76.5474C71.7319 76.5929 71.6701 76.6185 71.6058 76.6185ZM68.4238 76.6185H67.453C67.3886 76.6185 67.3269 76.5929 67.2813 76.5474C67.2358 76.5019 67.2103 76.4401 67.2103 76.3758C67.2103 76.3114 67.2358 76.2497 67.2813 76.2041C67.3269 76.1586 67.3886 76.1331 67.453 76.1331H68.4238C68.4882 76.1331 68.5499 76.1586 68.5954 76.2041C68.641 76.2497 68.6665 76.3114 68.6665 76.3758C68.6665 76.4401 68.641 76.5019 68.5954 76.5474C68.5499 76.5929 68.4882 76.6185 68.4238 76.6185ZM65.2419 76.6185H64.271C64.2066 76.6185 64.1449 76.5929 64.0994 76.5474C64.0539 76.5019 64.0283 76.4401 64.0283 76.3758C64.0283 76.3114 64.0539 76.2497 64.0994 76.2041C64.1449 76.1586 64.2066 76.1331 64.271 76.1331H65.2419C65.3062 76.1331 65.368 76.1586 65.4135 76.2041C65.459 76.2497 65.4846 76.3114 65.4846 76.3758C65.4846 76.4401 65.459 76.5019 65.4135 76.5474C65.368 76.5929 65.3062 76.6185 65.2419 76.6185ZM62.0599 76.6185H61.0891C61.0247 76.6185 60.9629 76.5929 60.9174 76.5474C60.8719 76.5019 60.8463 76.4401 60.8463 76.3758C60.8463 76.3114 60.8719 76.2497 60.9174 76.2041C60.9629 76.1586 61.0247 76.1331 61.0891 76.1331H62.0599C62.1243 76.1331 62.186 76.1586 62.2315 76.2041C62.277 76.2497 62.3026 76.3114 62.3026 76.3758C62.3026 76.4401 62.277 76.5019 62.2315 76.5474C62.186 76.5929 62.1243 76.6185 62.0599 76.6185ZM58.8804 76.6185H57.9095C57.8452 76.6185 57.7834 76.5929 57.7379 76.5474C57.6924 76.5019 57.6668 76.4401 57.6668 76.3758C57.6668 76.3114 57.6924 76.2497 57.7379 76.2041C57.7834 76.1586 57.8452 76.1331 57.9095 76.1331H58.8804C58.9447 76.1331 59.0065 76.1586 59.052 76.2041C59.0975 76.2497 59.1231 76.3114 59.1231 76.3758C59.1231 76.4401 59.0975 76.5019 59.052 76.5474C59.0065 76.5929 58.9447 76.6185 58.8804 76.6185ZM55.6984 76.6185H54.7276C54.6632 76.6185 54.6015 76.5929 54.5559 76.5474C54.5104 76.5019 54.4849 76.4401 54.4849 76.3758C54.4849 76.3114 54.5104 76.2497 54.5559 76.2041C54.6015 76.1586 54.6632 76.1331 54.7276 76.1331H55.6984C55.7628 76.1331 55.8245 76.1586 55.87 76.2041C55.9156 76.2497 55.9411 76.3114 55.9411 76.3758C55.9411 76.4401 55.9156 76.5019 55.87 76.5474C55.8245 76.5929 55.7628 76.6185 55.6984 76.6185ZM52.5165 76.6185H51.5456C51.4812 76.6185 51.4195 76.5929 51.374 76.5474C51.3285 76.5019 51.3029 76.4401 51.3029 76.3758C51.3029 76.3114 51.3285 76.2497 51.374 76.2041C51.4195 76.1586 51.4812 76.1331 51.5456 76.1331H52.5165C52.5808 76.1331 52.6426 76.1586 52.6881 76.2041C52.7336 76.2497 52.7592 76.3114 52.7592 76.3758C52.7592 76.4401 52.7336 76.5019 52.6881 76.5474C52.6426 76.5929 52.5808 76.6185 52.5165 76.6185ZM49.3369 76.6185H48.3661C48.3017 76.6185 48.24 76.5929 48.1945 76.5474C48.1489 76.5019 48.1234 76.4401 48.1234 76.3758C48.1234 76.3114 48.1489 76.2497 48.1945 76.2041C48.24 76.1586 48.3017 76.1331 48.3661 76.1331H49.3369C49.4013 76.1331 49.463 76.1586 49.5085 76.2041C49.5541 76.2497 49.5796 76.3114 49.5796 76.3758C49.5796 76.4401 49.5541 76.5019 49.5085 76.5474C49.463 76.5929 49.4013 76.6185 49.3369 76.6185ZM46.155 76.6185H45.1841C45.1197 76.6185 45.058 76.5929 45.0125 76.5474C44.967 76.5019 44.9414 76.4401 44.9414 76.3758C44.9414 76.3114 44.967 76.2497 45.0125 76.2041C45.058 76.1586 45.1197 76.1331 45.1841 76.1331H46.155C46.2193 76.1331 46.2811 76.1586 46.3266 76.2041C46.3721 76.2497 46.3977 76.3114 46.3977 76.3758C46.3977 76.4401 46.3721 76.5019 46.3266 76.5474C46.2811 76.5929 46.2193 76.6185 46.155 76.6185Z" fill="black"/>
<path d="M99.7555 76.6185H99.2701C99.2057 76.6185 99.144 76.5929 99.0984 76.5474C99.0529 76.5019 99.0273 76.4401 99.0273 76.3758C99.0273 76.3114 99.0529 76.2497 99.0984 76.2041C99.144 76.1586 99.2057 76.1331 99.2701 76.1331H99.7555C99.8199 76.1331 99.8816 76.1586 99.9271 76.2041C99.9726 76.2497 99.9982 76.3114 99.9982 76.3758C99.9982 76.4401 99.9726 76.5019 99.9271 76.5474C99.8816 76.5929 99.8199 76.6185 99.7555 76.6185Z" fill="black"/>
</g>
<defs>
<radialGradient id="paint0_radial_742_21943" cx="0" cy="0" r="1" gradientUnits="userSpaceOnUse" gradientTransform="translate(71.1152 51.1472) rotate(90) scale(69.0413)">
<stop stop-color="#5C6CFF" stop-opacity="0"/>
<stop offset="0.520833" stop-color="#5C6CFF" stop-opacity="0.0625"/>
<stop offset="1" stop-color="#5C6CFF"/>
</radialGradient>
<radialGradient id="paint1_radial_742_21943" cx="0" cy="0" r="1" gradientUnits="userSpaceOnUse" gradientTransform="translate(71.1163 51.1475) rotate(90) scale(79.2471)">
<stop stop-color="#5C6CFF" stop-opacity="0"/>
<stop offset="0.589355" stop-color="#5C6CFF" stop-opacity="0.0625"/>
<stop offset="1" stop-color="#5C6CFF"/>
</radialGradient>
</defs>
</svg>
