<svg width="12" height="11" viewBox="0 0 12 11" fill="none" xmlns="http://www.w3.org/2000/svg">
<path d="M10.9449 9.16003C11.3049 9.52003 11.3049 10.08 10.9449 10.44C10.7649 10.62 10.5449 10.7 10.3049 10.7C10.0649 10.7 9.84493 10.62 9.66493 10.44L6.00492 6.78004L2.34491 10.44C2.16491 10.62 1.94492 10.7 1.70492 10.7C1.46492 10.7 1.24493 10.62 1.06493 10.44C0.704932 10.08 0.704932 9.52003 1.06493 9.16003L4.72492 5.50004L1.06493 1.84004C0.704932 1.48004 0.704932 0.920036 1.06493 0.560037C1.42493 0.200037 1.98491 0.200037 2.34491 0.560037L6.00492 4.22003L9.66493 0.560037C10.0249 0.200037 10.5849 0.200037 10.9449 0.560037C11.3049 0.920036 11.3049 1.48004 10.9449 1.84004L7.2849 5.50004L10.9449 9.16003Z" fill="white"/>
</svg>
