<svg width="132" height="132" viewBox="0 0 132 132" fill="none" xmlns="http://www.w3.org/2000/svg">
<circle cx="65.9992" cy="65.9999" r="57.5002" fill="url(#paint0_radial_742_21928)"/>
<circle cx="66" cy="66" r="66" fill="url(#paint1_radial_742_21928)"/>
<path d="M95.932 76.6903C110.068 76.6903 121.527 65.2309 121.527 51.0951C121.527 36.9593 110.068 25.5 95.932 25.5C81.7962 25.5 70.3369 36.9593 70.3369 51.0951C70.3369 65.2309 81.7962 76.6903 95.932 76.6903Z" fill="#FD9501"/>
<path d="M27.8951 105.5C37.5528 105.5 45.382 97.6707 45.382 88.013C45.382 78.3553 37.5528 70.5261 27.8951 70.5261C18.2373 70.5261 10.4082 78.3553 10.4082 88.013C10.4082 97.6707 18.2373 105.5 27.8951 105.5Z" fill="#999CFF"/>
<path d="M80.3226 46.3229V64.6604H75.1307V46.3229C75.1307 39.3414 69.8282 33.6634 63.3107 33.6634C56.7932 33.6634 51.4908 39.3414 51.4908 46.3229V64.6604H46.2988V46.3229C46.2988 36.3257 53.9321 28.1953 63.3107 28.1953C72.6893 28.1953 80.3226 36.3257 80.3226 46.3229Z" fill="#BFBFC5"/>
<path d="M46.2988 51.0952L51.4908 51.3051V64.6826H46.2988V51.0952Z" fill="#94949E"/>
<path d="M80.3228 52.487V64.6826H75.1309V52.2661L80.3228 52.487Z" fill="#94949E"/>
<path d="M86.9724 54.2324H39.6484V97.1598H86.9724V54.2324Z" fill="#474EFF"/>
<path opacity="0.15" d="M86.9725 54.2324H63.3105V97.1598H86.9725V54.2324Z" fill="black"/>
<path d="M65.3103 77.2647L67.2987 86.6654H58.8811L60.8696 77.2647C60.0899 76.7838 59.4884 76.0617 59.1563 75.208C58.8243 74.3542 58.7799 73.4155 59.0298 72.5342C59.2797 71.6529 59.8103 70.8772 60.541 70.3249C61.2718 69.7725 62.1629 69.4736 63.0789 69.4736C63.9949 69.4736 64.8859 69.7725 65.6167 70.3249C66.3475 70.8772 66.8781 71.6529 67.128 72.5342C67.3779 73.4155 67.3335 74.3542 67.0015 75.208C66.6694 76.0617 66.0679 76.7838 65.2882 77.2647H65.3103Z" fill="#000352"/>
<defs>
<radialGradient id="paint0_radial_742_21928" cx="0" cy="0" r="1" gradientUnits="userSpaceOnUse" gradientTransform="translate(65.9992 65.9999) rotate(90) scale(89.0898)">
<stop stop-color="#5C6CFF" stop-opacity="0"/>
<stop offset="0.520833" stop-color="#5C6CFF" stop-opacity="0.0625"/>
<stop offset="1" stop-color="#142DFF"/>
</radialGradient>
<radialGradient id="paint1_radial_742_21928" cx="0" cy="0" r="1" gradientUnits="userSpaceOnUse" gradientTransform="translate(66 66) rotate(90) scale(102.259)">
<stop stop-color="#5C6CFF" stop-opacity="0"/>
<stop offset="0.589355" stop-color="#5C6CFF" stop-opacity="0.0625"/>
<stop offset="1" stop-color="#142DFF"/>
</radialGradient>
</defs>
</svg>
