<svg width="64" height="64" viewBox="0 0 64 64" fill="none" xmlns="http://www.w3.org/2000/svg">
<g clip-path="url(#clip0_742_22515)">
<path d="M0 32C0 14.3269 14.3269 0 32 0V0C49.6731 0 64 14.3269 64 32V32C64 49.6731 49.6731 64 32 64V64C14.3269 64 0 49.6731 0 32V32Z" fill="#F2F2F3"/>
<path d="M32.079 12.8C25.6443 12.8 20.4279 18.0164 20.4279 24.4512C20.4279 30.886 25.6443 36.1024 32.079 36.1024C38.5138 36.1024 43.7302 30.886 43.7302 24.4512C43.7302 18.0164 38.5138 12.8 32.079 12.8Z" fill="#D4D4D8"/>
<path d="M19.6512 42.3163C13.2164 42.3163 8 47.5327 8 53.9675V57.6594C8 59.9997 9.69605 61.9951 12.0057 62.3722C25.2999 64.5427 38.8582 64.5427 52.1524 62.3722C54.462 61.9951 56.1581 59.9997 56.1581 57.6594V53.9675C56.1581 47.5327 50.9417 42.3163 44.5069 42.3163H43.4479C42.8747 42.3163 42.305 42.4069 41.7602 42.5849L39.071 43.463C34.5277 44.9465 29.6304 44.9465 25.0871 43.463L22.3979 42.5849C21.853 42.4069 21.2834 42.3163 20.7102 42.3163H19.6512Z" fill="#D4D4D8"/>
</g>
<path d="M32 61.6C15.6524 61.6 2.4 48.3476 2.4 32C2.4 15.6524 15.6524 2.4 32 2.4C48.3476 2.4 61.6 15.6524 61.6 32C61.6 48.3476 48.3476 61.6 32 61.6Z" stroke="#F2F2F3" stroke-width="4.8"/>
<defs>
<clipPath id="clip0_742_22515">
<path d="M0 32C0 14.3269 14.3269 0 32 0V0C49.6731 0 64 14.3269 64 32V32C64 49.6731 49.6731 64 32 64V64C14.3269 64 0 49.6731 0 32V32Z" fill="white"/>
</clipPath>
</defs>
</svg>
