<svg width="140" height="140" viewBox="0 0 140 140" fill="none" xmlns="http://www.w3.org/2000/svg">
<path d="M0 70C0 31.3401 31.3401 0 70 0V0C108.66 0 140 31.3401 140 70V70C140 108.66 108.66 140 70 140V140C31.3401 140 0 108.66 0 70V70Z" fill="white"/>
<path d="M52.4033 53.3418C52.4033 52.9895 52.5941 52.6666 52.895 52.4905L68.0191 43.7947C68.32 43.6186 68.6942 43.6186 68.9951 43.7947L84.1193 52.4905C84.4201 52.6666 84.6109 52.9895 84.6109 53.3418V70.7187C84.6109 71.071 84.4201 71.3939 84.1193 71.57L68.9951 80.2585C68.6942 80.4346 68.32 80.4346 68.0191 80.2585L52.895 71.57C52.5941 71.3939 52.4033 71.071 52.4033 70.7187V53.3418Z" fill="#FD9501"/>
<path fill-rule="evenodd" clip-rule="evenodd" d="M99.6397 85.9162L86.607 93.4379L102.377 102.545C104.63 103.844 105.4 106.72 104.101 108.973L99.8672 116.311C98.5684 118.564 95.6918 119.335 93.4389 118.036L63.6089 100.813C63.5869 100.798 63.5649 100.791 63.5355 100.776L62.3027 100.064C62.2807 100.05 62.2587 100.042 62.2366 100.028L46.2099 90.8035C43.9571 89.5046 43.1865 86.628 44.4854 84.3752L48.7196 77.0442C50.0185 74.7914 52.895 74.0209 55.1479 75.3198L67.3294 82.3278C68.5622 82.7094 69.9198 82.57 71.0646 81.9095L84.7064 74.0356C86.1594 73.1917 87.062 71.6433 87.062 69.9555V54.2076C87.062 52.5271 86.1667 50.9714 84.7064 50.1275L71.0719 42.2609C69.6189 41.417 67.8211 41.417 66.3607 42.2609L62.6696 44.389C62.4861 44.5358 62.2954 44.6679 62.0899 44.7926L53.7243 49.6726C49.6809 51.8887 48.3307 51.287 46.0044 50.0468C46.0044 50.0468 38.5708 45.6952 36.5894 44.5871C34.6081 43.4791 34.3366 40.0521 36.5894 38.7532L53.1445 29.3016C53.3867 29.1621 53.6362 29.0521 53.8931 28.9567L63.5355 23.3869C66.7423 21.5377 70.6903 21.5377 73.8898 23.3869L99.6324 38.2542C102.839 40.1035 104.813 43.5231 104.813 47.2216V76.9562C104.821 80.6473 102.847 84.067 99.6397 85.9162Z" fill="#000374"/>
</svg>
