<svg xmlns="http://www.w3.org/2000/svg" width="33.791" height="33.791" viewBox="0 0 33.791 33.791">
  <path id="Icon_awesome-medium" data-name="Icon awesome-medium" d="M0,2.25V36.041H33.791V2.25Zm28.074,8-1.81,1.735a.532.532,0,0,0-.2.505v12.77a.519.519,0,0,0,.2.505L28.036,27.5v.385h-8.9v-.37l1.833-1.78c.181-.181.181-.234.181-.505V14.907l-5.1,12.943h-.686L9.428,14.907v8.674a1.193,1.193,0,0,0,.332,1l2.383,2.889v.385H5.37v-.385l2.383-2.889a1.155,1.155,0,0,0,.309-1V13.549a.861.861,0,0,0-.287-.739L5.657,10.253V9.868h6.585l5.084,11.163L21.8,9.876h6.275Z" transform="translate(0 -2.25)" fill="#828282"/>
</svg>
