<svg xmlns="http://www.w3.org/2000/svg" width="33.791" height="33.792" viewBox="0 0 33.791 33.792">
  <g id="Twitter" transform="translate(0 0)">
    <path id="Subtraction_9" data-name="Subtraction 9" d="M18447.9-2758.026a16.78,16.78,0,0,1-11.947-4.948,16.78,16.78,0,0,1-4.949-11.948,16.78,16.78,0,0,1,4.949-11.948,16.78,16.78,0,0,1,11.947-4.948,16.778,16.778,0,0,1,11.945,4.948,16.781,16.781,0,0,1,4.949,11.948,16.781,16.781,0,0,1-4.949,11.948A16.778,16.778,0,0,1,18447.9-2758.026Zm-9.146-11.149h0a10.629,10.629,0,0,0,5.754,1.681,10.566,10.566,0,0,0,10.672-10.668c0-.159,0-.324-.014-.487a8.065,8.065,0,0,0,1.881-1.942,7.32,7.32,0,0,1-2.158.579,3.716,3.716,0,0,0,1.648-2.067,7.443,7.443,0,0,1-2.381.908,3.748,3.748,0,0,0-2.738-1.187,3.756,3.756,0,0,0-3.75,3.754,4.133,4.133,0,0,0,.094.857,10.679,10.679,0,0,1-7.734-3.925,3.706,3.706,0,0,0-.51,1.891,3.745,3.745,0,0,0,1.672,3.123,3.792,3.792,0,0,1-1.7-.473v.046a3.763,3.763,0,0,0,3.008,3.679,3.936,3.936,0,0,1-.988.13,4.415,4.415,0,0,1-.709-.06,3.753,3.753,0,0,0,3.5,2.6,7.443,7.443,0,0,1-4.652,1.6A7.372,7.372,0,0,1,18438.75-2769.175Z" transform="translate(-18431 2791.817)" fill="#828282"/>
  </g>
</svg>
