<svg width="51" height="73" viewBox="0 0 51 73" fill="none" xmlns="http://www.w3.org/2000/svg">
<path d="M36.7471 28.8159C36.4351 35.1109 33.7063 39.8249 27.8223 42.4769C27.5246 42.8588 27.1151 43.1383 26.6511 43.2768C24.2656 44.0275 21.7247 44.1375 19.2832 43.5958C19.0436 43.5797 18.8108 43.509 18.6028 43.3891C18.3948 43.2691 18.2171 43.1031 18.0833 42.9037C18.1233 42.5037 18.4782 42.3587 18.7312 42.1327C20.1242 40.8917 20.1052 39.6868 18.5562 38.5908C16.6434 37.2763 15.0514 35.5479 13.8982 33.5337C12.678 31.4016 12.029 28.9904 12.0142 26.5337C11.9962 23.8707 11.9381 21.2048 12.0361 18.5458C12.0961 16.9158 11.7252 15.7198 10.0031 15.2748C9.94542 15.1315 9.92556 14.9756 9.94553 14.8223C9.9655 14.6691 10.0247 14.5236 10.1172 14.3998C10.7839 13.7688 11.5691 13.276 12.4273 12.9499C13.2854 12.6238 14.1996 12.4708 15.1172 12.4998C19.9052 12.4158 24.6952 12.3999 29.4832 12.4929C30.4909 12.4834 31.4904 12.6754 32.4229 13.0575C33.3553 13.4397 34.2019 14.0044 34.9131 14.7183C35.6243 15.4323 36.1858 16.2811 36.5645 17.215C36.9431 18.1489 37.1314 19.1491 37.1182 20.1568C37.1792 22.5508 37.1382 24.9468 37.1272 27.3428C37.2006 27.8648 37.0638 28.3946 36.7471 28.8159Z" fill="#FFE6C8"/>
<path d="M41.7102 67.0718C35.1632 67.0858 28.6171 67.1108 22.0701 67.1108C15.6971 67.1108 9.32515 67.0868 2.95215 67.0728C3.82715 65.3668 3.73525 63.4728 4.05225 61.6558C4.89025 56.8238 9.31005 53.2388 14.6231 52.8848C15.103 52.8797 15.5819 52.8372 16.0552 52.7578C16.4492 52.7122 16.8268 52.5743 17.1575 52.3554C17.4882 52.1364 17.7627 51.8426 17.9585 51.4978C18.1544 51.153 18.2662 50.7668 18.285 50.3706C18.3037 49.9745 18.2287 49.5795 18.0662 49.2178C17.9542 48.8728 17.5973 48.5397 17.9593 48.1417C18.2037 48.0393 18.4774 48.0318 18.7271 48.1207C21.0269 48.8531 23.4953 48.8688 25.8042 48.1658C26.0151 48.1051 26.2385 48.1034 26.4502 48.1608C26.8382 48.4878 26.6281 48.8718 26.5501 49.2438C26.0971 51.4158 27.0362 52.6898 29.2842 52.8388C30.3276 52.903 31.3641 53.0505 32.3841 53.2798C34.7403 53.8066 36.8489 55.1156 38.366 56.9938C39.8832 58.8719 40.7197 61.2085 40.7393 63.6228C40.6963 64.9168 41.4412 65.9088 41.7102 67.0718Z" fill="#f0b90b"/>
<path d="M36.7473 28.8156C36.7273 26.071 36.7076 23.326 36.6883 20.5806C36.6613 15.7376 33.7964 12.8807 28.9424 12.8807C24.3671 12.876 19.7917 12.876 15.2163 12.8807C13.3856 12.8823 11.6114 13.5148 10.1924 14.6717C9.51641 14.2777 9.92031 13.7476 10.0923 13.3316C11.6303 9.42529 14.6469 6.28337 18.4873 4.58767C21.9683 3.00167 25.6643 2.88761 29.3963 3.12161C29.7454 3.10166 30.0916 3.19671 30.3816 3.39212C30.6717 3.58752 30.8896 3.87256 31.0022 4.20364C33.2105 4.29502 35.3701 4.88163 37.3211 5.92019C39.272 6.95876 40.9644 8.42271 42.2732 10.2037C42.3988 10.3162 42.4992 10.4539 42.5679 10.6079C42.6366 10.7618 42.6724 10.9285 42.6724 11.0971C42.6724 11.2657 42.6366 11.4324 42.5679 11.5864C42.4992 11.7403 42.3988 11.8781 42.2732 11.9907C41.0093 13.5166 40.3434 15.45 40.3994 17.4306C40.4194 19.7876 40.4054 22.1447 40.3994 24.5017C40.3984 27.2497 39.4563 28.3636 36.7473 28.8156Z" fill="#32343D"/>
<path d="M31.0019 4.19871C30.6191 3.77841 30.0953 3.5133 29.53 3.45371C23.807 3.03371 18.3579 3.78874 14.0509 7.98374C12.1969 9.78974 10.511 11.8837 10.193 14.6677L9.91598 15.1827C9.91598 15.2257 9.93598 15.2828 9.91598 15.3108C7.77398 18.6108 8.38902 22.3177 8.28902 25.9267C8.26202 26.8957 8.58911 27.9267 7.90011 28.8177C5.40011 28.3597 4.38503 27.2377 4.42403 24.7577C4.48503 20.8897 4.10689 17.0048 5.02389 13.1708C5.83407 9.38372 7.93883 5.99732 10.9758 3.59421C14.0127 1.19111 17.7921 -0.0784498 21.664 0.00375556C25.3282 -0.0321502 28.9613 0.67961 32.341 2.09568C32.607 2.20668 33.0039 2.23767 33.0099 2.60667C33.0159 2.97567 32.5649 2.94676 32.3439 3.12876C31.9069 3.49476 30.9389 3.19771 31.0019 4.19871Z" fill="#3C3E48"/>
<path d="M7.90126 28.8189C7.93326 25.9189 7.95811 23.019 8.00111 20.119C7.96576 19.2097 8.11757 18.3028 8.44715 17.4546C8.77674 16.6063 9.27709 15.8348 9.91713 15.188C11.9301 15.297 12.3663 15.745 12.3683 17.713C12.3683 20.46 12.4153 23.2129 12.3583 25.9539C12.2793 29.8206 13.7272 33.5626 16.3883 36.369C17.0887 37.0806 17.8749 37.702 18.7291 38.219C19.1654 38.4221 19.5334 38.7476 19.788 39.156C20.0426 39.5643 20.1729 40.0379 20.1632 40.519C20.1345 41.0724 19.9144 41.5985 19.5406 42.0077C19.1669 42.4168 18.6627 42.6834 18.1141 42.7619C17.5821 43.1619 17.2023 42.856 16.8363 42.485C14.6099 41.5785 12.6488 40.1236 11.1356 38.2558C9.62241 36.388 8.60617 34.168 8.18129 31.802C7.95877 30.824 7.86461 29.8212 7.90126 28.8189Z" fill="#FFF1DF"/>
<path d="M41.7089 67.0735C41.2498 66.6445 40.8936 66.1173 40.6666 65.5314C40.4396 64.9455 40.3479 64.316 40.3981 63.6896C40.3836 61.2414 39.5063 58.8765 37.9208 57.011C36.3353 55.1455 34.1428 53.8986 31.7289 53.4895C30.8783 53.334 30.0179 53.2381 29.1539 53.2025C26.5929 53.1175 25.3709 51.1236 26.3739 48.7746C26.4332 48.611 26.4829 48.444 26.5221 48.2746C26.7388 47.8458 27.071 47.486 27.4813 47.236C27.8916 46.986 28.3634 46.8556 28.8439 46.8595C29.4417 47.6938 30.2325 48.3711 31.1488 48.8334C32.0651 49.2957 33.0799 49.5294 34.1061 49.5145C35.5141 49.5436 36.9026 49.8502 38.192 50.4165C39.4815 50.9829 40.6467 51.7979 41.6207 52.8151C42.5948 53.8323 43.3588 55.0316 43.8688 56.3444C44.3788 57.6571 44.6248 59.0576 44.5929 60.4656C44.5929 61.9909 44.5929 63.5169 44.5929 65.0436C44.5929 66.9436 44.4031 67.1255 42.4931 67.1085C42.2291 67.1095 41.9689 67.0855 41.7089 67.0735Z" fill="#f0b90b"/>
<path d="M17.881 48.1699C18.3197 48.6611 18.5864 49.2818 18.6405 49.9381C18.6947 50.5944 18.5334 51.2505 18.1811 51.8069C17.8334 52.3105 17.3539 52.7084 16.7948 52.9572C16.2358 53.2059 15.6189 53.2958 15.0121 53.2169C12.5598 53.2269 10.1811 54.0555 8.25333 55.5713C6.32558 57.0871 4.95916 59.2031 4.371 61.5839C4.25897 62.1826 4.21578 62.7923 4.2421 63.4009C4.30584 64.0696 4.22314 64.7441 3.99967 65.3776C3.77619 66.011 3.41737 66.5882 2.94815 67.0689C2.73015 67.0829 2.51405 67.1059 2.29605 67.1089C0.177057 67.1319 0.0120191 67.0089 0.0580191 64.9329C-0.0609246 62.7134 0.00311974 60.4879 0.249182 58.2789C0.677087 55.8523 1.93614 53.6503 3.81046 52.0508C5.68477 50.4513 8.05745 49.5539 10.5212 49.5128C11.5482 49.5263 12.5635 49.2924 13.4811 48.8308C14.3987 48.3692 15.1917 47.6935 15.7931 46.8608C16.2345 46.8323 16.6737 46.9433 17.0485 47.1782C17.4233 47.4132 17.7144 47.7602 17.881 48.1699Z" fill="#f0b90b"/>
<path d="M17.8842 48.1748L15.7983 46.8667L16.8083 44.5527C18.5457 45.3234 20.4253 45.7216 22.3259 45.7216C24.2265 45.7216 26.1059 45.3234 27.8432 44.5527C28.2662 45.2857 28.2172 46.2237 28.8432 46.8667L26.5212 48.2818C25.1488 48.8476 23.6762 49.1299 22.1919 49.1115C20.7075 49.0931 19.2422 48.7745 17.8842 48.1748Z" fill="#FFD6AB"/>
<path d="M27.8421 44.5496C27.3821 45.7496 26.1552 45.5167 25.2852 45.7617C22.6868 46.3436 19.9763 46.1719 17.4722 45.2667C17.297 45.2396 17.136 45.1543 17.0152 45.0246C16.8943 44.8949 16.8207 44.7282 16.8062 44.5516C16.8155 43.8602 16.8247 43.1692 16.834 42.4786L18.1121 42.7546C21.1121 44.0106 24.0982 43.6846 27.0862 42.7186C27.3322 42.6386 27.576 42.5566 27.822 42.4756C27.8294 43.1676 27.8361 43.859 27.8421 44.5496Z" fill="#FFCB95"/>
<path d="M32.3976 62.3747C32.9646 62.3747 33.5325 62.3527 34.0975 62.3817C34.3704 62.3951 34.6291 62.5073 34.8253 62.6975C35.0215 62.8876 35.1418 63.1428 35.1637 63.4151C35.1856 63.6875 35.1077 63.9585 34.9444 64.1776C34.7812 64.3967 34.5437 64.5488 34.2765 64.6057C32.9807 64.7904 31.6656 64.7951 30.3685 64.6197C30.0859 64.5752 29.8309 64.425 29.6549 64.1996C29.4789 63.9741 29.3951 63.6902 29.4205 63.4053C29.4459 63.1203 29.5785 62.8557 29.7916 62.6649C30.0047 62.4741 30.2825 62.3714 30.5685 62.3777C31.1745 62.3617 31.7856 62.3737 32.3976 62.3747Z" fill="#FFFAFA"/>
<path d="M39.52 72.3945C45.319 72.3945 50.02 67.6935 50.02 61.8945C50.02 56.0955 45.319 51.3945 39.52 51.3945C33.721 51.3945 29.02 56.0955 29.02 61.8945C29.02 67.6935 33.721 72.3945 39.52 72.3945Z" fill="#020202"/>
<path d="M40.4781 59.7968C40.4781 60.7328 40.4781 61.6678 40.4781 62.6038C40.4958 62.7622 40.4799 62.9225 40.4313 63.0743C40.3827 63.226 40.3026 63.3658 40.1961 63.4844C40.0897 63.603 39.9594 63.6978 39.8138 63.7625C39.6681 63.8271 39.5104 63.8603 39.3511 63.8597C39.1917 63.8591 39.0343 63.8249 38.8891 63.7592C38.744 63.6934 38.6143 63.5978 38.5087 63.4784C38.4032 63.359 38.324 63.2187 38.2765 63.0666C38.229 62.9145 38.2142 62.754 38.2331 62.5958C38.2331 60.7245 38.2331 58.8531 38.2331 56.9818C38.2129 56.8221 38.2269 56.6599 38.2744 56.506C38.3218 56.3521 38.4015 56.2102 38.5082 56.0896C38.6148 55.9689 38.746 55.8725 38.8929 55.8066C39.0399 55.7407 39.1991 55.7069 39.3601 55.7075C39.5211 55.7081 39.6802 55.743 39.8266 55.8099C39.9731 55.8769 40.1036 55.9742 40.2094 56.0956C40.3152 56.217 40.3939 56.3595 40.4402 56.5137C40.4866 56.6679 40.4995 56.8302 40.4781 56.9898C40.4801 57.9258 40.4791 58.8608 40.4781 59.7968Z" fill="white"/>
<path d="M39.3644 66.2736C39.5117 66.2731 39.6576 66.3019 39.7937 66.3583C39.9297 66.4147 40.0532 66.4976 40.1569 66.6022C40.2605 66.7069 40.3424 66.8311 40.3976 66.9676C40.4528 67.1042 40.4803 67.2503 40.4784 67.3976C40.4677 67.6897 40.3437 67.966 40.1326 68.1681C39.9214 68.3701 39.6398 68.4819 39.3476 68.4797C39.0554 68.4775 38.7756 68.3614 38.5675 68.1562C38.3595 67.951 38.2396 67.6728 38.2334 67.3806C38.234 67.2334 38.2639 67.0878 38.3213 66.9522C38.3786 66.8166 38.4623 66.6937 38.5675 66.5908C38.6728 66.4878 38.7974 66.4067 38.9342 66.3523C39.0709 66.2978 39.2172 66.2711 39.3644 66.2736Z" fill="white"/>
</svg>
