<svg xmlns="http://www.w3.org/2000/svg" width="33.791" height="33.791" viewBox="0 0 33.791 33.791">
  <path id="Icon_awesome-telegram" data-name="Icon awesome-telegram" d="M16.9.563a16.9,16.9,0,1,0,16.9,16.9A16.893,16.893,0,0,0,16.9.563Zm8.3,11.575L22.421,25.2c-.2.927-.756,1.151-1.526.715l-4.224-3.113-2.037,1.962a1.066,1.066,0,0,1-.852.416l.3-4.3,7.828-7.072c.341-.3-.075-.47-.525-.17l-9.674,6.091-4.169-1.3c-.906-.286-.927-.906.191-1.342l16.289-6.281c.756-.273,1.417.184,1.172,1.328Z" transform="translate(0 -0.563)" fill="#828282"/>
</svg>
