<svg xmlns="http://www.w3.org/2000/svg" width="15.766" height="7.883" viewBox="0 0 15.766 7.883">
  <g id="Icon_feather-link-2" data-name="Icon feather-link-2" transform="translate(0 -9)">
    <path id="Path_8069" data-name="Path 8069" d="M5.912,16.883H3.941A3.941,3.941,0,0,1,3.941,9H5.912a.657.657,0,1,1,0,1.314H3.941a2.628,2.628,0,0,0,0,5.255H5.912a.657.657,0,1,1,0,1.314Z"/>
    <path id="Path_8069-2" data-name="Path 8069" d="M.657,16.883H2.628a3.946,3.946,0,0,0,3.941-3.941A3.941,3.941,0,0,0,2.628,9H.657a.657.657,0,1,0,0,1.314H2.628a2.628,2.628,0,0,1,0,5.255H.657a.657.657,0,1,0,0,1.314Z" transform="translate(9.197)"/>
    <path id="Path_8070" data-name="Path 8070" d="M16.412,17.814H11.157a.657.657,0,0,1,0-1.314h5.255a.657.657,0,1,1,0,1.314Z" transform="translate(-5.902 -4.215)"/>
  </g>
</svg>
