<svg xmlns="http://www.w3.org/2000/svg" width="14.84" height="13.703" viewBox="0 0 14.84 13.703">
  <g id="Icon_ionic-ios-book" data-name="Icon ionic-ios-book" transform="translate(-3.382 -4.5)">
    <path id="Path_8069" data-name="Path 8069" d="M6.876,4.507c1.931,0,3.569,1,3.569,2.927V8h0V18.137a.07.07,0,0,1-.136.025v0a3.356,3.356,0,0,0-2.937-2.516,4.53,4.53,0,0,0-3.323,1.324.385.385,0,0,1-.236.1H3.653c-.132,0-.271-.1-.271-.218V6.509C3.378,5.364,4.945,4.507,6.876,4.507Z" transform="translate(0 -0.003)"/>
    <path id="Path_8070" data-name="Path 8070" d="M22.272,4.5c-1.931,0-3.569,1-3.569,2.927V8h0V18.13a.07.07,0,0,0,.136.025v0a3.391,3.391,0,0,1,2.937-2.516A4.522,4.522,0,0,1,25.1,16.959a.406.406,0,0,0,.236.1h.161c.132,0,.271-.1.271-.218V6.5C25.77,5.357,24.2,4.5,22.272,4.5Z" transform="translate(-7.544 0)"/>
  </g>
</svg>
