<svg xmlns="http://www.w3.org/2000/svg" width="17.5" height="17.5" viewBox="0 0 17.5 17.5">
  <g id="Group_7510" data-name="Group 7510" transform="translate(-486.828 -309)">
    <g id="Group_7336" data-name="Group 7336" transform="translate(486.828 309)">
      <circle id="Ellipse_180" data-name="Ellipse 180" cx="8.75" cy="8.75" r="8.75" fill="#00b389"/>
    </g>
    <g id="Group_7388" data-name="Group 7388" transform="translate(489.711 312.019)">
      <path id="Path_8119" data-name="Path 8119" d="M2101.553,2033.4a5.749,5.749,0,1,0,5.7,5.738A5.767,5.767,0,0,0,2101.553,2033.4Zm-.066,10.124a4.375,4.375,0,1,1,4.4-4.348A4.373,4.373,0,0,1,2101.486,2043.52Z" transform="translate(-2095.758 -2033.396)" fill="#fff"/>
      <path id="Path_8120" data-name="Path 8120" d="M2138.444,2072.359a3.7,3.7,0,1,0,3.69,3.714A3.705,3.705,0,0,0,2138.444,2072.359Zm1.755,4.108a.312.312,0,0,0-.1.316c.084.454.157.91.242,1.364a.345.345,0,0,1-.122.36.321.321,0,0,1-.377.025c-.414-.219-.831-.433-1.243-.658a.3.3,0,0,0-.33,0c-.4.219-.8.422-1.2.637a.354.354,0,0,1-.418,0,.366.366,0,0,1-.12-.4c.091-.476.164-.954.247-1.453.026-.082-.055-.128-.112-.183-.321-.313-.642-.627-.966-.937a.377.377,0,0,1-.144-.416.358.358,0,0,1,.345-.233c.443-.057.885-.133,1.328-.192a.316.316,0,0,0,.277-.208c.18-.392.382-.774.57-1.162.076-.156.163-.28.362-.277s.274.121.346.269c.2.4.4.8.589,1.2a.242.242,0,0,0,.208.163c.473.062.944.142,1.416.209a.339.339,0,0,1,.307.221.347.347,0,0,1-.1.386C2140.866,2075.823,2140.538,2076.15,2140.2,2076.467Z" transform="translate(-2132.68 -2070.315)" fill="#fff"/>
      <path id="Path_8121" data-name="Path 8121" d="M2171.875,2109.631c.063-.365.11-.689.176-1.008a.427.427,0,0,0-.13-.424c-.235-.237-.46-.482-.7-.734.325-.05.653-.11.983-.149a.42.42,0,0,0,.355-.264c.141-.293.286-.584.45-.918.156.314.306.59.434.876a.477.477,0,0,0,.417.316c.315.035.629.09.954.138-.24.25-.46.49-.693.717a.447.447,0,0,0-.146.459c.07.311.111.628.171.987-.314-.164-.6-.3-.871-.456a.483.483,0,0,0-.524,0C2172.482,2109.323,2172.2,2109.461,2171.875,2109.631Z" transform="translate(-2167.263 -2102.318)" fill="#fff"/>
    </g>
  </g>
</svg>
