<svg xmlns="http://www.w3.org/2000/svg" width="16.55" height="16.55" viewBox="0 0 16.55 16.55">
  <g id="Group_7345" data-name="Group 7345" transform="translate(-53.348 -483.612)">
    <path id="Subtraction_6" data-name="Subtraction 6" d="M18556.75-1603.85a.453.453,0,0,1-.2-.05.557.557,0,0,1-.3-.6c0-.093.006-.194,0-.31v-.062c0-.083,0-.168,0-.252v-.007c.023-.457.045-.851-.48-1.125a1.224,1.224,0,0,1-.525-1.142q0-1.863,0-3.728t0-3.728a1.507,1.507,0,0,1,1.543-1.538h8.932a1.5,1.5,0,0,1,1.557,1.552c0,2.467,0,4.966,0,7.428a1.505,1.505,0,0,1-1.561,1.552c-1.963,0-3.994,0-5.988,0a.727.727,0,0,0-.508.172c-.512.419-1.039.838-1.549,1.242l-.018.013c-.162.128-.324.257-.484.385A.7.7,0,0,1,18556.75-1603.85Zm4.514-5.017a.516.516,0,0,0-.5.471.515.515,0,0,0,.139.37.5.5,0,0,0,.355.161h.01a.51.51,0,0,0,.5-.485.509.509,0,0,0-.475-.517Zm-.031-4.517a.935.935,0,0,1,.711.333.893.893,0,0,1,.215.718,1.02,1.02,0,0,1-.48.7,1.938,1.938,0,0,0-.949,1.594.532.532,0,0,0,.465.6h.043a.494.494,0,0,0,.479-.5,1.114,1.114,0,0,1,.551-.89,1.958,1.958,0,0,0,.895-1.813,1.7,1.7,0,0,0-.4-1,1.848,1.848,0,0,0-1.48-.751,2.175,2.175,0,0,0-.314.024,1.872,1.872,0,0,0-1.561,1.277.482.482,0,0,0,.2.629.505.505,0,0,0,.268.085.492.492,0,0,0,.357-.173.767.767,0,0,0,.117-.206l0-.008c.014-.029.025-.057.039-.085A.954.954,0,0,1,18561.232-1613.384Z" transform="translate(-18501.396 2103.511)" fill="#040505" stroke="rgba(0,0,0,0)" stroke-miterlimit="10" stroke-width="1"/>
    <path id="Path_8072" data-name="Path 8072" d="M78.923,483.613q2.224,0,4.448,0a1.5,1.5,0,0,1,1.563,1.55q0,3.712,0,7.424a1.472,1.472,0,0,1-.836,1.393.269.269,0,0,0-.169.286c.006.438,0,.877,0,1.316a.518.518,0,0,1-.285.513.491.491,0,0,1-.577-.09c-.319-.252-.63-.515-.955-.759a.463.463,0,0,1-.195-.421q.01-3.054,0-6.109a2.509,2.509,0,0,0-2.6-2.6c-2.047,0-4.093,0-6.14.006-.23,0-.315-.047-.288-.287a6.658,6.658,0,0,1,.055-1.089,1.5,1.5,0,0,1,1.462-1.136Q76.667,483.609,78.923,483.613Z" transform="translate(-15.037)" fill="#040505"/>
  </g>
</svg>
