<svg xmlns="http://www.w3.org/2000/svg" width="14.275" height="14.275" viewBox="0 0 14.275 14.275">
  <path id="Subtraction_4" data-name="Subtraction 4" d="M7.14,14.275a7.138,7.138,0,1,1,7.136-7.139A7.148,7.148,0,0,1,7.14,14.275Zm1.739-8.7h0V9.639c0,.105,0,.127-.07.2l-.723.7v.152H11.6v-.152L10.9,9.854a.2.2,0,0,1-.081-.2V4.619a.2.2,0,0,1,.081-.2l.712-.687V3.586H9.139l-1.764,4.4-2.006-4.4H2.774v.148L3.61,4.742a.34.34,0,0,1,.109.293V8.99a.439.439,0,0,1-.12.395l-.937,1.142v.148H5.327v-.152L4.386,9.385a.47.47,0,0,1-.131-.395V5.571L6.6,10.676h.271Z" transform="translate(0 0)" fill="#a7a7a7"/>
</svg>
