<svg id="Group_7331" data-name="Group 7331" xmlns="http://www.w3.org/2000/svg" width="15" height="15" viewBox="0 0 15 15">
  <circle id="Ellipse_162" data-name="Ellipse 162" cx="7.5" cy="7.5" r="7.5" transform="translate(0 0)" fill="#a8a8a8"/>
  <g id="Group_445" data-name="Group 445" transform="translate(2.678 2.676)">
    <path id="Path_1200" data-name="Path 1200" d="M166.039,164.954c-.587-.59-1.167-1.166-1.738-1.75-.113-.115-.171-.137-.3-.007-.532.55-1.08,1.083-1.617,1.628-.09.092-.139.115-.24.007-.275-.292-.562-.574-.851-.852-.092-.089-.121-.139-.012-.247q1.381-1.367,2.747-2.748c.09-.091.138-.093.23,0q1.377,1.387,2.763,2.765c.067.067.106.111.017.2C166.707,164.275,166.38,164.611,166.039,164.954Z" transform="translate(-159.338 -160.916)" fill="#fff"/>
    <path id="Path_1201" data-name="Path 1201" d="M164.072,288.769c-.039-.034-.075-.06-.106-.091q-1.39-1.389-2.781-2.776c-.1-.1-.062-.14.012-.213.292-.286.585-.571.868-.867.1-.1.148-.073.231.011.538.544,1.085,1.078,1.617,1.627.13.134.2.115.314-.007.529-.542,1.071-1.071,1.6-1.611.1-.106.161-.11.264,0,.276.291.562.573.851.851.087.083.082.132,0,.215q-1.386,1.377-2.765,2.761C164.146,288.7,164.113,288.73,164.072,288.769Z" transform="translate(-159.253 -279.123)" fill="#fff"/>
    <path id="Path_1202" data-name="Path 1202" d="M203.3,242.81c.037.033.07.061.1.091.3.3.6.6.9.9.074.072.089.113,0,.194q-.459.441-.9.9c-.081.083-.127.095-.214,0-.3-.311-.607-.615-.915-.917-.06-.059-.073-.093-.006-.159.319-.313.634-.63.95-.946C203.246,242.855,203.27,242.838,203.3,242.81Z" transform="translate(-198.488 -239.084)" fill="#fff"/>
    <path id="Path_1203" data-name="Path 1203" d="M286.512,243.027c.038.035.072.062.1.093.3.3.6.6.9.9.084.081.062.121-.009.19-.3.29-.594.582-.882.883-.094.1-.144.083-.229-.006-.289-.3-.585-.592-.882-.883-.064-.063-.085-.1-.009-.177.309-.3.611-.608.916-.913C286.445,243.084,286.474,243.061,286.512,243.027Z" transform="translate(-277.926 -239.291)" fill="#fff"/>
    <path id="Path_1204" data-name="Path 1204" d="M121.019,245.767a.953.953,0,0,1-.085-.068c-.306-.3-.608-.613-.918-.913-.086-.083-.06-.129.011-.2.3-.292.592-.585.882-.884.079-.082.124-.07.2.006.3.3.6.6.9.9.048.048.1.083.018.158-.32.311-.633.63-.949.946C121.059,245.731,121.042,245.746,121.019,245.767Z" transform="translate(-119.962 -239.884)" fill="#fff"/>
  </g>
</svg>
