<svg xmlns="http://www.w3.org/2000/svg" width="14.275" height="14.275" viewBox="0 0 14.275 14.275">
  <path id="Icon_awesome-telegram" data-name="Icon awesome-telegram" d="M7.138.562A7.138,7.138,0,1,0,14.275,7.7,7.136,7.136,0,0,0,7.138.562Zm3.505,4.89-1.171,5.52c-.086.391-.319.486-.645.3L7.043,9.959l-.861.829a.45.45,0,0,1-.36.176l.127-1.816L9.256,6.16c.144-.127-.032-.2-.222-.072L4.947,8.661l-1.761-.55c-.383-.121-.391-.383.081-.567l6.881-2.654c.319-.115.6.078.5.561Z" transform="translate(0 -0.563)" fill="#a7a7a7"/>
</svg>
