<svg xmlns="http://www.w3.org/2000/svg" width="15" height="15" viewBox="0 0 15 15">
  <g id="Group_7332" data-name="Group 7332" transform="translate(-261.607 -343.777)">
    <path id="Path_1205" data-name="Path 1205" d="M171.571,112.855a7.5,7.5,0,1,1,7.494-7.455A7.51,7.51,0,0,1,171.571,112.855Z" transform="translate(97.542 245.922)" fill="#a8a8a8"/>
    <path id="Path_1206" data-name="Path 1206" d="M205.954,119.431c0,.635,0,1.269,0,1.9a.766.766,0,1,1-1.522-.005q0-1.9,0-3.808a.767.767,0,1,1,1.522.005C205.955,118.161,205.954,118.8,205.954,119.431Z" transform="translate(63.915 230.258)" fill="#f5f9fb"/>
    <path id="Path_1207" data-name="Path 1207" d="M205.2,159.581a.753.753,0,0,1,.755.763.761.761,0,0,1-1.522-.011A.754.754,0,0,1,205.2,159.581Z" transform="translate(63.908 194.5)" fill="#f5f9fa"/>
  </g>
</svg>
