<svg xmlns="http://www.w3.org/2000/svg" width="12" height="8.998" viewBox="0 0 12 8.998">
  <g id="Group_353" data-name="Group 353" transform="translate(-333 -255)">
    <rect id="Rectangle_17069" data-name="Rectangle 17069" width="7" height="1" rx="0.5" transform="translate(338 257)" fill="#fff"/>
    <path id="Exclusion_2" data-name="Exclusion 2" d="M22755,3633a2,2,0,1,1,2-2A2,2,0,0,1,22755,3633Zm0-3a1,1,0,1,0,1,1A1,1,0,0,0,22755,3630Z" transform="translate(-22412 -3369)" fill="#fff"/>
    <rect id="Rectangle_17070" data-name="Rectangle 17070" width="7" height="1" rx="0.5" transform="translate(333 261)" fill="#fff"/>
    <path id="Exclusion_1" data-name="Exclusion 1" d="M22755,3633a2,2,0,1,1,2-2A2,2,0,0,1,22755,3633Zm0-3a1,1,0,1,0,1,1A1,1,0,0,0,22755,3630Z" transform="translate(-22420 -3374)" fill="#fff"/>
  </g>
</svg>
