<svg xmlns="http://www.w3.org/2000/svg" xmlns:xlink="http://www.w3.org/1999/xlink" width="63" height="63" viewBox="0 0 63 63">
  <defs>
    <filter id="Rectangle_17402" x="0" y="0" width="63" height="63" filterUnits="userSpaceOnUse">
      <feOffset dy="3" input="SourceAlpha"/>
      <feGaussianBlur stdDeviation="3" result="blur"/>
      <feFlood flood-color="#14cda1" flood-opacity="0.251"/>
      <feComposite operator="in" in2="blur"/>
      <feComposite in="SourceGraphic"/>
    </filter>
  </defs>
  <g id="Group_865" data-name="Group 865" transform="translate(-164 -426)">
    <g transform="matrix(1, 0, 0, 1, 164, 426)" filter="url(#Rectangle_17402)">
      <rect id="Rectangle_17402-2" data-name="Rectangle 17402" width="45" height="45" rx="15" transform="translate(9 6)" fill="#57eaa8"/>
    </g>
    <g id="Group_776" data-name="Group 776" transform="translate(181 440)">
      <g id="Group_778" data-name="Group 778" transform="translate(0 0)">
        <path id="Path_1273" data-name="Path 1273" d="M173.882,273.844a10.775,10.775,0,0,1-1.376-.443,4.143,4.143,0,1,1,3.132.232c-.276.092-.565.142-.848.212Zm.419-1.311c.371,0,.376,0,.378-.381,0-.034,0-.067,0-.1a.258.258,0,0,1,.209-.294,1.219,1.219,0,0,0,.915-1.137,1.258,1.258,0,0,0-.825-1.26,6.9,6.9,0,0,1-.789-.384.564.564,0,0,1-.237-.394.319.319,0,0,1,.376-.29,4.562,4.562,0,0,1,.858.129c.184.049.271.044.334-.153.178-.555.159-.617-.421-.727-.273-.051-.411-.145-.392-.447s-.244-.224-.418-.242-.316.041-.284.245a.453.453,0,0,1-.385.564.573.573,0,0,0-.112.056,1.114,1.114,0,0,0-.307,1.736,4.142,4.142,0,0,0,.881.558,5,5,0,0,1,.572.306.371.371,0,0,1-.113.662,1.237,1.237,0,0,1-.563.06,4.2,4.2,0,0,1-.719-.214c-.126-.043-.206-.033-.245.113-.176.644-.294.62.436.844a.8.8,0,0,0,.2.043c.233.01.311.124.3.356-.015.337.013.351.354.352" transform="translate(-158.967 -248.037)" fill="#fff"/>
        <path id="Path_1274" data-name="Path 1274" d="M102.614,137.071v-2.042h1.662v-5.391H89.163v5.4h1.66v2.013c-.8,0-1.63.061-2.443-.017a1.556,1.556,0,0,1-1.289-1.679c0-1.756,0-3.512,0-5.268q0-2.9,0-5.8a1.614,1.614,0,0,1,1.233-1.685,2.381,2.381,0,0,1,.574-.056q7.816,0,15.632,0a1.647,1.647,0,0,1,1.815,1.81q0,5.483,0,10.965a1.617,1.617,0,0,1-1.187,1.695,2.093,2.093,0,0,1-.522.07c-.613.008-1.227,0-1.84,0-.065,0-.131-.009-.183-.013m-13.453-10.8h15.112v-1.669H89.161Z" transform="translate(-81.347 -114.46)" fill="#fff"/>
        <path id="Path_1275" data-name="Path 1275" d="M13.5,6.648c-2.016,0-4.033,0-6.049,0a3.046,3.046,0,0,0-3.11,2.657,3.556,3.556,0,0,0-.025.553c0,1.361,0,2.722-.006,4.082a.965.965,0,0,1-.108.453.483.483,0,0,1-.648.15c-.864-.37-1.73-.732-2.584-1.123a1.581,1.581,0,0,1-.8-2.213Q1.4,8.449,2.632,5.694L4.681,1.1A1.619,1.619,0,0,1,7.016.2q6.453,2.859,12.9,5.723c.069.031.162.051.2.106a.6.6,0,0,1,.127.348c-.015.1-.141.2-.241.25a.677.677,0,0,1-.3.023H13.5" transform="translate(0 0)" fill="#87f2b9"/>
      </g>
    </g>
  </g>
</svg>
