<svg xmlns="http://www.w3.org/2000/svg" width="78.855" height="69" viewBox="0 0 78.855 69">
  <g id="Group_795" data-name="Group 795" transform="translate(0 0)">
    <g id="Group_796" data-name="Group 796">
      <path id="Path_1302" data-name="Path 1302" d="M57.456,68.986a60.623,60.623,0,0,1-7.487-.422c-1.421-.133-2.847-.213-4.27-.337-2.105-.184-4.208-.393-6.313-.576-.484-.042-.974-.031-1.462-.034q-2.867-.015-5.733-.021c-.05-.083-.085-.222-.154-.242a5.749,5.749,0,0,0-3.237,0c-.068.02-.1.161-.149.245h-9.86c-.015-.1-.024-.22-.152-.221s-.139.119-.154.219a37.669,37.669,0,0,1-9.633-.9A10.018,10.018,0,0,1,.76,58.35a27.751,27.751,0,0,1-.439-6.321C.462,49.437.7,46.85.9,44.26c.108-1.408-.1-2.808-.115-4.213.153-.023.287-.069.264-.264-.017-.152-.141-.175-.261-.2C.97,34.963.868,30.335.938,25.71A5.055,5.055,0,0,0,0,22.026v-3.7C.288,17.23.409,16.1.76,15a12.375,12.375,0,0,1,8-8.085,28.9,28.9,0,0,1,8.153-1.562c1.563-.107,3.122-.148,4.679-.112a80.237,80.237,0,0,1,8.7.595,10.266,10.266,0,0,1,1.527.1c.3.084.332-.219.389-.45A6.708,6.708,0,0,1,37.758.231,8.7,8.7,0,0,1,45.634,2.17a6.115,6.115,0,0,1,1.922,3.435c.1.474.279.566.7.563,2.182-.015,4.372.113,6.543-.038a82.4,82.4,0,0,1,8.3-.089,25.417,25.417,0,0,1,8.786,1.518A9.224,9.224,0,0,1,76.741,11.4a13.7,13.7,0,0,1,1.492,4.654,31.641,31.641,0,0,1,.5,5.412c-.03,4.671-.019,9.343,0,14.015.006,1.549.111,3.1.123,4.647a1.737,1.737,0,0,1-1.676,1.769,1.771,1.771,0,0,1-1.687-1.322,10.393,10.393,0,0,1-.146-1.833c.073-2.3.179-4.6.29-6.9.161-3.322.453-6.642.294-9.97a32.71,32.71,0,0,0-1.065-7.251A6.075,6.075,0,0,0,70.588,10.3a24.406,24.406,0,0,0-5.775-1.091,58.165,58.165,0,0,0-8.22-.074c-3.011.155-6.025.262-9.037.389a10.506,10.506,0,0,1-1.833-.143c-.721-.1-.994-.662-1.179-1.271a6.13,6.13,0,0,1-.164-.827,4.426,4.426,0,0,0-6.041-3.658A3.455,3.455,0,0,0,35.7,6.807a7.805,7.805,0,0,0,.216,3.275,3.322,3.322,0,0,0,1.676,2.006,7.529,7.529,0,0,0,2.838.851c.8.131,1.036.458,1.011,1.338a1.087,1.087,0,0,1-1.128,1.118,10.023,10.023,0,0,1-5.663-1.336,6.973,6.973,0,0,1-3.541-4.052c-.147-.47-.586-.425-.95-.444-1.148-.059-2.295-.045-3.447-.142a70.954,70.954,0,0,0-8.91-.159,18.707,18.707,0,0,0-8.223,1.823,9.078,9.078,0,0,0-4.834,7.52c-.128,1.12.074,2.224-.1,3.331a1.7,1.7,0,0,1-.6,1.124,1.351,1.351,0,0,0-.509,1.333c.013,2.747-.022,5.494.031,8.239.028,1.454.111,2.9.015,4.36-.062.949.143,1.93.09,2.9a.53.53,0,0,0-.426.616c.029.568.113,1.133.195,1.7.009.06.153.1.235.149q0,.848,0,1.7c-.465.254-.462.509,0,.768-.074,2.269-.226,4.538-.2,6.806a30.852,30.852,0,0,0,.333,6.431,7.669,7.669,0,0,0,6.643,5.575c1.65.133,3.3.3,4.952.307.023.153.069.286.263.265.152-.017.176-.14.2-.26l3.237,0c.021.12.044.244.2.261.194.022.241-.111.264-.264,2.638.044,5.266-.215,7.892-.368,3.782-.22,7.561-.492,11.348-.4,3.218.081,6.435.258,9.648.458,2.572.16,5.141.356,7.715.482,1.045.051,2.094.063,3.139.134.015.1.024.219.151.222s.14-.118.155-.217h3.237c.021.12.044.243.2.261.194.022.241-.111.264-.264a20.467,20.467,0,0,0,8.074-1.543,7.135,7.135,0,0,0,4.078-4.982,9.36,9.36,0,0,0,.353-2.114c.029-.724.609-1.114,1.413-1.088a1.119,1.119,0,0,1,1.181,1.062,11.942,11.942,0,0,1-2.376,8,12.929,12.929,0,0,1-7.241,4.342,37.013,37.013,0,0,1-5.962.956c-1.641.152-3.274.09-4.91.107-.023-.153-.07-.287-.264-.264-.152.018-.175.141-.2.261" transform="translate(0 0)"/>
      <path id="Path_1303" data-name="Path 1303" d="M84.137,144c-2.787.084-6.477-.126-10.168-.178-.947-.014-1.892-.094-2.839-.147-2.16-.122-2.844-1.63-2.693-3.3a12.843,12.843,0,0,1,6.752-10.548c.283-.161.555-.267.251-.677-2.475-3.34-1.713-8.158.645-11.264,2.325-3.063,5.6-4.156,9.019-3.012a8.4,8.4,0,0,1,5.749,8,10.043,10.043,0,0,1-1.891,6.052c-.262.372-.3.534.154.8a12.864,12.864,0,0,1,6.137,9.482C95.725,142,93.891,144,91.046,144H84.137m3.187-2.6c1.294-.069,2.68.066,4.062-.107a.879.879,0,0,0,.872-1.094A2.71,2.71,0,0,0,92,139.24a11.9,11.9,0,0,0-2.87-3.77,10.331,10.331,0,0,0-7.141-2.962,11.4,11.4,0,0,0-7.039,2.506,8.225,8.225,0,0,0-3.015,4.518c-.23.891-.094,1.042.8,1.1.408.027.812.1,1.219.139,4.416.393,8.841.617,13.364.63m-5.8-13.7c2.977.009,4.8-1.386,5.373-4.287.7-3.533-1.761-6.528-5.53-5.9a5.852,5.852,0,0,0-4.515,7.26c.491,1.788,2.359,2.92,4.672,2.928" transform="translate(-54.333 -90.877)" fill="#f0b80c"/>
      <path id="Path_1304" data-name="Path 1304" d="M234.9,146.889c.024-1.632,1.256-2.508,3.008-2.291a66.17,66.17,0,0,0,10.853.876,22.929,22.929,0,0,0,2.591-.282,1.8,1.8,0,0,1,1.2,3.331,1.95,1.95,0,0,1-1.273.127,48.891,48.891,0,0,0-10.19.285c-1.269.155-2.537.33-3.81.444a2.23,2.23,0,0,1-2.382-2.489" transform="translate(-186.545 -114.806)" fill="#f0b80c"/>
      <path id="Path_1305" data-name="Path 1305" d="M235,209.188a2.354,2.354,0,0,1,2.747-2.367c2.654.372,5.317.681,7.957,1.155.1.018.2.019.3.034.7.108,1.326.31,1.377,1.163.039.66-.418,1.075-1.4,1.221-2.8.418-5.606.829-8.414,1.209A2.336,2.336,0,0,1,235,209.188" transform="translate(-186.623 -164.225)" fill="#f0b80c"/>
      <path id="Path_1306" data-name="Path 1306" d="M139.182,326.551c.049-.085.081-.225.149-.245a5.745,5.745,0,0,1,3.237,0c.069.019.1.159.154.242l-3.54.007" transform="translate(-110.531 -258.948)"/>
      <path id="Path_1307" data-name="Path 1307" d="M16.211,196.268c-.082-.049-.226-.09-.235-.149-.082-.563-.166-1.129-.195-1.7a.529.529,0,0,1,.426-.616q0,1.231,0,2.462" transform="translate(-12.532 -153.91)"/>
      <path id="Path_1308" data-name="Path 1308" d="M16.528,214.777c-.458-.258-.461-.514,0-.768q0,.384,0,.768" transform="translate(-12.852 -169.954)"/>
      <path id="Path_1309" data-name="Path 1309" d="M3.829,192.308c.12.021.244.044.261.2.022.194-.111.241-.264.264q0-.23,0-.46" transform="translate(-3.038 -152.72)"/>
      <path id="Path_1310" data-name="Path 1310" d="M75.291,310.618c-.022.12-.045.243-.2.26-.194.021-.24-.112-.263-.265l.46,0" transform="translate(-59.427 -246.672)"/>
      <path id="Path_1311" data-name="Path 1311" d="M93.25,310.615c-.023.153-.07.287-.264.264-.152-.018-.175-.141-.2-.261l.46,0" transform="translate(-73.689 -246.673)"/>
      <path id="Path_1312" data-name="Path 1312" d="M305.757,312.111c-.023.153-.07.287-.264.264-.152-.018-.175-.141-.2-.261l.46,0" transform="translate(-242.45 -247.861)"/>
      <path id="Path_1313" data-name="Path 1313" d="M279.107,334.1c.021-.12.044-.244.2-.261.194-.022.241.111.264.264l-.46,0" transform="translate(-221.651 -265.118)"/>
      <path id="Path_1314" data-name="Path 1314" d="M288.391,312.115c-.015.1-.027.219-.155.217s-.137-.122-.151-.221l.306,0" transform="translate(-228.781 -247.861)"/>
      <path id="Path_1315" data-name="Path 1315" d="M89.8,327.546c.015-.1.026-.22.154-.219s.138.122.152.221l-.306,0" transform="translate(-71.311 -259.945)"/>
    </g>
  </g>
</svg>
