<svg xmlns="http://www.w3.org/2000/svg" width="18" height="18" viewBox="0 0 18 18">
  <path id="Icon_awesome-history" data-name="Icon awesome-history" d="M18.562,9.545A9,9,0,0,1,3.914,16.57a.87.87,0,0,1-.067-1.292l.409-.409A.873.873,0,0,1,5.414,14.8,6.678,6.678,0,1,0,4.987,4.7L6.829,6.539a.581.581,0,0,1-.411.991H1.143A.581.581,0,0,1,.563,6.95V1.674a.581.581,0,0,1,.991-.411L3.345,3.055a9,9,0,0,1,15.217,6.49ZM12,12.4l.356-.458a.871.871,0,0,0-.153-1.222L10.724,9.575V5.788a.871.871,0,0,0-.871-.871H9.272a.871.871,0,0,0-.871.871v4.923l2.374,1.846A.871.871,0,0,0,12,12.4Z" transform="translate(-0.563 -0.563)"/>
</svg>
