<svg xmlns="http://www.w3.org/2000/svg" width="80" height="69.047" viewBox="0 0 80 69.047">
  <g id="Group_786" data-name="Group 786" transform="translate(0 0)">
    <g id="Group_787" data-name="Group 787">
      <path id="Path_1280" data-name="Path 1280" d="M77.292,64.821a19.518,19.518,0,0,1,.962,1.71,1.538,1.538,0,0,1-1.316,2.408,7.856,7.856,0,0,1-1.052.074c-11.454.15-22.9-.2-34.333-.8-5.979-.314-11.958-.656-17.925-1.145A112.638,112.638,0,0,1,5.083,64.5c-.767-.194-1.532-.4-2.292-.613A3.5,3.5,0,0,1,.183,59.276a10.215,10.215,0,0,1,1.1-2.477Q17.137,30.906,33.03,5.037c.552-.9,1.128-1.787,1.732-2.653C36.344.116,37.646-.374,40.334.249a11.736,11.736,0,0,1,6.5,4.274,52.173,52.173,0,0,1,3.247,4.489C59,22.7,67.722,36.518,75.478,50.916c1.223,2.271,2.41,4.563,3.585,6.86a9.892,9.892,0,0,1,.739,1.877,3.945,3.945,0,0,1-1.933,4.807c-.194.119-.386.242-.577.361M38.169,62.942v-.124c8.073,0,16.145.012,24.218-.006,3.082-.007,6.17.026,9.243-.158,2.936-.176,2.855-1.037,1.741-2.983Q60.953,37.992,48.6,16.276C46.536,12.659,44.5,9.022,42.361,5.453a15.217,15.217,0,0,0-2.564-3.1,1.751,1.751,0,0,0-2.728.158,9.172,9.172,0,0,0-1.213,1.61Q27.083,18.357,18.332,32.6,10.793,44.855,3.269,57.116a12.774,12.774,0,0,0-1.336,2.935A1.436,1.436,0,0,0,3.081,62a9.324,9.324,0,0,0,2.336.338q16.376.324,32.752.6" transform="translate(0 0)"/>
      <path id="Path_1281" data-name="Path 1281" d="M256.435,28.443c.262.186.606.311.731.55a1.346,1.346,0,0,1,.018.9c-.054.2-.289.357-.47.5-1.806,1.441-3.621,2.873-5.427,4.314-.508.4-1.044.651-1.531.051s-.173-1.072.351-1.485c1.837-1.45,3.662-2.914,5.5-4.362a6.5,6.5,0,0,1,.827-.466" transform="translate(-190.781 -21.747)" fill="#f0b80c"/>
      <path id="Path_1282" data-name="Path 1282" d="M232.306,12.24a4.864,4.864,0,0,1,.152-.753c.867-2.012,1.732-4.024,2.622-6.026a.915.915,0,0,1,1.363-.54c.61.336.519.861.256,1.446-.862,1.917-1.688,3.851-2.5,5.791-.217.52-.523.932-1.09.765-.343-.1-.6-.5-.8-.684" transform="translate(-177.621 -3.656)" fill="#f0b80c"/>
      <path id="Path_1283" data-name="Path 1283" d="M265.977,63.668c-.21-.229-.6-.478-.721-.822-.2-.571.166-.952.718-1.1,1.247-.33,2.5-.639,3.751-.951a6.913,6.913,0,0,1,1.71-.367,1.209,1.209,0,0,1,.945.643,1.155,1.155,0,0,1-.495,1.024c-1.879.564-3.79,1.022-5.908,1.57" transform="translate(-202.771 -46.204)" fill="#f0b80c"/>
      <path id="Path_1284" data-name="Path 1284" d="M137.461,76.168c.044-2.195.02-4.38.986-6.4a5.247,5.247,0,0,1,4.572-3.359,4.139,4.139,0,0,1,3.657,1.913,6.561,6.561,0,0,1,1.293,4.557c-.279,3.388-.612,6.773-.979,10.153q-.6,5.507-1.309,11c-.252,1.921-1.3,3.1-2.645,3.172a3.442,3.442,0,0,1-3.175-2.832c-.468-2.113-.8-4.263-1.064-6.413-.491-3.925-.9-7.861-1.335-11.793m1.8-.538c.488,4.227.981,8.714,1.537,13.194a45.007,45.007,0,0,0,.915,5.187c.125.507.815.875,1.247,1.307.3-.5.806-.973.87-1.5q1.2-10,2.284-20.018a5.925,5.925,0,0,0-.98-4.443,2.3,2.3,0,0,0-3.594-.489,5.87,5.87,0,0,0-1.668,2.486,27,27,0,0,0-.61,4.276" transform="translate(-105.102 -50.77)"/>
      <path id="Path_1285" data-name="Path 1285" d="M142.168,219.778c-3.1.036-4.854-2.137-4.575-5.423a5.4,5.4,0,0,1,5.373-4.745,4.816,4.816,0,0,1,5.111,4.128,4.673,4.673,0,0,1-2.2,4.835,7.071,7.071,0,0,1-3.707,1.205" transform="translate(-105.182 -160.261)"/>
    </g>
  </g>
</svg>
