<svg xmlns="http://www.w3.org/2000/svg" width="20" height="20" viewBox="0 0 20 20">
  <path id="Icon_ionic-ios-sad" data-name="Icon ionic-ios-sad" d="M13.375,3.375a10,10,0,1,0,10,10A10,10,0,0,0,13.375,3.375ZM9.822,10.688a1.155,1.155,0,1,1-1.058,1.058A1.157,1.157,0,0,1,9.822,10.688Zm-.034,7.3a.771.771,0,0,1-.707-1.077,4.68,4.68,0,0,1,8.587,0,.769.769,0,0,1-.707,1.077,34.647,34.647,0,0,0-3.514-.192C11.6,17.8,9.788,17.99,9.788,17.99Zm7.139-5a1.155,1.155,0,1,1,1.058-1.058A1.157,1.157,0,0,1,16.928,12.986Z" transform="translate(-3.375 -3.375)" fill="#37bb7c"/>
</svg>
