<svg id="Group_430" data-name="Group 430" xmlns="http://www.w3.org/2000/svg" width="20" height="20" viewBox="0 0 20 20">
  <path id="Icon_awesome-thumbs-up" data-name="Icon awesome-thumbs-up" d="M.937,27H4.063A.937.937,0,0,0,5,26.063V16.688a.937.937,0,0,0-.938-.938H.937A.937.937,0,0,0,0,16.688v9.375A.937.937,0,0,0,.937,27ZM2.5,17.313a.937.937,0,1,1-.938.938A.937.937,0,0,1,2.5,17.313Z" transform="translate(15 -15.75)" fill="#db0e0e"/>
  <path id="Icon_awesome-thumbs-up-2" data-name="Icon awesome-thumbs-up" d="M16.25,16.818c0-1.657,1.014-2.586,1.3-3.693H13.576a2.334,2.334,0,0,1-2.326-2.269,2.828,2.828,0,0,1,.759-1.922l0,0a3.263,3.263,0,0,1,.364-3.1,3.089,3.089,0,0,1,.64-2.92,2.074,2.074,0,0,1,.24-1.743C14.055.016,16.031,0,17.7,0h.111a11.214,11.214,0,0,1,4.67,1.239,6.148,6.148,0,0,0,2.057.632A.469.469,0,0,1,25,2.34v8.35a.468.468,0,0,1-.139.333c-1.547,1.529-2.213,3.148-3.481,4.418a4.731,4.731,0,0,0-.992,2.3c-.174.723-.537,2.258-1.325,2.258C18.125,20,16.25,19.688,16.25,16.818Z" transform="translate(-11.25)" fill="#ff5656"/>
</svg>
