<svg xmlns="http://www.w3.org/2000/svg" width="30" height="30" viewBox="0 0 30 30">
  <g id="Group_427" data-name="Group 427" transform="translate(-88.3 -390.5)">
    <path id="Icon_awesome-thumbs-up" data-name="Icon awesome-thumbs-up" d="M6.094,15.75H1.406A1.406,1.406,0,0,0,0,17.156V31.219a1.406,1.406,0,0,0,1.406,1.406H6.094A1.406,1.406,0,0,0,7.5,31.219V17.156A1.406,1.406,0,0,0,6.094,15.75ZM3.75,30.281a1.406,1.406,0,1,1,1.406-1.406A1.406,1.406,0,0,1,3.75,30.281Z" transform="translate(88.3 387.875)" fill="#119065"/>
    <path id="Icon_awesome-thumbs-up-2" data-name="Icon awesome-thumbs-up" d="M24.375,4.773c0,2.485-1.522,3.879-1.95,5.54h5.96a3.5,3.5,0,0,1,3.489,3.4A4.242,4.242,0,0,1,30.736,16.6l-.006.006a4.895,4.895,0,0,1-.545,4.656,4.633,4.633,0,0,1-.96,4.38,3.111,3.111,0,0,1-.36,2.615C27.668,29.976,24.7,30,22.2,30h-.167a16.82,16.82,0,0,1-7.005-1.859,9.221,9.221,0,0,0-3.085-.948.7.7,0,0,1-.69-.7V13.965a.7.7,0,0,1,.208-.5c2.321-2.294,3.319-4.722,5.222-6.628a7.1,7.1,0,0,0,1.488-3.451C18.429,2.3,18.974,0,20.156,0,21.563,0,24.375.469,24.375,4.773Z" transform="translate(86.425 390.5)" fill="#2ebd87"/>
  </g>
</svg>
