<svg id="Group_417" data-name="Group 417" xmlns="http://www.w3.org/2000/svg" xmlns:xlink="http://www.w3.org/1999/xlink" width="28.01" height="22" viewBox="0 0 28.01 22">
  <defs>
    <clipPath id="clip-path">
      <rect id="Rectangle_17227" data-name="Rectangle 17227" width="28.01" height="22" fill="#f0b80c"/>
    </clipPath>
  </defs>
  <g id="Group_416" data-name="Group 416" clip-path="url(#clip-path)">
    <path id="Path_426" data-name="Path 426" d="M14.459,22c-2.145,0-4.291.008-6.436,0A7.992,7.992,0,0,1,5.08,6.564a.6.6,0,0,0,.4-.416,8.989,8.989,0,0,1,17.44,1.671.648.648,0,0,0,.517.623A6.99,6.99,0,0,1,22.6,21.811,7.644,7.644,0,0,1,20.9,22q-3.218,0-6.436,0M16,14.171c0-.645.007-1.291,0-1.936,0-.185.033-.25.235-.244.562.016,1.124,0,1.686.006a.989.989,0,0,0,1-.61.968.968,0,0,0-.251-1.14Q16.7,8.28,14.736,6.317a.979.979,0,0,0-1.469.006q-1.971,1.96-3.932,3.93a.983.983,0,0,0-.257,1.113,1,1,0,0,0,.987.628c.552,0,1.1.013,1.655,0,.228-.007.294.044.292.284-.014,1.239-.013,2.478,0,3.716a2,2,0,1,0,4-.008c.007-.6,0-1.208,0-1.811" transform="translate(0 0.001)" fill="#f0b80c"/>
  </g>
</svg>
