<svg xmlns="http://www.w3.org/2000/svg" width="368" height="195" viewBox="0 0 368 195">
  <g id="Group_766" data-name="Group 766" transform="translate(0 -35)">
    <g id="Group_763" data-name="Group 763" transform="translate(2.131 42.564)">
      <g id="Group_768" data-name="Group 768">
        <path id="Path_1175" data-name="Path 1175" d="M297.841,136.237s-2.119,4.215,6.041,1.865,12.617.727,11.869,3.421-2.3,10.688,5.669,14.52,10.074-4.735,9.023-8.069,2.334-10.908,4.027-9.872,14.138,13.431,27.8-1.865c0,0-33.223-6.291-64.433,0" transform="translate(-140.557 -109.884)" fill="#e5e5e5"/>
        <path id="Path_1176" data-name="Path 1176" d="M385.822,277.658c-1.433,1.847-1.829,5.448-1.416,9.507l33.024-54.2a13.186,13.186,0,0,1-1.177-1.884c-5.827-11.22-3.238-17.713-4.532-24.207s-13.471,3.9-23.246-3.247-13.206-14.088-22.076-8.97c0,0-1.1,3.386-6.719,8.122-3.005,2.531-17.142,1.43-19.4,5.5-6.474,11.689,4.015,14.737,2.072,27.431s25.986.321,32.461,1.976-6.475,19.606-1.943,25.566,17.482,8.558,12.949,14.4" transform="translate(-159.42 -137.539)" fill="#e5e5e5"/>
        <path id="Path_1177" data-name="Path 1177" d="M158.452,166.673s34.67-21.744,64.1-24.516c0,0,4.385,5.585-2.56,9.023s-7.96,8.477-5.725,12.944,10.024-6.966,15.043-7.813,8.886,12.225,16.541,10.362,18.11,13.093,12.923,14.458-16.252-2.267-20.132,4.139-1.621,27.2-4.825,26.254-3-15.01-7.653-15.01-11.435,5.849-13.546,12.235-2.026,17.982,2.586,20.012,10.48-8.126,14.106-6.856-2.356,9.967,0,13.235,21.864-6.783,26.075-4.085,9.375,14.547,18.642,16.663,20.332,8.561,13.53,15.072-14.419,13.351-18.651,23.9-5.078,13.7-5.078,13.7H238.638a114.325,114.325,0,0,0,4.273-13.71c2.292-8.912-4.287-5.526-7.768-11.874s-3.114-11.426-5.837-16.927,7.626-14.5,3.813-18.62-9.054,3.386-9.065-1.269-1-8.782-2.622-6.931-6.583,5.745-14.517-6.248-10.525-.495-17.805-4.563Z" transform="translate(-75.836 -113.939)" fill="#e5e5e5"/>
        <path id="Path_1178" data-name="Path 1178" d="M255.07,121.932c41.517,0,78.827,11.562,104.572,29.946-22.485-21.727-60.923-36.049-104.572-36.049S172.983,130.151,150.5,151.878c25.745-18.383,63.055-29.946,104.572-29.946" transform="translate(-72.136 -101.692)"/>
        <path id="Path_1195" data-name="Path 1195" d="M591.655,425.723c0-2.761-24.811-5-55.416-5s-55.416,2.239-55.416,5,24.811,5,55.416,5,55.416-2.239,55.416-5" transform="translate(-225.787 -243.287)" fill="#e5e5e5"/>
        <path id="Path_1196" data-name="Path 1196" d="M114.818,425.723c0-2.761-24.811-5-55.416-5s-55.416,2.239-55.416,5,24.811,5,55.416,5,55.416-2.239,55.416-5" transform="translate(-3.986 -243.287)" fill="#e5e5e5"/>
        <path id="Path_1197" data-name="Path 1197" d="M149.69,306.906l-72.544,2.069L68.379,294.1l-9.555-16.208-45.88-77.857,41.639-1.522,19.924-.73,10.461-.382,9.3,15.728L110.023,239.8Z" transform="translate(-8.152 -139.634)" fill="#271e49"/>
        <path id="Path_1198" data-name="Path 1198" d="M105.874,278.847c-2.44,4.487-2.9,9.965-2.281,15.581l-9.555-16.207c6.294-12.474,14.469-22.017,14.794-25.107.667-6.351-15.866-15.392-19.383-30.351-1.351-5.741-.821-14.862.348-23.921l19.925-.73c-3.979,13.824-6.072,30,1.083,40.174,11.818,16.8,4.11,23.927-4.931,40.561" transform="translate(-43.368 -139.966)" fill="#fff"/>
        <path id="Path_1199" data-name="Path 1199" d="M181.094,307.085c-2.223,4.093-2.93,9.235-2.725,14.657l-16.145.462c5.416-17.171,18.482-30.927,18.9-34.9.662-6.351-14.97-17.7-18.488-32.666-1.545-6.573-.627-17.564.889-27.832l15.757,26.669c.136,6.271,1.476,12.092,4.709,16.687,11.823,16.8,6.151,20.29-2.9,36.924" transform="translate(-77.41 -153.313)" fill="#fff"/>
        <path id="Path_1200" data-name="Path 1200" d="M85.248,188.371c-2.6-4.42-8.768-7.878-13.77-7.733l-56.994,1.687c-5.007.148-6.951,3.846-4.353,8.262l.97,1.647,74.81-2.735Z" transform="translate(-6.308 -131.836)" fill="#33e2b8"/>
        <path id="Path_1201" data-name="Path 1201" d="M133.688,405.35l-.705-1.2c.623.029,75.157-2.146,75.157-2.146l.668,1.126c2.6,4.42.647,8.123-4.355,8.269l-57,1.683c-5,.152-11.167-3.308-13.768-7.728" transform="translate(-63.989 -234.805)" fill="#33e2b8"/>
        <path id="Path_1202" data-name="Path 1202" d="M150.394,197.21l64.549,109.531-2.614.078L147.608,197.312Z" transform="translate(-70.792 -139.547)" fill="#33e2b8"/>
        <path id="Path_1203" data-name="Path 1203" d="M15.576,202.143,79.885,311.116l-2.739.066-64.2-108.943Z" transform="translate(-8.152 -141.841)" fill="#33e2b8"/>
        <path id="Path_1204" data-name="Path 1204" d="M24.077,192.944c1.172-.035,1.63-.9,1.019-1.942a4.011,4.011,0,0,0-3.23-1.814c-1.176.035-1.633.9-1.024,1.939a4.013,4.013,0,0,0,3.235,1.816" transform="translate(-11.701 -135.815)" fill="#fff"/>
        <path id="Path_1205" data-name="Path 1205" d="M40.894,191.751c1.172-.035,1.63-.9,1.019-1.942A4.011,4.011,0,0,0,38.683,188c-1.176.035-1.633.9-1.024,1.939a4.013,4.013,0,0,0,3.235,1.816" transform="translate(-19.523 -135.26)" fill="#fff"/>
        <path id="Path_1206" data-name="Path 1206" d="M210.109,412.82c2.129-.063,2.958-1.638,1.852-3.518a7.271,7.271,0,0,0-5.86-3.29c-2.129.063-2.958,1.638-1.852,3.518a7.27,7.27,0,0,0,5.859,3.29" transform="translate(-96.91 -236.67)" fill="#fff"/>
        <path id="Path_1207" data-name="Path 1207" d="M9.559,189.186h0l-.009.024.009-.024" transform="translate(-6.574 -135.814)" fill="#c6d0dc"/>
        <path id="Path_1208" data-name="Path 1208" d="M144.449,312.65l-57,1.683c-5,.152-11.167-3.308-13.768-7.728L7.807,194.811a6.322,6.322,0,0,1-.94-5.1l-2.521,6.916c-.65,1.469-.44,3.4.792,5.492L71.014,313.914c2.6,4.418,8.764,7.878,13.768,7.73l57-1.685c2.839-.084,4.693-1.313,5.292-3.168l2.51-6.89c-.731,1.62-2.513,2.674-5.133,2.75" transform="translate(-3.985 -136.06)" fill="#271e49"/>
        <path id="Path_1209" data-name="Path 1209" d="M423.414,306.906l72.544,2.069,8.768-14.879,9.555-16.208,45.88-77.857-41.639-1.522-19.924-.73-10.461-.382-9.3,15.728L463.08,239.8Z" transform="translate(-199.083 -139.634)" fill="#271e49"/>
        <path id="Path_1210" data-name="Path 1210" d="M561.651,278.847c2.44,4.487,2.9,9.965,2.281,15.581l9.555-16.207c-6.294-12.474-14.469-22.017-14.794-25.107-.667-6.351,15.866-15.392,19.383-30.351,1.351-5.741.821-14.862-.348-23.921l-19.925-.73c3.979,13.824,6.072,30-1.083,40.174-11.818,16.8-4.11,23.927,4.931,40.561" transform="translate(-258.29 -139.966)" fill="#fff"/>
        <path id="Path_1211" data-name="Path 1211" d="M485.847,307.085c2.223,4.093,2.93,9.235,2.725,14.657l16.145.462c-5.416-17.171-18.482-30.927-18.9-34.9-.662-6.351,14.97-17.7,18.488-32.666,1.545-6.573.627-17.564-.889-27.832L487.66,253.474c-.137,6.271-1.476,12.092-4.709,16.687-11.823,16.8-6.151,20.29,2.9,36.924" transform="translate(-223.663 -153.313)" fill="#fff"/>
        <path id="Path_1212" data-name="Path 1212" d="M539.875,188.371c2.6-4.42,8.768-7.878,13.77-7.733l56.994,1.687c5.007.148,6.952,3.846,4.353,8.262l-.97,1.647-74.81-2.735Z" transform="translate(-252.946 -131.836)" fill="#33e2b8"/>
        <path id="Path_1213" data-name="Path 1213" d="M491.4,405.35l.706-1.2c-.623.029-75.157-2.146-75.157-2.146l-.667,1.126c-2.6,4.42-.647,8.123,4.355,8.269l57,1.683c5,.152,11.167-3.308,13.768-7.728" transform="translate(-195.227 -234.805)" fill="#33e2b8"/>
        <path id="Path_1214" data-name="Path 1214" d="M483.076,197.21,418.527,306.742l2.614.078,64.721-109.507Z" transform="translate(-196.81 -139.547)" fill="#33e2b8"/>
        <path id="Path_1215" data-name="Path 1215" d="M618.236,202.143,553.926,311.116l2.739.066,64.2-108.943Z" transform="translate(-259.791 -141.841)" fill="#33e2b8"/>
        <path id="Path_1216" data-name="Path 1216" d="M663.783,192.944c-1.172-.035-1.63-.9-1.019-1.942a4.011,4.011,0,0,1,3.23-1.814c1.176.035,1.633.9,1.024,1.939a4.013,4.013,0,0,1-3.235,1.816" transform="translate(-310.291 -135.815)" fill="#fff"/>
        <path id="Path_1217" data-name="Path 1217" d="M646.966,191.751c-1.173-.035-1.631-.9-1.02-1.942a4.011,4.011,0,0,1,3.23-1.814c1.176.035,1.633.9,1.024,1.939a4.013,4.013,0,0,1-3.235,1.816" transform="translate(-302.468 -135.26)" fill="#fff"/>
        <path id="Path_1218" data-name="Path 1218" d="M474.362,412.82c-2.129-.063-2.958-1.638-1.852-3.518a7.271,7.271,0,0,1,5.86-3.29c2.129.063,2.958,1.638,1.852,3.518a7.269,7.269,0,0,1-5.859,3.29" transform="translate(-221.692 -236.67)" fill="#fff"/>
        <path id="Path_1219" data-name="Path 1219" d="M682.463,189.186h0l.009.024-.009-.024" transform="translate(-319.58 -135.814)" fill="#c6d0dc"/>
        <path id="Path_1220" data-name="Path 1220" d="M420.958,312.65l57,1.683c5,.152,11.167-3.308,13.768-7.728L557.6,194.811a6.322,6.322,0,0,0,.94-5.1l2.521,6.916c.65,1.469.44,3.4-.792,5.492L494.393,313.914c-2.6,4.418-8.763,7.878-13.768,7.73l-57-1.685c-2.839-.084-4.693-1.313-5.292-3.168l-2.509-6.89c.731,1.62,2.513,2.674,5.133,2.75" transform="translate(-195.553 -136.06)" fill="#271e49"/>
        <path id="Path_1221" data-name="Path 1221" d="M301.086,211.38s8.6,23.915,6.252,25.5-13.751-3-16.411-18.469Z" transform="translate(-137.456 -146.138)" fill="#271e49"/>
        <path id="Path_1222" data-name="Path 1222" d="M290.047,222.764s2.182,25.319-.491,26.254-12.522-6.428-11.131-22.058Z" transform="translate(-131.579 -151.433)" fill="#271e49"/>
        <path id="Path_1223" data-name="Path 1223" d="M275.863,227.786s-8.494,23.951-11.315,23.7-8.738-11.034-1-24.687Z" transform="translate(-122.94 -153.308)" fill="#271e49"/>
        <path id="Path_1224" data-name="Path 1224" d="M249.063,180.592s23.956-25.007,35-24.225,25.274,1.563,35.08-7.815l8.335,37.872s-13.071,7.714-36.73,8.235c-8.017.176-25.262,25-25.262,25Z" transform="translate(-117.983 -116.913)" fill="#33e2b8"/>
      </g>
    </g>
    <text id="_" data-name="$" transform="matrix(0.948, -0.319, 0.319, 0.948, 167.108, 106.823)" fill="#fff" font-size="13" font-family="Poppins-Bold, Poppins" font-weight="700"><tspan x="0" y="0">$</tspan></text>
    <g id="Group_765" data-name="Group 765" transform="translate(0 35)">
      <g id="Group_767" data-name="Group 767" transform="translate(0 0)">
        <path id="Path_1225" data-name="Path 1225" d="M299.315,176.712c-15.339,5.26-9.252,29.786,8.856,25.343C325.674,197.76,318.566,170.111,299.315,176.712Z" transform="translate(-135.167 -121.976)" fill="none" stroke="#fff" stroke-width="1"/>
        <path id="Path_1226" data-name="Path 1226" d="M256.042,186.954s19.541-19.336,29.961-21.42c5.527-1.106,24,3.384,33.9-4.835l6.535,30.409s-14.8,5.5-30.278,6.465c-9.788.609-15.405,7.425-26.216,19.8Z" transform="translate(-119.098 -114.999)" fill="none" stroke="#fff" stroke-width="1"/>
        <path id="Path_1227" data-name="Path 1227" d="M37.388,231.944s28.455,8.18,75.139-3.031l12.99,27.615S93.544,275.966,62.88,275.485Z" transform="translate(-17.391 -146.729)" fill="#ff6e75"/>
        <path id="Path_1228" data-name="Path 1228" d="M177.516,203.85s28.056-24.47,39.151-27.957,16.44,1.372,16.44,1.372l-9.785,8.31s18.767,4.023,31.835,8.712c8.2,2.941-5.242,16.92-30.26,12.9,0,0-5.392,24.827-34.387,24.316Z" transform="translate(-82.738 -121.481)" fill="#ff6e75"/>
        <path id="Path_1229" data-name="Path 1229" d="M250.722,194.286s-7.8-2.924-13.94,1.615" transform="translate(-110.139 -130.191)" fill="none" stroke="#fff" stroke-width="1"/>
        <path id="Path_1230" data-name="Path 1230" d="M258.01,235.5s-2.167,3.8-8.947,4.644" transform="translate(-115.852 -149.792)" fill="none" stroke="#fff" stroke-width="1"/>
        <path id="Path_1231" data-name="Path 1231" d="M165.118,313.366s31.315,33.292,84.289,5.335l9.074,27.406s-75.447,26.387-93.363-32.741" transform="translate(-76.805 -186.012)" fill="#3b82f4"/>
        <path id="Path_1232" data-name="Path 1232" d="M337.666,320.643l-9.757,17.735-9.758,17.735L308.1,332.24l-10.048-23.872,19.805,6.137Z" transform="translate(-138.641 -183.687)" fill="#3b82f4"/>
        <path id="Path_1233" data-name="Path 1233" d="M488.493,208.18s-3.3-45.586-62.037-57.31L436.7,123.88s75.187,27.118,51.79,84.3" transform="translate(-198.366 -97.873)" fill="#f0b80c"/>
        <path id="Path_1234" data-name="Path 1234" d="M393.155,123.758l18.759-7.606,18.758-7.606-7.263,24.862-7.263,24.862-11.5-17.256Z" transform="translate(-182.877 -90.74)" fill="#f0b80c"/>
        <path id="Path_1235" data-name="Path 1235" d="M536.966,318.674s-27.653-7.054-50.957-21.989l-14.75,26.529s23.007,20.9,46.953,27.238Z" transform="translate(-219.207 -178.253)" fill="#ff6e75"/>
        <path id="Path_1236" data-name="Path 1236" d="M656.106,160.956l-5.276-5.276h5.276Z" transform="translate(-311.934 -118.593)" fill="#33e2b8"/>
        <path id="Path_1237" data-name="Path 1237" d="M70.936,80.111,65.66,74.835h5.276Z" transform="translate(-35.142 -54.104)" fill="#2a59ff"/>
        <path id="Path_1238" data-name="Path 1238" d="M116.268,135.182h-7.461l3.731,3.731Z" transform="translate(-46.329 -113.678)" fill="#2a59ff"/>
        <path id="Path_1239" data-name="Path 1239" d="M5.276,139.665,0,144.941v-5.276Z" transform="translate(0 -105.215)" fill="#f9d60c"/>
        <rect id="Rectangle_17386" data-name="Rectangle 17386" width="3.667" height="3.667" transform="translate(254.56 2.767)" fill="#f9d60c"/>
        <rect id="Rectangle_17387" data-name="Rectangle 17387" width="3.667" height="3.667" transform="translate(100.982 12.278)" fill="#33e2b8"/>
        <rect id="Rectangle_17388" data-name="Rectangle 17388" width="3.667" height="3.667" transform="translate(16.932 169.702)" fill="#f9d60c"/>
        <rect id="Rectangle_17389" data-name="Rectangle 17389" width="3.668" height="3.668" transform="translate(4.342 153.811) rotate(-45)" fill="#33e2b8"/>
        <rect id="Rectangle_17390" data-name="Rectangle 17390" width="3.668" height="3.668" transform="translate(317.759 23.325) rotate(-45)" fill="#33e2b8"/>
        <rect id="Rectangle_17391" data-name="Rectangle 17391" width="1.834" height="1.834" transform="translate(333.973 1.297) rotate(-45)" fill="#2a59ff"/>
        <rect id="Rectangle_17392" data-name="Rectangle 17392" width="3.668" height="3.668" transform="translate(69.938 44.806) rotate(-45)" fill="#f9d60c"/>
        <rect id="Rectangle_17393" data-name="Rectangle 17393" width="6.506" height="6.506" transform="translate(1.606 4.6) rotate(-44.997)" fill="#33e2b8"/>
        <rect id="Rectangle_17394" data-name="Rectangle 17394" width="3.667" height="3.667" transform="translate(347.094 171.845)" fill="#ff3162"/>
        <path id="Path_1240" data-name="Path 1240" d="M530.234,157.719a1.062,1.062,0,1,1-1.062-1.062,1.062,1.062,0,0,1,1.062,1.062" transform="translate(-245.651 -113.119)" fill="#ff3162"/>
        <path id="Path_1241" data-name="Path 1241" d="M684.153,132.622a1.062,1.062,0,1,1-1.062-1.062,1.062,1.062,0,0,1,1.062,1.062" transform="translate(-317.247 -107.387)" fill="#f9d60c"/>
        <path id="Path_1242" data-name="Path 1242" d="M622.578,368.763a1.062,1.062,0,1,1-1.062-1.062,1.062,1.062,0,0,1,1.062,1.062" transform="translate(-288.605 -211.286)" fill="#f9d60c"/>
        <path id="Path_1243" data-name="Path 1243" d="M43.024,330.991a1.062,1.062,0,1,1-1.062-1.062,1.062,1.062,0,0,1,1.062,1.062" transform="translate(-19.025 -193.717)" fill="#ff3162"/>
        <path id="Path_1244" data-name="Path 1244" d="M41.358,120.928a1.532,1.532,0,1,1-1.532-1.532,1.532,1.532,0,0,1,1.532,1.532" transform="translate(-17.812 -79.67)" fill="#ff3162"/>
        <path id="Path_1245" data-name="Path 1245" d="M133.182,29.7a1.532,1.532,0,1,1-1.532-1.532,1.532,1.532,0,0,1,1.532,1.532" transform="translate(-74.987 -23.567)" fill="#ff3162"/>
        <path id="Path_1246" data-name="Path 1246" d="M400.294,234.621l.272.48.935,1.647,1.544,2.718.565,1,.181.32.207.364.184.325,4.693,8.264.057.1,3.155,5.556,3.676,6.473,1.4,2.464.149.263.283.5.152.27,1.038,1.827.866,1.524c-.119.285-.246.566-.38.845-.049.1-.1.2-.15.3-.148.294-.3.585-.471.871h0a18.1,18.1,0,0,1-1.427,2.119,19.014,19.014,0,0,1-3.946,3.768c-10.44,7.474-27.322,4.633-37.706-6.349-9.213-9.743-10.216-22.62-3.033-30.621a19.27,19.27,0,0,1,3.135-2.8,23.327,23.327,0,0,1,12.693-4.147,28.672,28.672,0,0,1,3.074.039q.85.054,1.705.159c.33.04.661.086.991.138a31.18,31.18,0,0,1,3.251.677c.106.027.212.056.318.085q.76.208,1.518.454.537.176,1.07.369" transform="translate(-171.089 -148.479)" fill="#176acc"/>
        <path id="Path_1247" data-name="Path 1247" d="M405.226,233.763q-.692-.161-1.387-.283a25.2,25.2,0,0,0-3.388-.369q-.458-.02-.916-.02a19.544,19.544,0,0,0-11.5,3.439,15.568,15.568,0,0,0-6.359,14.892,22.6,22.6,0,0,0,6.276,12.726c8.567,9.06,22.546,11.414,31.16,5.246A16.143,16.143,0,0,0,421,267.811a15.209,15.209,0,0,0,1.178-1.29,14.571,14.571,0,0,0,.928-1.272q.234-.359.446-.729l-1.4-2.463-3.676-6.473c0,.089,0,.179,0,.27a4.318,4.318,0,0,1-.143.993,5.658,5.658,0,0,1-1.1,2.076c-.133.166-.277.333-.432.5-.1.106-.2.21-.3.314l.979,1.036,1.2,1.275-.418.3-2.7,1.934-2.08-2.2-1.784,1.278,2.08,2.2-3.121,2.234-2.079-2.2-2.248,1.609,0,0-2.435,1.744-2.92-3.919,1.967-1.408L391.276,251.28l-2.259,1.618-3.4-3.287,2.435-1.744h0l2.248-1.609-2.079-2.2,3.12-2.235,2.079,2.2,1.785-1.278-2.08-2.2,3.12-2.234,2.177,2.3a7,7,0,0,1,2.217-.762,8,8,0,0,1,3.518.328,6.9,6.9,0,0,1,1.235.528,8.371,8.371,0,0,1,2.061,1.621,5.237,5.237,0,0,1,1.706,4.171,5.523,5.523,0,0,1-.964,2.488,7.525,7.525,0,0,1,2.247-.514,6.552,6.552,0,0,1,.894,0,6.632,6.632,0,0,1,1.429.261,9.2,9.2,0,0,1,1.227.461,8.084,8.084,0,0,1,1.275.731l-4.692-8.264-.185-.324-.207-.364-.181-.32-.565-1-1.544-2.718-.935-1.647-.272-.48-.162-.285-.291-.513q-.5-.136-1-.253" transform="translate(-177.479 -148.672)" fill="#3b82f4"/>
        <path id="Path_1248" data-name="Path 1248" d="M398.588,225.538c-.332-.044-.661-.083-.991-.116a29.107,29.107,0,0,0-3.9-.138,23.4,23.4,0,0,0-12.952,4.156,18.593,18.593,0,0,0-5.845,6.759c-3.979,7.884-2.071,18.4,5.741,26.66,10.385,10.982,27.267,13.824,37.707,6.349q.426-.3.828-.627a18.81,18.81,0,0,0,1.693-1.52q.317-.321.613-.651c.066-.073.132-.149.2-.223q.264-.3.511-.615l-.177-.311-.866-1.525L420.1,261.91l-.153-.27c-.147.238-.3.473-.46.7q-.428.617-.917,1.2a15.817,15.817,0,0,1-1.261,1.327,16.794,16.794,0,0,1-1.731,1.421c-4.309,3.084-10.027,4.22-16.1,3.2a28.873,28.873,0,0,1-16.067-8.613,23.3,23.3,0,0,1-6.487-13.1v0a18.745,18.745,0,0,1-.131-2.274,15.8,15.8,0,0,1,6.706-13.135,18.927,18.927,0,0,1,7.224-3.1,22.867,22.867,0,0,1,5.261-.448,25.763,25.763,0,0,1,3.472.333l.147.023q.589.1,1.172.224c.332.071.663.148.991.23l-2.236-3.936q-.47-.079-.941-.142" transform="translate(-173.444 -145.034)" fill="#3b82f4"/>
        <path id="Path_1249" data-name="Path 1249" d="M428.242,269.4a4.652,4.652,0,0,0-.535-.118,3.977,3.977,0,0,0-2.874.918l-.637.456-1.785,1.277-1.072.769,4.407,4.658,1.071-.767,1.785-1.277.45-.323a3.674,3.674,0,0,0,1.8-2.334,2.156,2.156,0,0,0-.011-.509,3.19,3.19,0,0,0-.936-1.733,3.647,3.647,0,0,0-1.664-1.017" transform="translate(-195.986 -165.491)" fill="#3b82f4"/>
        <path id="Path_1250" data-name="Path 1250" d="M414.121,255.226a2.519,2.519,0,0,0-1.472-.062,8.858,8.858,0,0,0-1.932,1.157l-.091.065-1.16.831h0l-1.7,1.215,4,4.236,1.072-.767,1.784-1.278.4-.288q1.79-1.283,1.551-2.358a3.641,3.641,0,0,0-.882-1.755,3.508,3.508,0,0,0-1.582-.995" transform="translate(-189.674 -158.901)" fill="#3b82f4"/>
        <path id="Path_1251" data-name="Path 1251" d="M405.226,233.763q-.692-.161-1.387-.283a25.2,25.2,0,0,0-3.388-.369q-.458-.02-.916-.02a19.544,19.544,0,0,0-11.5,3.439,15.568,15.568,0,0,0-6.359,14.892,22.6,22.6,0,0,0,6.276,12.726c8.567,9.06,22.546,11.414,31.16,5.246A16.143,16.143,0,0,0,421,267.811a15.209,15.209,0,0,0,1.178-1.29,14.571,14.571,0,0,0,.928-1.272q.234-.359.446-.729l-1.4-2.463-3.676-6.473c0,.089,0,.179,0,.27a4.318,4.318,0,0,1-.143.993,5.658,5.658,0,0,1-1.1,2.076c-.133.166-.277.333-.432.5-.1.106-.2.21-.3.314l.979,1.036,1.2,1.275-.418.3-2.7,1.934-2.08-2.2-1.784,1.278,2.08,2.2-3.121,2.234-2.079-2.2-2.248,1.609,0,0-2.435,1.744-2.92-3.919,1.967-1.408L391.276,251.28l-2.259,1.618-3.4-3.287,2.435-1.744h0l2.248-1.609-2.079-2.2,3.12-2.235,2.079,2.2,1.785-1.278-2.08-2.2,3.12-2.234,2.177,2.3a7,7,0,0,1,2.217-.762,8,8,0,0,1,3.518.328,6.9,6.9,0,0,1,1.235.528,8.371,8.371,0,0,1,2.061,1.621,5.237,5.237,0,0,1,1.706,4.171,5.523,5.523,0,0,1-.964,2.488,7.525,7.525,0,0,1,2.247-.514,6.552,6.552,0,0,1,.894,0,6.632,6.632,0,0,1,1.429.261,9.2,9.2,0,0,1,1.227.461,8.084,8.084,0,0,1,1.275.731l-4.692-8.264-.185-.324-.207-.364-.181-.32-.565-1-1.544-2.718-.935-1.647-.272-.48-.162-.285-.291-.513q-.5-.136-1-.253" transform="translate(-177.479 -148.672)" fill="#3b82f4"/>
        <path id="Path_1252" data-name="Path 1252" d="M428.242,269.4a4.652,4.652,0,0,0-.535-.118,3.977,3.977,0,0,0-2.874.918l-.637.456-1.785,1.277-1.072.769,4.407,4.658,1.071-.767,1.785-1.277.45-.323a3.674,3.674,0,0,0,1.8-2.334,2.156,2.156,0,0,0-.011-.509,3.19,3.19,0,0,0-.936-1.733,3.647,3.647,0,0,0-1.664-1.017" transform="translate(-195.986 -165.491)" fill="#3b82f4"/>
        <path id="Path_1253" data-name="Path 1253" d="M414.121,255.226a2.519,2.519,0,0,0-1.472-.062,8.858,8.858,0,0,0-1.932,1.157l-.091.065-1.16.831h0l-1.7,1.215,4,4.236,1.072-.767,1.784-1.278.4-.288q1.79-1.283,1.551-2.358a3.641,3.641,0,0,0-.882-1.755,3.508,3.508,0,0,0-1.582-.995" transform="translate(-189.674 -158.901)" fill="#3b82f4"/>
        <path id="Path_1254" data-name="Path 1254" d="M405.226,233.763q-.692-.161-1.387-.283a25.2,25.2,0,0,0-3.388-.369q-.458-.02-.916-.02a19.544,19.544,0,0,0-11.5,3.439,15.568,15.568,0,0,0-6.359,14.892,22.6,22.6,0,0,0,6.276,12.726c8.567,9.06,22.546,11.414,31.16,5.246A16.143,16.143,0,0,0,421,267.811a15.209,15.209,0,0,0,1.178-1.29,14.571,14.571,0,0,0,.928-1.272q.234-.359.446-.729l-1.4-2.463-3.676-6.473c0,.089,0,.179,0,.27a4.318,4.318,0,0,1-.143.993,5.658,5.658,0,0,1-1.1,2.076c-.133.166-.277.333-.432.5-.1.106-.2.21-.3.314l.979,1.036,1.2,1.275-.418.3-2.7,1.934-2.08-2.2-1.784,1.278,2.08,2.2-3.121,2.234-2.079-2.2-2.248,1.609,0,0-2.435,1.744-2.92-3.919,1.967-1.408L391.276,251.28l-2.259,1.618-3.4-3.287,2.435-1.744h0l2.248-1.609-2.079-2.2,3.12-2.235,2.079,2.2,1.785-1.278-2.08-2.2,3.12-2.234,2.177,2.3a7,7,0,0,1,2.217-.762,8,8,0,0,1,3.518.328,6.9,6.9,0,0,1,1.235.528,8.371,8.371,0,0,1,2.061,1.621,5.237,5.237,0,0,1,1.706,4.171,5.523,5.523,0,0,1-.964,2.488,7.525,7.525,0,0,1,2.247-.514,6.552,6.552,0,0,1,.894,0,6.632,6.632,0,0,1,1.429.261,9.2,9.2,0,0,1,1.227.461,8.084,8.084,0,0,1,1.275.731l-4.692-8.264-.185-.324-.207-.364-.181-.32-.565-1-1.544-2.718-.935-1.647-.272-.48-.162-.285-.291-.513q-.5-.136-1-.253" transform="translate(-177.479 -148.672)" fill="#3b82f4"/>
        <path id="Path_1255" data-name="Path 1255" d="M428.242,269.4a4.652,4.652,0,0,0-.535-.118,3.977,3.977,0,0,0-2.874.918l-.637.456-1.785,1.277-1.072.769,4.407,4.658,1.071-.767,1.785-1.277.45-.323a3.674,3.674,0,0,0,1.8-2.334,2.156,2.156,0,0,0-.011-.509,3.19,3.19,0,0,0-.936-1.733,3.647,3.647,0,0,0-1.664-1.017" transform="translate(-195.986 -165.491)" fill="#3b82f4"/>
        <path id="Path_1256" data-name="Path 1256" d="M414.121,255.226a2.519,2.519,0,0,0-1.472-.062,8.858,8.858,0,0,0-1.932,1.157l-.091.065-1.16.831h0l-1.7,1.215,4,4.236,1.072-.767,1.784-1.278.4-.288q1.79-1.283,1.551-2.358a3.641,3.641,0,0,0-.882-1.755,3.508,3.508,0,0,0-1.582-.995" transform="translate(-189.674 -158.901)" fill="#3b82f4"/>
        <path id="Path_1257" data-name="Path 1257" d="M428.242,269.4a4.652,4.652,0,0,0-.535-.118,3.977,3.977,0,0,0-2.874.918l-.637.456-1.785,1.277-1.072.769,4.407,4.658,1.071-.767,1.785-1.277.45-.323a3.674,3.674,0,0,0,1.8-2.334,2.156,2.156,0,0,0-.011-.509,3.19,3.19,0,0,0-.936-1.733,3.647,3.647,0,0,0-1.664-1.017" transform="translate(-195.986 -165.491)" fill="#3b82f4"/>
        <path id="Path_1258" data-name="Path 1258" d="M414.121,255.226a2.519,2.519,0,0,0-1.472-.062,8.858,8.858,0,0,0-1.932,1.157l-.091.065-1.16.831h0l-1.7,1.215,4,4.236,1.072-.767,1.784-1.278.4-.288q1.79-1.283,1.551-2.358a3.641,3.641,0,0,0-.882-1.755,3.508,3.508,0,0,0-1.582-.995" transform="translate(-189.674 -158.901)" fill="#3b82f4"/>
        <path id="Path_1259" data-name="Path 1259" d="M414.121,255.226a2.519,2.519,0,0,0-1.472-.062,8.858,8.858,0,0,0-1.932,1.157l-.091.065-1.16.831h0l-1.7,1.215,4,4.236,1.072-.767,1.784-1.278.4-.288q1.79-1.283,1.551-2.358a3.641,3.641,0,0,0-.882-1.755,3.508,3.508,0,0,0-1.582-.995" transform="translate(-189.674 -158.901)" fill="#3b82f4"/>
        <path id="Path_1260" data-name="Path 1260" d="M428.242,269.4a4.652,4.652,0,0,0-.535-.118,3.977,3.977,0,0,0-2.874.918l-.637.456-1.785,1.277-1.072.769,4.407,4.658,1.071-.767,1.785-1.277.45-.323a3.674,3.674,0,0,0,1.8-2.334,2.156,2.156,0,0,0-.011-.509,3.19,3.19,0,0,0-.936-1.733,3.647,3.647,0,0,0-1.664-1.017" transform="translate(-195.986 -165.491)" fill="#3b82f4"/>
        <path id="Path_1261" data-name="Path 1261" d="M404.5,233.338q-.677-.151-1.361-.267l-.045-.007a26.178,26.178,0,0,0-3.37-.349,24.082,24.082,0,0,0-2.482.033,19.678,19.678,0,0,0-10.25,3.512,15.8,15.8,0,0,0-6.706,13.134q0,.913.085,1.829v0a23.151,23.151,0,0,0,6.533,13.546,28.878,28.878,0,0,0,16.068,8.614c6.076,1.022,11.8-.113,16.1-3.2a16.813,16.813,0,0,0,1.852-1.534,15.94,15.94,0,0,0,1.277-1.376q.477-.578.893-1.2c.158-.234.309-.473.454-.715l-.153-.27-.283-.5c-.138.251-.285.5-.438.741a15.109,15.109,0,0,1-.9,1.276,15.365,15.365,0,0,1-1.2,1.341,15.945,15.945,0,0,1-2.006,1.7c-8.614,6.167-22.593,3.814-31.16-5.246a22.458,22.458,0,0,1-6.323-13.171,15.52,15.52,0,0,1,6.406-14.446,19.886,19.886,0,0,1,12.665-3.408,25.3,25.3,0,0,1,3.03.338l.3.053c.476.088.955.189,1.431.3q.505.123,1.011.265l-.292-.513-.144-.253q-.5-.13-1-.241" transform="translate(-176.89 -148.489)" fill="#0061c1"/>
        <path id="Path_1262" data-name="Path 1262" d="M404.177,232.455c-.389-.083-.78-.157-1.172-.224l-.147-.023a25.66,25.66,0,0,0-3.472-.333,22.831,22.831,0,0,0-5.26.447,18.922,18.922,0,0,0-7.224,3.105,15.8,15.8,0,0,0-6.706,13.134,18.861,18.861,0,0,0,.132,2.274v0a23.306,23.306,0,0,0,6.487,13.1,28.868,28.868,0,0,0,16.067,8.613c6.076,1.023,11.8-.113,16.1-3.2a16.744,16.744,0,0,0,1.731-1.421,15.749,15.749,0,0,0,1.261-1.327q.489-.577.917-1.2c.16-.231.314-.466.46-.7l-.282-.5-.149-.263c-.141.247-.289.49-.446.729a14.745,14.745,0,0,1-.928,1.272,15.082,15.082,0,0,1-1.178,1.29,16.112,16.112,0,0,1-1.889,1.584c-8.614,6.167-22.592,3.813-31.16-5.246a22.6,22.6,0,0,1-6.276-12.726,15.567,15.567,0,0,1,6.359-14.892,19.541,19.541,0,0,1,11.5-3.439c.3,0,.61.006.915.02a25.109,25.109,0,0,1,3.388.369q.695.122,1.387.284.5.115,1,.252l-.144-.253-.288-.508q-.493-.124-.991-.23" transform="translate(-176.848 -148.102)" fill="#fff"/>
        <path id="Path_1263" data-name="Path 1263" d="M417.525,253.735a9.236,9.236,0,0,0-1.228-.461,6.633,6.633,0,0,0-1.429-.261,6.557,6.557,0,0,0-.894,0,7.541,7.541,0,0,0-2.247.515,5.515,5.515,0,0,0,.964-2.487,5.239,5.239,0,0,0-1.706-4.172,8.412,8.412,0,0,0-2.062-1.621,6.9,6.9,0,0,0-1.235-.528,7.99,7.99,0,0,0-3.518-.327,6.979,6.979,0,0,0-2.217.762l-2.177-2.3-3.12,2.234,2.079,2.2-1.785,1.277-2.079-2.2-3.12,2.234,2.079,2.2-2.248,1.61h0l-2.436,1.744,3.4,3.287,2.259-1.617,11.667,12.336-1.967,1.408,2.92,3.919,2.435-1.744,0,0,2.248-1.609,2.08,2.2,3.12-2.234-2.08-2.2,1.784-1.278,2.08,2.2,2.7-1.935.418-.3-1.205-1.275-.979-1.036c.106-.1.208-.208.3-.314.155-.164.3-.33.432-.5a5.658,5.658,0,0,0,1.1-2.076,4.353,4.353,0,0,0,.142-.993c0-.091,0-.181,0-.27l-3.155-5.555-.057-.1a8.117,8.117,0,0,0-1.275-.731m-18.418-.993,1.7-1.215h0l1.159-.831.091-.065a8.885,8.885,0,0,1,1.933-1.157,2.522,2.522,0,0,1,1.471.063,3.5,3.5,0,0,1,1.582.995,3.646,3.646,0,0,1,.883,1.755q.238,1.073-1.551,2.358l-.4.288-1.784,1.278-1.072.766Zm16.762,7.125a2.134,2.134,0,0,1,.011.509,3.675,3.675,0,0,1-1.8,2.335l-.45.322-1.785,1.278-1.071.768-4.407-4.659,1.072-.768,1.785-1.278.637-.456a3.979,3.979,0,0,1,2.874-.918,4.392,4.392,0,0,1,.535.118,3.649,3.649,0,0,1,1.665,1.017,3.2,3.2,0,0,1,.936,1.733" transform="translate(-181.012 -153.212)" fill="#fff"/>
        <path id="Path_1264" data-name="Path 1264" d="M449.819,262.43s-13.7-24.78-20-29.592-30.142-14.26-34.787-10.171,7.376,11.293,14.447,12.794,12.7,24.051,10.5,28.542c-3.2,6.541-22.489-3.205-26.359.348-5.15,4.727,4.749,12.721,17.989,18.237a90.019,90.019,0,0,0,23.789,6.075Z" transform="translate(-182.446 -143.358)" fill="#ff6e75"/>
      </g>
    </g>
  </g>
</svg>
