<svg xmlns="http://www.w3.org/2000/svg" width="24.911" height="21.044" viewBox="0 0 24.911 21.044">
  <g id="Group_12875" data-name="Group 12875" transform="translate(-44.157 -418.081)">
    <path id="Path_10712" data-name="Path 10712" d="M33.581,129.758H30.661a2.7,2.7,0,0,1-.329-.016.522.522,0,0,1-.462-.675,3.663,3.663,0,0,1,1.534-2.093,3.86,3.86,0,0,1,5.871,2.012.54.54,0,0,1-.528.765c-.225.014-.452.01-.678.01H33.581v0" transform="translate(14.311 309.361)" fill="#f0b80c"/>
    <path id="Path_10713" data-name="Path 10713" d="M158.9,129.733h-2.99a2.078,2.078,0,0,1-.26-.017.519.519,0,0,1-.464-.644,3.451,3.451,0,0,1,1.022-1.7,3.825,3.825,0,0,1,2.974-1.091,3.938,3.938,0,0,1,3.4,2.647c.155.492-.035.779-.555.8-.37.017-.742,0-1.112,0H158.9" transform="translate(-93.569 309.387)" fill="#f0b80c"/>
    <path id="Path_10714" data-name="Path 10714" d="M96.208,36.705H93.218c-.052,0-.1,0-.156,0a.541.541,0,0,1-.544-.743,3.541,3.541,0,0,1,.57-1.122,3.911,3.911,0,0,1,5.441-.85,3.806,3.806,0,0,1,1.39,1.963.529.529,0,0,1-.529.747c-1.061.011-2.121,0-3.182,0Z" transform="translate(-39.61 389.464)" fill="#f0b80c"/>
    <path id="Path_10715" data-name="Path 10715" d="M169.85,93.139a1.951,1.951,0,1,1-1.973,1.969,1.963,1.963,0,0,1,1.973-1.969" transform="translate(-104.506 337.907)" fill="#f0b80c"/>
    <path id="Path_10716" data-name="Path 10716" d="M105.279,1.958A1.945,1.945,0,0,1,107.242,0a1.966,1.966,0,0,1,1.946,1.946,1.955,1.955,0,1,1-3.909.012" transform="translate(-50.622 418.081)" fill="#f0b80c"/>
    <path id="Path_10717" data-name="Path 10717" d="M44.512,93.134a1.934,1.934,0,0,1,1.94,1.93,1.966,1.966,0,0,1-3.931.035,1.991,1.991,0,0,1,1.991-1.965" transform="translate(3.4 337.911)" fill="#f0b80c"/>
    <path id="Path_10736" data-name="Path 10736" d="M141.3,69.694a.523.523,0,0,1,.287-.463.491.491,0,0,1,.542.025,1.986,1.986,0,0,1,.3.29q1.032,1.055,2.028,2.145a1.629,1.629,0,0,1,.194.243.527.527,0,0,1-.1.677.5.5,0,0,1-.7-.007c-.28-.268-.535-.562-.811-.834-.512-.5-.983-1.046-1.478-1.566a.706.706,0,0,1-.263-.51" transform="translate(-81.629 358.546)" fill="#f0b80c"/>
    <path id="Path_10737" data-name="Path 10737" d="M73.35,72.749a.545.545,0,0,1-.529-.281.472.472,0,0,1,.036-.553c.136-.172.289-.331.439-.491q.916-.973,1.836-1.942a2.076,2.076,0,0,1,.161-.157.531.531,0,0,1,.8.677,1.194,1.194,0,0,1-.138.178c-.725.8-1.482,1.576-2.227,2.36a.551.551,0,0,1-.378.21" transform="translate(-22.621 358.522)" fill="#f0b80c"/>
  </g>
</svg>
