<svg id="Group_12786" data-name="Group 12786" xmlns="http://www.w3.org/2000/svg" xmlns:xlink="http://www.w3.org/1999/xlink" width="20.343" height="21.739" viewBox="0 0 20.343 21.739">
  <defs>
    <clipPath id="clip-path">
      <rect id="Rectangle_21036" data-name="Rectangle 21036" width="20.343" height="21.739" fill="#f0bc11"/>
    </clipPath>
  </defs>
  <g id="Group_12785" data-name="Group 12785" clip-path="url(#clip-path)">
    <path id="Path_18537" data-name="Path 18537" d="M0,10.164c0-2.758-.007-5.515,0-8.273A1.837,1.837,0,0,1,1.068.2,1.823,1.823,0,0,1,1.948,0C4.684,0,7.42,0,10.157.006a3.019,3.019,0,0,1,2.2.916c.9.905,1.788,1.813,2.654,2.746a2.923,2.923,0,0,1,.838,1.878c.053,1.138.014,2.276.024,3.414q.011,1.281.006,2.562c0,.13.044.173.166.19a4.859,4.859,0,0,1,2.227.909,5.065,5.065,0,0,1,1.885,2.735,4.68,4.68,0,0,1,.179,1.535,5.442,5.442,0,0,1-.485,1.945,5.183,5.183,0,0,1-2.882,2.609,5.079,5.079,0,0,1-5.117-1.02.276.276,0,0,0-.207-.075q-4.808,0-9.616,0A1.92,1.92,0,0,1,.061,18.871,1.661,1.661,0,0,1,0,18.454q0-4.145,0-8.29m19.054,6.517a3.781,3.781,0,0,0-4-3.77,3.786,3.786,0,1,0,.471,7.556,3.785,3.785,0,0,0,3.529-3.786" transform="translate(0.001 0)" fill="#f0b80c"/>
    <path id="Path_18538" data-name="Path 18538" d="M34.328,72.418h1.618a.639.639,0,1,1,.038,1.275c-1.12.01-2.24.008-3.361,0a.667.667,0,0,1-.639-.653.679.679,0,0,1,.673-.628c.557.017,1.114,0,1.671,0" transform="translate(-29.266 -66.26)" fill="#fff"/>
    <path id="Path_18539" data-name="Path 18539" d="M34.352,153.717c-.546,0-1.092,0-1.638,0a.676.676,0,0,1-.655-.491.632.632,0,0,1,.643-.785q1.673-.01,3.346,0a.61.61,0,0,1,.64.663.642.642,0,0,1-.682.61c-.552,0-1.1,0-1.655,0Z" transform="translate(-29.316 -139.484)" fill="#fff"/>
    <path id="Path_18540" data-name="Path 18540" d="M34.328,113.548H32.619a.624.624,0,0,1-.2-1.215,1.408,1.408,0,0,1,.415-.063c1.044,0,2.088,0,3.132,0a.652.652,0,0,1,.649.859.643.643,0,0,1-.594.418H34.328" transform="translate(-29.272 -102.729)" fill="#fff"/>
    <path id="Path_18541" data-name="Path 18541" d="M112.989,72.468a1.358,1.358,0,0,1,.612.074.717.717,0,0,1,.334.6.662.662,0,0,1-.507.576,2.644,2.644,0,0,1-.951,0,.631.631,0,0,1,.144-1.246h.368" transform="translate(-102.469 -66.31)" fill="#fff"/>
    <path id="Path_18542" data-name="Path 18542" d="M112.884,113.41c-.152-.023-.366.053-.569-.064a.689.689,0,0,1-.349-.585.6.6,0,0,1,.43-.558,1.944,1.944,0,0,1,1.111,0,.6.6,0,0,1,.408.557.647.647,0,0,1-.336.573.461.461,0,0,1-.16.072c-.159.01-.32,0-.535,0" transform="translate(-102.45 -102.596)" fill="#fff"/>
    <path id="Path_18543" data-name="Path 18543" d="M157.977,178.489c.331-.43.69-.821,1.025-1.232a.628.628,0,0,1,1.093.091.6.6,0,0,1-.1.684c-.485.587-.975,1.169-1.462,1.754-.056.067-.1.142-.16.209a.649.649,0,0,1-1.16-.146c-.211-.43-.425-.858-.632-1.29a.615.615,0,0,1,.3-.841.658.658,0,0,1,.84.3,2.521,2.521,0,0,0,.258.465" transform="translate(-143.215 -161.943)" fill="#f0b80c"/>
  </g>
</svg>
