<svg xmlns="http://www.w3.org/2000/svg" xmlns:xlink="http://www.w3.org/1999/xlink" width="20.005" height="18.762" viewBox="0 0 20.005 18.762">
  <defs>
    <clipPath id="clip-path">
      <rect id="Rectangle_448" data-name="Rectangle 448" width="20.005" height="18.762" transform="translate(0 0)" fill="none"/>
    </clipPath>
  </defs>
  <g id="Group_1217" data-name="Group 1217" clip-path="url(#clip-path)">
    <path id="Path_440" data-name="Path 440" d="M19.075,13.759h-.313V9.694a2.192,2.192,0,0,0-2.189-2.189H11.257v-2.5h.313a.942.942,0,0,0,.938-.938V.938A.942.942,0,0,0,11.57,0H8.443a.942.942,0,0,0-.938.938V4.065A.942.942,0,0,0,8.443,5h.313V7.5H3.439A2.191,2.191,0,0,0,1.251,9.694v4.065H.938A.942.942,0,0,0,0,14.7v3.127a.942.942,0,0,0,.938.938H4.065A.942.942,0,0,0,5,17.824V14.7a.942.942,0,0,0-.938-.938H3.752V10.007h5v3.752H8.439A.942.942,0,0,0,7.5,14.7v3.127a.942.942,0,0,0,.938.938h3.127a.942.942,0,0,0,.938-.938V14.7a.942.942,0,0,0-.938-.938h-.313V10.007h5v3.752H15.94A.942.942,0,0,0,15,14.7v3.127a.942.942,0,0,0,.938.938h3.127A.942.942,0,0,0,20,17.824V14.7a.942.942,0,0,0-.938-.938ZM3.752,17.512h-2.5v-2.5h2.5Zm7.5,0h-2.5v-2.5h2.5ZM8.752,1.253h2.5v2.5h-2.5Zm10.01,16.259h-2.5v-2.5h2.5Z" fill="#f0b80c"/>
  </g>
</svg>
