<svg xmlns="http://www.w3.org/2000/svg" xmlns:xlink="http://www.w3.org/1999/xlink" width="23" height="23" viewBox="0 0 23 23">
  <defs>
    <clipPath id="clip-path">
      <rect id="Rectangle_17120" data-name="Rectangle 17120" width="23" height="23" transform="translate(0)" fill="#b1b2b4"/>
    </clipPath>
  </defs>
  <g id="Group_506" data-name="Group 506" transform="translate(-0.247)">
    <g id="Group_505" data-name="Group 505" transform="translate(0.247)" clip-path="url(#clip-path)">
      <path id="Path_447" data-name="Path 447" d="M168.358,4.39A4.39,4.39,0,1,1,163.962,0a4.368,4.368,0,0,1,4.4,4.385m-4.757-2.4a1.984,1.984,0,0,0-.226.064,1.594,1.594,0,0,0-1,1.187,1.128,1.128,0,0,0,.938,1.439c.223.046.452.062.678.1.21.034.421.064.627.118a.3.3,0,0,1,.246.338.855.855,0,0,1-.6.848.842.842,0,0,1-.968-.323A3.326,3.326,0,0,1,163.1,5.4a.646.646,0,0,0-.087-.145.381.381,0,0,0-.463-.057.335.335,0,0,0-.162.4,1.634,1.634,0,0,0,.928,1.109c.22.093.326.194.293.443a.3.3,0,0,0,.216.328.363.363,0,0,0,.507-.335c.005-.105,0-.211,0-.3a1.657,1.657,0,0,0,1.248-1.352,1.091,1.091,0,0,0-.819-1.322,4.765,4.765,0,0,0-.5-.093c-.3-.052-.61-.087-.909-.157-.211-.049-.279-.164-.268-.379a.819.819,0,0,1,.524-.765.842.842,0,0,1,.935.158,1.273,1.273,0,0,1,.3.505.363.363,0,0,0,.485.217.351.351,0,0,0,.211-.467,1.709,1.709,0,0,0-1.2-1.186c0-.072,0-.148,0-.223a1.471,1.471,0,0,0-.017-.227.335.335,0,0,0-.4-.265.327.327,0,0,0-.311.332c0,.129,0,.258,0,.382" transform="translate(-145.153 -0.005)" fill="#b1b2b4"/>
      <path id="Path_448" data-name="Path 448" d="M8.779,4.384A4.366,4.366,0,0,1,4.385,8.77,4.385,4.385,0,1,1,8.779,4.384M4.753,6.825l.05-.017A1.616,1.616,0,0,0,6,5.468a1.083,1.083,0,0,0-.588-1.222A2.248,2.248,0,0,0,4.7,4.064c-.3-.04-.611-.079-.911-.147-.238-.054-.31-.19-.289-.434a.852.852,0,0,1,.65-.766.866.866,0,0,1,.965.4c.059.1.1.214.147.321a.373.373,0,1,0,.688-.289A1.66,1.66,0,0,0,4.763,2c-.009-.157-.006-.31-.029-.459a.329.329,0,0,0-.4-.262.328.328,0,0,0-.307.335c0,.129,0,.258,0,.373a2.582,2.582,0,0,0-.292.1,1.623,1.623,0,0,0-.947,1.183A1.1,1.1,0,0,0,3.514,4.61a4.108,4.108,0,0,0,.668.141c.28.05.565.079.842.142.192.043.25.146.255.342A.868.868,0,0,1,3.665,5.7a3.28,3.28,0,0,1-.159-.34A.338.338,0,0,0,3.2,5.141a.362.362,0,0,0-.377.509,1.637,1.637,0,0,0,.949,1.065.334.334,0,0,1,.259.4.332.332,0,0,0,.341.386.356.356,0,0,0,.384-.374c0-.1,0-.2,0-.3" transform="translate(-0.21 0)" fill="#b1b2b4"/>
      <path id="Path_449" data-name="Path 449" d="M43.152,154.7a1.19,1.19,0,0,0-.531-.928,1.126,1.126,0,0,0-.682-.223c-.064,0-.11-.006-.115-.087a1.215,1.215,0,0,0-1.021-1.038,1.173,1.173,0,0,0-1.172.454c-.009.012-.021.022-.035.037a1.282,1.282,0,0,0-.814-.461,1.154,1.154,0,0,0-.923.243c-.049.039-.082.062-.146.013-.307-.238-.618-.471-.93-.7-.055-.041-.072-.071-.033-.138q1.149-1.974,2.293-3.951c.153-.263.313-.523.462-.788.048-.085.115-.061.178-.053.257.033.512.072.769.108l1.482.2c.037.005.073.016.126.029-.055.088-.1.164-.15.24a9.218,9.218,0,0,0-.88,1.776,1.94,1.94,0,0,0-.133.817.9.9,0,0,0,1.148.855,3.064,3.064,0,0,0,1.13-.528,6.819,6.819,0,0,0,1.4-1.274c.068-.082.111-.088.2-.035,1.294.742,2.593,1.477,3.888,2.218.836.478,1.669.961,2.5,1.443a.6.6,0,0,1,.314.331.448.448,0,0,1-.133.5.412.412,0,0,1-.5.084q-.579-.308-1.149-.634-1.69-.967-3.376-1.94a1.246,1.246,0,0,0-.132-.067.35.35,0,0,0-.469.157.335.335,0,0,0,.116.478c.322.2.654.374.98.562q1.32.763,2.638,1.529a.491.491,0,0,1,.282.557.476.476,0,0,1-.688.3c-.455-.247-.9-.5-1.354-.759-.572-.326-1.142-.656-1.714-.983a1.011,1.011,0,0,0-.165-.077.343.343,0,0,0-.428.165.331.331,0,0,0,.086.458c.206.136.427.25.641.373q.94.542,1.879,1.084a.5.5,0,0,1,.292.563.475.475,0,0,1-.638.335q-.571-.312-1.138-.63c-.335-.189-.663-.39-1-.574a.365.365,0,0,0-.575.285.322.322,0,0,0,.184.338l.958.556a3.018,3.018,0,0,1,.272.167.464.464,0,0,1,.126.63.472.472,0,0,1-.62.171c-.448-.244-.891-.5-1.333-.75a.164.164,0,0,1-.065-.126,1.217,1.217,0,0,0-.992-1.291,2.517,2.517,0,0,0-.32-.025" transform="translate(-33.571 -133.577)" fill="#b1b2b4"/>
      <path id="Path_450" data-name="Path 450" d="M94.894,141.214a12.469,12.469,0,0,1,1.988.182,6.081,6.081,0,0,0,2.495-.075c.195-.052.195-.05.3.135q.943,1.624,1.886,3.248c.115.2.221.4.337.6a.1.1,0,0,1-.024.147q-.776.768-1.549,1.54a.1.1,0,0,1-.138.018q-2.328-1.335-4.658-2.666c-.67-.384-1.337-.775-2.006-1.162-.413-.24-.516-.212-.807.163a5.574,5.574,0,0,1-1.714,1.522,2.4,2.4,0,0,1-.52.2c-.2.054-.29-.02-.254-.22a4.52,4.52,0,0,1,.215-.8,7.81,7.81,0,0,1,1.081-1.861,1.924,1.924,0,0,1,1.009-.653,7.654,7.654,0,0,1,2.357-.312" transform="translate(-82.16 -128.262)" fill="#b1b2b4"/>
      <path id="Path_451" data-name="Path 451" d="M6.054,119.865a2.7,2.7,0,0,1-.116.253q-.666,1.164-1.337,2.325-1.048,1.808-2.1,3.613c-.025.043-.05.085-.077.127a.318.318,0,0,1-.479.122q-.858-.489-1.71-.987a.323.323,0,0,1-.13-.5q.984-1.686,1.969-3.372c.381-.654.755-1.313,1.135-1.968.147-.253.3-.5.453-.754.138-.225.267-.264.495-.137.571.319,1.14.643,1.709.966a.35.35,0,0,1,.189.312" transform="translate(-0.244 -107.646)" fill="#b1b2b4"/>
      <path id="Path_452" data-name="Path 452" d="M197.2,119.928a.3.3,0,0,1-.3-.167c-.215-.368-.433-.734-.648-1.1q-1.04-1.786-2.077-3.574c-.157-.27-.307-.543-.46-.815-.128-.228-.1-.345.127-.479.475-.28.953-.556,1.43-.833.105-.061.21-.123.319-.177a.279.279,0,0,1,.423.127q.913,1.569,1.825,3.139c.45.773.9,1.548,1.355,2.316.156.262.086.4-.136.526q-.832.489-1.671.965a1.154,1.154,0,0,1-.193.076" transform="translate(-176.098 -102.391)" fill="#b1b2b4"/>
      <path id="Path_453" data-name="Path 453" d="M105.009,52.547c.113.116.21.206.3.307a.344.344,0,0,1-.2.588.36.36,0,0,1-.268-.08c-.33-.311-.653-.63-.965-.959a.339.339,0,0,1,.181-.565.689.689,0,0,1,.169-.023q1.749,0,3.5,0a.378.378,0,0,1,.423.288.346.346,0,0,1-.246.417.934.934,0,0,1-.226.026q-1.258,0-2.515,0h-.145" transform="translate(-94.467 -47.062)" fill="#b1b2b4"/>
      <path id="Path_454" data-name="Path 454" d="M106.829,26.9c-.1-.09-.2-.174-.289-.271a.344.344,0,0,1,.453-.517c.335.316.664.639.98.974a.339.339,0,0,1-.182.557.77.77,0,0,1-.192.024q-1.731,0-3.462,0a.656.656,0,0,1-.3-.063.318.318,0,0,1-.159-.351.332.332,0,0,1,.259-.288.983.983,0,0,1,.237-.026q1.245,0,2.491,0h.136l.022-.035" transform="translate(-94.379 -23.645)" fill="#b1b2b4"/>
      <path id="Path_455" data-name="Path 455" d="M64.552,213.811a1.594,1.594,0,0,1-.094.253q-.5.866-1,1.726a.477.477,0,0,1-.519.251.454.454,0,0,1-.382-.362.5.5,0,0,1,.073-.382q.4-.7.8-1.406c.074-.129.145-.259.229-.381a.468.468,0,0,1,.546-.171.506.506,0,0,1,.348.473" transform="translate(-57.013 -193.747)" fill="#b1b2b4"/>
      <path id="Path_456" data-name="Path 456" d="M81.092,227.961a.483.483,0,0,1-.414-.738c.157-.273.314-.547.473-.819A3.757,3.757,0,0,1,81.4,226a.47.47,0,0,1,.809.089.5.5,0,0,1-.047.488q-.207.368-.415.734c-.077.135-.157.269-.235.4a.507.507,0,0,1-.421.249" transform="translate(-73.421 -205.096)" fill="#b1b2b4"/>
      <path id="Path_457" data-name="Path 457" d="M98.571,239.44a.9.9,0,0,1,.056-.182c.128-.229.253-.46.4-.679a.444.444,0,0,1,.467-.2.415.415,0,0,1,.381.341.561.561,0,0,1-.035.318,7.748,7.748,0,0,1-.384.686.457.457,0,0,1-.533.18.5.5,0,0,1-.349-.467" transform="translate(-89.741 -216.512)" fill="#b1b2b4"/>
      <path id="Path_458" data-name="Path 458" d="M50.745,213.633a.468.468,0,0,1,.465.627,1.974,1.974,0,0,1-.262.451.469.469,0,0,1-.79-.494,2.81,2.81,0,0,1,.232-.391.455.455,0,0,1,.355-.193" transform="translate(-45.723 -194.04)" fill="#b1b2b4"/>
    </g>
  </g>
</svg>
