<svg xmlns="http://www.w3.org/2000/svg" width="147.537" height="110.001" viewBox="0 0 147.537 110.001">
  <g id="Group_813" data-name="Group 813" transform="translate(0 0)">
    <g id="Group_814" data-name="Group 814">
      <path id="Path_1338" data-name="Path 1338" d="M144.182,48.168c16.349,22.585-32.574,22.485-28.714,48.428s-73.242,7.732-53.189-15.912S57.324,31.04,84.829,33.455s43-7.872,59.353,14.713" fill="#f7f7f7"/>
      <path id="Path_1339" data-name="Path 1339" d="M122.676,99.432c2.339-.091,2.79-.541,2.785-2.866-.006-3.105-.5-6.18-.516-9.291-.1-15.61-.322-31.219-.236-46.83.028-5.065-2.464-8.312-7.283-9.707-3.9-1.13-7.908-1.867-11.739-3.294-2.027-.755-2.125-1.379-1.212-3.249A36.724,36.724,0,0,0,108.2,4.354c-.087-.943-.308-1.213-1.281-1.3-8.115-.732-16.106.377-24.1,1.514a91.859,91.859,0,0,1-17.072,1.31c-5.276-.236-10.516-.817-15.76-1.381-1.958-.21-2.532.295-2.5,2.226.151,8.336.321,16.671.439,25.007.013.913-5.516,1.67-5.516,1.67-.4-6.994-.858-13.983-1.151-20.984a10.246,10.246,0,0,1,5.26-9.978,5.227,5.227,0,0,1,3.3-.73c4.236.4,8.473.771,12.708,1.183,6.408.622,12.74-.062,19.073-.975C89.718.74,97.834-.383,106.089.126a8.973,8.973,0,0,1,6.774,3.139c5.447,6.17,10.554,12.533,13.982,20.093a7.865,7.865,0,0,1,.746,3.308q-.012,24.814.006,49.627c.014,6.384.052,12.772.666,19.138a10.721,10.721,0,0,1,.032,1.329c-.106,3.636-1.528,5.208-5.16,5.376-10.9.5-21.8.68-32.71.879-11.751.215-23.5.328-35.247-.118a63.521,63.521,0,0,1-8.6-.745c-3.14-.552-4.882-2.2-4.784-5.4.084-2.748.115-5.494.381-8.233.024-.249,4.769,1.092,4.756,2.07-.035,2.526-.127,5.055-.3,7.575-.074,1.065.228,1.476,1.311,1.556,3.45.256,6.9.458,10.36.521,9.488.171,52.412-.346,64.374-.809M124.2,24.369A73.4,73.4,0,0,0,111.049,5.558a40.221,40.221,0,0,1-3.526,18.811Z" fill="#050505"/>
      <path id="Path_1340" data-name="Path 1340" d="M100.444,44.619c4.026,0,8.052.017,12.078-.011,1.051-.007,1.949.2,1.957,1.414.007,1.144-.88,1.379-1.86,1.4q-12.212.271-24.423.563c-.971.023-1.738-.339-1.758-1.366-.021-1.1.76-1.469,1.793-1.466,4.071.015,8.142.006,12.212.006v-.54" fill="#070707"/>
      <path id="Path_1341" data-name="Path 1341" d="M93.575,86.016c-3.633,0-7.266-.011-10.9.008-.844,0-1.637-.033-1.943-.99-.319-1,.381-1.772,1.65-1.815q8.041-.271,16.084-.523,2.923-.094,5.849-.193c1.387-.045,2.216.453,2.146,1.389-.089,1.195-.943,1.456-1.986,1.451-3.634-.014-7.268-.005-10.9-.005v.677" fill="#060606"/>
      <path id="Path_1342" data-name="Path 1342" d="M100.365,63.809a66.593,66.593,0,0,1,15.1,1.894c1,.242,1.832.674,1.487,1.887-.318,1.117-1.206,1.094-2.153.858a59.576,59.576,0,0,0-20.537-1.491c-.352.036-.707.037-1.06.068-.932.08-1.626-.284-1.706-1.24-.079-.939.5-1.418,1.449-1.525a69.378,69.378,0,0,1,7.417-.452" fill="#070707"/>
      <path id="Path_1343" data-name="Path 1343" d="M42.992,32.52a24.857,24.857,0,0,1,11.216-.274C61.166,33.5,66.715,37.074,71.4,42.3a28.478,28.478,0,0,1,1.335,36.95C64.816,89.094,54.374,92.291,42.1,89.756L36.11,87.762c-3.842,2.408-4.022,1.687-5.78,1.6a7.008,7.008,0,0,1-2.274,4.651c-4.2,4.328-8.419,8.64-12.889,12.693-2.486,2.254-5.352,3.782-8.8,3.152A7.327,7.327,0,0,1,.318,104.7c-.879-2.838.126-5.161,2.274-7.147,3.939-3.641,7.761-7.41,11.722-11.026a19.054,19.054,0,0,1,7.523-4.608c.576-.164.521-.468.475-.879a4.932,4.932,0,0,1,2.464-5.3c.67-.386.129-.741-.052-1.056a27.27,27.27,0,0,1-3.816-12.31c-.59-11.793,5.139-21.362,13.942-26.286,5.449-3.047,8.142-3.568,8.142-3.568M23.565,59.9A25.678,25.678,0,1,0,49.6,34.588l-.239,0A25.682,25.682,0,0,0,23.565,59.9M7.1,106.968a4.181,4.181,0,0,0,3.093-1.316c4.436-4.077,8.7-8.326,12.941-12.608a29.432,29.432,0,0,0,3.1-3.635c.584-.821.716-1.533-.191-2.273a10.629,10.629,0,0,1-1.828-1.921c-.709-.965-1.463-.89-2.4-.42a22.685,22.685,0,0,0-5.289,3.512c-4.233,3.9-8.4,7.867-12.565,11.84a3.533,3.533,0,0,0-.816,4.147,4.543,4.543,0,0,0,3.96,2.673M30.9,85.6c.154-.033.544-.1.926-.2a1.717,1.717,0,0,0,1.287-1.223c.218-.745-.512-.853-.885-1.137a24.7,24.7,0,0,1-4.714-4.467c-.679-.879-1.2-.663-1.823-.08a2.2,2.2,0,0,0-.658,1.812c.146,2.609,2.988,5.277,5.868,5.3" fill="#f0b80c"/>
      <path id="Path_1344" data-name="Path 1344" d="M66.732,59.77c-.108.91-.244,2.139-.4,3.364-.134,1.039-.437,2.022-1.77,1.768-1.376-.261-1.148-1.37-.982-2.335a19.105,19.105,0,0,0-1.354-11.018,18.373,18.373,0,0,0-4.752-6.622c-.775-.683-1.344-1.437-.519-2.356s1.648-.419,2.4.27c4.869,4.465,7.14,10.076,7.38,16.928" fill="#f0b80c"/>
      <path id="Path_1345" data-name="Path 1345" d="M61.774,71.857c-.937-.036-1.493-.46-1.5-1.371a1.241,1.241,0,0,1,1.409-1.377,1.291,1.291,0,0,1,1.379,1.435,1.229,1.229,0,0,1-1.292,1.313" fill="#f0b80c"/>
    </g>
  </g>
</svg>
