<svg xmlns="http://www.w3.org/2000/svg" xmlns:xlink="http://www.w3.org/1999/xlink" width="125" height="107.368" viewBox="0 0 125 107.368">
  <defs>
    <clipPath id="clip-path">
      <rect id="Rectangle_17177" data-name="Rectangle 17177" width="122.147" height="107.368" fill="none"/>
    </clipPath>
  </defs>
  <g id="Group_388" data-name="Group 388" transform="translate(-153 -194)">
    <circle id="Ellipse_55" data-name="Ellipse 55" cx="5" cy="5" r="5" transform="translate(268 276)" fill="#f7f7f7"/>
    <g id="Group_387" data-name="Group 387" transform="translate(153 194)">
      <g id="Group_386" data-name="Group 386" clip-path="url(#clip-path)">
        <path id="Path_415" data-name="Path 415" d="M91.6,48.136H76.075c-3.438,0-6.876-.005-10.315.008-.334,0-.787-.235-.8.512-.062,3.917-.22,7.833-.276,11.75a20.165,20.165,0,0,0,.522,5.832,1.707,1.707,0,0,0,1.884,1.443q24.291-.054,48.582-.025c1.489,0,1.752-.186,2.149-1.644a21.426,21.426,0,0,0,.479-6.058c-.058-3.474-.266-6.946-.275-10.419,0-1.1-.164-1.44-1.355-1.431-8.355.06-16.711.032-25.067.032" fill="#f7f7f7" opacity="0.1"/>
        <path id="Path_416" data-name="Path 416" d="M62.756,79.61c40.411,15.4-69.614,31.89-55.513-1.442S-20.2,62.23,13.657,21.868.712,55.964,62.756,79.61" fill="#f7f7f7" opacity="0.1"/>
        <path id="Path_417" data-name="Path 417" d="M121.88,50.529q-.264,5.927-.524,11.853a15.3,15.3,0,0,0,.184,2.983,4.392,4.392,0,0,1-2.972,5.165,14.315,14.315,0,0,1-4.659.873c-3.221.154-6.425-.228-9.637-.308-4.609-.113-4.219-.65-4.157,3.895.084,6.244.78,12.47.661,18.724a31.088,31.088,0,0,1-1.176,9.195,7.717,7.717,0,0,1-1.193,2.357,3.177,3.177,0,0,1-3.175,1.422,43.337,43.337,0,0,0-9.722-.306c-12.746.372-25.482,1.178-38.241.944a78.192,78.192,0,0,1-16.192-1.514,11.352,11.352,0,0,1-3.986-1.577,2.507,2.507,0,0,1-1.159-3.126,24.892,24.892,0,0,0,.335-5.633c-.023-9.5-.407-19-.643-28.494-.394-15.855-.874-31.711-.1-47.566a72.19,72.19,0,0,1,1.94-15.471,9,9,0,0,1,1.261-2.93A1.793,1.793,0,0,1,30.989.132a3.613,3.613,0,0,0,1.2.081Q63.58.222,94.968.224a4.366,4.366,0,0,1,4.658,3.149,18.04,18.04,0,0,1,1.061,6.3c.138,4.184-.332,8.344-.525,12.515a28.561,28.561,0,0,0,.01,3.654c.065.805.336,1.025,1.145,1.018,4.991-.041,9.983.028,14.972-.046a3.958,3.958,0,0,1,3.9,2.369,20.67,20.67,0,0,1,1.787,8.05,108.463,108.463,0,0,1-.092,13.3M80.03,26.546v.279c2.956,0,5.912-.012,8.868.011.534,0,.748-.053.734-.695-.029-1.439.087-2.88.124-4.32.074-2.952.38-5.91-.134-8.851-.312-1.782-.706-2.1-2.464-2.1l-46.695.008c-3.055,0-3.119.054-3.63,3.067-.018.109-.019.221-.035.331a107.346,107.346,0,0,0-.831,14.6c-.143,15.272.426,30.533.748,45.8.093,4.434.274,8.872-.055,13.3-.128,1.717-.214,1.746,1.472,2.107a53.235,53.235,0,0,0,10.151.813c10.573.214,21.142-.152,31.713-.336a47.574,47.574,0,0,1,7.97.166,1.023,1.023,0,0,0,1.143-.686,7.494,7.494,0,0,0,.495-1.574,29.61,29.61,0,0,0,.3-5.527c0-3.734-.463-7.457-.293-11.193.037-.815-.536-.692-.947-.717a43.51,43.51,0,0,0-5.319.07c-3.873.241-7.743.6-11.629.49a19.7,19.7,0,0,1-7.383-1.236,4.323,4.323,0,0,1-2.977-4.86A152.3,152.3,0,0,0,61.3,45.1a89.189,89.189,0,0,1-.49-10.628c.2-3.9,1.591-5.887,4.793-6.88a17.129,17.129,0,0,1,2.262-.523,72.876,72.876,0,0,1,12.168-.522m-47.5,28.44c-.232-11.383-.632-22.768.281-34.14a38.788,38.788,0,0,1,1.93-10.754c.929-2.461,1.472-2.8,4.041-2.776.222,0,.443,0,.665,0l48.47.009a4.49,4.49,0,0,1,4.81,3.429,12.939,12.939,0,0,1,.646,3.472c.2,3.257-.15,6.5-.225,9.751-.069,2.98-.052,2.98,2.89,2.862a1.482,1.482,0,0,1,.221,0c.408.046.463-.155.455-.522-.1-4.7.357-9.383.331-14.078A29.284,29.284,0,0,0,96.481,5.3a1.783,1.783,0,0,0-2.013-1.556Q63.634,3.8,32.8,3.774c-2.292,0-2.335.034-2.8,2.274-.037.18-.049.366-.078.548a87.589,87.589,0,0,0-.876,11.6c-.573,21.7.251,43.4.549,65.1.08,5.765.325,11.532-.08,17.292-.141,2,.315,2.57,2.386,2.57H94.237c2.1,0,2.587-.489,2.587-2.626q0-13.31,0-26.619c0-2.767,0-2.73-2.762-2.724-.788,0-.913.327-.93.975-.048,1.85.015,3.694.129,5.541a56.918,56.918,0,0,1,.126,9.856,10.728,10.728,0,0,1-1.4,4.729,3.948,3.948,0,0,1-4.162,1.941,22.449,22.449,0,0,0-4.407-.319c-8.275.29-16.547.637-24.823.9a98.939,98.939,0,0,1-18.14-.76,15.67,15.67,0,0,1-5.777-1.793c-1.142-.68-2.081-1.634-1.755-3.045a25.353,25.353,0,0,0,.416-5.842c-.026-9.466-.577-18.918-.8-28.38m59.07-6.85H76.075c-3.439,0-6.877-.005-10.315.008-.334,0-.788-.235-.8.512-.061,3.917-.22,7.833-.276,11.75a20.171,20.171,0,0,0,.522,5.832,1.708,1.708,0,0,0,1.884,1.443q24.291-.054,48.582-.025c1.489,0,1.752-.186,2.15-1.644a21.5,21.5,0,0,0,.479-6.058c-.059-3.474-.266-6.946-.275-10.42,0-1.1-.165-1.439-1.355-1.43-8.356.06-16.712.032-25.068.032m-.16-12.424c8.57,0,17.14-.01,25.71.016.74,0,1.074-.131.982-.945a7.935,7.935,0,0,1,0-1.99c.141-1-.324-1.384-1.214-1.6A36.857,36.857,0,0,0,109.9,30.4c-9.083-.42-18.168-.147-27.253-.061-5.351.051-10.7.446-16.058.074-.922-.064-1.412.533-1.6,1.38a16.083,16.083,0,0,0-.108,2.869c-.034.858.215,1.074,1.077,1.071,8.495-.035,16.991-.021,25.487-.021m-5.428,3.549a6.8,6.8,0,0,1-.728,0,8.935,8.935,0,0,0-6.5,1.69,64.291,64.291,0,0,1-6.474,3.638c2.366,0,4.41-.008,6.455.008.393,0,.6-.255.835-.468a57.612,57.612,0,0,1,6.409-4.864m-3.17,5.114c.025.07.049.141.073.211h5.259a.822.822,0,0,0,.6-.214,48.179,48.179,0,0,1,6.78-5.1c-2.218.023-4.155-.341-5.826,1.094a14.524,14.524,0,0,1-2.212,1.225c-1.566.916-3.117,1.857-4.674,2.788m21.463-5.115c-1.444,0-2.57.009-3.695,0a1.968,1.968,0,0,0-1.142.291c-1.212.764-2.453,1.482-3.68,2.223q-2.173,1.313-4.34,2.635a48.676,48.676,0,0,0,5.035.184.989.989,0,0,0,.711-.227,49.187,49.187,0,0,1,7.111-5.1M77.019,39.4a7.671,7.671,0,0,0-6.844,1.748c-1.152.912-2.462,1.623-3.7,2.424-.439.283-.881.562-1.6,1.017,1.8,0,3.237.006,4.674-.006.226,0,.548.134.62-.262.116-.638.681-.837,1.129-1.136,1.892-1.264,3.794-2.514,5.717-3.785m39.432,5.1c1.679.221,1.679.221,1.679-1.409q0-1.272,0-2.543c0-1.3-.346-1.565-1.618-1.286a1.58,1.58,0,0,0-.706.5,28.832,28.832,0,0,1-4.8,3.516c-.705.406-1.419.8-2.1,1.178a5.254,5.254,0,0,0,5.424-1.5,2.152,2.152,0,0,1,.528-.4c.728-.377,1.6-.835,2.225-.113.661.764-.119,1.39-.628,1.958-.018.019,0,.068,0,.1m-15.9.093c1.288,0,2.31-.05,3.324.016a2.536,2.536,0,0,0,1.978-.722,53.7,53.7,0,0,1,5.282-4.03c.205-.14.577-.172.55-.522a5.367,5.367,0,0,0-3.964.9c-2.314,1.4-4.7,2.673-7.17,4.358M65.035,42.6c.666-.572,1.294-1.136,1.949-1.667s1.349-1.038,2.173-1.669c-.587,0-.955-.007-1.323,0-.952.021-2.3-.322-2.76.167-.613.646-.155,1.957-.18,2.982,0,.027.041.056.141.185" fill="#f7f7f7"/>
        <path id="Path_418" data-name="Path 418" d="M60.232,44.222a1.869,1.869,0,0,1-.515,1.091,6.138,6.138,0,0,1-1.66,1.278c-4.406,2.3-8.663,4.881-13.206,6.916a4.592,4.592,0,0,1-.713.3.749.749,0,0,1-.778-.3c-.2-.241-.072-.482.057-.715a4.8,4.8,0,0,1,1.164-1.324,63.65,63.65,0,0,1,11.964-7.711,4.7,4.7,0,0,1,2.681-.522,1.077,1.077,0,0,1,1.006.987" fill="#f7f7f7"/>
        <path id="Path_419" data-name="Path 419" d="M57.934,34.6c.025.445-.316.756-.6,1.091a21.954,21.954,0,0,1-4.057,3.218c-2.543,1.89-5.2,3.606-7.918,5.237-.655.393-1.312.837-1.912-.029-.555-.8.138-1.188.62-1.625,3.117-2.826,6.507-5.31,9.861-7.839a8.311,8.311,0,0,1,2.434-1.276A1.184,1.184,0,0,1,57.934,34.6" fill="#f7f7f7"/>
        <path id="Path_420" data-name="Path 420" d="M58.8,55.347a1.069,1.069,0,0,1,.864.526,1.165,1.165,0,0,1-.085,1.353,4.631,4.631,0,0,1-1.654,1.444c-3.091,1.72-6.192,3.424-9.278,5.153-.588.329-1.118.445-1.552-.172-.461-.655-.038-1.065.444-1.483a65.641,65.641,0,0,1,8.37-5.977,5.847,5.847,0,0,1,2.891-.844" fill="#f7f7f7"/>
        <path id="Path_421" data-name="Path 421" d="M58.079,63.845a2.3,2.3,0,0,1-1.089,1.6c-1.109.568-2.228,1.117-3.352,1.657-.5.238-1.028.315-1.389-.2a1.026,1.026,0,0,1,.295-1.464q1.482-1.233,3.024-2.391a2.09,2.09,0,0,1,1.691-.295.937.937,0,0,1,.82,1.1" fill="#f7f7f7"/>
        <path id="Path_422" data-name="Path 422" d="M66.219,100.493a47.758,47.758,0,0,1-5.557-.206c-1.423-.14-2.563-.72-2.491-1.424.129-1.254,1.313-1.154,2.131-1.331a42.584,42.584,0,0,1,8.925-.576,2.7,2.7,0,0,1,.961.241c.673.266,1.282.615,1.275,1.475a1.652,1.652,0,0,1-1.318,1.582,12.158,12.158,0,0,1-3.926.239" fill="#f7f7f7"/>
        <path id="Path_423" data-name="Path 423" d="M71.7,65.675a4.133,4.133,0,0,1-3.635-2.036,3.427,3.427,0,0,1,.316-3.85c.062-.092.2-.189.186-.267-.264-1.753,1.137-1.607,2.155-1.92a14.458,14.458,0,0,1,2.774-.741,3.488,3.488,0,0,1,3.566,1.746,3.256,3.256,0,0,1-.184,3.755c-.6.855-1.6,1.283-2.178,2.307-.515.915-1.928.914-3,1.006M73.286,59.5c-.631.092-1.393.212-2.158.309a.682.682,0,0,0-.61.384c-.361.734-.818,1.523-.334,2.287.494.781,1.342.577,2.109.359a2.1,2.1,0,0,1,.641-.147c1.232.063,1.666-.468,1.694-1.726.026-1.2-.023-1.462-1.342-1.466" fill="#f0b80c"/>
        <path id="Path_424" data-name="Path 424" d="M105.49,57.437a38.75,38.75,0,0,1-7.153-.443,4.164,4.164,0,0,1-1.168-.3.717.717,0,0,1-.339-.86c.114-.469.464-.6.9-.676a60.063,60.063,0,0,1,8.59-.817c1.548-.03,3.1-.083,4.645.008,1.587.093,2.57.731,2.474,1.554-.162,1.4-1.474,1.3-2.4,1.471a34.34,34.34,0,0,1-5.551.062" fill="#f0b80c"/>
        <path id="Path_425" data-name="Path 425" d="M108.068,63.293a13.677,13.677,0,0,1-4.048-.515,1.192,1.192,0,0,1-.874-1.155,1.029,1.029,0,0,1,.923-1.082c2.318-.379,4.628-.944,7.008-.46.673.137,1.216.421,1.308,1.149.1.793-.452,1.2-1.074,1.506a6.719,6.719,0,0,1-3.243.557" fill="#f0b80c"/>
      </g>
    </g>
  </g>
</svg>
