<svg xmlns="http://www.w3.org/2000/svg" width="158.493" height="121.625" viewBox="0 0 158.493 121.625">
  <g id="Group_879" data-name="Group 879" transform="translate(-149.001 -252)">
    <path id="Path_414" data-name="Path 414" d="M18.362-49.323C28.091-91.609,27.269.1,70.27,4.592S51.032,78.687,34.1,46.711,4.415,57.922-5.489,6.19,8.632-7.036,18.362-49.323Z" transform="matrix(-0.174, -0.985, 0.985, -0.174, 251.887, 355.412)" fill="#f7f7f7"/>
    <circle id="Ellipse_55" data-name="Ellipse 55" cx="5" cy="5" r="5" transform="translate(152 252)" fill="#f7f7f7"/>
    <circle id="Ellipse_56" data-name="Ellipse 56" cx="21" cy="21" r="21" transform="translate(152 282)" fill="#f7f7f7"/>
    <g id="Group_384" data-name="Group 384" transform="translate(149.001 255.6)">
      <g id="Group_385" data-name="Group 385" transform="translate(0 0)">
        <path id="Path_406" data-name="Path 406" d="M76.424,72.934c.363,6.108.456,18.268,1.066,24.362a20.019,20.019,0,0,0,1.067,5.239c1.022,2.663,2.7,4,5.058,4.028a6.621,6.621,0,0,0,6.206-3.985,12.023,12.023,0,0,0,.193-8.736c-.74-2.125-.095-3.008,2-3.655,4.908-1.514,9.925-1.168,14.907-1.017,5.934.179,11.866.192,17.8.193,9.185,0,18.34-.875,27.521-1.033,1.343-.023,2.686-.049,4.03-.044.817,0,1.561.292,1.624,1.2.258,3.72.623,7.457-.309,11.137a11.315,11.315,0,0,1-6.914,7.956,44.091,44.091,0,0,1-13.372,2.915,192.752,192.752,0,0,1-20.027.439q-7.781,0-15.563,0a43.584,43.584,0,0,0-5.913.418c-1.662.23-2.478-.242-2.609-1.48a2.3,2.3,0,0,1,2.3-2.488,117.6,117.6,0,0,1,15.76-.591c7.088.184,14.177.582,21.267.31a54.107,54.107,0,0,0,13.051-1.743c6.243-1.806,9.4-5.879,9.631-12.392.1-2.695.1-2.68-2.586-2.448-9.936.86-19.893,1.1-29.863,1.025-5.261-.038-10.523.12-15.785.1a67.028,67.028,0,0,1-11.7-.991c-.815-.148-.851.068-.687.759a17.375,17.375,0,0,1-.983,11.476c-2.216,4.881-7.13,7.445-11.948,6.286-3.5-.843-5.237-3.45-6.421-6.571a29.4,29.4,0,0,1-1.521-9.565c-.172-5-.313-16.035-.4-21.035m.666-41.977c.221-5.7.29-12.164.833-17.853A25.633,25.633,0,0,1,75.67,8c.138-.447.236-1.12.806-1.052.62.075.744.712.793,1.309a124.042,124.042,0,0,1-.114,16c-.1,2.125-.132,5-.246,7.123" transform="translate(-51.368 -4.865)" fill="#040404"/>
        <path id="Path_407" data-name="Path 407" d="M122.867,3.392l-26.434,1.1a23.958,23.958,0,0,1-5.683-.341c-.522-.1-.988-.281-1.057-.821-.078-.615.488-.785.938-.93a19.1,19.1,0,0,1,5.517-.784c5.744-.113,11.49-.161,17.235-.241,9.553-.133,19.092-.663,28.637-1.023C146.606.182,151.2.115,155.783,0a12.5,12.5,0,0,1,3,.32c4.138.912,6.323,3.689,6.56,8.29a99.588,99.588,0,0,1-.561,11.057c-.538,9.049-1.192,18.09-1.712,27.14-.5,8.644-.495,17.307-1.11,25.943-.151,2.119-.427,4.229-.611,6.346-.078.9-.4,1.531-1.4,1.515a1.6,1.6,0,0,1-1.539-1.719c-.046-3.024.108-6.043.333-9.057.753-10.079,1.925-20.122,2.394-30.226.4-8.645.992-17.281,1.551-25.918a24.574,24.574,0,0,0,.029-6.019c-.588-3.245-2.349-4.828-5.661-5.174a33.571,33.571,0,0,0-5.364-.076c-9.054.5-18.122.638-28.821.967" transform="translate(-62.84 0)" fill="#060606"/>
        <path id="Path_408" data-name="Path 408" d="M212.917,31.916a31.313,31.313,0,0,0,3.573-2.1,24.7,24.7,0,0,1,4.091-2.182,1.417,1.417,0,0,1,1.941.532,1.45,1.45,0,0,1-.4,1.983,12.444,12.444,0,0,1-2.233,1.521c-2.5,1.469-4.981,2.987-7.48,4.467a2.251,2.251,0,0,0-.812.925,10.02,10.02,0,0,1-11.022,4.96,9.774,9.774,0,0,1-7.608-9.345,8.309,8.309,0,0,1,5.363-8.283c.394-.145.835-.4,1.135.062.332.507.012.891-.383,1.244a9.123,9.123,0,0,0-3.174,5.607,7.089,7.089,0,0,0,11.781,6.085.856.856,0,0,0,.1-.222,5.679,5.679,0,0,1-3.161-4c-.234-1.058.027-1.785.74-2.077.776-.318,1.43.019,2.019,1.035.258.446.5.9.8,1.326a1.073,1.073,0,0,0,1.226.559c.553-.151.488-.648.542-1.025a6.377,6.377,0,0,0-5.684-7.145c-.446-.06-.891-.14-1.329-.245-1.185-.282-1.448-1.2-.58-2.062a3.746,3.746,0,0,1,3.68-.932,9.2,9.2,0,0,1,6.873,8.3c.016.285,0,.572,0,1.014" transform="translate(-132.919 -12.49)" fill="#f0b80c"/>
        <path id="Path_409" data-name="Path 409" d="M207.841,123.592a5.725,5.725,0,0,1-3.206-4.019c-.249-1.136.009-1.818.831-2.1.994-.337,1.487.3,1.918,1.036.292.5.582,1.005.915,1.477a.991.991,0,0,0,1.1.439c.506-.12.481-.572.544-.926a6.38,6.38,0,0,0-5.457-7.221,10.8,10.8,0,0,1-1.706-.335,1.062,1.062,0,0,1-.563-1.857,3.524,3.524,0,0,1,3.232-1.175,8.992,8.992,0,0,1,7.269,7.023,8.809,8.809,0,0,1,.212,2.28,3.119,3.119,0,0,0,1.3-.6,56.532,56.532,0,0,1,5.6-3.265c.354-.155.711-.31,1.077-.429a1.3,1.3,0,0,1,1.591.593,1.327,1.327,0,0,1-.063,1.7,6.928,6.928,0,0,1-1.8,1.452q-4.036,2.4-8.076,4.786a2.389,2.389,0,0,0-.92.948,10,10,0,0,1-11.094,5,9.772,9.772,0,0,1-7.559-9.285,8.352,8.352,0,0,1,5.4-8.357c.38-.138.817-.407,1.114.106.281.485.012.845-.356,1.173a9.223,9.223,0,0,0-3.224,5.686,7.144,7.144,0,0,0,3.956,7.167,6.988,6.988,0,0,0,7.981-1.3" transform="translate(-132.917 -74.773)" fill="#f0b80c"/>
        <path id="Path_410" data-name="Path 410" d="M207.687,209.914a5.656,5.656,0,0,1-3.208-4.1c-.17-.819-.117-1.579.772-1.969.742-.326,1.4.02,1.958.958.3.5.583,1.005.915,1.48a1.029,1.029,0,0,0,1.176.469c.516-.135.455-.6.512-.944a6.386,6.386,0,0,0-5.7-7.221,10,10,0,0,1-1.425-.252,1.094,1.094,0,0,1-.568-1.932,3.756,3.756,0,0,1,3.918-1.02,9.2,9.2,0,0,1,6.746,8.208c.018.311,0,.624,0,1.051a28.987,28.987,0,0,0,3.76-2.2,25.153,25.153,0,0,1,3.93-2.079,1.4,1.4,0,0,1,1.927.567,1.422,1.422,0,0,1-.354,1.911,11.646,11.646,0,0,1-2.219,1.544c-2.532,1.491-5.042,3.018-7.57,4.516a2.069,2.069,0,0,0-.754.847,9.928,9.928,0,0,1-18.665-3.693,8.607,8.607,0,0,1,5.309-8.909c.415-.15.9-.436,1.211.091s-.055.889-.44,1.234c-3.193,2.865-4.028,6.5-2.271,9.817a6.856,6.856,0,0,0,11.041,1.632" transform="translate(-132.785 -137.005)" fill="#f0b80c"/>
        <path id="Path_411" data-name="Path 411" d="M46.1,100.428A23.146,23.146,0,0,0,24.665,82.634a26.959,26.959,0,0,0-14.036,3.518C2.821,90.537-1.562,100.309.514,108.781c0,0,3.859,24.945,34.055,16.86,10.185-3.531,13.844-14.934,11.529-25.213m-2.2,5.7c-.2,8.563-4.693,17.243-13.816,18.576C9.613,126.426,5.872,114.033,5.872,114.033c-.294-1.294-.839-2.532-1.084-3.837C1.828,94.4,9.923,89.051,18.111,86.8c8.76-2.4,12.615-.653,12.686-.627,7.853,2.9,13.3,11.207,13.1,19.952" transform="translate(0 -57.882)"/>
        <path id="Path_412" data-name="Path 412" d="M75.726,135.307c-.051-4.332.7-8.746.966-13.111a16.3,16.3,0,0,0-.144-3.87c-.074-.417-.826-.619-1.836-.488-1.127.146-1.457.461-1.494.853-.086.921-.277,1.853-.325,2.77-.2,3.736.3,7.388.237,11.108,0,0-.031,4.557,2.6,2.738" transform="translate(-50.902 -81.486)"/>
        <path id="Path_413" data-name="Path 413" d="M72.269,189.369a2.053,2.053,0,0,1,1.6-2.152c2.372-.2,2.805,1.237,2.805,1.237.034.15.1.293.126.444.343,1.83-.6,2.45-1.544,2.71a2.352,2.352,0,0,1-1.47.073,2.429,2.429,0,0,1-1.518-2.312" transform="translate(-50.661 -131.875)"/>
      </g>
    </g>
  </g>
</svg>
