<svg width="82" height="70" viewBox="0 0 82 70" fill="none" xmlns="http://www.w3.org/2000/svg">
<path d="M78.2921 64.821C78.6413 65.3745 78.9623 65.9453 79.2541 66.531C79.4151 66.7654 79.5079 67.0397 79.5224 67.3236C79.5368 67.6075 79.4723 67.8899 79.336 68.1394C79.1996 68.3888 78.9968 68.5956 78.7501 68.7368C78.5033 68.8779 78.2223 68.9479 77.9381 68.939C77.5895 68.9872 77.2381 69.0119 76.8861 69.013C65.4321 69.163 53.9861 68.813 42.5531 68.213C36.5741 67.899 30.5951 67.557 24.6281 67.068C18.3859 66.7281 12.1828 65.8692 6.08313 64.5C5.31613 64.306 4.55113 64.1 3.79113 63.887C3.29827 63.7883 2.83246 63.5846 2.42538 63.2897C2.0183 62.9949 1.67951 62.6158 1.43205 62.1783C1.18459 61.7408 1.03427 61.2551 0.991319 60.7543C0.948365 60.2535 1.01379 59.7493 1.18313 59.276C1.43815 58.4052 1.80807 57.5722 2.28313 56.799C12.8525 39.537 23.4348 22.283 34.0301 5.03702C34.5821 4.13702 35.1581 3.25002 35.7621 2.38402C37.3441 0.116024 38.6461 -0.373976 41.3341 0.249024C43.9237 0.893283 46.2164 2.40081 47.8341 4.52302C48.9952 5.96079 50.0791 7.45924 51.0811 9.01202C60.0001 22.7 68.7221 36.518 76.4781 50.916C77.7011 53.187 78.8881 55.479 80.0631 57.776C80.3728 58.3749 80.6204 59.0038 80.8021 59.653C81.1144 60.5526 81.0906 61.5348 80.7354 62.4183C80.3801 63.3018 79.7172 64.027 78.8691 64.46C78.6751 64.579 78.4831 64.702 78.2921 64.821ZM39.1691 62.942V62.818C47.2421 62.818 55.3141 62.83 63.3871 62.812C66.4691 62.805 69.5571 62.838 72.6301 62.654C75.5661 62.478 75.4851 61.617 74.3711 59.671C66.0925 45.2184 57.8355 30.7534 49.6001 16.276C47.5361 12.659 45.5001 9.02202 43.3611 5.45302C42.6474 4.31077 41.7852 3.26833 40.7971 2.35302C40.6215 2.15816 40.4043 2.00525 40.1617 1.90559C39.919 1.80593 39.6571 1.76206 39.3952 1.77723C39.1333 1.7924 38.8782 1.86621 38.6487 1.99322C38.4191 2.12023 38.2211 2.29719 38.0691 2.51102C37.6069 3.00149 37.2001 3.54142 36.8561 4.12102C31.0075 13.6117 25.1661 23.1047 19.3321 32.6C14.3061 40.77 9.28513 48.942 4.26913 57.116C3.7016 58.034 3.25269 59.0202 2.93313 60.051C2.85337 60.2539 2.82085 60.4723 2.83802 60.6896C2.85519 60.9069 2.92161 61.1174 3.03224 61.3052C3.14287 61.4931 3.29482 61.6532 3.47655 61.7736C3.65828 61.894 3.86503 61.9714 4.08113 62C4.84233 62.2112 5.62729 62.3248 6.41713 62.338C17.3345 62.554 28.2518 62.754 39.1691 62.938" fill="white"/>
<path d="M66.6542 6.69604C66.9162 6.88204 67.2602 7.00704 67.3852 7.24604C67.4943 7.53509 67.5007 7.85287 67.4032 8.14604C67.3492 8.34604 67.1142 8.50304 66.9332 8.64604C65.1272 10.087 63.3122 11.519 61.5062 12.96C60.9982 13.36 60.4622 13.611 59.9752 13.011C59.4882 12.411 59.8022 11.939 60.3262 11.526C62.1632 10.076 63.9882 8.61204 65.8262 7.16404C66.0902 6.98876 66.3666 6.83301 66.6532 6.69804" fill="#F0B80C"/>
<path d="M55.6851 8.58403C55.7158 8.32942 55.7666 8.07764 55.8371 7.83104C56.7041 5.81904 57.5691 3.80704 58.4591 1.80504C58.4963 1.66764 58.565 1.54082 58.6598 1.43465C58.7546 1.32849 58.8729 1.24591 59.0052 1.19348C59.1376 1.14105 59.2803 1.12022 59.4221 1.13264C59.5639 1.14506 59.7008 1.1904 59.8221 1.26504C60.4321 1.60104 60.3411 2.12604 60.0781 2.71104C59.2161 4.62804 58.3901 6.56204 57.5781 8.50204C57.3611 9.02204 57.0551 9.43404 56.4881 9.26704C56.1451 9.16704 55.8881 8.76704 55.6881 8.58304" fill="#F0B80C"/>
<path d="M64.206 17.464C63.996 17.235 63.606 16.986 63.485 16.642C63.285 16.071 63.651 15.69 64.203 15.542C65.45 15.212 66.703 14.903 67.954 14.591C68.5062 14.3968 69.0807 14.2734 69.664 14.224C69.8623 14.2449 70.0524 14.3146 70.2173 14.4268C70.3822 14.539 70.5167 14.6902 70.609 14.867C70.6218 15.0659 70.583 15.2647 70.4963 15.4441C70.4095 15.6236 70.2778 15.7775 70.114 15.891C68.235 16.455 66.324 16.913 64.206 17.461" fill="#F0B80C"/>
<path d="M33.3589 25.3981C33.4029 23.2031 33.3789 21.0181 34.3449 18.9981C34.7049 18.0588 35.3272 17.2429 36.1378 16.6474C36.9484 16.0518 37.913 15.7018 38.9169 15.6391C39.6405 15.6101 40.3591 15.7715 41.0008 16.1072C41.6426 16.4429 42.185 16.9411 42.5739 17.5521C43.5573 18.857 44.0184 20.482 43.8669 22.1091C43.5879 25.4971 43.2549 28.8821 42.8879 32.2621C42.4879 35.9334 42.0516 39.6001 41.5789 43.2621C41.3269 45.1831 40.2789 46.3621 38.9339 46.4341C38.1638 46.3862 37.4322 46.0809 36.8564 45.5674C36.2807 45.0538 35.8941 44.3616 35.7589 43.6021C35.2909 41.4891 34.9589 39.3391 34.6949 37.1891C34.2039 33.2641 33.7949 29.3281 33.3599 25.3961M35.1599 24.8581C35.6479 29.0851 36.1409 33.5721 36.6969 38.0521C36.9004 39.7974 37.2059 41.5294 37.6119 43.2391C37.7369 43.7461 38.4269 44.1141 38.8589 44.5461C39.1589 44.0461 39.6649 43.5731 39.7289 43.0461C40.5289 36.3794 41.2902 29.7067 42.0129 23.0281C42.1504 22.2594 42.1345 21.4712 41.9664 20.7087C41.7982 19.9463 41.4809 19.2245 41.0329 18.5851C40.8569 18.2828 40.6144 18.0247 40.3237 17.8303C40.033 17.6359 39.7018 17.5104 39.3553 17.4632C39.0087 17.4161 38.656 17.4486 38.324 17.5582C37.9919 17.6679 37.6892 17.8518 37.4389 18.0961C36.6774 18.7666 36.1027 19.6231 35.7709 20.5821C35.4537 21.9888 35.2497 23.4187 35.1609 24.8581" fill="white"/>
<path d="M37.9863 59.517C34.8863 59.553 33.1323 57.38 33.4113 54.094C33.5715 52.7828 34.2068 51.5758 35.1969 50.7014C36.187 49.827 37.4633 49.3459 38.7843 49.349C40.0005 49.2623 41.2044 49.6401 42.1529 50.4062C43.1015 51.1723 43.7242 52.2698 43.8953 53.477C44.0628 54.411 43.9421 55.3738 43.5491 56.2375C43.1561 57.1012 42.5095 57.8248 41.6953 58.312C40.5969 59.053 39.3124 59.4706 37.9883 59.517" fill="white"/>
</svg>
