<svg xmlns="http://www.w3.org/2000/svg" width="18" height="17.194" viewBox="0 0 18 17.194">
  <path id="Icon_awesome-star-half-alt" data-name="Icon awesome-star-half-alt" d="M17.078,5.76l-4.915-.716L9.966.6A1.079,1.079,0,0,0,8.035.6l-2.2,4.446L.922,5.759a1.074,1.074,0,0,0-.6,1.833l3.556,3.459L3.04,15.936A1.077,1.077,0,0,0,4.1,17.194a1.061,1.061,0,0,0,.5-.126L9,14.762l4.4,2.307a1.074,1.074,0,0,0,1.561-1.131l-.841-4.886,3.557-3.458a1.075,1.075,0,0,0-.6-1.834ZM12.99,9.9l-.609.592.144.836.656,3.81-3.43-1.8L9,12.94V2.288l1.714,3.469.375.76.84.122,3.836.558Z" transform="translate(0)"/>
</svg>
