<svg width="139" height="132" viewBox="0 0 139 132" fill="none" xmlns="http://www.w3.org/2000/svg">
<circle cx="68.9992" cy="66.0002" r="57.5002" fill="url(#paint0_radial_742_22133)"/>
<circle cx="69" cy="66" r="66" fill="url(#paint1_radial_742_22133)"/>
<path opacity="0.5" d="M84.159 40.1183L51.6053 79.3158C50.5821 80.5467 49.8934 82.0205 49.6058 83.595C49.3181 85.1695 49.4411 86.7916 49.9629 88.3047C50.4847 89.8178 51.3877 91.1709 52.5848 92.2334C53.7818 93.2959 55.2326 94.0319 56.7969 94.3704L109.621 105.788C111.273 106.147 112.992 106.049 114.592 105.505C116.193 104.96 117.615 103.991 118.707 102.7C119.798 101.409 120.518 99.8449 120.788 98.176C121.058 96.5072 120.869 94.7963 120.24 93.2268L99.9881 42.6052C99.3898 41.1031 98.4107 39.7827 97.1472 38.7739C95.8837 37.765 94.3794 37.1026 92.7821 36.8516C91.1849 36.6007 89.5498 36.7699 88.0378 37.3427C86.5259 37.9155 85.1891 38.872 84.159 40.1183Z" fill="#999CFF"/>
<path opacity="0.5" d="M11.694 45.6127L0.354647 76.1756C0.0150501 77.1087 -0.082768 78.1126 0.0703057 79.0938C0.223379 80.0749 0.62236 81.0012 1.23006 81.7866C1.83777 82.5719 2.63441 83.1905 3.54573 83.5848C4.45704 83.9792 5.45337 84.1364 6.44183 84.0418L39.5583 80.7925C40.6121 80.6895 41.6186 80.304 42.4715 79.6766C43.3245 79.0492 43.9922 78.2032 44.4043 77.2278C44.8164 76.2525 44.9575 75.1839 44.8128 74.135C44.6681 73.0861 44.2429 72.0957 43.5821 71.2684L21.799 43.9789C21.1482 43.1667 20.2935 42.5416 19.3222 42.1677C18.3509 41.7937 17.2977 41.6842 16.2703 41.8503C15.2428 42.0164 14.2778 42.4522 13.4738 43.1132C12.6698 43.7742 12.0557 44.6367 11.694 45.6127Z" fill="#FFDDAE"/>
<path d="M95.3898 30.2492L64.9539 74.4206C64.0033 75.8003 63.4227 77.4009 63.2676 79.0692C63.1125 80.7374 63.3882 82.4176 64.0682 83.9489C64.7483 85.4802 65.8099 86.8113 67.1515 87.8149C68.4932 88.8185 70.0699 89.461 71.7309 89.6809L127.677 97.1295C129.437 97.3639 131.227 97.1155 132.856 96.4109C134.485 95.7063 135.892 94.572 136.927 93.1294C137.961 91.6868 138.583 89.9901 138.728 88.2209C138.872 86.4517 138.533 84.6766 137.746 83.0855L112.235 31.4473C111.478 29.9175 110.334 28.6123 108.917 27.6611C107.5 26.7099 105.858 26.1458 104.156 26.0247C102.453 25.9036 100.748 26.2297 99.2107 26.9708C97.6731 27.7118 96.3559 28.842 95.3898 30.2492Z" fill="#474EFF"/>
<path d="M73.0563 85.7359C72.0458 85.5985 71.085 85.2134 70.2595 84.6148C69.4339 84.0162 68.7692 83.2228 68.3245 82.3051C67.866 81.4377 67.6504 80.4624 67.7005 79.4826C67.7505 78.5027 68.0644 77.5545 68.6089 76.7383L99.1234 32.4338C99.6751 31.6435 100.438 31.0246 101.325 30.6479C102.213 30.2712 103.188 30.152 104.14 30.3039C105.15 30.4403 106.112 30.825 106.937 31.4237C107.763 32.0224 108.428 32.8164 108.871 33.7347L134.43 85.5C134.889 86.3674 135.104 87.3426 135.054 88.3225C135.004 89.3024 134.69 90.2505 134.146 91.0668C133.595 91.8587 132.833 92.4793 131.945 92.8571C131.058 93.2349 130.082 93.3547 129.13 93.2027L73.0563 85.7359Z" fill="white"/>
<path d="M101.543 45.9633L105.107 46.4353C106.221 46.5924 107.239 47.1543 107.965 48.0136C108.692 48.8729 109.076 49.9696 109.046 51.0945L108.804 55.7415C108.798 55.91 108.78 56.0779 108.75 56.2437L106.214 70.2515C106.033 71.217 105.482 72.0734 104.678 72.6385C103.874 73.2035 102.882 73.4326 101.912 73.277C100.883 73.1306 99.933 72.6401 99.2178 71.8853C98.5025 71.1306 98.0638 70.1559 97.973 69.12L96.9504 54.6463C96.9384 54.4791 96.9384 54.3113 96.9504 54.1441L97.1864 49.491C97.2119 48.9624 97.3488 48.4451 97.5881 47.9731C97.8274 47.501 98.1637 47.0849 98.575 46.7519C98.9863 46.4188 99.4633 46.1764 99.9748 46.0405C100.486 45.9046 101.021 45.8783 101.543 45.9633ZM101.259 77.1616L102.227 77.2887C103.224 77.4295 104.135 77.9321 104.785 78.7009C105.436 79.4697 105.781 80.451 105.754 81.4577C105.733 81.9325 105.612 82.3974 105.398 82.8219C105.185 83.2464 104.884 83.6209 104.515 83.9209C104.147 84.2209 103.719 84.4395 103.26 84.5625C102.801 84.6855 102.321 84.71 101.852 84.6345L100.884 84.5013C99.8868 84.3619 98.9763 83.8605 98.3257 83.0927C97.675 82.3249 97.3298 81.3444 97.3559 80.3383C97.3762 79.8633 97.497 79.3979 97.7103 78.9729C97.9235 78.5479 98.2245 78.173 98.5933 77.8728C98.9621 77.5726 99.3903 77.3541 99.8497 77.2315C100.309 77.1089 100.789 77.0851 101.259 77.1616Z" fill="#474EFF"/>
<path d="M23.3965 37.0021L15.0403 68.6905C14.7883 69.6534 14.7847 70.6645 15.0301 71.6292C15.2754 72.5938 15.7615 73.4804 16.4429 74.2059C17.1243 74.9315 17.9787 75.4722 18.9261 75.7775C19.8734 76.0828 20.8828 76.1427 21.8596 75.9516L54.2741 69.6284C55.3026 69.4233 56.2575 68.9469 57.0399 68.2486C57.8223 67.5503 58.4038 66.6555 58.7241 65.657C59.0444 64.6584 59.0919 63.5923 58.8616 62.5692C58.6314 61.5461 58.1318 60.6032 57.4145 59.8381L33.3805 34.4547C32.6596 33.6887 31.7468 33.1298 30.7368 32.8362C29.7268 32.5425 28.6566 32.5248 27.6374 32.7848C26.6183 33.0449 25.6874 33.5732 24.9416 34.3148C24.1958 35.0565 23.6623 35.9844 23.3965 37.0021Z" fill="#FEAA34"/>
<path d="M21.793 73.3982C21.1979 73.506 20.5851 73.4615 20.0118 73.2689C19.4384 73.0764 18.923 72.7421 18.5135 72.297C18.091 71.8682 17.7856 71.3381 17.6267 70.7575C17.4678 70.1769 17.4606 69.5653 17.6058 68.9811L25.9802 37.208C26.1255 36.6528 26.4256 36.1503 26.8455 35.7593C27.2655 35.3682 27.7881 35.1047 28.3522 34.9994C28.9479 34.893 29.5608 34.9387 30.1341 35.1322C30.7074 35.3258 31.2225 35.661 31.6318 36.1067L55.7506 61.5204C56.1736 61.9488 56.4798 62.4787 56.6397 63.0592C56.7997 63.6397 56.8081 64.2515 56.6642 64.8362C56.518 65.3903 56.2175 65.8915 55.7976 66.2814C55.3777 66.6713 54.8557 66.9339 54.2923 67.0388L21.793 73.3982Z" fill="white"/>
<path d="M29.9257 44.6684L31.989 44.263C32.6552 44.1555 33.3376 44.298 33.9051 44.6633C34.4725 45.0285 34.8849 45.5907 35.0629 46.2416L35.8011 49.0069C35.829 49.1084 35.8512 49.2114 35.8676 49.3154L37.1807 58.0227C37.283 58.6089 37.1497 59.2118 36.8097 59.7002C36.4698 60.1886 35.9507 60.523 35.3654 60.6306C34.7517 60.7325 34.1216 60.6211 33.5799 60.3151C33.0383 60.009 32.6178 59.5267 32.3884 58.9484L29.0362 50.6708C28.9955 50.5743 28.9612 50.4753 28.9333 50.3744L28.1709 47.6031C28.0718 47.295 28.0395 46.9693 28.0762 46.6478C28.113 46.3262 28.2179 46.0163 28.384 45.7385C28.55 45.4607 28.7735 45.2216 29.0393 45.0371C29.3052 44.8525 29.6074 44.7268 29.9257 44.6684ZM35.7648 62.9904L36.3275 62.8815C36.9242 62.7782 37.538 62.9023 38.0477 63.2294C38.5574 63.5565 38.926 64.0628 39.0806 64.6484C39.1659 64.9211 39.1928 65.2087 39.1594 65.4924C39.1261 65.7762 39.0333 66.0497 38.8871 66.2952C38.741 66.5407 38.5447 66.7526 38.3112 66.9172C38.0776 67.0818 37.812 67.1952 37.5316 67.2502L36.9689 67.3592C36.3729 67.4628 35.7598 67.3395 35.2503 67.0136C34.7407 66.6877 34.3716 66.1828 34.2157 65.5984C34.1305 65.3253 34.1036 65.0373 34.1369 64.7532C34.1702 64.469 34.2629 64.1951 34.409 63.9491C34.5551 63.7032 34.7513 63.4907 34.9849 63.3255C35.2184 63.1603 35.4842 63.0462 35.7648 62.9904Z" fill="#FEAA34"/>
<defs>
<radialGradient id="paint0_radial_742_22133" cx="0" cy="0" r="1" gradientUnits="userSpaceOnUse" gradientTransform="translate(68.9992 66.0002) rotate(90) scale(89.0898)">
<stop stop-color="#5C6CFF" stop-opacity="0"/>
<stop offset="0.520833" stop-color="#5C6CFF" stop-opacity="0.0625"/>
<stop offset="1" stop-color="#142DFF"/>
</radialGradient>
<radialGradient id="paint1_radial_742_22133" cx="0" cy="0" r="1" gradientUnits="userSpaceOnUse" gradientTransform="translate(69 66) rotate(90) scale(102.259)">
<stop stop-color="#5C6CFF" stop-opacity="0"/>
<stop offset="0.589355" stop-color="#5C6CFF" stop-opacity="0.0625"/>
<stop offset="1" stop-color="#142DFF"/>
</radialGradient>
</defs>
</svg>
