<svg xmlns="http://www.w3.org/2000/svg" xmlns:xlink="http://www.w3.org/1999/xlink" width="63" height="63" viewBox="0 0 63 63">
  <defs>
    <filter id="Rectangle_17403" x="0" y="0" width="63" height="63" filterUnits="userSpaceOnUse">
      <feOffset dy="3" input="SourceAlpha"/>
      <feGaussianBlur stdDeviation="3" result="blur"/>
      <feFlood flood-color="#7056f5" flood-opacity="0.251"/>
      <feComposite operator="in" in2="blur"/>
      <feComposite in="SourceGraphic"/>
    </filter>
  </defs>
  <g id="Group_866" data-name="Group 866" transform="translate(-302 -426)">
    <g transform="matrix(1, 0, 0, 1, 302, 426)" filter="url(#Rectangle_17403)">
      <rect id="Rectangle_17403-2" data-name="Rectangle 17403" width="45" height="45" rx="15" transform="translate(9 6)" fill="#b2a1ff"/>
    </g>
    <g id="Group_780" data-name="Group 780" transform="translate(322 440.903)">
      <g id="Group_781" data-name="Group 781" transform="translate(0 0)">
        <path id="Path_1276" data-name="Path 1276" d="M109.771,246.651a2.067,2.067,0,0,1-.953,1.207c-1.814,1.266-3.617,2.547-5.421,3.827a3.008,3.008,0,0,1-1.777.581q-3.283,0-6.566,0a3.831,3.831,0,0,1-1.715-.414c-1.348-.666-2.694-1.334-4.044-2a.234.234,0,0,1-.154-.3,2.229,2.229,0,0,0,.024-.437q0-4.125,0-8.25v-.279c.029-.019.042-.035.055-.035.968,0,1.936-.013,2.9,0a3.683,3.683,0,0,1,2,.676c1.054.705,2.108,1.411,3.169,2.106a.83.83,0,0,0,.423.131c1.058.011,2.116,0,3.173.009a1.464,1.464,0,1,1-.043,2.926c-1.342,0-2.685,0-4.027,0-.862,0-1.725,0-2.587,0a.728.728,0,0,0-.72,1,.7.7,0,0,0,.683.463c.358.008.716,0,1.074,0,2.384,0,4.768,0,7.152-.006a1.3,1.3,0,0,0,.6-.147q2.26-1.253,4.5-2.536a1.45,1.45,0,0,1,2.186.85c.014.045.035.087.052.13Z" transform="translate(-84.771 -228.781)" fill="#fff"/>
        <path id="Path_1277" data-name="Path 1277" d="M188,3.716a3.661,3.661,0,1,1-7.323-.021A3.662,3.662,0,1,1,188,3.716" transform="translate(-171.835 0)" fill="#fff"/>
        <path id="Path_1278" data-name="Path 1278" d="M0,216.4q0-2.488,0-4.976c0-.618.271-.886.9-.886.211,0,.423-.008.634.006a1.46,1.46,0,0,1,1.4,1.423c0,.073,0,.146,0,.22q0,4.208,0,8.416a1.494,1.494,0,0,1-1.662,1.654c-.154,0-.309,0-.463,0a.739.739,0,0,1-.8-.806c0-1.171,0-2.342,0-3.513V216.4" transform="translate(0 -200.234)" fill="#fff"/>
        <path id="Path_1279" data-name="Path 1279" d="M303.371,150.706a2.929,2.929,0,1,1-2.93,2.934,2.937,2.937,0,0,1,2.93-2.934" transform="translate(-285.743 -143.333)" fill="#bfb1ff"/>
      </g>
    </g>
  </g>
</svg>
