<svg width="132" height="132" viewBox="0 0 132 132" fill="none" xmlns="http://www.w3.org/2000/svg">
<circle cx="65.9992" cy="66.0002" r="57.5002" fill="url(#paint0_radial_742_22268)"/>
<circle cx="66" cy="66" r="66" fill="url(#paint1_radial_742_22268)"/>
<path d="M87.2643 33.2976C87.5124 34.9714 87.2582 36.6813 86.5338 38.2106C85.8095 39.7399 84.6476 41.0199 83.1952 41.8883C81.7429 42.7568 80.0655 43.1747 78.3755 43.0891C76.6855 43.0036 75.0589 42.4184 73.7017 41.4077C72.3445 40.397 71.3178 39.0063 70.7516 37.4117C70.1854 35.817 70.1051 34.0902 70.521 32.45C70.9369 30.8097 71.8303 29.3297 73.0879 28.1975C74.3455 27.0654 75.9109 26.3319 77.5856 26.09C78.6944 25.9277 79.8243 25.9854 80.9108 26.2597C81.9973 26.5341 83.019 27.0198 83.9178 27.6891C84.8166 28.3584 85.5747 29.1982 86.1489 30.1605C86.7231 31.1228 87.1021 32.1888 87.2643 33.2976Z" fill="#6B6B76"/>
<path d="M85.2532 33.5905C85.4412 34.8657 85.2467 36.1679 84.6943 37.3325C84.1419 38.497 83.2564 39.4715 82.1499 40.1325C81.0434 40.7935 79.7657 41.1114 78.4784 41.0459C77.1912 40.9804 75.9523 40.5345 74.9186 39.7646C73.8849 38.9947 73.1029 37.9354 72.6715 36.7208C72.2401 35.5062 72.1788 34.1909 72.4953 32.9415C72.8118 31.692 73.4919 30.5646 74.4495 29.7018C75.407 28.839 76.599 28.2798 77.8746 28.0948C79.5815 27.8473 81.3169 28.2869 82.7002 29.3171C84.0834 30.3474 85.0015 31.8842 85.2532 33.5905Z" fill="#575760"/>
<path d="M85.2229 33.3891C85.1842 33.3891 85.115 33.1163 84.94 32.638C84.6949 31.9665 84.3474 31.3369 83.91 30.7715C83.6101 30.3865 83.2688 30.0357 82.8923 29.7253C82.4568 29.3725 81.978 29.077 81.4675 28.8459C81.1926 28.7202 80.9089 28.6147 80.6187 28.5304C80.0026 28.3515 79.363 28.2664 78.7216 28.278C78.0499 28.291 77.3844 28.4091 76.7492 28.6281C76.4414 28.7352 76.1421 28.8652 75.8536 29.0169C75.5751 29.1629 75.3083 29.3303 75.0557 29.5176C74.8116 29.6957 74.5816 29.8924 74.3678 30.1059C73.6164 30.8412 73.0572 31.7499 72.7394 32.752C72.5228 33.4332 72.413 34.1439 72.4137 34.8587C72.4137 35.3696 72.4463 35.6546 72.4137 35.6607C72.3811 35.6668 72.2875 35.392 72.2264 34.8709C72.1482 34.1273 72.209 33.3757 72.4056 32.6543C72.5382 32.157 72.7281 31.6768 72.9714 31.2234C73.2605 30.7021 73.6194 30.2228 74.038 29.7985C74.2637 29.5653 74.5073 29.3503 74.7667 29.1553C75.0357 28.9488 75.3209 28.7644 75.6196 28.6037C75.9286 28.4359 76.2506 28.2929 76.5823 28.1763C76.9246 28.0592 77.2749 27.9673 77.6306 27.9015C77.9878 27.8406 78.3491 27.8065 78.7114 27.7997C79.0628 27.7939 79.4141 27.817 79.7617 27.8689C80.097 27.9164 80.4279 27.9912 80.751 28.0928C81.0614 28.1803 81.3643 28.2926 81.6567 28.4287C82.6712 28.9103 83.5446 29.6449 84.1929 30.5618C84.6232 31.1719 84.9366 31.8566 85.117 32.581C85.2473 33.0919 85.2514 33.385 85.2229 33.3891Z" fill="#7E7E8B"/>
<path d="M80.0973 38.2641L80.2764 39.3856L79.2749 39.5444L79.1019 38.4554C78.1025 38.5531 77.1011 38.3964 76.4823 38.0483L76.8385 36.7395C77.4757 37.0525 78.1839 37.1929 78.8923 37.1466L78.6236 35.4775C77.4715 35.3859 76.1709 35.2129 75.9429 33.784C75.7739 32.7235 76.3968 31.6895 77.9478 31.258L77.7707 30.1466L78.7702 29.9858L78.9452 31.0768C79.6668 31.0021 80.3958 31.0998 81.0723 31.3618L80.769 32.6727C80.2553 32.4743 79.7073 32.3802 79.1569 32.3958L79.4296 34.0975C80.5797 34.1789 81.86 34.3539 82.0859 35.7645C82.2528 36.8026 81.6361 37.8244 80.0973 38.2641ZM78.3997 34.0059L78.1717 32.5811C77.6608 32.7846 77.498 33.1103 77.5509 33.44C77.6038 33.7698 77.9254 33.9367 78.3997 34.0059ZM80.5044 36.139C80.4494 35.7889 80.1278 35.6465 79.6739 35.565L79.8958 36.9451C80.368 36.7558 80.5451 36.4607 80.4942 36.139H80.5044Z" fill="#7E7E8B"/>
<path d="M59.5517 83.8727L20.7577 71.7983C20.2789 71.6493 19.8789 71.3162 19.6457 70.8722C19.4124 70.4283 19.3651 69.9099 19.5141 69.4311L26.974 45.4716C27.0472 45.2336 27.1666 45.0123 27.3256 44.8206C27.4845 44.6289 27.6798 44.4705 27.9002 44.3545C28.1205 44.2385 28.3617 44.1673 28.6097 44.1449C28.8577 44.1225 29.1078 44.1493 29.3454 44.2239L68.1413 56.3003C68.6196 56.4493 69.0191 56.7822 69.252 57.2257C69.4848 57.6693 69.5319 58.1872 69.3829 58.6655L61.9128 82.6311C61.7642 83.1087 61.432 83.5079 60.9893 83.7407C60.5465 83.9735 60.0294 84.021 59.5517 83.8727Z" fill="#7E7E8B"/>
<path d="M61.6951 61.332C61.5147 61.9108 61.1667 62.4231 60.6952 62.8042C60.2237 63.1852 59.6497 63.4179 59.046 63.4727C58.4422 63.5276 57.8357 63.4022 57.3032 63.1124C56.7707 62.8226 56.3361 62.3814 56.0543 61.8446C55.7726 61.3078 55.6563 60.6996 55.7202 60.0967C55.7841 59.4938 56.0254 58.9234 56.4135 58.4577C56.8015 57.9919 57.319 57.6517 57.9004 57.48C58.4819 57.3083 59.1012 57.3129 59.68 57.4931C60.0645 57.6126 60.4218 57.8067 60.7312 58.0644C61.0407 58.3221 61.2963 58.6382 61.4835 58.9948C61.6706 59.3513 61.7857 59.7413 61.822 60.1423C61.8583 60.5434 61.8152 60.9476 61.6951 61.332Z" fill="#1D1D20"/>
<path d="M61.913 64.6866C61.7246 64.662 61.5387 64.6211 61.3573 64.5645C60.5836 64.3195 59.9342 63.7856 59.5442 63.0739C59.1542 62.3622 59.0536 61.5275 59.2635 60.7435C59.4733 59.9596 59.9773 59.2867 60.6707 58.865C61.3641 58.4432 62.1933 58.3051 62.986 58.4793C63.7786 58.6535 64.4736 59.1266 64.9262 59.8002C65.3788 60.4738 65.5543 61.2961 65.416 62.0958C65.2778 62.8955 64.8365 63.6111 64.184 64.0936C63.5316 64.5762 62.7181 64.7886 61.913 64.6866ZM62.6722 58.6006C62.117 58.531 61.5534 58.6212 61.0476 58.8607C60.5419 59.1001 60.1149 59.4789 59.8169 59.9525C59.5189 60.4262 59.3621 60.975 59.3651 61.5346C59.368 62.0941 59.5306 62.6413 59.8336 63.1117C60.1366 63.5822 60.5676 63.9564 61.0758 64.1905C61.5841 64.4246 62.1486 64.5089 62.7031 64.4334C63.2576 64.3579 63.779 64.1258 64.2062 63.7643C64.6333 63.4028 64.9486 62.927 65.1148 62.3927C65.346 61.648 65.2722 60.8419 64.9096 60.1516C64.5471 59.4612 63.9254 58.9429 63.1811 58.7105C63.0114 58.6595 62.8378 58.6227 62.662 58.6006H62.6722Z" fill="#1D1D20"/>
<path d="M25.8 62.4739L25.0713 64.8269L24.8291 64.7516L25.4947 62.6144L24.9411 62.4413L25.0082 62.2256L25.8 62.4739Z" fill="#1D1D20"/>
<path d="M27.5539 65.3661L27.4867 65.5818L25.8359 65.0669L25.8909 64.8959L27.1671 64.2425C27.5132 64.0614 27.6129 63.9189 27.6638 63.7581C27.7493 63.4853 27.6088 63.2573 27.2567 63.1474C27.1389 63.1029 27.0126 63.0854 26.8872 63.0963C26.7617 63.1072 26.6404 63.1463 26.5321 63.2105L26.4059 63.007C26.547 62.9259 26.7042 62.877 26.8664 62.8636C27.0286 62.8502 27.1917 62.8728 27.3442 62.9296C27.8226 63.0782 28.0505 63.4161 27.9284 63.809C27.8572 64.0349 27.7248 64.216 27.3178 64.4196L26.2715 64.957L27.5539 65.3661Z" fill="#1D1D20"/>
<path d="M30.1597 65.7327L29.6875 65.5882L29.4962 66.1988L29.254 66.1215L29.4453 65.5108L28.1182 65.1037L28.1711 64.9287L29.9053 63.7583L30.174 63.8418L28.4968 64.9857L29.5145 65.3053L29.6834 64.7597L29.9175 64.833L29.7486 65.3785L30.2188 65.5251L30.1597 65.7327Z" fill="#1D1D20"/>
<path d="M33.7662 66.8563L33.296 66.7098L33.1026 67.3204L32.8604 67.2451L33.0538 66.6345L31.7246 66.2274L31.7796 66.0523L33.5117 64.8799L33.7804 64.9633L32.1052 66.1093L33.123 66.4268L33.2919 65.8834L33.528 65.9566L33.3571 66.5001L33.8293 66.6467L33.7662 66.8563Z" fill="#1D1D20"/>
<path d="M35.8463 67.4224C35.7222 67.8295 35.3456 68.0493 34.7696 67.8702C34.4567 67.7843 34.1886 67.5818 34.0205 67.3043L34.1976 67.1496C34.3365 67.3924 34.5653 67.5709 34.8347 67.6463C35.2418 67.7725 35.5084 67.6463 35.598 67.3572C35.6876 67.0682 35.5614 66.8077 34.9629 66.6204L34.4622 66.4657L34.9507 65.3218L36.2392 65.7289L36.172 65.9446L35.0952 65.6088L34.7818 66.3354L35.0851 66.4291C35.7934 66.6408 35.9766 67.0071 35.8463 67.4224Z" fill="#1D1D20"/>
<path d="M38.1756 68.1364C38.0392 68.5781 37.6056 68.7471 37.1578 68.6107C36.533 68.4071 36.3274 67.8759 36.5594 67.1329C36.8077 66.333 37.3736 66.0501 38.0148 66.2495C38.211 66.3018 38.3896 66.4058 38.5318 66.5508L38.3751 66.7157C38.2609 66.5929 38.114 66.5053 37.9517 66.4633C37.4448 66.3045 37.0154 66.5304 36.8179 67.1696C36.7975 67.2331 36.7805 67.2976 36.767 67.3629C36.8754 67.2539 37.0133 67.1789 37.1637 67.1471C37.3141 67.1152 37.4705 67.128 37.6138 67.1838C38.0697 67.3304 38.3018 67.7069 38.1756 68.1364ZM37.9354 68.0652C38.0311 67.7558 37.8642 67.4871 37.5018 67.3731C37.1395 67.2591 36.8281 67.4077 36.7365 67.6988C36.6551 67.9593 36.7955 68.2708 37.2006 68.397C37.2701 68.428 37.3455 68.444 37.4216 68.4438C37.4978 68.4437 37.5731 68.4274 37.6425 68.396C37.7119 68.3647 37.7739 68.319 37.8244 68.262C37.8749 68.205 37.9127 68.1379 37.9354 68.0652Z" fill="#1D1D20"/>
<path d="M41.3892 69.1666C41.265 69.5594 40.8864 69.7772 40.3186 69.596C40.0046 69.5102 39.7353 69.3078 39.5654 69.0302L39.7425 68.8755C39.883 69.1206 40.1151 69.3 40.3878 69.3742C40.7765 69.4963 41.0493 69.3742 41.1388 69.0892C41.2284 68.8042 41.0859 68.56 40.6503 68.4236L40.4814 68.3707L40.5363 68.1936L41.4442 67.583L40.2392 67.2084L40.3063 66.9927L41.8207 67.4649L41.7658 67.6359L40.8396 68.2669C41.3363 68.446 41.5052 68.79 41.3892 69.1666Z" fill="#1D1D20"/>
<path d="M43.7561 69.8749C43.6197 70.3146 43.1861 70.4856 42.7282 70.3472C42.1033 70.1436 41.8977 69.6124 42.1297 68.8694C42.3781 68.0695 42.9439 67.7886 43.5851 67.9881C43.7814 68.04 43.9601 68.1441 44.1021 68.2893L43.9454 68.4542C43.8314 68.3307 43.6845 68.2425 43.522 68.1997C43.0131 68.043 42.5857 68.2669 42.3882 68.906C42.3675 68.9729 42.3506 69.0409 42.3373 69.1096C42.4452 69.0004 42.5826 68.9251 42.7327 68.8929C42.8827 68.8607 43.0389 68.8731 43.1821 68.9284C43.6502 69.0668 43.8904 69.4434 43.7561 69.8749ZM43.5159 69.8057C43.6115 69.4984 43.4446 69.2277 43.0823 69.1157C42.72 69.0038 42.4086 69.1483 42.317 69.4414C42.2356 69.6999 42.374 70.0113 42.7811 70.1395C42.8508 70.1706 42.9262 70.1864 43.0025 70.1862C43.0788 70.1859 43.1541 70.1694 43.2235 70.1379C43.293 70.1063 43.3549 70.0604 43.4053 70.0031C43.4557 69.9459 43.4934 69.8786 43.5159 69.8057Z" fill="#1D1D20"/>
<path d="M46.4434 68.8976L46.3884 69.0686L44.7255 70.9453L44.4629 70.8619L46.0913 69.0299L44.8822 68.6534L44.7438 69.093L44.5056 69.0177L44.7092 68.3623L46.4434 68.8976Z" fill="#1D1D20"/>
<path d="M49.8018 69.9439L49.7489 70.1169L48.0839 71.9915L47.8213 71.9101L49.4497 70.0782L48.2284 69.7016L48.092 70.1433L47.8518 70.068L48.0554 69.4126L49.8018 69.9439Z" fill="#1D1D20"/>
<path d="M51.5888 72.3643C51.4585 72.7815 51.025 72.9301 50.4632 72.7551C49.9014 72.58 49.6368 72.2136 49.7671 71.7964C49.8063 71.6619 49.8907 71.545 50.006 71.4653C50.1212 71.3856 50.2604 71.348 50.4001 71.3587C50.3022 71.2895 50.2294 71.1903 50.1927 71.0762C50.156 70.962 50.1573 70.839 50.1965 70.7257C50.3146 70.343 50.7156 70.2067 51.2143 70.3614C51.713 70.5161 51.9694 70.858 51.8514 71.2407C51.8184 71.3582 51.7478 71.4617 51.6504 71.5352C51.5529 71.6088 51.4341 71.6483 51.312 71.6478C51.4332 71.7175 51.5268 71.8266 51.5771 71.957C51.6275 72.0874 51.6316 72.2312 51.5888 72.3643ZM51.3425 72.2828C51.4321 71.9938 51.2387 71.7353 50.8214 71.605C50.4042 71.4748 50.1029 71.5806 50.0072 71.8696C49.9116 72.1587 50.105 72.4212 50.5222 72.5495C50.9395 72.6777 51.2509 72.5759 51.3425 72.2828ZM50.8825 71.4137C51.2489 71.5277 51.5176 71.43 51.5969 71.1755C51.6763 70.9211 51.4992 70.6769 51.1451 70.5649C50.7909 70.453 50.5141 70.5445 50.4327 70.8071C50.3512 71.0697 50.5141 71.2997 50.8825 71.4137Z" fill="#1D1D20"/>
<path d="M54.0437 72.5433C53.7953 73.3433 53.2295 73.6241 52.5883 73.4247C52.3917 73.3732 52.213 73.2691 52.0713 73.1234L52.228 72.9586C52.3413 73.0824 52.4886 73.1702 52.6514 73.211C53.1582 73.3697 53.5877 73.1458 53.7852 72.5067C53.8035 72.4517 53.8198 72.3846 53.836 72.3031C53.7277 72.4122 53.5898 72.4872 53.4394 72.519C53.289 72.5508 53.1325 72.5381 52.9893 72.4823C52.5232 72.3377 52.283 71.9591 52.4173 71.5297C52.5517 71.1002 52.9873 70.919 53.4351 71.0574C54.0701 71.2508 54.2757 71.7902 54.0437 72.5433ZM53.8564 71.9714C53.9378 71.7128 53.7974 71.3994 53.3923 71.2732C53.3227 71.2425 53.2474 71.2268 53.1714 71.2271C53.0953 71.2274 53.0202 71.2437 52.9508 71.275C52.8815 71.3063 52.8196 71.3519 52.769 71.4087C52.7185 71.4656 52.6805 71.5325 52.6575 71.605C52.5598 71.9144 52.7267 72.1851 53.0911 72.297C53.4554 72.409 53.7709 72.2563 53.8564 71.9632V71.9714Z" fill="#1D1D20"/>
<path d="M56.7914 72.1199L56.0586 74.4749L55.8164 74.3996L56.482 72.2604L55.9263 72.0873L55.9935 71.8716L56.7914 72.1199Z" fill="#1D1D20"/>
<path d="M58.5462 75.0124L58.4791 75.2282L56.8242 74.7132L56.8771 74.5422L58.1534 73.8888C58.5014 73.7097 58.6012 73.5672 58.6521 73.4044C58.7355 73.1337 58.5971 72.9057 58.245 72.7937C58.1273 72.749 58.0011 72.7313 57.8757 72.7419C57.7503 72.7524 57.6289 72.791 57.5204 72.8548L57.3962 72.6513C57.5375 72.5705 57.6948 72.5219 57.857 72.5089C58.0191 72.4959 58.1822 72.5188 58.3345 72.5759C58.8108 72.7245 59.0388 73.0604 58.9167 73.4532C58.8454 73.6792 58.7131 73.8603 58.306 74.0639L57.2618 74.6012L58.5462 75.0124Z" fill="#1D1D20"/>
<path d="M60.8013 75.21C60.6792 75.6029 60.2986 75.8206 59.7286 75.6395C59.4159 75.5522 59.1477 75.3501 58.9775 75.0736L59.1546 74.9189C59.296 75.1625 59.5267 75.3414 59.7978 75.4176C60.1886 75.5398 60.4614 75.4176 60.551 75.1327C60.6405 74.8477 60.498 74.6034 60.0624 74.4671L59.8935 74.4141L59.9485 74.2371L60.8563 73.6264L59.6513 73.2519L59.7185 73.0361L61.2328 73.5063L61.1799 73.6793L60.2517 74.3083C60.7484 74.4895 60.9173 74.8334 60.8013 75.21Z" fill="#1D1D20"/>
<path d="M41.9725 72.0031L41.6543 73.0254L60.5081 78.8941L60.8263 77.8718L41.9725 72.0031Z" fill="#1D1D20"/>
<path d="M50.5213 76.9045L50.2031 77.9268L59.8739 80.937L60.1921 79.9147L50.5213 76.9045Z" fill="#1D1D20"/>
<g opacity="0.5">
<path d="M33.7839 56.2491L27.7999 54.3865C27.2675 54.2208 26.7016 54.518 26.5359 55.0504L25.2963 59.0326C25.1306 59.565 25.4278 60.1309 25.9602 60.2966L31.9442 62.1593C32.4766 62.325 33.0425 62.0278 33.2083 61.4954L34.4478 57.5132C34.6135 56.9808 34.3163 56.4149 33.7839 56.2491Z" fill="#575760"/>
</g>
<path d="M25.5049 58.3604L25.6229 57.9818L29.6939 59.2499C29.8068 59.2883 29.9263 59.3037 30.0453 59.2952C30.1643 59.2867 30.2804 59.2545 30.3867 59.2004C30.493 59.1463 30.5875 59.0715 30.6644 58.9803C30.7414 58.8892 30.7993 58.7835 30.8348 58.6696C30.8703 58.5557 30.8826 58.4359 30.871 58.3171C30.8594 58.1984 30.8242 58.0832 30.7673 57.9783C30.7105 57.8734 30.6333 57.781 30.5401 57.7064C30.447 57.6318 30.3399 57.5767 30.2251 57.5442L26.1542 56.2761L26.2723 55.8975L30.3432 57.1656C30.5098 57.2118 30.6654 57.291 30.8008 57.3985C30.9362 57.506 31.0486 57.6396 31.1314 57.7914C31.2141 57.9432 31.2655 58.1101 31.2825 58.2821C31.2995 58.4542 31.2818 58.6279 31.2304 58.793C31.1789 58.958 31.0949 59.1111 30.9831 59.243C30.8714 59.375 30.7343 59.4831 30.58 59.5611C30.4257 59.639 30.2572 59.6851 30.0847 59.6967C29.9122 59.7083 29.7392 59.6851 29.5758 59.6285L25.5049 58.3604Z" fill="#7E7E8B"/>
<path d="M30.9365 58.7758L30.8174 59.1528L33.6 60.0315L33.719 59.6545L30.9365 58.7758Z" fill="#7E7E8B"/>
<path d="M49.6315 55.8465L29.2852 49.5132L28.7419 51.2584L49.0883 57.5917L49.6315 55.8465Z" fill="#1D1D20"/>
<path d="M35.6008 95.2367C35.7572 96.2945 35.5962 97.375 35.1383 98.3413C34.6804 99.3077 33.946 100.116 33.0283 100.665C32.1105 101.214 31.0505 101.478 29.9825 101.424C28.9145 101.37 27.8865 101.001 27.0286 100.363C26.1707 99.7243 25.5215 98.8457 25.1631 97.8382C24.8047 96.8307 24.7533 95.7395 25.0153 94.7028C25.2774 93.6661 25.8411 92.7304 26.6352 92.0141C27.4292 91.2979 28.4179 90.8334 29.4761 90.6793C30.1775 90.5763 30.8923 90.6126 31.5797 90.7859C32.2671 90.9592 32.9136 91.2662 33.4824 91.6894C34.0511 92.1126 34.5309 92.6437 34.8944 93.2524C35.2579 93.861 35.4979 94.5353 35.6008 95.2367Z" fill="#6B6B76"/>
<path d="M34.3281 95.4219C34.4473 96.2284 34.3246 97.0521 33.9754 97.7888C33.6262 98.5256 33.0663 99.1421 32.3665 99.5604C31.6668 99.9788 30.8586 100.18 30.0444 100.139C29.2302 100.098 28.4465 99.8158 27.7925 99.329C27.1385 98.8422 26.6437 98.1722 26.3707 97.404C26.0977 96.6358 26.0587 95.8039 26.2587 95.0135C26.4588 94.2232 26.8888 93.51 27.4944 92.9641C28.1 92.4183 28.8539 92.0644 29.6608 91.9473C30.7403 91.7901 31.8381 92.0676 32.7132 92.7191C33.5883 93.3705 34.1691 94.3426 34.3281 95.4219Z" fill="#575760"/>
<path d="M34.3082 95.294C34.2321 95.1426 34.1721 94.9836 34.129 94.8197C33.9738 94.3951 33.7541 93.9969 33.4777 93.6391C32.9515 92.9553 32.2216 92.4564 31.3934 92.2143C31.203 92.1571 31.0083 92.1156 30.8112 92.0901C30.6089 92.0628 30.4048 92.0506 30.2006 92.0535C29.9885 92.0598 29.777 92.0802 29.5676 92.1146C29.3606 92.1542 29.1566 92.2079 28.9569 92.2754C28.7623 92.3429 28.5731 92.4252 28.3911 92.5217C28.0462 92.7047 27.7295 92.9364 27.4507 93.2097C27.1976 93.4575 26.9779 93.7374 26.7973 94.0422C26.64 94.309 26.5123 94.5922 26.4167 94.8869C26.281 95.3176 26.2123 95.7665 26.2131 96.2181C26.2325 96.3871 26.2325 96.5579 26.2131 96.7269C26.14 96.5698 26.0998 96.3994 26.0951 96.2262C26.0473 95.7557 26.0859 95.2804 26.2091 94.8238C26.296 94.5068 26.419 94.2009 26.5754 93.9119C26.7589 93.5803 26.9862 93.275 27.2512 93.0041C27.3936 92.8564 27.5474 92.7203 27.7112 92.597C27.8818 92.4672 28.0621 92.3508 28.2506 92.2489C28.4469 92.1437 28.6511 92.0539 28.8613 91.9802C29.0779 91.9059 29.2997 91.8474 29.5248 91.8052C29.7509 91.7665 29.9795 91.7447 30.2087 91.74C30.4308 91.7374 30.6526 91.7524 30.8723 91.7848C31.0847 91.8145 31.2944 91.8615 31.4992 91.9253C31.6952 91.9854 31.8864 92.0602 32.0712 92.1492C32.7128 92.4538 33.2652 92.9186 33.6751 93.4987C33.9487 93.8842 34.1488 94.3168 34.2654 94.7749C34.3172 94.9428 34.3318 95.1199 34.3082 95.294Z" fill="#7E7E8B"/>
<path d="M31.0649 98.3774L31.1789 99.0857L30.5458 99.1875L30.4359 98.4975C29.8716 98.5705 29.298 98.483 28.7811 98.2451L29.005 97.4166C29.4088 97.6116 29.8562 97.6986 30.3036 97.669L30.1347 96.6126C29.4039 96.5556 28.5837 96.4478 28.4391 95.542C28.3313 94.8723 28.7261 94.2189 29.7072 93.9441L29.5953 93.2419L30.2263 93.1401L30.3382 93.8302C30.7947 93.7833 31.2558 93.8453 31.6837 94.0113L31.4923 94.8398C31.168 94.7146 30.8221 94.6551 30.4746 94.6647L30.6476 95.7415C31.3763 95.7923 32.1844 95.9043 32.3269 96.7958C32.4286 97.4533 32.0399 98.0985 31.0649 98.3774ZM29.9861 95.6845L29.8416 94.7848C29.5179 94.9151 29.4141 95.1206 29.4487 95.3283C29.4833 95.5359 29.693 95.6397 29.9861 95.6845ZM31.3173 97.034C31.2827 96.8121 31.0791 96.7226 30.7921 96.6696L30.9326 97.5428C31.2379 97.4228 31.3498 97.2355 31.3173 97.034Z" fill="#7E7E8B"/>
<path d="M72.0902 86.4908L40.5853 53.1662C40.4262 52.9973 40.3405 52.7722 40.347 52.5403C40.3535 52.3083 40.4516 52.0884 40.6199 51.9286L61.3022 32.38C61.3857 32.301 61.484 32.2393 61.5914 32.1982C61.6988 32.1572 61.8132 32.1378 61.9282 32.141C62.0431 32.1442 62.1563 32.17 62.2612 32.217C62.3661 32.2639 62.4608 32.3311 62.5398 32.4147L94.0427 65.7413C94.2017 65.9102 94.2874 66.1353 94.2809 66.3672C94.2744 66.5992 94.1763 66.8191 94.0081 66.9789L73.3298 86.5193C73.2467 86.5993 73.1487 86.662 73.0413 86.7039C72.9339 86.7457 72.8193 86.7659 72.704 86.7633C72.5888 86.7606 72.4752 86.7352 72.3699 86.6884C72.2645 86.6417 72.1694 86.5745 72.0902 86.4908Z" fill="#474EFF"/>
<g opacity="0.3">
<path d="M72.0902 86.4908L40.5853 53.1662C40.4262 52.9973 40.3405 52.7722 40.347 52.5403C40.3535 52.3083 40.4516 52.0884 40.6199 51.9286L61.3022 32.38C61.3857 32.301 61.484 32.2393 61.5914 32.1982C61.6988 32.1572 61.8132 32.1378 61.9282 32.141C62.0431 32.1442 62.1563 32.17 62.2612 32.217C62.3661 32.2639 62.4608 32.3311 62.5398 32.4147L94.0427 65.7413C94.2017 65.9102 94.2874 66.1353 94.2809 66.3672C94.2744 66.5992 94.1763 66.8191 94.0081 66.9789L73.3298 86.5193C73.2467 86.5993 73.1487 86.662 73.0413 86.7039C72.9339 86.7457 72.8193 86.7659 72.704 86.7633C72.5888 86.7606 72.4752 86.7352 72.3699 86.6884C72.2645 86.6417 72.1694 86.5745 72.0902 86.4908Z" fill="black"/>
</g>
<path d="M93.8105 65.4972L62.7656 32.659C62.6565 32.5432 62.5257 32.45 62.3806 32.3849C62.2354 32.3197 62.0789 32.2838 61.9198 32.2793C61.7608 32.2748 61.6024 32.3017 61.4538 32.3584C61.3052 32.4152 61.1693 32.5008 61.0538 32.6102L55.1794 38.165C55.1213 38.2192 55.0776 38.287 55.052 38.3623C55.0264 38.4376 55.0199 38.518 55.0329 38.5965C55.6211 41.8817 57.9701 44.8189 60.7709 46.7648C64.1538 49.1158 68.1637 50.3554 71.9659 51.9247C75.7682 53.494 79.6009 55.5621 81.8868 58.9918C84.0423 62.2303 84.5512 66.2462 85.6483 69.9833C85.9466 70.9987 86.3195 71.9906 86.7637 72.9511C86.7961 73.0208 86.8445 73.0819 86.9051 73.1293C86.9656 73.1767 87.0365 73.2091 87.112 73.2238C87.1875 73.2385 87.2654 73.2351 87.3393 73.2139C87.4132 73.1926 87.481 73.1542 87.5372 73.1017L93.7637 67.2151C93.8803 67.1058 93.9741 66.9745 94.0396 66.8287C94.1051 66.683 94.1411 66.5257 94.1455 66.3659C94.1498 66.2062 94.1225 66.0471 94.065 65.898C94.0075 65.7489 93.921 65.6127 93.8105 65.4972Z" fill="#474EFF"/>
<path d="M62.3074 42.2153C62.0265 42.4819 61.6519 42.4188 61.2489 41.9852L60.4551 41.1446L62.0834 39.6099L62.8325 40.4037C63.2172 40.8108 63.2396 41.1792 62.9933 41.4214C62.921 41.4931 62.8297 41.5427 62.7302 41.5643C62.6307 41.5859 62.5271 41.5787 62.4315 41.5436C62.4889 41.6533 62.5079 41.7791 62.4854 41.9008C62.4629 42.0226 62.4002 42.1333 62.3074 42.2153ZM62.1486 40.251L61.7659 40.6133L62.116 40.994C62.289 41.1772 62.4478 41.2158 62.576 41.0958C62.7043 40.9757 62.6717 40.8169 62.4987 40.6337L62.1486 40.251ZM61.9878 41.8C62.1242 41.6718 62.0916 41.5049 61.9064 41.3095L61.4993 40.8719L61.0922 41.2504L61.4993 41.6901C61.6906 41.8855 61.8494 41.9323 61.9878 41.8082V41.8Z" fill="white"/>
<path d="M63.4928 43.6604L62.7784 42.9053L62.294 43.0905L61.9316 42.7058L64.2399 41.8916L64.59 42.2641L63.6536 44.5255L63.2791 44.1306L63.4928 43.6604ZM63.6659 43.2716L64.0445 42.4269L63.1794 42.7567L63.6659 43.2716Z" fill="white"/>
<path d="M66.8423 44.6579L65.214 46.1926L64.927 45.8791L65.1488 44.1388L64.1616 45.0649L63.8115 44.6925L65.4399 43.1577L65.735 43.4691L65.5111 45.2074L66.4983 44.2752L66.8423 44.6579Z" fill="white"/>
<path d="M66.7801 46.5573H66.3466L65.9395 46.9461L65.5771 46.5695L67.2055 45.0327L67.5577 45.4072L66.7984 46.1237H68.2375L68.6324 46.5308L67.2727 46.543L67.0488 48.1185L66.6417 47.6809L66.7801 46.5573Z" fill="white"/>
<path d="M55.2655 48.2973L54.9927 47.9981L54.5856 48.3685L54.4411 48.2159L54.834 47.8454L54.0381 47.0048L54.148 46.8989L55.8843 46.7544L56.0451 46.9254L54.3617 47.074L54.9724 47.7212L55.3164 47.3935L55.4568 47.5442L55.1128 47.8698L55.3937 48.167L55.2655 48.2973Z" fill="white"/>
<path d="M56.3374 49.3576C56.0871 49.5917 55.7268 49.5938 55.3848 49.2335C55.1923 49.0426 55.0796 48.7858 55.0693 48.515L55.2607 48.4742C55.2633 48.7092 55.3583 48.9337 55.5253 49.0991C55.7594 49.3475 56.0016 49.3739 56.1868 49.1989C56.372 49.0238 56.3639 48.7918 56.1033 48.517L56.0016 48.4112L56.1156 48.3033L57.0234 48.228L56.3028 47.4647L56.4392 47.3364L57.345 48.2951L57.2371 48.3969L56.3069 48.4763C56.5919 48.8121 56.5756 49.1358 56.3374 49.3576Z" fill="white"/>
<path d="M57.4882 50.5607C57.2337 50.8009 56.8775 50.8111 56.5254 50.4467C56.3327 50.257 56.2205 50.0005 56.2119 49.7302L56.4032 49.6895C56.4074 49.9192 56.5008 50.1382 56.6638 50.3002C56.9019 50.5546 57.1523 50.5729 57.3335 50.3999C57.5146 50.2269 57.537 49.9928 57.1747 49.6081L56.8734 49.2906L57.6876 48.6616L58.4591 49.4758L58.3227 49.604L57.6856 48.9323L57.1604 49.3293L57.3416 49.5328C57.767 49.9643 57.7507 50.3022 57.4882 50.5607Z" fill="white"/>
<path d="M58.7356 51.8593C58.6708 51.9197 58.5942 51.966 58.5105 51.9952C58.4269 52.0244 58.3381 52.0358 58.2498 52.0287C58.1615 52.0216 58.0756 51.9962 57.9977 51.9541C57.9198 51.9119 57.8515 51.854 57.7972 51.784C57.4227 51.3871 57.4939 50.9128 57.9641 50.467C58.4709 49.9887 58.9961 50.0152 59.3788 50.4202C59.5014 50.5381 59.5894 50.6873 59.6332 50.8517L59.45 50.9067C59.4195 50.7702 59.3486 50.6461 59.2465 50.5505C58.9432 50.2289 58.5422 50.2167 58.1371 50.5993C58.1025 50.6319 58.0618 50.6746 58.0211 50.7215C58.1438 50.6859 58.2743 50.6872 58.3962 50.7252C58.5182 50.7632 58.6263 50.8362 58.7071 50.9352C58.988 51.2303 59.0083 51.6028 58.7356 51.8593ZM58.589 51.7127C58.7926 51.5275 58.7742 51.2649 58.5564 51.0349C58.5175 50.983 58.4683 50.9397 58.412 50.9076C58.3556 50.8755 58.2932 50.8553 58.2288 50.8482C58.1643 50.8411 58.099 50.8474 58.0371 50.8666C57.9751 50.8857 57.9177 50.9174 57.8685 50.9596C57.7036 51.1143 57.6771 51.3972 57.9214 51.6537C57.9591 51.7046 58.0071 51.747 58.0624 51.778C58.1176 51.8089 58.1788 51.8278 58.2419 51.8334C58.305 51.839 58.3686 51.8311 58.4284 51.8103C58.4882 51.7895 58.543 51.7563 58.589 51.7127Z" fill="white"/>
<path d="M61.3368 55.503L61.4691 54.7051L60.6549 54.7906L60.4941 54.6196L61.4895 54.5179L61.634 53.5815L61.7968 53.7525L61.6747 54.5036L62.4319 54.4242L62.5886 54.5911L61.6462 54.6848L61.4936 55.676L61.3368 55.503Z" fill="white"/>
<path d="M62.4111 56.6407L62.5434 55.8408L61.7292 55.9263L61.5664 55.7553L62.5618 55.6556L62.7083 54.7192L62.8691 54.8882L62.749 55.6393L63.5042 55.5619L63.6629 55.7288L62.7185 55.8225L62.5658 56.8137L62.4111 56.6407Z" fill="white"/>
<path d="M63.4862 57.7765L63.6185 56.9786L62.8044 57.064L62.6436 56.8931L63.6369 56.7933L63.7834 55.855L63.9442 56.026L63.8241 56.777L64.5813 56.6997L64.738 56.8646L63.7936 56.9582L63.6409 57.9495L63.4862 57.7765Z" fill="white"/>
<path d="M64.5585 58.9063L64.6908 58.1084L63.8766 58.1939L63.7158 58.023L64.7091 57.9212L64.8557 56.9849L65.0165 57.1558L64.8964 57.9069L65.6536 57.8275L65.8103 57.9945L64.8659 58.0881L64.7152 59.0794L64.5585 58.9063Z" fill="white"/>
<path d="M68.2733 62.8409L68.4057 62.043L67.5915 62.1285L67.4307 61.9575L68.424 61.8578L68.5705 60.9194L68.7313 61.0904L68.6112 61.8415L69.3684 61.7621L69.5252 61.929L68.5807 62.0227L68.428 63.0139L68.2733 62.8409Z" fill="white"/>
<path d="M69.3485 63.9786L69.4808 63.1787L68.6667 63.2642L68.5059 63.0952L69.4992 62.9934L69.6457 62.0571L69.8065 62.2281L69.6864 62.9792L70.4436 62.8998L70.6003 63.0667L69.6559 63.1604L69.5032 64.1516L69.3485 63.9786Z" fill="white"/>
<path d="M70.4227 65.1163L70.557 64.3164L69.7428 64.4019L69.582 64.2309L70.5753 64.1311L70.7219 63.1948L70.8827 63.3638L70.7626 64.1149L71.5198 64.0375L71.6765 64.2024L70.7321 64.296L70.5814 65.2873L70.4227 65.1163Z" fill="white"/>
<path d="M71.4999 66.2525L71.6322 65.4546L70.818 65.5401L70.6572 65.3691L71.6505 65.2694L71.7971 64.3311L71.9599 64.502L71.8378 65.2531L72.595 65.1737L72.7517 65.3406L71.8073 65.4343L71.6566 66.4255L71.4999 66.2525Z" fill="white"/>
<path d="M76.324 68.369L74.8341 69.7796L74.6875 69.6249L76.0431 68.3446L75.7113 67.9945L75.8477 67.8643L76.324 68.369Z" fill="white"/>
<path d="M76.5298 70.7121C76.2815 70.9482 75.9192 70.9482 75.5772 70.588C75.3847 70.3971 75.272 70.1403 75.2617 69.8694L75.4531 69.8287C75.4568 70.0641 75.5517 70.2888 75.7177 70.4557C75.9517 70.702 76.196 70.7305 76.3812 70.5554C76.5665 70.3804 76.5583 70.1483 76.2957 69.8715L76.196 69.7656L76.308 69.6598L77.2158 69.5825L76.4952 68.8212L76.6316 68.6909L77.5374 69.6496L77.4295 69.7534L76.5013 69.8328C76.7863 70.1727 76.772 70.4903 76.5298 70.7121Z" fill="white"/>
<path d="M77.8952 72.2323L77.6123 71.933L77.2214 72.3035L77.0749 72.1508L77.4677 71.7804L76.6719 70.9397L76.7838 70.8339L78.518 70.6914L78.6788 70.8604L76.9955 71.0089L77.6062 71.6562L77.9501 71.3305L78.0926 71.4791L77.7466 71.8048L78.0295 72.104L77.8952 72.2323Z" fill="white"/>
<path d="M78.7262 73.6245L78.5898 73.7528L77.6006 72.7065L77.7105 72.6048L78.9033 72.6496C79.229 72.6618 79.3592 72.5987 79.461 72.503C79.634 72.3381 79.6259 72.1163 79.4101 71.8924C79.3428 71.8121 79.2582 71.7481 79.1627 71.7051C79.0672 71.6622 78.9632 71.6413 78.8585 71.644V71.4405C78.9939 71.439 79.1279 71.4674 79.2511 71.5237C79.3742 71.58 79.4834 71.6628 79.5709 71.7662C79.8559 72.0694 79.8844 72.4053 79.634 72.6414C79.4915 72.7758 79.3226 72.845 78.9379 72.845L77.9588 72.8104L78.7262 73.6245Z" fill="white"/>
<path d="M49.832 49.5429C49.9131 49.4753 50.0122 49.4331 50.117 49.4213C50.2219 49.4096 50.3279 49.4288 50.4219 49.4767C50.5159 49.5246 50.5938 49.599 50.646 49.6907C50.6982 49.7824 50.7223 49.8874 50.7154 49.9927L50.5118 49.9805C50.5178 49.9337 50.5132 49.8863 50.4984 49.8415C50.4836 49.7968 50.459 49.7559 50.4263 49.722C50.398 49.692 50.364 49.668 50.3264 49.6512C50.2888 49.6343 50.2482 49.6251 50.207 49.624C50.1238 49.6217 50.0431 49.6525 49.9826 49.7098C49.9221 49.767 49.8869 49.8459 49.8846 49.9291C49.8823 50.0123 49.9132 50.093 49.9704 50.1535C50.0025 50.1881 50.0422 50.2149 50.0863 50.2319C50.1304 50.2488 50.1778 50.2554 50.2248 50.2512V50.4547C50.1482 50.4581 50.0717 50.4442 50.0012 50.4139C49.9307 50.3835 49.868 50.3377 49.8177 50.2797C49.7679 50.2317 49.7286 50.1739 49.7022 50.1099C49.6758 50.046 49.6628 49.9773 49.6642 49.9082C49.6655 49.839 49.6811 49.7709 49.71 49.708C49.7388 49.6451 49.7804 49.5889 49.832 49.5429Z" fill="white"/>
<path d="M50.8076 50.9678L50.4941 50.6381L50.2906 50.7195L50.1318 50.5505L51.1496 50.1943L51.3022 50.3572L50.8951 51.3484L50.7181 51.1714L50.8076 50.9678ZM50.8829 50.7989L51.0478 50.4284L50.6692 50.5729L50.8829 50.7989Z" fill="white"/>
<path d="M51.3777 51.8797L51.4449 51.554L51.3085 51.4115L51.105 51.5988L50.9482 51.4339L51.6607 50.7622L51.9517 51.0696C52.1308 51.2589 52.1451 51.4767 51.9843 51.6212C51.9386 51.6689 51.879 51.7011 51.814 51.7131C51.7489 51.7252 51.6818 51.7165 51.622 51.6883L51.5446 52.0629L51.3777 51.8797ZM51.8092 51.1795L51.681 51.0451L51.4327 51.2792L51.5609 51.4136C51.6546 51.5133 51.7502 51.5194 51.8276 51.4482C51.9049 51.3769 51.9029 51.2792 51.8092 51.1713V51.1795Z" fill="white"/>
<path d="M51.6729 52.0509L51.8499 51.9899C51.867 52.1045 51.9189 52.211 51.9985 52.2952C52.0901 52.3929 52.1593 52.401 52.2021 52.3603C52.3344 52.2341 51.852 51.9085 52.1166 51.6581C52.2387 51.5441 52.43 51.5461 52.6214 51.7476C52.7056 51.8324 52.7648 51.9387 52.7924 52.055L52.6193 52.1222C52.5982 52.0289 52.5533 51.9427 52.4891 51.8718C52.3954 51.7741 52.3242 51.7721 52.2855 51.8128C52.1553 51.9369 52.6356 52.2667 52.3751 52.513C52.255 52.6249 52.0616 52.6229 51.8683 52.4194C51.7677 52.3189 51.6997 52.1905 51.6729 52.0509Z" fill="white"/>
<path d="M53.8712 53.0908L53.1587 53.7645L53.004 53.5997L53.2951 53.3228L52.9898 52.9992L52.6987 53.276L52.542 53.1112L53.2544 52.4395L53.4091 52.6023L53.1282 52.8689L53.4335 53.1926L53.7144 52.9259L53.8712 53.0908Z" fill="white"/>
<path d="M53.6325 53.5527C53.7063 53.4744 53.8019 53.42 53.907 53.3966C54.0121 53.3732 54.1218 53.382 54.2218 53.4217C54.3219 53.4614 54.4077 53.5302 54.4682 53.6193C54.5287 53.7083 54.561 53.8135 54.561 53.9212C54.561 54.0288 54.5287 54.134 54.4682 54.223C54.4077 54.3121 54.3219 54.3809 54.2218 54.4206C54.1218 54.4603 54.0121 54.4691 53.907 54.4457C53.8019 54.4223 53.7063 54.3679 53.6325 54.2896C53.5826 54.242 53.5429 54.1849 53.5157 54.1216C53.4886 54.0582 53.4746 53.99 53.4746 53.9212C53.4746 53.8523 53.4886 53.7841 53.5157 53.7207C53.5429 53.6574 53.5826 53.6003 53.6325 53.5527ZM54.2105 54.1634C54.242 54.1368 54.2676 54.104 54.2858 54.0671C54.3039 54.0301 54.3142 53.9897 54.3159 53.9486C54.3176 53.9074 54.3108 53.8664 54.2958 53.828C54.2808 53.7897 54.258 53.7548 54.2289 53.7257C54.1872 53.6794 54.1327 53.6465 54.0723 53.6312C54.0119 53.616 53.9483 53.6191 53.8896 53.6402C53.831 53.6613 53.78 53.6993 53.743 53.7495C53.7061 53.7997 53.685 53.8598 53.6824 53.9221C53.6798 53.9843 53.6958 54.046 53.7284 54.0991C53.761 54.1522 53.8087 54.1944 53.8653 54.2203C53.922 54.2462 53.9851 54.2546 54.0466 54.2445C54.1081 54.2343 54.1652 54.2061 54.2105 54.1634Z" fill="white"/>
<path d="M54.8433 54.1211L54.998 54.286L54.4199 54.8355L54.7578 55.1917L54.6234 55.3179L54.1309 54.7969L54.8433 54.1211Z" fill="white"/>
<path d="M55.4242 54.7354L55.7296 55.059C55.7802 55.1042 55.8208 55.1595 55.8489 55.2213C55.8771 55.283 55.8921 55.35 55.893 55.4178C55.894 55.4857 55.8808 55.553 55.8544 55.6156C55.828 55.6781 55.7889 55.7344 55.7396 55.7811C55.6903 55.8277 55.6318 55.8636 55.5679 55.8865C55.504 55.9094 55.436 55.9187 55.3683 55.914C55.3006 55.9093 55.2346 55.8905 55.1745 55.859C55.1144 55.8274 55.0615 55.7837 55.0192 55.7307L54.7139 55.4071L55.4242 54.7354ZM55.1454 55.5943C55.1693 55.6321 55.2012 55.6642 55.2389 55.6884C55.2766 55.7125 55.3192 55.728 55.3635 55.7338C55.4079 55.7397 55.453 55.7357 55.4956 55.7222C55.5383 55.7087 55.5775 55.686 55.6104 55.6557C55.6433 55.6253 55.6691 55.5881 55.686 55.5467C55.703 55.5053 55.7106 55.4607 55.7084 55.416C55.7062 55.3713 55.6942 55.3276 55.6732 55.2881C55.6522 55.2486 55.6228 55.2141 55.5871 55.1872L55.4446 55.0366L55.0049 55.4457L55.1454 55.5943Z" fill="white"/>
<path d="M56.1602 56.6674L56.0279 56.7936L55.5068 56.242L56.2192 55.5703L56.7261 56.1077L56.5958 56.2318L56.2416 55.8593L56.0869 56.0039L56.3984 56.3356L56.2701 56.4557L55.9587 56.126L55.7938 56.2807L56.1602 56.6674Z" fill="white"/>
<path d="M56.5818 57.3836L56.649 57.0599L56.5126 56.9175L56.3091 57.1047L56.1523 56.9399L56.8648 56.2661L57.1558 56.5755C57.3349 56.7648 57.3492 56.9826 57.1884 57.1271C57.1427 57.1749 57.0831 57.207 57.0181 57.2191C56.953 57.2311 56.8859 57.2225 56.8261 57.1943L56.7487 57.5688L56.5818 57.3836ZM57.0133 56.6834L56.8851 56.549L56.6388 56.7852L56.765 56.9195C56.8607 57.0192 56.9543 57.0253 57.0317 56.9521C57.109 56.8788 57.107 56.7852 57.0133 56.6834Z" fill="white"/>
<path d="M46.9852 52.0914L47.3638 52.067C47.3454 52.1355 47.344 52.2074 47.3596 52.2765C47.3752 52.3457 47.4074 52.41 47.4533 52.4639C47.5734 52.5901 47.7139 52.5861 47.8604 52.4436L48.5118 51.8329L48.0558 51.3505L48.3102 51.1104L49.0654 51.9083L48.1759 52.7469C47.836 53.0685 47.5103 53.0542 47.205 52.7326C47.1212 52.6501 47.0577 52.5492 47.0196 52.4379C46.9814 52.3267 46.9696 52.208 46.9852 52.0914Z" fill="white"/>
<path d="M48.0717 53.2334C48.1219 53.1859 48.1889 53.1603 48.258 53.1622C48.3271 53.1641 48.3926 53.1934 48.4401 53.2436C48.4876 53.2938 48.5133 53.3608 48.5114 53.4299C48.5094 53.499 48.4802 53.5645 48.43 53.612C48.4051 53.6355 48.3759 53.6539 48.3439 53.6662C48.3119 53.6784 48.2779 53.6842 48.2436 53.6832C48.2094 53.6823 48.1757 53.6746 48.1445 53.6606C48.1133 53.6467 48.0851 53.6267 48.0615 53.6018C48.038 53.577 48.0196 53.5477 48.0074 53.5158C47.9952 53.4838 47.9894 53.4497 47.9903 53.4155C47.9913 53.3813 47.999 53.3476 48.0129 53.3164C48.0269 53.2851 48.0469 53.2569 48.0717 53.2334Z" fill="white"/>
<path d="M51.7235 54.7092L49.9282 55.556L49.6066 55.216L50.2498 54.0375L49.0286 54.6034L48.709 54.2655L49.6534 52.519L49.9649 52.8468L49.2932 54.068L50.5633 53.4798L50.8401 53.7729L50.1643 55.0043L51.4385 54.4059L51.7235 54.7092Z" fill="white"/>
<path d="M51.8519 54.8457C51.8759 54.8233 51.9044 54.8061 51.9354 54.7953C51.9665 54.7845 51.9994 54.7803 52.0322 54.783C52.065 54.7857 52.0968 54.7952 52.1257 54.8109C52.1546 54.8266 52.1799 54.8482 52.1999 54.8742C52.2247 54.895 52.245 54.9207 52.2594 54.9496C52.2738 54.9786 52.282 55.0103 52.2835 55.0426C52.285 55.0749 52.2798 55.1072 52.2683 55.1374C52.2567 55.1677 52.239 55.1952 52.2162 55.2182C52.1922 55.2417 52.1634 55.2599 52.1319 55.2717C52.1004 55.2834 52.0667 55.2884 52.0331 55.2863C51.9995 55.2841 51.9668 55.275 51.937 55.2594C51.9071 55.2438 51.8809 55.2222 51.86 55.1958C51.8353 55.1741 51.8154 55.1474 51.8015 55.1176C51.7876 55.0878 51.78 55.0554 51.7792 55.0225C51.7785 54.9896 51.7845 54.9569 51.797 54.9265C51.8095 54.8961 51.8282 54.8685 51.8519 54.8457ZM51.5689 55.1815L51.858 55.4869L50.8036 56.4822L50.5166 56.1769L51.5689 55.1815Z" fill="white"/>
<path d="M52.5256 55.3931L52.8146 55.6984L51.3613 57.0744L51.0723 56.769L52.5256 55.3931Z" fill="white"/>
<path d="M53.0812 55.9814L53.3703 56.2868L51.917 57.6607L51.6279 57.3554L53.0812 55.9814Z" fill="white"/>
<path d="M53.5208 56.6101C53.5453 56.5881 53.574 56.5714 53.6051 56.561C53.6363 56.5505 53.6692 56.5465 53.702 56.5491C53.7347 56.5518 53.7666 56.5611 53.7956 56.5765C53.8247 56.5918 53.8503 56.613 53.8709 56.6385C53.8954 56.6598 53.9153 56.6859 53.9293 56.7151C53.9434 56.7443 53.9513 56.7761 53.9526 56.8085C53.954 56.8409 53.9487 56.8732 53.9371 56.9035C53.9255 56.9338 53.9078 56.9614 53.8852 56.9846C53.8342 57.0251 53.77 57.0452 53.7051 57.041C53.6401 57.0369 53.579 57.0087 53.5336 56.9621C53.4882 56.9154 53.4618 56.8536 53.4594 56.7885C53.4571 56.7235 53.4789 56.6599 53.5208 56.6101ZM53.2379 56.9479L53.5269 57.2533L52.4746 58.2486L52.1855 57.9433L53.2379 56.9479Z" fill="white"/>
<path d="M54.2233 58.906L53.6127 59.4739L53.342 59.189L53.4743 59.0648C53.3898 59.0774 53.3034 59.0671 53.2242 59.0349C53.1451 59.0026 53.0761 58.9497 53.0244 58.8816C52.7904 58.6353 52.7883 58.3585 52.9715 58.1875C53.1547 58.0165 53.4091 58.0206 53.7124 58.3402L53.9424 58.5844C54.0747 58.4603 54.0768 58.3096 53.92 58.1448C53.8169 58.0374 53.6821 57.9661 53.5353 57.9412L53.6453 57.6318C53.86 57.6846 54.0541 57.8001 54.203 57.9636C54.5164 58.2669 54.5429 58.5946 54.2233 58.906ZM53.6676 58.8551L53.7755 58.7534L53.572 58.5498C53.4376 58.4053 53.342 58.4114 53.2707 58.4766C53.1995 58.5417 53.2056 58.6618 53.3074 58.7697C53.3516 58.8189 53.4104 58.8527 53.4752 58.8662C53.54 58.8798 53.6074 58.8723 53.6676 58.845V58.8551Z" fill="white"/>
<path d="M56.1684 60.942L55.5578 61.5119L55.2708 61.2066L55.8264 60.6814C55.9954 60.5206 56.0015 60.37 55.8855 60.2479C55.7694 60.1257 55.5781 60.0972 55.3888 60.2743L54.8616 60.775L54.5726 60.4697L55.1283 59.9446C55.2993 59.7817 55.3074 59.6352 55.1873 59.509C55.0672 59.3828 54.882 59.3604 54.6927 59.5395L54.1777 60.0443L53.8887 59.739L54.941 58.7437L55.2178 59.0347L55.0957 59.1507C55.181 59.1496 55.2655 59.1673 55.3433 59.2025C55.421 59.2376 55.4901 59.2895 55.5455 59.3543C55.6133 59.4188 55.6631 59.4998 55.6902 59.5894C55.7173 59.6789 55.7208 59.7739 55.7002 59.8652C55.7997 59.8581 55.8995 59.8738 55.9919 59.9112C56.0843 59.9486 56.167 60.0067 56.2335 60.081C56.4635 60.3313 56.488 60.6448 56.1684 60.942Z" fill="white"/>
<path d="M55.8252 61.5972L56.1407 61.4914C56.1785 61.6648 56.263 61.8245 56.3849 61.9534C56.5173 62.0939 56.6048 62.1122 56.6638 62.0572C56.8348 61.8944 56.0532 61.4242 56.4786 61.0253C56.6821 60.838 56.9895 60.8848 57.2806 61.1922C57.4159 61.3305 57.5158 61.4995 57.5716 61.6848L57.2582 61.7886C57.2255 61.6464 57.1552 61.5157 57.0546 61.41C56.9264 61.2736 56.8266 61.2553 56.7717 61.3062C56.5926 61.4771 57.3681 61.9494 56.9528 62.3402C56.7493 62.5254 56.446 62.4766 56.1387 62.1611C55.9859 62.0043 55.8777 61.8097 55.8252 61.5972Z" fill="white"/>
<path d="M67.9865 73.3682C68.4384 72.9408 68.931 72.9489 69.2506 73.2848C69.5701 73.6206 69.5498 74.1152 69.0959 74.5427C68.642 74.9701 68.1534 74.964 67.8318 74.6261C67.5102 74.2882 67.5347 73.7957 67.9865 73.3682ZM68.8007 74.2231C69.1122 73.93 69.1386 73.698 68.988 73.5392C68.8374 73.3804 68.6074 73.3947 68.2959 73.6898C67.9845 73.985 67.958 74.215 68.1066 74.3717C68.2552 74.5284 68.4832 74.5183 68.7946 74.2231H68.8007Z" fill="white"/>
<path d="M70.0548 76.0675C69.7759 76.3321 69.3831 76.271 69.1083 75.98C68.7521 75.6014 68.7663 75.1414 69.208 74.7241C69.6823 74.2763 70.2258 74.317 70.6064 74.7241C70.7371 74.8542 70.83 75.0175 70.8751 75.1963L70.5311 75.2981C70.5056 75.176 70.4447 75.0642 70.356 74.9765C70.3098 74.9209 70.252 74.8759 70.1867 74.8448C70.1214 74.8136 70.0501 74.797 69.9777 74.796C69.9054 74.795 69.8337 74.8097 69.7676 74.8391C69.7015 74.8686 69.6425 74.9119 69.5948 74.9663C69.7657 74.9799 69.9245 75.0603 70.0365 75.1902C70.0965 75.2459 70.1446 75.3131 70.1781 75.3878C70.2117 75.4625 70.2298 75.5431 70.2315 75.625C70.2332 75.7068 70.2184 75.7882 70.1881 75.8642C70.1577 75.9402 70.1124 76.0093 70.0548 76.0675ZM69.7495 75.7744C69.7788 75.7465 69.8019 75.7127 69.8171 75.6752C69.8324 75.6377 69.8394 75.5974 69.8379 75.557C69.8364 75.5165 69.8262 75.4769 69.8082 75.4407C69.7901 75.4045 69.7646 75.3725 69.7332 75.3469C69.7086 75.3148 69.6777 75.288 69.6424 75.2682C69.607 75.2485 69.568 75.2362 69.5277 75.2322C69.4875 75.2282 69.4468 75.2325 69.4082 75.2449C69.3697 75.2573 69.3341 75.2775 69.3037 75.3042C69.2747 75.3332 69.2522 75.368 69.2375 75.4063C69.2229 75.4446 69.2165 75.4855 69.2189 75.5264C69.2212 75.5674 69.2321 75.6074 69.2509 75.6438C69.2697 75.6802 69.2961 75.7122 69.3281 75.7378C69.3522 75.7702 69.3828 75.7971 69.4181 75.8168C69.4533 75.8365 69.4924 75.8485 69.5326 75.8519C69.5728 75.8554 69.6133 75.8503 69.6514 75.8369C69.6895 75.8235 69.7243 75.8022 69.7535 75.7744H69.7495Z" fill="white"/>
<path d="M71.8864 75.5566L72.1449 75.8274L69.6881 76.9265L69.4316 76.6538L71.8864 75.5566Z" fill="white"/>
<path d="M71.7035 78.1558L71.445 78.4L70.4619 77.364L70.6655 77.1706L71.6649 77.2276C71.7327 77.2408 71.8027 77.2391 71.8698 77.2226C71.9369 77.2061 71.9997 77.1751 72.0536 77.1319C72.1615 77.0301 72.1534 76.8958 72.015 76.7513C71.9653 76.6937 71.9021 76.6495 71.831 76.6225C71.7599 76.5954 71.6832 76.5866 71.6079 76.5966L71.5387 76.2241C71.682 76.2075 71.8272 76.2265 71.9614 76.2794C72.0956 76.3323 72.2147 76.4175 72.3081 76.5274C72.5971 76.8347 72.6317 77.1848 72.3834 77.4209C72.2511 77.5471 72.0944 77.6245 71.7341 77.6001L71.1397 77.5655L71.7035 78.1558Z" fill="white"/>
<path d="M73.0248 79.493L72.8213 79.2711L72.5343 79.5418L72.2412 79.2324L72.5302 78.9617L71.832 78.2228L72.0458 78.0193L73.5255 77.8442L73.841 78.176L72.4488 78.3551L72.7968 78.7236L73.0533 78.4813L73.3362 78.7806L73.0798 79.0228L73.2833 79.2467L73.0248 79.493Z" fill="white"/>
<path d="M79.4547 62.5397C80.2282 61.351 79.9249 59.7715 78.8868 58.8067C78.571 58.5088 78.2051 58.269 77.806 58.0983C76.8147 57.6912 75.5019 57.9864 74.9808 58.9268C74.5554 59.6941 74.7263 60.6528 75.0256 61.4772C75.337 62.3423 75.8397 63.2257 76.6967 63.5615C77.5536 63.8974 78.5123 63.59 79.127 62.9509C79.25 62.8254 79.3599 62.6876 79.4547 62.5397Z" fill="#474EFF"/>
<path d="M98.3332 63.0298H46.2803C44.3198 63.0298 42.7305 64.6191 42.7305 66.5796V102.41C42.7305 104.37 44.3198 105.96 46.2803 105.96H98.3332C100.294 105.96 101.883 104.37 101.883 102.41V66.5796C101.883 64.6191 100.294 63.0298 98.3332 63.0298Z" fill="#474EFF"/>
<path d="M101.883 66.5799C101.883 66.5799 101.883 66.5371 101.883 66.4516C101.88 66.3241 101.867 66.1969 101.847 66.071C101.775 65.5754 101.597 65.1012 101.326 64.6808C101.126 64.3715 100.882 64.0937 100.601 63.8564C100.257 63.5749 99.8648 63.3596 99.4428 63.2214C99.3288 63.1827 99.2087 63.1603 99.0886 63.1257C98.9685 63.0911 98.8403 63.087 98.712 63.0667L98.3192 63.0483H96.1249L74.9012 63.0646H60.2458H52.0795H46.7242C46.3628 63.0501 46.0009 63.0706 45.6434 63.1257C44.9236 63.2578 44.2639 63.614 43.7586 64.1434C43.5034 64.4071 43.2924 64.7102 43.1337 65.0411C42.9701 65.3717 42.8627 65.7274 42.8161 66.0934C42.781 66.4655 42.7695 66.8394 42.7815 67.2129V72.9509C42.7815 76.0529 42.7815 79.2167 42.7815 82.4422V102.39C42.7828 103.241 43.0923 104.063 43.6527 104.704C44.2055 105.341 44.9721 105.755 45.8083 105.866C46.2252 105.902 46.6439 105.914 47.0621 105.901H79.255H96.0781H98.0362C98.3557 105.911 98.6754 105.89 98.9909 105.838C99.301 105.778 99.6015 105.677 99.8844 105.537C100.025 105.468 100.161 105.39 100.292 105.305C100.419 105.215 100.541 105.119 100.658 105.016C101.004 104.711 101.287 104.34 101.488 103.925C101.69 103.509 101.807 103.058 101.832 102.597C101.853 100.155 101.832 97.8059 101.845 95.5669C101.845 86.6109 101.859 79.3565 101.863 74.3452C101.863 71.8395 101.863 69.8956 101.873 68.5746C101.873 67.9172 101.873 67.4144 101.873 67.0745C101.873 66.7346 101.873 66.5636 101.873 66.5636C101.873 66.5636 101.873 66.7366 101.873 67.0745C101.873 67.4124 101.873 67.9172 101.873 68.5746C101.873 69.8956 101.873 71.8314 101.883 74.3452C101.883 79.3565 101.883 86.6068 101.9 95.5669C101.9 97.8059 101.914 100.153 101.9 102.601C101.865 103.229 101.666 103.836 101.321 104.362C101.15 104.626 100.944 104.867 100.711 105.079C100.591 105.184 100.465 105.283 100.334 105.374C100.203 105.461 100.067 105.541 99.9272 105.612C99.6383 105.757 99.3307 105.861 99.0133 105.921C98.6926 105.975 98.3674 105.997 98.0424 105.986H96.0842H79.2611H60.6692H47.054C46.6309 106 46.2075 105.987 45.7859 105.95C44.9244 105.837 44.1342 105.412 43.5652 104.755C42.9906 104.097 42.6726 103.253 42.6696 102.38C42.6696 95.5425 42.6696 88.8702 42.6696 82.4321V72.9509C42.6696 71.4012 42.6696 69.8678 42.6696 68.3507V67.217C42.6574 66.8387 42.6697 66.46 42.7062 66.0832C42.7544 65.7072 42.8651 65.3418 43.0339 65.0024C43.1966 64.6614 43.4139 64.3493 43.6771 64.0783C43.9378 63.8102 44.2369 63.5825 44.5646 63.4025C44.894 63.2276 45.2482 63.1041 45.6149 63.0361L45.8897 62.9934L46.1645 62.9791C46.3497 62.969 46.5309 62.9791 46.712 62.9791H60.2336H74.8889L96.1127 62.9975H98.2968L98.6937 63.0178C98.8219 63.0402 98.9502 63.0544 99.0723 63.0809C99.1944 63.1074 99.3145 63.1379 99.4285 63.1786C99.8539 63.3187 100.249 63.5368 100.595 63.8218C100.877 64.0613 101.122 64.3419 101.321 64.6543C101.592 65.0783 101.767 65.5562 101.834 66.0547C101.855 66.1812 101.866 66.3092 101.867 66.4374C101.883 66.5371 101.883 66.5799 101.883 66.5799Z" fill="#263238"/>
<path d="M99.8115 65.676C100.216 65.6054 100.629 65.6054 101.033 65.676C100.629 65.7465 100.216 65.7465 99.8115 65.676Z" fill="#263238"/>
<path d="M94.8281 65.676C95.6571 65.6054 96.4906 65.6054 97.3195 65.676C96.4906 65.7465 95.6571 65.7465 94.8281 65.676Z" fill="#263238"/>
<path d="M89.8477 65.676C90.6759 65.6054 91.5087 65.6054 92.337 65.676C91.5087 65.7466 90.6759 65.7466 89.8477 65.676Z" fill="#263238"/>
<path d="M84.8652 65.676C85.6942 65.6054 86.5277 65.6054 87.3566 65.676C86.5277 65.7465 85.6942 65.7465 84.8652 65.676Z" fill="#263238"/>
<path d="M79.8838 65.676C80.7121 65.6054 81.5449 65.6054 82.3732 65.676C81.5449 65.7466 80.7121 65.7466 79.8838 65.676Z" fill="#263238"/>
<path d="M74.9014 65.676C75.7303 65.6054 76.5638 65.6054 77.3928 65.676C76.5638 65.7465 75.7303 65.7465 74.9014 65.676Z" fill="#263238"/>
<path d="M69.9209 65.676C70.7492 65.6054 71.582 65.6054 72.4103 65.676C71.582 65.7466 70.7492 65.7466 69.9209 65.676Z" fill="#263238"/>
<path d="M64.9375 65.676C65.7665 65.6054 66.5999 65.6054 67.4289 65.676C66.5999 65.7465 65.7665 65.7465 64.9375 65.676Z" fill="#263238"/>
<path d="M59.9551 65.676C60.784 65.6054 61.6175 65.6054 62.4465 65.676C61.6175 65.7465 60.784 65.7465 59.9551 65.676Z" fill="#263238"/>
<path d="M54.9736 65.6759C55.3846 65.6239 55.7993 65.6062 56.2132 65.623C56.6292 65.6059 57.0459 65.6236 57.4589 65.6759C57.046 65.7295 56.6292 65.7472 56.2132 65.7289C55.7993 65.7468 55.3845 65.7291 54.9736 65.6759Z" fill="#263238"/>
<path d="M49.9912 65.6759C50.4042 65.6236 50.8209 65.6059 51.2369 65.623C51.6529 65.6059 52.0696 65.6236 52.4826 65.6759C52.0697 65.7295 51.6529 65.7472 51.2369 65.7289C50.8209 65.7472 50.4041 65.7295 49.9912 65.6759Z" fill="#263238"/>
<path d="M46.2807 66.8972C46.227 66.4925 46.2093 66.0838 46.2277 65.676L46.2807 65.623H46.7549L47.1437 65.6353C47.2642 65.6309 47.3848 65.6432 47.5019 65.6719C47.385 65.702 47.2644 65.7151 47.1437 65.7106L46.7549 65.7207H46.527H46.2807L46.3336 65.6678C46.3512 66.0784 46.3335 66.4897 46.2807 66.8972Z" fill="#263238"/>
<path d="M46.2806 71.4629C46.2271 71.0848 46.2094 70.7025 46.2277 70.321C46.2094 69.9402 46.2271 69.5586 46.2806 69.1812C46.3329 69.5587 46.3506 69.9402 46.3335 70.321C46.3506 70.7025 46.3329 71.0847 46.2806 71.4629Z" fill="#263238"/>
<path d="M46.2805 76.0283C46.2099 75.2694 46.2099 74.5055 46.2805 73.7466C46.351 74.5055 46.351 75.2694 46.2805 76.0283Z" fill="#263238"/>
<path d="M46.2805 80.5939C46.2099 79.8342 46.2099 79.0697 46.2805 78.3101C46.351 79.0697 46.351 79.8342 46.2805 80.5939Z" fill="#263238"/>
<path d="M46.2805 85.1637C46.2099 84.404 46.2099 83.6395 46.2805 82.8799C46.351 83.6395 46.351 84.404 46.2805 85.1637Z" fill="#263238"/>
<path d="M46.2805 89.7232C46.2099 88.9642 46.2099 88.2004 46.2805 87.4414C46.351 88.2004 46.351 88.9642 46.2805 89.7232Z" fill="#263238"/>
<path d="M46.2805 94.2886C46.2099 93.5296 46.2099 92.7658 46.2805 92.0068C46.351 92.7658 46.351 93.5296 46.2805 94.2886Z" fill="#263238"/>
<path d="M46.2805 98.854C46.2099 98.0951 46.2099 97.3312 46.2805 96.5723C46.351 97.3312 46.351 98.0951 46.2805 98.854Z" fill="#263238"/>
<path d="M47.5022 102.359C47.0973 102.412 46.6888 102.429 46.2809 102.412C46.1751 102.306 46.2504 102.382 46.228 102.357V102.115C46.228 102.036 46.228 101.96 46.228 101.885C46.228 101.751 46.228 101.623 46.228 101.496C46.2221 101.376 46.2352 101.256 46.2667 101.14C46.2955 101.257 46.3078 101.376 46.3033 101.496C46.3033 101.623 46.3033 101.751 46.3155 101.885C46.3155 101.96 46.3155 102.036 46.3155 102.115C46.3155 102.154 46.3155 102.195 46.3155 102.235V102.357C46.2911 102.335 46.3684 102.412 46.2626 102.306C46.6765 102.287 47.0914 102.305 47.5022 102.359Z" fill="#263238"/>
<path d="M52.4113 102.36C52.0064 102.411 51.5979 102.429 51.19 102.412C50.7822 102.429 50.3736 102.411 49.9688 102.36C50.3735 102.306 50.7822 102.289 51.19 102.307C51.5979 102.289 52.0065 102.306 52.4113 102.36Z" fill="#263238"/>
<path d="M57.3205 102.36C56.9156 102.411 56.5071 102.429 56.0992 102.412C55.6914 102.429 55.2828 102.411 54.8779 102.36C55.2827 102.306 55.6914 102.289 56.0992 102.307C56.5071 102.289 56.9157 102.306 57.3205 102.36Z" fill="#263238"/>
<path d="M62.2302 102.36C61.4134 102.43 60.5921 102.43 59.7754 102.36C60.5921 102.289 61.4134 102.289 62.2302 102.36Z" fill="#263238"/>
<path d="M67.1403 102.36C66.3236 102.43 65.5023 102.43 64.6855 102.36C65.5023 102.289 66.3236 102.289 67.1403 102.36Z" fill="#263238"/>
<path d="M72.0495 102.36C71.2328 102.43 70.4115 102.43 69.5947 102.36C70.4115 102.289 71.2328 102.289 72.0495 102.36Z" fill="#263238"/>
<path d="M76.9587 102.36C76.1419 102.43 75.3206 102.43 74.5039 102.36C75.3206 102.289 76.1419 102.289 76.9587 102.36Z" fill="#263238"/>
<path d="M81.86 102.36C81.0433 102.43 80.222 102.43 79.4053 102.36C80.222 102.289 81.0433 102.289 81.86 102.36Z" fill="#263238"/>
<path d="M86.778 102.36C85.9613 102.43 85.14 102.43 84.3232 102.36C85.14 102.289 85.9613 102.289 86.778 102.36Z" fill="#263238"/>
<path d="M91.6882 102.36C90.8714 102.43 90.0501 102.43 89.2334 102.36C90.0501 102.289 90.8714 102.289 91.6882 102.36Z" fill="#263238"/>
<path d="M96.5993 102.36C95.7826 102.43 94.9613 102.43 94.1445 102.36C94.9613 102.289 95.7826 102.289 96.5993 102.36Z" fill="#263238"/>
<path d="M100.275 102.36C99.871 102.43 99.4577 102.43 99.0537 102.36C99.4577 102.289 99.871 102.289 100.275 102.36Z" fill="#263238"/>
<g opacity="0.3">
<path d="M63.1346 86.8408C63.1346 86.8408 63.1468 88.8763 62.524 90.0976C61.9011 91.3188 61.7098 91.8033 60.4071 92.2755C59.1044 92.7477 42.7148 94.5491 42.7148 94.5491V89.0188L63.1346 86.8408Z" fill="black"/>
</g>
<g opacity="0.3">
<path d="M62.847 79.1669C62.847 79.1669 63.0342 77.0887 57.8214 76.3172C51.8595 75.4359 42.7305 74.353 42.7305 74.353V78.2835L62.847 79.1669Z" fill="black"/>
</g>
<path d="M60.2296 77.2822H43.2721C41.6635 77.2822 40.3594 78.5863 40.3594 80.195V87.7873C40.3594 89.3959 41.6635 90.7 43.2721 90.7H60.2296C61.8382 90.7 63.1423 89.3959 63.1423 87.7873V80.195C63.1423 78.5863 61.8382 77.2822 60.2296 77.2822Z" fill="#474EFF"/>
<path d="M43.2722 90.6982C43.2722 90.6982 43.2132 90.6982 43.0992 90.6982C42.9284 90.6916 42.7586 90.6684 42.5923 90.629C42.3203 90.5676 42.0589 90.4661 41.8168 90.3277C41.4852 90.1404 41.194 89.8893 40.9599 89.5889C40.6634 89.2122 40.4642 88.7683 40.3798 88.2963C40.3374 88.0271 40.321 87.7545 40.3309 87.4822C40.3309 87.2013 40.3309 86.9081 40.3309 86.6049C40.3309 85.3938 40.3309 84.0158 40.3309 82.4912C40.3309 81.7279 40.3309 80.932 40.3309 80.0975C40.3446 79.6575 40.4567 79.2263 40.6588 78.8353C40.861 78.4443 41.1482 78.1036 41.4993 77.8381C41.8683 77.5544 42.3007 77.3644 42.7592 77.2845C42.9919 77.2459 43.2277 77.2295 43.4635 77.2356H47.1273H60.2439C60.6857 77.2347 61.1221 77.333 61.5209 77.5232C61.9197 77.7134 62.2707 77.9908 62.548 78.3348C62.9152 78.7849 63.1405 79.3339 63.1953 79.9123C63.2177 80.1993 63.2096 80.4781 63.2116 80.757C63.2116 81.3147 63.2116 81.8677 63.2116 82.4159V85.6462C63.2116 86.1733 63.2116 86.6965 63.2116 87.2114C63.2116 87.472 63.2218 87.7244 63.2116 87.9849C63.2041 88.114 63.1885 88.2425 63.1648 88.3696C63.1371 88.4947 63.1031 88.6184 63.063 88.7401C62.8973 89.2166 62.6127 89.643 62.2362 89.9788C61.8597 90.3147 61.4038 90.549 60.9115 90.6595C60.7939 90.6866 60.675 90.7077 60.5553 90.7226C60.4352 90.7328 60.3151 90.7369 60.195 90.7409H58.129H53.1421L45.9203 90.7226L43.9561 90.7124H43.4472H43.2722C43.2722 90.7124 43.3312 90.7124 43.4472 90.7124H43.9561L45.9203 90.7023L53.1421 90.686H58.129H59.4948C59.9589 90.6738 60.4332 90.7247 60.8891 90.6046C61.3611 90.4918 61.7969 90.2613 62.1557 89.9345C62.5144 89.6078 62.7846 89.1954 62.9409 88.736C63.1159 88.2658 63.0915 87.7549 63.0915 87.2379V85.6726C63.0915 84.6183 63.0915 83.5395 63.0915 82.4423V80.7834C63.0915 80.5046 63.0915 80.2217 63.0772 79.9489C63.0224 79.3912 62.8051 78.8618 62.4524 78.4264C62.2748 78.2109 62.0695 78.02 61.8417 77.8585C61.6051 77.7027 61.3483 77.5801 61.0784 77.4941C60.8051 77.4145 60.5224 77.3721 60.2378 77.3679H47.1212H43.4574C43.2264 77.3619 42.9954 77.3775 42.7674 77.4147C42.3233 77.4917 41.9044 77.6746 41.5461 77.948C41.2046 78.2053 40.925 78.5357 40.7278 78.915C40.5306 79.2943 40.4207 79.7129 40.4062 80.1402C40.3961 80.9687 40.4062 81.7686 40.4062 82.5319C40.4062 84.0565 40.4062 85.4345 40.4062 86.6456C40.4062 86.9489 40.4062 87.242 40.4062 87.5229C40.396 87.7917 40.411 88.0609 40.451 88.3269C40.5487 88.8818 40.8053 89.3964 41.1898 89.8083C41.5742 90.2202 42.0699 90.5116 42.6168 90.6473C42.7816 90.6885 42.9499 90.7144 43.1195 90.7247L43.2722 90.6982Z" fill="#263238"/>
<path d="M56.2783 89.3731C58.9718 89.3731 61.1553 87.1896 61.1553 84.4961C61.1553 81.8026 58.9718 79.6191 56.2783 79.6191C53.5849 79.6191 51.4014 81.8026 51.4014 84.4961C51.4014 87.1896 53.5849 89.3731 56.2783 89.3731Z" fill="#000129"/>
<path d="M57.5283 88.4794C57.9409 88.3264 58.3321 88.1212 58.6926 87.8688C59.0761 87.5876 59.4092 87.2435 59.6778 86.8511C60.0122 86.375 60.2335 85.8288 60.3249 85.2542C60.4162 84.6796 60.3752 84.0917 60.205 83.5353C60.0719 83.0786 59.8612 82.6483 59.5821 82.2631C59.3191 81.9111 59.0111 81.595 58.6661 81.3228C58.6661 81.3228 58.6967 81.335 58.7455 81.3675C58.8208 81.4144 58.8936 81.4654 58.9633 81.5202C59.2196 81.722 59.4482 81.9568 59.6432 82.2184C59.9358 82.6059 60.1576 83.0421 60.2986 83.5068C60.4796 84.0764 60.5249 84.6804 60.4309 85.2706C60.3369 85.8608 60.1062 86.4209 59.7572 86.906C59.4802 87.3023 59.1357 87.6468 58.7394 87.9238C58.4734 88.112 58.1831 88.2633 57.8764 88.3736C57.794 88.4052 57.7097 88.4317 57.624 88.453C57.5941 88.468 57.5616 88.4769 57.5283 88.4794Z" fill="#FAFAFA"/>
<path d="M114.772 53.2348C114.937 55.0109 114.572 56.796 113.721 58.364C112.871 59.9321 111.575 61.2125 109.996 62.043C108.417 62.8736 106.628 63.217 104.854 63.0297C103.08 62.8424 101.402 62.1329 100.031 60.991C98.6611 59.8491 97.6605 58.3261 97.1564 56.6151C96.6523 54.9041 96.6674 53.0819 97.1997 51.3795C97.732 49.677 98.7576 48.1708 100.147 47.0517C101.536 45.9326 103.225 45.2509 105.002 45.0929C107.377 44.8791 109.74 45.6164 111.571 47.1429C113.403 48.6694 114.554 50.8603 114.772 53.2348Z" fill="#FEBB5D"/>
<g opacity="0.3">
<path d="M112.615 53.2065C112.574 53.2065 112.519 52.9154 112.362 52.3923C112.143 51.671 111.813 50.9878 111.385 50.367C111.09 49.9433 110.749 49.5535 110.368 49.2048C109.932 48.8045 109.446 48.4624 108.922 48.187C108.641 48.0385 108.348 47.9113 108.047 47.8064C107.735 47.6964 107.414 47.61 107.088 47.5479C106.753 47.4835 106.412 47.4447 106.071 47.4319C105.717 47.4199 105.364 47.4341 105.012 47.4746C104.662 47.5182 104.315 47.5862 103.974 47.6782C103.644 47.7731 103.322 47.8929 103.009 48.0364C102.418 48.3081 101.869 48.6646 101.381 49.0949C100.938 49.4847 100.546 49.93 100.217 50.42C99.9308 50.8497 99.6932 51.3098 99.5084 51.7919C99.2402 52.496 99.0836 53.2377 99.0443 53.9902C99.0138 54.5275 99.0321 54.8288 98.9894 54.8349C98.9466 54.841 98.8734 54.5438 98.8388 53.9902C98.8 53.203 98.9077 52.4155 99.1563 51.6677C99.5262 50.5429 100.181 49.5331 101.057 48.7366C101.574 48.2634 102.159 47.8702 102.792 47.5703C103.127 47.4119 103.474 47.2806 103.83 47.1775C104.197 47.0725 104.571 46.9957 104.949 46.9475C105.328 46.9043 105.71 46.8893 106.091 46.9027C106.462 46.9192 106.831 46.9641 107.194 47.037C107.88 47.1769 108.542 47.4183 109.157 47.7535C110.197 48.3191 111.074 49.1435 111.703 50.1472C112.124 50.8139 112.416 51.5532 112.566 52.3272C112.651 52.9012 112.651 53.2065 112.615 53.2065Z" fill="black"/>
</g>
<g opacity="0.3">
<path d="M106.937 58.0466L107.061 59.2353L105.998 59.3473L105.878 58.1891C104.82 58.2339 103.778 58.01 103.147 57.6151L103.594 56.2575C104.248 56.6195 104.985 56.8054 105.732 56.7968L105.546 55.024C104.339 54.8591 102.982 54.6047 102.823 53.0842C102.705 51.9585 103.423 50.9083 105.08 50.5419L104.958 49.3633L106.021 49.2534L106.141 50.4096C106.905 50.3737 107.666 50.5188 108.364 50.8329L107.971 52.1886C107.441 51.9509 106.87 51.8208 106.289 51.8059L106.477 53.6113C107.684 53.764 109.021 54.0184 109.176 55.5206C109.292 56.632 108.581 57.6721 106.937 58.0466ZM105.388 53.4628L105.229 51.9545C104.681 52.1397 104.49 52.4715 104.527 52.8216C104.563 53.1717 104.903 53.363 105.388 53.4628ZM107.48 55.832C107.441 55.4595 107.112 55.2906 106.64 55.1787L106.792 56.6442C107.311 56.4732 107.515 56.172 107.48 55.832Z" fill="black"/>
</g>
<path d="M98.9613 54.6657C98.9681 54.6834 98.9729 54.7019 98.9756 54.7207C98.9756 54.7634 98.9918 54.8163 99.0041 54.8815C99.0163 54.9466 99.0285 55.0423 99.0448 55.142C99.0612 55.2614 99.085 55.3797 99.116 55.4962C99.4085 56.7649 100.052 57.9259 100.972 58.8466L101.294 59.1397C101.349 59.1865 101.4 59.2394 101.459 59.2862L101.64 59.4206C101.762 59.5101 101.882 59.6099 102.012 59.6933L102.42 59.9396C103.002 60.2688 103.63 60.5122 104.282 60.6622C105.694 60.9851 107.172 60.8489 108.502 60.2734C109.116 60.007 109.688 59.6533 110.201 59.2231L110.555 58.9076C110.669 58.8018 110.759 58.6817 110.871 58.5718C110.922 58.5168 110.975 58.4619 111.023 58.4069C111.072 58.3519 111.115 58.2888 111.162 58.2318C111.249 58.1138 111.337 57.9998 111.424 57.8858C111.721 57.4488 111.969 56.9806 112.163 56.4895C112.445 55.7746 112.605 55.018 112.638 54.2505C112.646 54.1305 112.646 54.0102 112.638 53.8902C112.638 53.7884 112.638 53.6989 112.638 53.6256C112.638 53.5523 112.638 53.5055 112.638 53.4628C112.636 53.4438 112.636 53.4247 112.638 53.4058C112.64 53.424 112.64 53.4425 112.638 53.4607C112.638 53.5035 112.638 53.5584 112.65 53.6236C112.662 53.6887 112.65 53.7864 112.664 53.8902C112.674 54.0108 112.674 54.1319 112.664 54.2525C112.647 55.0264 112.496 55.7915 112.218 56.5139C112.028 57.0156 111.781 57.4938 111.481 57.9387L111.227 58.2949C111.18 58.354 111.137 58.4171 111.089 58.4741L110.934 58.643C110.83 58.755 110.73 58.8751 110.614 58.9829L110.258 59.3066C109.739 59.7447 109.159 60.1054 108.536 60.3772C107.19 60.9622 105.692 61.1006 104.262 60.7721C103.599 60.6185 102.963 60.3689 102.373 60.0312L101.966 59.7808C101.833 59.6953 101.713 59.5936 101.589 59.504L101.408 59.3656C101.349 59.3188 101.296 59.2638 101.239 59.215L100.909 58.9056C100.535 58.5231 100.205 58.0998 99.9261 57.6436C99.5211 56.9835 99.2332 56.2584 99.0753 55.5003C99.0463 55.3832 99.0258 55.2641 99.0142 55.1441C99.002 55.0423 98.9918 54.9527 98.9817 54.8794C98.9715 54.8062 98.9695 54.7593 98.9633 54.7166C98.9611 54.6997 98.9604 54.6827 98.9613 54.6657Z" fill="#263238"/>
<path d="M102.067 79.7994C101.619 80.7336 100.904 81.5139 100.012 82.0414C99.1203 82.5689 98.0921 82.8199 97.0575 82.7627C96.023 82.7055 95.0288 82.3427 94.2006 81.7201C93.3724 81.0975 92.7477 80.2431 92.4053 79.2652C92.063 78.2873 92.0185 77.2298 92.2776 76.2266C92.5366 75.2235 93.0875 74.3197 93.8605 73.6298C94.6334 72.9399 95.5937 72.4948 96.6198 72.351C97.6459 72.2072 98.6915 72.371 99.6244 72.8218C100.243 73.1196 100.797 73.5362 101.254 74.048C101.712 74.5598 102.064 75.1567 102.291 75.8047C102.518 76.4526 102.615 77.1389 102.576 77.8243C102.538 78.5097 102.365 79.1809 102.067 79.7994Z" fill="#999CFF"/>
<g opacity="0.3">
<path d="M101.007 79.1463C101.028 78.9833 101.066 78.8229 101.121 78.668C101.226 78.2429 101.265 77.8043 101.237 77.3673C101.215 77.068 101.161 76.7718 101.076 76.4839C100.976 76.1558 100.835 75.8419 100.655 75.5496C100.558 75.3922 100.45 75.2419 100.331 75.0998C99.9451 74.6381 99.4575 74.2717 98.9066 74.0291C98.7186 73.9469 98.5247 73.8788 98.3265 73.8256C98.1334 73.7749 97.9367 73.7389 97.7382 73.7177C97.547 73.6958 97.3544 73.689 97.1622 73.6974C96.977 73.7046 96.7926 73.7257 96.6106 73.7605C96.2733 73.8218 95.9455 73.9272 95.6356 74.0739C95.3649 74.2034 95.109 74.3617 94.8723 74.5462C94.5294 74.8189 94.2307 75.1429 93.9869 75.5069C93.9077 75.6515 93.8142 75.7879 93.708 75.914C93.7326 75.7476 93.793 75.5886 93.8851 75.4479C94.1 75.0397 94.39 74.6757 94.74 74.3752C94.9801 74.1663 95.2446 73.9872 95.5277 73.8419C95.8538 73.6747 96.2009 73.5522 96.5597 73.4775C96.9612 73.3944 97.3729 73.3725 97.781 73.4124C97.9953 73.4338 98.2077 73.4719 98.416 73.5264C98.6301 73.5841 98.8397 73.6576 99.043 73.7462C99.2455 73.837 99.4408 73.9432 99.6271 74.0638C99.8069 74.1818 99.977 74.3138 100.136 74.4586C100.291 74.5977 100.434 74.7496 100.563 74.9125C100.689 75.0663 100.802 75.2297 100.901 75.4011C101.089 75.7195 101.232 76.0619 101.327 76.4188C101.408 76.7259 101.452 77.0416 101.459 77.3592C101.471 77.8173 101.397 78.2735 101.241 78.7046C101.195 78.8664 101.115 79.0168 101.007 79.1463Z" fill="black"/>
</g>
<g opacity="0.3">
<path d="M96.7324 79.8704L96.4414 80.4994L95.8775 80.2388L96.1625 79.6282C95.6699 79.3797 95.2567 78.9982 94.9697 78.527L95.5987 77.9835C95.817 78.3594 96.1291 78.6722 96.5045 78.8913L96.9421 77.951C96.3864 77.5093 95.7859 76.976 96.1605 76.172C96.4373 75.5756 97.107 75.2641 98.0433 75.5756L98.3343 74.9507L98.8961 75.2133L98.6112 75.8239C99.0034 76.033 99.3403 76.3323 99.5943 76.6971L98.9837 77.2589C98.7902 76.9826 98.5439 76.7474 98.259 76.5668L97.8153 77.5235C98.371 77.9591 98.9613 78.4863 98.5929 79.2801C98.3303 79.8704 97.6667 80.1696 96.7324 79.8704ZM97.3248 77.1205L97.6973 76.3226C97.3675 76.2513 97.1721 76.3592 97.0866 76.5445C97.0011 76.7297 97.1151 76.9231 97.3248 77.1164V77.1205ZM97.6647 78.928C97.7542 78.7244 97.6423 78.5474 97.4387 78.3499L97.0785 79.1275C97.3858 79.1926 97.5894 79.103 97.6647 78.9239V78.928Z" fill="black"/>
</g>
<path d="M93.7611 75.7998C93.7611 75.7998 93.7 75.9647 93.6003 76.2639C93.4655 76.6874 93.4022 77.1304 93.413 77.5747C93.421 77.8803 93.4627 78.1841 93.5372 78.4805C93.6258 78.823 93.7564 79.1532 93.926 79.4636C94.119 79.7993 94.3589 80.1056 94.6384 80.3735C95.2425 80.9532 96.0165 81.3242 96.8469 81.4319C97.2304 81.4817 97.619 81.4763 98.001 81.4157C98.6517 81.3115 99.266 81.0463 99.7881 80.6442C100.141 80.3735 100.447 80.0469 100.694 79.6774C100.863 79.4128 100.942 79.254 100.952 79.2601C100.94 79.3007 100.923 79.3397 100.902 79.3761C100.85 79.4865 100.792 79.5938 100.728 79.6977C100.491 80.0822 100.189 80.4225 99.8349 80.7032C99.3092 81.1266 98.6831 81.407 98.0173 81.5174C97.6256 81.5832 97.2265 81.5908 96.8326 81.5398C96.41 81.4808 95.9984 81.3594 95.6113 81.1795C95.2291 80.9914 94.8772 80.7471 94.5672 80.4549C94.2815 80.1796 94.0374 79.8642 93.8425 79.5186C93.6652 79.2047 93.5284 78.8696 93.4354 78.5212C93.3635 78.2177 93.3259 77.907 93.3235 77.5951C93.3185 77.1437 93.3936 76.6951 93.5453 76.27C93.5851 76.1549 93.6327 76.0427 93.6878 75.9341C93.7068 75.8866 93.7314 75.8415 93.7611 75.7998Z" fill="#263238"/>
<path d="M33.5056 79.0566C33.7536 80.7304 33.4993 82.44 32.775 83.9691C32.0508 85.4983 30.889 86.7781 29.4369 87.6465C27.9848 88.515 26.3077 88.933 24.6179 88.8477C22.928 88.7624 21.3015 88.1776 19.9443 87.1673C18.5871 86.157 17.5601 84.7667 16.9936 83.1724C16.427 81.5781 16.3462 79.8515 16.7615 78.2113C17.1768 76.571 18.0695 75.0909 19.3265 73.9584C20.5836 72.8258 22.1484 72.0917 23.8229 71.8491C24.9319 71.6865 26.0621 71.7439 27.149 72.0181C28.2358 72.2924 29.258 72.778 30.1571 73.4473C31.0563 74.1166 31.8148 74.9565 32.3893 75.9189C32.9638 76.8814 33.3431 77.9476 33.5056 79.0566Z" fill="#FF5247"/>
<g opacity="0.3">
<path d="M31.4623 79.1421C31.4236 79.1421 31.3544 78.8714 31.1793 78.3931C30.9356 77.7203 30.5881 77.0898 30.1494 76.5245C29.8489 76.14 29.5077 75.7892 29.1317 75.4783C28.6968 75.1247 28.2179 74.8291 27.7068 74.599C27.4323 74.473 27.1486 74.3682 26.858 74.2855C26.5564 74.1938 26.2481 74.1258 25.936 74.082C25.6136 74.0382 25.2883 74.0192 24.963 74.025C24.628 74.0335 24.294 74.0662 23.9636 74.1227C23.6335 74.1827 23.3083 74.2671 22.9907 74.3751C22.683 74.4826 22.3837 74.6126 22.0951 74.7638C21.8165 74.9105 21.5497 75.0786 21.2972 75.2666C21.0533 75.4451 20.8227 75.641 20.6071 75.8528C19.8576 76.5896 19.2987 77.4978 18.9788 78.4989C18.7615 79.1806 18.6523 79.8922 18.6551 80.6077C18.6551 81.1165 18.6857 81.4015 18.6551 81.4076C18.6246 81.4137 18.5289 81.1389 18.4699 80.6178C18.3896 79.8743 18.4504 79.1222 18.649 78.4012C18.7838 77.8996 18.9778 77.4158 19.2271 76.9601C19.5171 76.4364 19.8758 75.9538 20.2937 75.5251C20.5198 75.2924 20.7634 75.0774 21.0224 74.8819C21.2919 74.6761 21.577 74.4917 21.8752 74.3303C22.1843 74.1631 22.5063 74.0209 22.838 73.9049C23.5222 73.6631 24.2415 73.5352 24.9671 73.5263C25.3184 73.5225 25.6696 73.5456 26.0174 73.5955C26.3533 73.6432 26.6848 73.718 27.0087 73.8194C27.3189 73.9143 27.6216 74.032 27.9144 74.1715C28.9289 74.6532 29.8023 75.3878 30.4506 76.3047C30.8831 76.9153 31.1992 77.6005 31.3829 78.3259C31.4887 78.8531 31.4908 79.1381 31.4623 79.1421Z" fill="black"/>
</g>
<g opacity="0.3">
<path d="M26.3365 84.0194L26.5156 85.139L25.5162 85.2998L25.3411 84.2087C24.3417 84.3064 23.3423 84.1497 22.7235 83.8017L23.0777 82.4928C23.7151 82.8053 24.4231 82.9456 25.1315 82.8999L24.8648 81.2309C23.7107 81.1393 22.4121 80.9662 22.1821 79.5374C22.0131 78.4769 22.638 77.4429 24.189 77.0113L24.0099 75.9L25.0114 75.7412L25.1844 76.8302C25.9066 76.7564 26.6361 76.8541 27.3135 77.1151L27.0102 78.426C26.4958 78.2281 25.947 78.1346 25.3961 78.1512L25.6688 79.8508C26.8209 79.9322 28.0992 80.1073 28.3251 81.5179C28.492 82.5559 27.8753 83.5778 26.3365 84.0194ZM24.6287 79.7592L24.4007 78.3344C23.8898 78.5379 23.727 78.8636 23.7799 79.1934C23.8328 79.5231 24.1667 79.69 24.6287 79.7592ZM26.7354 81.8944C26.6784 81.5443 26.3589 81.3998 25.9049 81.3184L26.1248 82.6984C26.6072 82.5173 26.7863 82.214 26.7354 81.8944Z" fill="black"/>
</g>
<path d="M18.6076 81.2347C18.6137 81.2513 18.6185 81.2683 18.6218 81.2856C18.632 81.3243 18.6442 81.3752 18.6585 81.4362L18.7114 81.6805C18.7332 81.7927 18.7618 81.9035 18.7969 82.0123C18.9991 82.7111 19.3162 83.3715 19.7352 83.9663C20.0242 84.3754 20.3581 84.7509 20.7306 85.0858L21.0501 85.3463C21.1051 85.3891 21.158 85.4359 21.215 85.4766L21.3941 85.5947C21.5142 85.672 21.6323 85.7595 21.7605 85.8328L22.1554 86.0364C22.7246 86.3176 23.3313 86.5157 23.9568 86.6246C24.6306 86.7312 25.3163 86.7388 25.9922 86.647C26.6656 86.5382 27.3196 86.3325 27.9341 86.0364C28.5007 85.7512 29.0236 85.3866 29.4871 84.9535L29.8047 84.6339C29.9085 84.5281 29.994 84.41 30.0876 84.3021L30.224 84.1373C30.2688 84.0803 30.3054 84.0213 30.3441 83.9643C30.4235 83.8482 30.4988 83.7343 30.5761 83.6223C30.8336 83.1931 31.0439 82.7372 31.203 82.2626C31.432 81.5716 31.5442 80.8472 31.5348 80.1193C31.5388 80.0051 31.534 79.8908 31.5206 79.7773C31.5206 79.6816 31.5063 79.5982 31.5023 79.527C31.4982 79.4557 31.5023 79.415 31.4921 79.3723C31.4894 79.3547 31.4894 79.3369 31.4921 79.3193C31.4983 79.3363 31.5017 79.3542 31.5023 79.3723C31.5023 79.413 31.5145 79.4638 31.5226 79.5249C31.5307 79.586 31.5409 79.6796 31.5531 79.7753C31.5687 79.8893 31.5762 80.0042 31.5755 80.1193C31.6019 80.8532 31.5 81.5861 31.2743 82.285C31.1194 82.7687 30.9097 83.2331 30.6494 83.6691L30.4194 84.0151C30.3787 84.0742 30.342 84.1352 30.2973 84.1922L30.1609 84.3591C30.0672 84.4711 29.9797 84.5912 29.8759 84.6991C29.7721 84.8069 29.6724 84.9148 29.5543 85.0227C29.0854 85.466 28.5548 85.839 27.9789 86.13C26.732 86.7559 25.3171 86.965 23.9425 86.7264C23.3056 86.6124 22.6886 86.4067 22.1106 86.1157L21.7035 85.898C21.5733 85.8247 21.4552 85.7351 21.3331 85.6557L21.1519 85.5356C21.0949 85.4929 21.042 85.444 20.985 85.4013L20.6634 85.1367C20.289 84.7941 19.9544 84.4103 19.666 83.9928C19.2482 83.3885 18.9383 82.7163 18.7501 82.0061C18.7151 81.8965 18.6893 81.7842 18.6727 81.6703C18.6564 81.5746 18.6422 81.4932 18.6279 81.422L18.6035 81.2693C18.6039 81.2577 18.6052 81.2461 18.6076 81.2347Z" fill="#263238"/>
<path d="M123.598 105.951C123.598 105.979 100.279 106 71.5212 106C42.7632 106 19.4385 105.979 19.4385 105.951C19.4385 105.924 42.7522 105.904 71.5212 105.904C100.29 105.904 123.598 105.926 123.598 105.951Z" fill="#263238"/>
<defs>
<radialGradient id="paint0_radial_742_22268" cx="0" cy="0" r="1" gradientUnits="userSpaceOnUse" gradientTransform="translate(65.9992 66.0002) rotate(90) scale(89.0898)">
<stop stop-color="#5C6CFF" stop-opacity="0"/>
<stop offset="0.520833" stop-color="#5C6CFF" stop-opacity="0.0625"/>
<stop offset="1" stop-color="#142DFF"/>
</radialGradient>
<radialGradient id="paint1_radial_742_22268" cx="0" cy="0" r="1" gradientUnits="userSpaceOnUse" gradientTransform="translate(66 66) rotate(90) scale(102.259)">
<stop stop-color="#5C6CFF" stop-opacity="0"/>
<stop offset="0.589355" stop-color="#5C6CFF" stop-opacity="0.0625"/>
<stop offset="1" stop-color="#142DFF"/>
</radialGradient>
</defs>
</svg>
