<svg xmlns="http://www.w3.org/2000/svg" width="20" height="20" viewBox="0 0 20 20">
  <path id="Icon_awesome-smile" data-name="Icon awesome-smile" d="M10,.563a10,10,0,1,0,10,10A10,10,0,0,0,10,.563Zm3.226,6.774a1.29,1.29,0,1,1-1.29,1.29A1.289,1.289,0,0,1,13.226,7.337Zm-6.452,0a1.29,1.29,0,1,1-1.29,1.29A1.289,1.289,0,0,1,6.774,7.337ZM14.629,14.2a6.023,6.023,0,0,1-9.258,0,.646.646,0,0,1,.992-.827,4.738,4.738,0,0,0,7.274,0A.646.646,0,0,1,14.629,14.2Z" transform="translate(0 -0.563)" fill="#f6465d"/>
</svg>
