<svg width="132" height="132" viewBox="0 0 132 132" fill="none" xmlns="http://www.w3.org/2000/svg">
<circle cx="65.9992" cy="66.0002" r="57.5002" fill="url(#paint0_radial_742_22420)"/>
<circle cx="66" cy="66" r="66" fill="url(#paint1_radial_742_22420)"/>
<path d="M66.0117 29.8037C65.934 29.8037 65.8252 29.8037 65.7319 29.8224C65.0167 29.9545 64.1616 30.6153 63.602 32.1249C63.0112 33.6329 62.8868 35.783 63.3998 38.0855C63.9284 40.36 65.0167 42.3205 66.2294 43.5176C67.4109 44.7147 68.4837 45.0412 69.1988 44.9168C69.9451 44.808 70.7691 44.1239 71.3288 42.6314C71.9195 41.1327 72.075 38.953 71.5464 36.6692C71.0023 34.3683 69.9295 32.4265 68.7169 31.2371C67.6908 30.1799 66.7424 29.8037 66.0117 29.8037ZM83.9528 49.9385C82.2427 49.9851 80.0816 50.436 77.9828 51.3221C75.5575 52.3793 73.6919 53.7941 72.6658 55.1311C71.6397 56.4215 71.5464 57.401 71.8729 57.9762C72.2149 58.5514 73.1633 59.0956 74.9823 59.1733C76.8013 59.2821 79.2577 58.8313 81.6674 57.8052C84.0772 56.7635 85.9739 55.3332 87 54.0273C88.0261 52.7369 88.1038 51.7264 87.7773 51.1511C87.4509 50.5603 86.487 50.0473 84.668 49.9851C84.4192 49.9385 84.2016 49.9385 83.9528 49.9385ZM62.7624 64.3815C61.7363 64.3971 60.8035 64.5214 59.964 64.7391C58.1295 65.2055 57.0723 66.045 56.7302 67.0556C56.3416 68.0661 56.7302 69.2788 57.9429 70.5847C59.2177 71.8596 61.3166 73.0878 63.9284 73.7718C66.5248 74.4559 69.0278 74.4403 70.8934 73.9428C72.7746 73.4609 73.8318 72.6058 74.1738 71.6108C74.5314 70.6003 74.1738 69.4032 72.9145 68.0817C71.6863 66.8068 69.5875 65.5786 66.9756 64.9101C65.4987 64.5214 64.0528 64.366 62.7624 64.3815ZM87.7462 73.4143L78.1383 77.9695C78.7912 78.0006 80.4237 78.0472 80.4237 78.0472L81.4498 79.3998L89.9539 74.9689L87.7462 73.4143ZM79.2732 73.4298L70.3493 77.6586C71.2044 77.7052 73.2255 77.7363 74.0339 77.7829L81.7762 74.1139L79.2732 73.4298ZM93.6696 75.1089L82.7091 80.9234L84.9634 83.8307L96.5458 76.8967L93.6696 75.1089ZM50.3249 76.5236C49.8542 76.5228 49.3848 76.5749 48.9257 76.6791C37.8097 79.2443 31.2489 79.462 29.3055 79.462H28.6992V96.1749C28.6992 96.1749 30.5027 95.9106 33.5032 95.895C39.3022 95.895 49.5165 96.89 59.4665 102.705C59.9951 103.031 61.13 103.155 62.5448 103.155C66.3227 103.155 72.0595 102.254 73.3809 101.756C86.6891 96.7657 102.702 83.0689 102.702 83.0689L97.6496 78.6536C97.6496 78.6536 85.2432 86.5669 83.673 87.3287C69.5098 94.2782 58.0362 89.9406 58.0362 89.9406C58.0362 89.9406 76.6769 90.407 82.6624 85.6963L79.1488 80.4103C79.1488 80.4103 66.276 80.0528 61.6897 79.4464C59.2955 79.1355 54.1184 76.5236 50.3249 76.5236Z" fill="white"/>
<path d="M66.0115 29.8042C65.9337 29.8042 65.8249 29.8042 65.7316 29.8229C65.0165 29.955 64.1614 30.6157 63.6017 32.1253C63.0109 33.6334 62.8866 35.7835 63.3996 38.086C63.9282 40.3605 65.0165 42.321 66.2291 43.5181C67.4107 44.7152 68.4834 45.0417 69.1986 44.9173C69.9448 44.8085 70.7688 44.1244 71.3285 42.6319C71.9193 41.1332 72.0748 38.9535 71.5462 36.6697C71.002 34.3688 69.9293 32.427 68.7166 31.2376C67.6905 30.1804 66.7422 29.8042 66.0115 29.8042ZM83.9526 49.939C82.2424 49.9856 80.0814 50.4365 77.9826 51.3226C75.5573 52.3798 73.6916 53.7946 72.6655 55.1316C71.6394 56.422 71.5462 57.4015 71.8726 57.9767C72.2147 58.5519 73.163 59.0961 74.982 59.1738C76.801 59.2826 79.2574 58.8318 81.6672 57.8057C84.0769 56.764 85.9737 55.3337 86.9998 54.0278C88.0259 52.7374 88.1036 51.7268 87.7771 51.1516C87.4506 50.5608 86.4867 50.0478 84.6677 49.9856C84.419 49.939 84.2013 49.939 83.9526 49.939ZM62.7622 64.382C61.7361 64.3976 60.8033 64.5219 59.9637 64.7396C58.1292 65.206 57.072 66.0455 56.73 67.0561C56.3413 68.0666 56.73 69.2793 57.9426 70.5852C59.2175 71.8601 61.3163 73.0883 63.9282 73.7723C66.5245 74.4564 69.0276 74.4408 70.8932 73.9433C72.7744 73.4614 73.8316 72.6063 74.1736 71.6113C74.5312 70.6008 74.1736 69.4036 72.9143 68.0822C71.6861 66.8073 69.5873 65.5791 66.9754 64.9106C65.4984 64.5219 64.0526 64.3665 62.7622 64.382Z" fill="white"/>
<path d="M83.9527 49.939C82.2425 49.9856 80.0815 50.4365 77.9827 51.3226C75.5574 52.3798 73.6918 53.7946 72.6657 55.1316C71.6396 56.422 71.5463 57.4015 71.8728 57.9767C72.2148 58.5519 73.1632 59.0961 74.9822 59.1738C76.8011 59.2826 79.2575 58.8318 81.6673 57.8057C84.0771 56.764 85.9738 55.3337 86.9999 54.0278C88.026 52.7374 88.1037 51.7269 87.7772 51.1516C87.4507 50.5608 86.4868 50.0478 84.6679 49.9856C84.4191 49.939 84.2014 49.939 83.9527 49.939Z" fill="#FF5247"/>
<path opacity="0.5" d="M87.9527 47.939C86.2425 47.9856 84.0815 48.4365 81.9827 49.3226C79.5574 50.3798 77.6918 51.7946 76.6657 53.1316C75.6396 54.422 75.5463 55.4015 75.8728 55.9767C76.2148 56.5519 77.1632 57.0961 78.9822 57.1738C80.8011 57.2826 83.2575 56.8318 85.6673 55.8057C88.0771 54.764 89.9738 53.3337 90.9999 52.0278C92.026 50.7374 92.1037 49.7269 91.7772 49.1516C91.4507 48.5608 90.4868 48.0478 88.6679 47.9856C88.4191 47.939 88.2014 47.939 87.9527 47.939Z" fill="#FF5247"/>
<path d="M66.0109 29.8042C65.9332 29.8042 65.8243 29.8042 65.731 29.8229C65.0159 29.955 64.1608 30.6157 63.6011 32.1253C63.0103 33.6334 62.886 35.7835 63.399 38.086C63.9276 40.3605 65.0159 42.321 66.2285 43.5181C67.4101 44.7152 68.4828 45.0417 69.198 44.9173C69.9442 44.8085 70.7682 44.1244 71.3279 42.6319C71.9187 41.1332 72.0742 38.9535 71.5456 36.6697C71.0014 34.3688 69.9287 32.427 68.716 31.2376C67.69 30.1804 66.7416 29.8042 66.0109 29.8042Z" fill="#FEAA34"/>
<path opacity="0.5" d="M70.0109 27.8042C69.9332 27.8042 69.8243 27.8042 69.731 27.8229C69.0159 27.955 68.1608 28.6157 67.6011 30.1253C67.0103 31.6334 66.886 33.7835 67.399 36.086C67.9276 38.3605 69.0159 40.321 70.2285 41.5181C71.4101 42.7152 72.4828 43.0417 73.198 42.9173C73.9442 42.8085 74.7682 42.1244 75.3279 40.6319C75.9187 39.1332 76.0742 36.9535 75.5456 34.6697C75.0014 32.3688 73.9287 30.427 72.716 29.2376C71.69 28.1804 70.7416 27.8042 70.0109 27.8042Z" fill="#FEAA34"/>
<path d="M62.7622 64.3819C61.7361 64.3975 60.8033 64.5218 59.9637 64.7395C58.1292 65.2059 57.072 66.0454 56.73 67.056C56.3413 68.0665 56.73 69.2792 57.9426 70.5851C59.2175 71.86 61.3163 73.0882 63.9282 73.7722C66.5245 74.4563 69.0276 74.4407 70.8932 73.9432C72.7744 73.4613 73.8316 72.6062 74.1736 71.6112C74.5312 70.6007 74.1736 69.4036 72.9143 68.0821C71.6861 66.8072 69.5873 65.579 66.9754 64.9105C65.4984 64.5218 64.0526 64.3664 62.7622 64.3819Z" fill="#474EFF"/>
<path opacity="0.5" d="M66.7622 62.3824C65.7361 62.3979 64.8033 62.5223 63.9637 62.74C62.1292 63.2064 61.072 64.0459 60.73 65.0565C60.3413 66.067 60.73 67.2797 61.9426 68.5856C63.2175 69.8604 65.3163 71.0887 67.9282 71.7727C70.5245 72.4568 73.0276 72.4412 74.8932 71.9437C76.7744 71.4618 77.8316 70.6067 78.1736 69.6117C78.5312 68.6011 78.1736 67.404 76.9143 66.0826C75.6861 64.8077 73.5873 63.5795 70.9754 62.911C69.4984 62.5223 68.0526 62.3669 66.7622 62.3824Z" fill="#474EFF"/>
<defs>
<radialGradient id="paint0_radial_742_22420" cx="0" cy="0" r="1" gradientUnits="userSpaceOnUse" gradientTransform="translate(65.9992 66.0002) rotate(90) scale(89.0898)">
<stop stop-color="#5C6CFF" stop-opacity="0"/>
<stop offset="0.520833" stop-color="#5C6CFF" stop-opacity="0.0625"/>
<stop offset="1" stop-color="#142DFF"/>
</radialGradient>
<radialGradient id="paint1_radial_742_22420" cx="0" cy="0" r="1" gradientUnits="userSpaceOnUse" gradientTransform="translate(66 66) rotate(90) scale(102.259)">
<stop stop-color="#5C6CFF" stop-opacity="0"/>
<stop offset="0.589355" stop-color="#5C6CFF" stop-opacity="0.0625"/>
<stop offset="1" stop-color="#142DFF"/>
</radialGradient>
</defs>
</svg>
