<svg xmlns="http://www.w3.org/2000/svg" width="14.998" height="15" viewBox="0 0 14.998 15">
  <path id="Union_8" data-name="Union 8" d="M22760.293,3644a2.17,2.17,0,0,1-.85-.643c-.172-.164-.342-.328-.508-.507a.23.23,0,0,0-.264-.064c-.357.1-.713.186-1.074.285a1.02,1.02,0,0,1-1.348-.785c-.092-.364-.2-.721-.293-1.085a.192.192,0,0,0-.16-.164c-.361-.093-.727-.2-1.09-.293a1.021,1.021,0,0,1-.785-1.335c.092-.364.193-.736.293-1.1a.2.2,0,0,0-.064-.236l-.531-.528a2,2,0,0,1-.617-.843v-.407a2.008,2.008,0,0,1,.611-.836c.18-.171.348-.357.531-.521a.232.232,0,0,0,.07-.264c-.1-.357-.2-.714-.293-1.071a1.024,1.024,0,0,1,.785-1.35c.359-.093.719-.193,1.078-.286a.229.229,0,0,0,.18-.186c.094-.364.193-.735.293-1.1a1.025,1.025,0,0,1,1.33-.764c.361.1.732.2,1.1.3a.213.213,0,0,0,.238-.064c.27-.279.549-.55.826-.829a1.019,1.019,0,0,1,1.5.007c.277.271.551.543.814.814a.227.227,0,0,0,.25.071c.365-.107.727-.2,1.088-.292a1.019,1.019,0,0,1,1.342.779c.1.364.2.721.293,1.085a.194.194,0,0,0,.172.171c.373.1.742.193,1.113.3a1.016,1.016,0,0,1,.756,1.335c-.1.357-.191.721-.293,1.086a.222.222,0,0,0,.068.25c.27.264.541.543.811.814a1.011,1.011,0,0,1,0,1.507c-.27.271-.533.542-.811.806a.235.235,0,0,0-.068.264c.107.386.215.772.309,1.157a1,1,0,0,1-.721,1.243c-.385.107-.773.207-1.156.307a.213.213,0,0,0-.18.178c-.1.371-.2.735-.3,1.107a1.019,1.019,0,0,1-1.322.764c-.363-.1-.729-.192-1.092-.293a.224.224,0,0,0-.258.064c-.2.207-.408.407-.609.614a1.676,1.676,0,0,1-.777.536Zm-3.066-7.519a3.273,3.273,0,1,0,3.289-3.256h-.014A3.283,3.283,0,0,0,22757.227,3636.482Zm2.451,1.385c-.371-.357-.736-.707-1.1-1.057a.441.441,0,1,1,.609-.635c.234.221.473.443.7.671.082.085.131.092.217,0,.557-.564,1.115-1.121,1.672-1.678a.544.544,0,0,1,.287-.165.436.436,0,0,1,.363.757c-.406.414-.82.821-1.236,1.235-.277.286-.562.564-.844.849a.435.435,0,0,1-.334.15h-.025A.419.419,0,0,1,22759.678,3637.867Z" transform="translate(-22753.002 -3629.001)" fill="#b1b2b4"/>
</svg>
