<svg xmlns="http://www.w3.org/2000/svg" xmlns:xlink="http://www.w3.org/1999/xlink" width="13.498" height="13.501" viewBox="0 0 13.498 13.501">
  <defs>
    <linearGradient id="linear-gradient" x1="0.212" y1="0.188" x2="0.803" y2="0.817" gradientUnits="objectBoundingBox">
      <stop offset="0" stop-color="#6fc9c0"/>
      <stop offset="1" stop-color="#ff8140"/>
    </linearGradient>
    <filter id="Union_1" x="0" y="0" width="13.498" height="13.501" filterUnits="userSpaceOnUse">
      <feOffset dy="0.3" input="SourceAlpha"/>
      <feGaussianBlur stdDeviation="0.25" result="blur"/>
      <feFlood flood-opacity="0.078"/>
      <feComposite operator="in" in2="blur"/>
      <feComposite in="SourceGraphic"/>
    </filter>
  </defs>
  <g transform="matrix(1, 0, 0, 1, 0, 0)" filter="url(#Union_1)">
    <path id="Union_1-2" data-name="Union 1" d="M22758.834,3641a1.735,1.735,0,0,1-.68-.514c-.137-.131-.273-.263-.406-.406a.184.184,0,0,0-.211-.052c-.285.08-.57.149-.857.229a.815.815,0,0,1-1.078-.628c-.074-.291-.16-.577-.234-.868a.153.153,0,0,0-.127-.131c-.291-.074-.582-.16-.873-.234a.819.819,0,0,1-.629-1.068c.074-.291.154-.588.234-.88a.162.162,0,0,0-.051-.189c-.139-.137-.281-.28-.424-.423a1.617,1.617,0,0,1-.5-.674v-.326a1.59,1.59,0,0,1,.49-.668c.143-.137.279-.286.424-.417a.187.187,0,0,0,.057-.211c-.08-.286-.154-.571-.234-.857a.822.822,0,0,1,.629-1.08c.285-.074.576-.154.861-.229a.186.186,0,0,0,.145-.149c.074-.291.154-.588.232-.88a.821.821,0,0,1,1.064-.611l.879.24a.168.168,0,0,0,.189-.051c.217-.223.439-.44.662-.663a.814.814,0,0,1,1.2.006q.334.326.652.651a.18.18,0,0,0,.2.057c.291-.086.582-.16.869-.234a.816.816,0,0,1,1.074.623c.08.291.16.577.234.868a.156.156,0,0,0,.137.137c.3.08.594.154.891.24a.815.815,0,0,1,.605,1.068c-.08.286-.154.577-.234.869a.179.179,0,0,0,.053.2c.217.211.434.434.65.651a.809.809,0,0,1,0,1.206c-.217.217-.428.434-.65.646a.185.185,0,0,0-.053.211c.086.309.172.617.246.926a.8.8,0,0,1-.576.994c-.309.086-.617.166-.926.246a.174.174,0,0,0-.143.143c-.08.3-.16.588-.24.885a.815.815,0,0,1-1.057.611c-.293-.08-.584-.154-.875-.234a.178.178,0,0,0-.205.052c-.16.166-.326.326-.486.491a1.348,1.348,0,0,1-.623.429Zm-2.451-6.016a2.617,2.617,0,1,0,2.629-2.605h-.01A2.625,2.625,0,0,0,22756.383,3634.987Zm1.961,1.108-.881-.846a.353.353,0,1,1,.486-.509c.188.177.377.354.559.537.064.069.1.074.172,0,.445-.451.893-.9,1.338-1.343a.42.42,0,0,1,.229-.131.35.35,0,0,1,.291.605c-.326.331-.656.657-.988.989-.223.229-.451.451-.674.68a.357.357,0,0,1-.27.12h-.02A.331.331,0,0,1,22758.344,3636.1Z" transform="translate(-22752.25 -3628.55)" fill="url(#linear-gradient)"/>
  </g>
</svg>
