<svg xmlns="http://www.w3.org/2000/svg" xmlns:xlink="http://www.w3.org/1999/xlink" width="13.498" height="13.502" viewBox="0 0 13.498 13.502">
  <defs>
    <linearGradient id="linear-gradient" x1="0.212" y1="0.188" x2="0.803" y2="0.817" gradientUnits="objectBoundingBox">
      <stop offset="0" stop-color="#744ec8"/>
      <stop offset="1" stop-color="#6fc9c0"/>
    </linearGradient>
    <filter id="P2P_Verified" x="0" y="0" width="13.498" height="13.502" filterUnits="userSpaceOnUse">
      <feOffset dy="0.3" input="SourceAlpha"/>
      <feGaussianBlur stdDeviation="0.25" result="blur"/>
      <feFlood flood-opacity="0.078"/>
      <feComposite operator="in" in2="blur"/>
      <feComposite in="SourceGraphic"/>
    </filter>
  </defs>
  <g transform="matrix(1, 0, 0, 1, 0, 0)" filter="url(#P2P_Verified)">
    <path id="P2P_Verified-2" data-name="P2P Verified" d="M22758.8,3641a1.728,1.728,0,0,1-.68-.513c-.137-.132-.273-.263-.406-.406a.185.185,0,0,0-.211-.052c-.285.08-.57.149-.857.229a.813.813,0,0,1-1.076-.628c-.076-.291-.162-.577-.236-.868a.16.16,0,0,0-.129-.131c-.289-.074-.58-.16-.871-.234a.82.82,0,0,1-.627-1.068c.072-.291.152-.588.232-.88a.16.16,0,0,0-.049-.189c-.141-.137-.283-.28-.426-.423a1.6,1.6,0,0,1-.5-.674v-.326a1.6,1.6,0,0,1,.49-.667c.143-.138.279-.287.424-.418a.192.192,0,0,0,.057-.211c-.08-.286-.154-.571-.234-.857a.818.818,0,0,1,.064-.685.828.828,0,0,1,.564-.395c.285-.074.576-.155.861-.229a.187.187,0,0,0,.146-.149c.072-.291.152-.588.23-.88a.833.833,0,0,1,.4-.543.82.82,0,0,1,.668-.068l.879.24a.168.168,0,0,0,.189-.052c.217-.222.439-.439.662-.663a.816.816,0,0,1,1.2.006q.331.326.65.651a.18.18,0,0,0,.2.057c.291-.086.582-.16.869-.234a.815.815,0,0,1,1.074.623c.08.291.16.577.234.868a.16.16,0,0,0,.137.137c.3.08.594.154.891.24a.815.815,0,0,1,.607,1.068c-.082.286-.156.577-.236.869a.184.184,0,0,0,.055.2c.215.211.432.434.648.651a.81.81,0,0,1,0,1.206c-.217.217-.428.434-.65.646a.19.19,0,0,0-.051.211c.084.309.17.617.244.926a.8.8,0,0,1-.576.994c-.309.086-.617.166-.926.246a.173.173,0,0,0-.143.143c-.08.3-.16.588-.24.885a.812.812,0,0,1-1.055.611c-.295-.08-.586-.154-.877-.234a.178.178,0,0,0-.205.052c-.16.166-.326.326-.486.491a1.331,1.331,0,0,1-.625.43Zm-2.451-6.016a2.615,2.615,0,1,0,2.629-2.6h-.01a2.626,2.626,0,0,0-2.57,2.611Zm1.961,1.108-.881-.846a.354.354,0,1,1,.488-.509c.186.177.375.354.557.537.064.069.1.074.172,0q.668-.676,1.338-1.343a.424.424,0,0,1,.229-.131.35.35,0,0,1,.291.6c-.326.331-.656.657-.988.989-.223.229-.451.451-.674.68a.35.35,0,0,1-.268.12h-.021a.334.334,0,0,1-.252-.094Z" transform="translate(-22752.21 -3628.55)" fill="url(#linear-gradient)"/>
  </g>
</svg>
