<svg xmlns="http://www.w3.org/2000/svg" width="13.746" height="10.691" viewBox="0 0 13.746 10.691">
  <path id="Icon_awesome-comments-dollar" data-name="Icon awesome-comments-dollar" d="M9.928,6.068c0-2.109-2.222-3.818-4.964-3.818S0,3.959,0,6.068a3.241,3.241,0,0,0,.906,2.2,5.342,5.342,0,0,1-.854,1.3.191.191,0,0,0,.138.322,4.2,4.2,0,0,0,2.118-.6,6.057,6.057,0,0,0,2.655.6C7.705,9.887,9.928,8.177,9.928,6.068ZM4.582,8.359V7.971A1.366,1.366,0,0,1,3.833,7.7a.191.191,0,0,1-.014-.29l.28-.268a.2.2,0,0,1,.242-.017.575.575,0,0,0,.306.089h.671A.3.3,0,0,0,5.6,6.9a.312.312,0,0,0-.209-.3L4.317,6.273a1.08,1.08,0,0,1-.754-1.035A1.063,1.063,0,0,1,4.582,4.162V3.777a.191.191,0,0,1,.191-.191h.382a.191.191,0,0,1,.191.191v.389a1.365,1.365,0,0,1,.749.271.191.191,0,0,1,.014.29l-.28.268a.2.2,0,0,1-.242.017.572.572,0,0,0-.306-.089H4.609a.3.3,0,0,0-.282.315.312.312,0,0,0,.209.3l1.074.322A1.08,1.08,0,0,1,6.364,6.9,1.063,1.063,0,0,1,5.346,7.975v.385a.191.191,0,0,1-.191.191H4.773A.191.191,0,0,1,4.582,8.359Zm8.257,2.959a3.239,3.239,0,0,0,.907-2.2A3.968,3.968,0,0,0,10.66,5.589a3.7,3.7,0,0,1,.032.479c0,2.527-2.569,4.582-5.728,4.582a7.117,7.117,0,0,1-.757-.045,5.159,5.159,0,0,0,4.576,2.336,6.057,6.057,0,0,0,2.655-.6,4.2,4.2,0,0,0,2.118.6.191.191,0,0,0,.138-.322A5.321,5.321,0,0,1,12.839,11.318Z" transform="translate(0 -2.25)" fill="gray"/>
</svg>
