<svg id="Group_12905" data-name="Group 12905" xmlns="http://www.w3.org/2000/svg" xmlns:xlink="http://www.w3.org/1999/xlink" width="20.066" height="21.799" viewBox="0 0 20.066 21.799">
  <defs>
    <clipPath id="clip-path">
      <rect id="Rectangle_21058" data-name="Rectangle 21058" width="20.066" height="21.799" fill="#f0b80c"/>
    </clipPath>
  </defs>
  <g id="Group_12904" data-name="Group 12904" clip-path="url(#clip-path)">
    <path id="Path_18574" data-name="Path 18574" d="M.193,46.274c.467.279.9.54,1.335.8,1.038.617,2.073,1.239,3.118,1.844a.612.612,0,0,1,.363.624C4.983,50.648,5,51.756,5,52.865a1.494,1.494,0,0,0,.629,1.229c.184.141.4.242.592.372.063.042.095.127.15.183s.1.1.147.1a.682.682,0,0,1,.415.124c.713.416,1.431.825,2.142,1.244a.275.275,0,0,1,.121.2q.008,2.64,0,5.28a.838.838,0,0,1-.015.1.955.955,0,0,1-.221-.051c-.553-.279-1.113-.546-1.652-.85-1.592-.9-3.175-1.81-4.762-2.717a6.128,6.128,0,0,1-1.478-1.035A4.178,4.178,0,0,1,.124,55.3a4.091,4.091,0,0,1-.118-1.2c0-2.291-.013-4.583,0-6.874a5.129,5.129,0,0,1,.187-.954" transform="translate(0 -39.924)" fill="#f0b80c"/>
    <path id="Path_18575" data-name="Path 18575" d="M79.358,62.093v-.334c0-1.669,0-3.338,0-5.006a.3.3,0,0,1,.174-.307c1.08-.612,2.155-1.234,3.229-1.856a1.475,1.475,0,0,0,.777-1.195c.029-.332.025-.667.027-1,0-.874.011-1.749,0-2.623a.435.435,0,0,1,.249-.423q1.165-.682,2.325-1.372l1.94-1.151c.31-.184.321-.186.359.172a12.147,12.147,0,0,1,.089,1.223c.009,2.126-.009,4.252.009,6.378a3.9,3.9,0,0,1-2.212,3.668c-1.145.635-2.272,1.3-3.413,1.948-1.006.568-2.018,1.125-3.031,1.679a4.253,4.253,0,0,1-.518.2" transform="translate(-68.466 -40.294)" fill="#f0b80c"/>
    <path id="Path_18576" data-name="Path 18576" d="M7.888,4.773a6.034,6.034,0,0,1,1.559-1.09Q12.13,2.145,14.812.606A4.241,4.241,0,0,1,16.436.025,3.8,3.8,0,0,1,18.01.181,11.349,11.349,0,0,1,20.162,1.3c1.559.875,3.108,1.77,4.659,2.66.207.119.408.251.606.385a2.4,2.4,0,0,1,.24.215l-.8.484L22.387,6.529c-.473.284-.945.57-1.422.848a.215.215,0,0,1-.181-.007c-1.054-.6-2.1-1.211-3.16-1.8a1.51,1.51,0,0,0-.537-.135,1.949,1.949,0,0,0-1.294.321c-.759.46-1.534.895-2.309,1.327a1.615,1.615,0,0,1-.377.069c-.051.013-.125.061-.132.1a.362.362,0,0,1-.52.253c-.384-.224-.763-.455-1.145-.682L7.98,4.836c-.029-.017-.056-.038-.092-.063" transform="translate(-6.806 0)" fill="#f0b80c"/>
    <path id="Path_18577" data-name="Path 18577" d="M52.084,73.774a1.733,1.733,0,0,1-.393-.09c-.808-.4-1.621-.783-2.412-1.212a1.172,1.172,0,0,1-.625-1.1c.007-.822,0-1.644.008-2.466a1.738,1.738,0,0,1,.088-.376,3.194,3.194,0,0,0,.38.254c.43.209.865.406,1.3.6.538.244,1.078.483,1.618.724q.017,1.832.035,3.665" transform="translate(-41.978 -59.124)" fill="#f0b80c"/>
    <path id="Path_18578" data-name="Path 18578" d="M73.427,73.771q-.018-1.833-.035-3.665c.229-.144.452-.3.69-.428.607-.33,1.226-.64,1.829-.978a1.489,1.489,0,0,1,.577-.177,2.009,2.009,0,0,1,.083.4c.007.9,0,1.79,0,2.686a.828.828,0,0,1-.484.776c-.609.343-1.208.7-1.811,1.06a3.552,3.552,0,0,1-.441.259,1.9,1.9,0,0,1-.412.072" transform="translate(-63.321 -59.121)" fill="#f0b80c"/>
    <path id="Path_18579" data-name="Path 18579" d="M55.753,57.517a1.488,1.488,0,0,0-.577.177c-.6.338-1.222.647-1.829.978-.237.129-.46.285-.69.428-.539-.241-1.079-.48-1.618-.724-.435-.2-.871-.395-1.3-.6a3.182,3.182,0,0,1-.38-.254,1.16,1.16,0,0,1,.231-.258c.435-.26.881-.5,1.322-.753.247-.141.488-.295.737-.433a3.759,3.759,0,0,1,.476-.227,1.182,1.182,0,0,1,1.051.1c.77.434,1.545.857,2.313,1.3a1.347,1.347,0,0,1,.264.274" transform="translate(-42.586 -48.114)" fill="#f0b80c"/>
  </g>
</svg>
