<svg id="Group_12928" data-name="Group 12928" xmlns="http://www.w3.org/2000/svg" xmlns:xlink="http://www.w3.org/1999/xlink" width="67.757" height="67.765" viewBox="0 0 67.757 67.765">
  <defs>
    <clipPath id="clip-path">
      <rect id="Rectangle_21082" data-name="Rectangle 21082" width="67.757" height="67.765" fill="none"/>
    </clipPath>
  </defs>
  <g id="Group_12927" data-name="Group 12927" clip-path="url(#clip-path)">
    <path id="Path_18587" data-name="Path 18587" d="M19.586,3.933l0,.111c-2.309-.259-3.693.951-4.605,2.889-.364.772-.743,1.542-1.032,2.344a7.619,7.619,0,0,1-4.506,4.635c-.877.36-1.726.787-2.581,1.2A4.56,4.56,0,0,0,3.992,19.8c.038.643.1,1.285.167,1.926s.2,1.271.224,1.909A9.447,9.447,0,0,1,4.295,25.7a7.149,7.149,0,0,1-1.5,2.966c-.648.854-1.282,1.72-1.887,2.6A4.858,4.858,0,0,0,0,33.778a4.382,4.382,0,0,0,.929,2.658c.681,1.013,1.379,2.021,2.151,2.965a7.146,7.146,0,0,1,1.378,5.843,19.875,19.875,0,0,0-.312,3.483,4.316,4.316,0,0,0,.68,2.259,5.793,5.793,0,0,0,2.558,1.944c1.09.518,2.188,1.018,3.276,1.538a5.291,5.291,0,0,1,2.4,2.077c.468.806.865,1.653,1.294,2.482.547,1.057,1.019,2.161,1.661,3.156A3.588,3.588,0,0,0,19.1,63.764a17.4,17.4,0,0,0,1.9-.083c.816-.067,1.63-.163,2.443-.254a5.651,5.651,0,0,1,3.362.406,20.689,20.689,0,0,1,1.786,1.125c1.162.772,2.293,1.593,3.482,2.321a3.193,3.193,0,0,0,2.282.434A6.911,6.911,0,0,0,37.1,66.468c1-.694,1.984-1.425,2.993-2.114a5.1,5.1,0,0,1,3.267-.987c.389.025.778.046,1.166.082.893.084,1.785.194,2.679.26a9.957,9.957,0,0,0,1.941.045,4.189,4.189,0,0,0,3.341-2.345,29.926,29.926,0,0,0,1.3-2.8,7.642,7.642,0,0,1,4.343-4.64c.226-.09.445-.2.665-.3.989-.475,2.011-.893,2.956-1.443a3.676,3.676,0,0,0,1.979-3.562c-.048-.9-.1-1.806-.169-2.708-.046-.6-.11-1.2-.2-1.794a4.841,4.841,0,0,1,.29-2.656,16.975,16.975,0,0,1,1.389-2.412c.629-.965,1.371-1.861,1.958-2.849a5.519,5.519,0,0,0,.711-1.964,4.222,4.222,0,0,0-.811-3.024c-.728-1.063-1.462-2.124-2.236-3.154a6.543,6.543,0,0,1-1.251-5.229,18.627,18.627,0,0,0,.3-4.09,4.693,4.693,0,0,0-.349-1.557,4.5,4.5,0,0,0-2.327-2.183c-.9-.445-1.825-.83-2.737-1.246a7.066,7.066,0,0,1-3.72-3.071c-.3-.592-.578-1.2-.873-1.791-.523-1.054-.99-2.144-1.6-3.149a3.392,3.392,0,0,0-3.028-1.753c-1.612.026-3.228.158-4.831.343a5.752,5.752,0,0,1-4.021-.883c-1.114-.75-2.178-1.573-3.28-2.34-2.23-1.553-3.986-1.535-6.2.054-.838.6-1.673,1.209-2.484,1.847a6.945,6.945,0,0,1-5.386,1.292c-1.1-.133-2.206-.275-3.309-.412" transform="translate(0 0)" fill="#f8f9fb"/>
    <path id="Path_18588" data-name="Path 18588" d="M19.586,3.932c1.1.138,2.205.279,3.309.412A6.947,6.947,0,0,0,28.28,3.052c.811-.637,1.646-1.245,2.484-1.847,2.21-1.589,3.966-1.607,6.2-.054,1.1.767,2.166,1.591,3.28,2.34a5.752,5.752,0,0,0,4.022.883c1.6-.185,3.218-.317,4.831-.343A3.392,3.392,0,0,1,52.12,5.784c.605,1.006,1.072,2.095,1.6,3.149.3.595.572,1.2.873,1.791a7.065,7.065,0,0,0,3.72,3.071c.913.415,1.84.8,2.737,1.246a4.5,4.5,0,0,1,2.327,2.183,4.685,4.685,0,0,1,.349,1.556,18.626,18.626,0,0,1-.3,4.09A6.544,6.544,0,0,0,64.67,28.1c.775,1.029,1.509,2.09,2.237,3.154a4.224,4.224,0,0,1,.811,3.024,5.533,5.533,0,0,1-.711,1.964c-.587.989-1.329,1.884-1.958,2.85A16.954,16.954,0,0,0,63.66,41.5a4.837,4.837,0,0,0-.29,2.656c.086.6.15,1.195.2,1.795.069.9.12,1.8.169,2.707a3.675,3.675,0,0,1-1.979,3.562c-.945.55-1.967.968-2.956,1.443-.22.106-.438.215-.665.3a7.641,7.641,0,0,0-4.343,4.64,29.8,29.8,0,0,1-1.3,2.8,4.188,4.188,0,0,1-3.341,2.346,9.982,9.982,0,0,1-1.941-.045c-.895-.067-1.786-.176-2.679-.26-.388-.037-.777-.057-1.166-.082a5.1,5.1,0,0,0-3.267.987c-1.008.689-1.988,1.419-2.993,2.114a6.915,6.915,0,0,1-2.746,1.244,3.193,3.193,0,0,1-2.282-.434c-1.188-.728-2.32-1.549-3.482-2.321a20.693,20.693,0,0,0-1.786-1.125,5.648,5.648,0,0,0-3.362-.406c-.814.091-1.627.187-2.443.254a17.4,17.4,0,0,1-1.9.083,3.589,3.589,0,0,1-3.083-1.579c-.643-.995-1.115-2.1-1.661-3.156-.429-.829-.826-1.676-1.294-2.483a5.292,5.292,0,0,0-2.4-2.077c-1.088-.521-2.186-1.021-3.276-1.539A5.8,5.8,0,0,1,4.83,50.986a4.317,4.317,0,0,1-.68-2.259,19.875,19.875,0,0,1,.312-3.483A7.146,7.146,0,0,0,3.084,39.4c-.772-.944-1.47-1.952-2.151-2.965A4.384,4.384,0,0,1,0,33.777a4.856,4.856,0,0,1,.9-2.506c.606-.884,1.24-1.75,1.887-2.6a7.154,7.154,0,0,0,1.5-2.966,9.468,9.468,0,0,0,.088-2.067c-.023-.638-.157-1.272-.224-1.909S4.03,20.442,3.992,19.8a4.56,4.56,0,0,1,2.872-4.69c.855-.41,1.705-.837,2.581-1.2a7.619,7.619,0,0,0,4.506-4.635c.289-.8.668-1.571,1.032-2.343.913-1.938,2.3-3.148,4.605-2.889l0-.111M11.733,33.855A22.165,22.165,0,1,0,34.15,11.711,22,22,0,0,0,11.733,33.855" transform="translate(0 0)" fill="#0f9138"/>
    <path id="Path_18589" data-name="Path 18589" d="M35.988,58.063A22.165,22.165,0,1,1,57.807,80.214,22.169,22.169,0,0,1,35.988,58.063m13.82-3.575a1.523,1.523,0,0,0-1.49.651,1.857,1.857,0,0,0,.267,2.661c.927.936,1.877,1.848,2.818,2.769,1.068,1.044,2.133,2.091,3.21,3.126a1.832,1.832,0,0,0,1.433.549,2.43,2.43,0,0,0,1.5-.794c2.724-2.69,5.469-5.36,8.194-8.049.8-.791,1.595-1.595,2.328-2.448A1.657,1.657,0,0,0,68.2,51a1.818,1.818,0,0,0-1.634-1.02,2.081,2.081,0,0,0-1.643.74q-4.349,4.293-8.7,8.585c-.262.26-.417.278-.686.007q-2.093-2.113-4.22-4.19a1.692,1.692,0,0,0-1.51-.637" transform="translate(-24.255 -24.208)" fill="#1fbf54"/>
    <path id="Path_18590" data-name="Path 18590" d="M74.378,83.558a1.692,1.692,0,0,1,1.51.637q2.122,2.082,4.22,4.19c.269.272.423.253.686-.007q4.34-4.3,8.7-8.585a2.081,2.081,0,0,1,1.643-.74,1.818,1.818,0,0,1,1.634,1.02,1.657,1.657,0,0,1-.126,1.95c-.733.853-1.526,1.657-2.328,2.448-2.725,2.689-5.47,5.359-8.194,8.049a2.43,2.43,0,0,1-1.5.794,1.832,1.832,0,0,1-1.433-.549c-1.076-1.035-2.142-2.082-3.21-3.126-.942-.921-1.892-1.833-2.818-2.769a1.857,1.857,0,0,1-.267-2.661,1.523,1.523,0,0,1,1.49-.651" transform="translate(-48.826 -53.279)" fill="#ebeae9"/>
  </g>
</svg>
