<svg id="Group_458" data-name="Group 458" xmlns="http://www.w3.org/2000/svg" xmlns:xlink="http://www.w3.org/1999/xlink" width="13.943" height="14.01" viewBox="0 0 13.943 14.01">
  <defs>
    <clipPath id="clip-path">
      <rect id="Rectangle_17078" data-name="Rectangle 17078" width="13.943" height="14.01" fill="gray"/>
    </clipPath>
  </defs>
  <g id="Group_457" data-name="Group 457" clip-path="url(#clip-path)">
    <path id="Path_439" data-name="Path 439" d="M62.768,14.01c.165-.144.326-.275.476-.418a4.346,4.346,0,0,0,1.318-2.35c.029-.145.05-.291.07-.438.008-.057.026-.08.09-.08,1.11,0,2.22,0,3.33.005a.419.419,0,0,0,.41-.573.4.4,0,0,0-.38-.251H64.643a4.41,4.41,0,0,0-.466-1.636c.023,0,.041-.006.06-.006,1.267,0,2.534,0,3.8,0a.42.42,0,0,0,.424-.573.4.4,0,0,0-.38-.252q-2.181,0-4.362,0a.186.186,0,0,1-.157-.072,4.42,4.42,0,0,0-1.378-1.091,4.5,4.5,0,0,0-2.348-.47c-.1.006-.1.006-.1-.091,0-1.468,0-2.937,0-4.405a1.279,1.279,0,0,1,.4-.982A1.217,1.217,0,0,1,60.92.005c.05,0,.1,0,.15,0h5.682c.1,0,.095,0,.094.1q0,1.488,0,2.976a.434.434,0,0,0,.251.446.45.45,0,0,0,.178.036q1.521,0,3.042,0c.07,0,.088.018.088.087q0,4.552,0,9.1a1.223,1.223,0,0,1-1.033,1.241,1.659,1.659,0,0,1-.265.02H62.768Zm2.308-9.03h-3a.411.411,0,1,0,0,.821h5.981a.41.41,0,0,0,.435-.416.42.42,0,0,0-.436-.409c-.993.007-1.987,0-2.98,0" transform="translate(-56.459 0)" fill="gray"/>
    <path id="Path_440" data-name="Path 440" d="M7.378,124.411a3.689,3.689,0,1,1-3.7-3.685,3.687,3.687,0,0,1,3.7,3.685m-4.1-.821h0c0,.28,0,.561,0,.841a.407.407,0,0,0,.386.4c.378,0,.756,0,1.135,0a.41.41,0,0,0-.011-.82H4.194c-.093,0-.092,0-.093-.093,0-.39,0-.78,0-1.169a.369.369,0,0,0-.258-.353.409.409,0,0,0-.564.376c-.006.273,0,.547,0,.821" transform="translate(0 -114.102)" fill="gray"/>
    <path id="Path_441" data-name="Path 441" d="M204.338,4.785l2.469,2.471c-.022,0-.043,0-.064,0-.775,0-1.549,0-2.324,0-.066,0-.084-.018-.084-.084q0-1.173,0-2.346c0-.013,0-.026,0-.046" transform="translate(-193.123 -4.522)" fill="gray"/>
  </g>
</svg>
