<svg enable-background="new 0 0 23 23.6" viewBox="0 0 23 23.6" xmlns="http://www.w3.org/2000/svg">
    <g transform="translate(.513)">
        <path d="m11 23.1c-6 0-11-4.9-11-10.9s4.9-11 10.9-11c1.2 0 2.3.2 3.4.6-1.5 2.5-.7 5.7 1.7 7.2 1.6 1 3.7 1 5.3.1 1.7 5.8-1.6 11.9-7.4 13.6-.8.2-1.8.4-2.9.4z"
              fill="#ffff"/>
        <path d="m10.4 23.1c-.4 0-.7-.1-1.1-.1-.1 0-.3-.1-.4-.1-.6-.1-1.3-.3-1.9-.5-.4-.2-.9-.4-1.3-.6-.3-.1-.6-.3-.8-.5-.2-.1-.3-.2-.5-.3-.1-.1-.2-.2-.4-.3s-.4-.3-.6-.5c0-.1.1-.1.1-.2 0 0 .1 0 .1-.1.4-.4.8-.8 1.2-1.3l.7-.7.1-.1s.1-.1.2 0l.1.1c.1.1.2.2.3.3.2.2.5.3.7.5l.1.1c.5.3 1 .5 1.5.6.1 0 .1 0 .2.1.1.1.3.1.5.1.1 0 .2 0 .4.1.1 0 .3.1.4.1h.1c.1 0 .1 0 .1.1v.1.7.3 1.1.2.7c.3.1.3.1.2.1zm1 0c0-.7 0-1.4 0-2.1v-.1c0-.3 0-.7 0-1 0-.1 0-.2.2-.2.6 0 1.3-.2 1.9-.4.4-.1.8-.3 1.1-.5l.2-.1c.4-.2.8-.5 1.2-.8 0 0 .1-.1.1-.1s.1 0 .1.1c.4.4.8.9 1.2 1.3l.7.7.2.2c-.6.6-1.2 1.1-1.9 1.5-.4.2-.8.4-1.2.6-.6.3-1.3.5-1.9.6-.6.2-1.3.2-1.9.3zm7.6-3.5-.9-.9-.7-.7-.4-.3-.3-.3c-.1-.1-.1-.2 0-.2.3-.4.6-.7.8-1.2.1-.1.1-.2.2-.4.2-.3.3-.6.4-.9.2-.6.3-1.2.4-1.9 0-.1.1-.2.2-.2h1.1 1.4.4s.2 0 .3 0c0 .7-.1 1.4-.3 2.1-.2 1-.6 2-1.2 3-.4.6-.8 1.3-1.4 1.9zm-16.1-.1c-.5-.6-1-1.2-1.4-1.9-.2-.3-.3-.6-.5-.9v-.1c-.2-.3-.3-.6-.4-1 0-.1-.1-.2-.1-.3s-.1-.2-.1-.2c0-.1-.1-.2-.1-.3s0-.3 0-.4v-.1c-.1-.2-.1-.4-.1-.6 0-.1 0-.2-.1-.3 0-.2 0-.4 0-.6 0-.1 0-.2 0-.3.1 0 .2-.1.3-.1h2.8c.3 0 .3 0 .3.2.1.8.3 1.5.6 2.2s.7 1.4 1.2 2c.1.1.1.2 0 .3-.4.3-.7.7-1.1 1-.2.2-.4.4-.6.6l-.1.1-.1.1h-.1zm17.7-7.7c-.2 0-.4 0-.6 0h-.1-.6c-.2 0-.4 0-.6 0-.1 0-.2 0-.2-.1 0-.4-.1-.7-.2-1.1s-.2-.7-.3-1.1c.3 0 .5.1.8.1.9 0 1.8-.2 2.6-.7v.1c.1.3.2.6.3 1 .1.3.1.6.2.9v.4.1.3c-.4.1-.8.1-1.3.1zm-20.6-.1c0-.2 0-.3 0-.5 0-.2 0-.3 0-.5 0-.1 0-.3.1-.4 0-.1 0-.1 0-.2 0-.3.1-.5.2-.8.2-.5.3-1.1.6-1.6.3-.6.6-1.3 1-1.8.3-.5.6-.9 1-1.3.1 0 .2.1.2.2l.2.2.4.4c.5.4.9.8 1.3 1.2.1.1.1.1.2.1s.1.1.1.1c0 .1 0 .1-.1.2-.8 1-1.4 2.1-1.7 3.4v.1c-.1.3-.1.6-.1.9 0 .1-.1.1-.2.1h-2.4c-.1 0-.2 0-.2 0-.3.1-.4.2-.6.2zm5.9-5.3c-.1 0-.1 0-.2-.1-.2-.2-.5-.4-.7-.6l-.1-.1c-.3-.3-.7-.7-1-1-.1-.2-.2-.3-.3-.4l-.2-.1c.6-.5 1.2-1 1.8-1.4.8-.4 1.5-.7 2.2-1 .6-.1 1.1-.3 1.7-.4.3 0 .6-.1.9-.1h.2.1.1v2.1 1.1c0 .1-.1.2-.2.2s-.1 0-.2 0h-.1c-.5.1-1.1.2-1.6.4-.7.3-1.3.6-1.9 1h-.1c-.1.2-.2.2-.3.3 0 .1-.1.1-.1.1zm7.7-1.3c-.2-.1-.3-.1-.5-.2-.5-.2-1-.3-1.6-.3-.2 0-.2 0-.2-.2v-2.9c0-.1 0-.2 0-.3h.1c.7 0 1.3.1 1.9.3.3.1.7.2.9.3-.4.8-.7 1.7-.7 2.6.1.1.1.4.1.7z"
              fill="#f0b80c"/>
        <g fill="#f0b80c" transform="translate(15.759)">
            <path d="m2.9 7.7c.3 0 .6-.2.6-.6v-5.7c0-.3-.2-.6-.6-.6-.3 0-.6.2-.6.6v5.8c.1.3.3.5.6.5z"/>
            <path d="m5.3 4.3c.1 0 .3-.1.4-.2.2-.2.2-.6 0-.8l-2.4-2.3c-.2-.2-.6-.2-.8 0l-2.3 2.4c-.2.2-.2.6 0 .8s.6.2.8 0l2-2 2 2c0 .1.1.1.3.1z"/>
        </g>
    </g>
</svg>