<svg xmlns="http://www.w3.org/2000/svg" width="12.82" height="13.179" viewBox="0 0 12.82 13.179">
  <path id="Icon_material-settings" data-name="Icon material-settings" d="M14.713,10.235a4.543,4.543,0,0,0,0-1.292L16.1,7.857a.332.332,0,0,0,.079-.422l-1.318-2.28a.331.331,0,0,0-.4-.145l-1.641.659a4.814,4.814,0,0,0-1.114-.646l-.25-1.746A.321.321,0,0,0,11.135,3H8.5a.321.321,0,0,0-.323.277l-.25,1.746a5.063,5.063,0,0,0-1.114.646L5.172,5.01a.321.321,0,0,0-.4.145L3.452,7.435a.325.325,0,0,0,.079.422l1.39,1.087a5.226,5.226,0,0,0-.046.646,5.226,5.226,0,0,0,.046.646l-1.39,1.087a.332.332,0,0,0-.079.422l1.318,2.28a.331.331,0,0,0,.4.145l1.641-.659a4.814,4.814,0,0,0,1.114.646l.25,1.746a.321.321,0,0,0,.323.277h2.636a.321.321,0,0,0,.323-.277l.25-1.746a5.063,5.063,0,0,0,1.114-.646l1.641.659a.321.321,0,0,0,.4-.145l1.318-2.28a.332.332,0,0,0-.079-.422l-1.39-1.087ZM9.817,11.9A2.306,2.306,0,1,1,12.124,9.59,2.309,2.309,0,0,1,9.817,11.9Z" transform="translate(-3.406 -3)" fill="gray"/>
</svg>
