<svg xmlns="http://www.w3.org/2000/svg" xmlns:xlink="http://www.w3.org/1999/xlink" width="200.087" height="199.427" viewBox="0 0 200.087 199.427">
  <defs>
    <clipPath id="clip-path">
      <rect id="Rectangle_21086" data-name="Rectangle 21086" width="200.087" height="199.427" fill="none"/>
    </clipPath>
  </defs>
  <g id="Group_12937" data-name="Group 12937" clip-path="url(#clip-path)">
    <path id="Path_18591" data-name="Path 18591" d="M160.049,79.655a10.01,10.01,0,0,1-2.135.137c-5.564-.009-11.129-.027-16.693.024-.935.009-1.143-.268-1.13-1.148.041-2.627-.023-5.255-.022-7.883,0-.783-.28-1.024-1.1-1-2.634.069-5.271.05-7.907.02-.7-.008-.96.171-.947.923.045,2.627-.026,5.257.031,7.884.02.958-.292,1.219-1.231,1.2-2.635-.056-5.271.014-7.907-.027-.746-.011-.926.208-.915.938.041,2.692-.019,5.386.013,8.079.009.746-.248.951-.963.915-2.7-.131-5.4-.028-8.1-.01-.755.005-.937.26-.935.948.009,2.66-.058,5.321-.024,7.981.01.811-.133,1.108-1.042,1.1q-8.932-.069-17.865,0c-.837,0-1.033-.269-1.026-1.047.023-2.693-.04-5.386-.021-8.079,0-.708-.162-.918-.926-.926q-9.079-.1-18.156.021c-.8.012-.962.263-.954,1.014.03,2.725,0,5.451-.051,8.176-.013.644.172.837.814.83,2.734-.03,5.467.012,8.2-.028.742-.01,1.027.161,1.022.961-.02,2.595.053,5.191.066,7.786.007,1.279-.016,1.228-1.278,1.224-5.988-.02-11.975,0-17.962-.022-.787,0-.8.422-.8.994.014,2.725-.007,5.451.022,8.176.006.622-.144.85-.819.837-2.765-.052-5.531-.07-8.3-.033-.777.011-.908-.275-.9-.959.033-2.66-.015-5.322.03-7.982.012-.777-.161-1.083-1-1.065-2.7.056-5.4.052-8.1.031-.7,0-.94.181-.948.936-.029,2.823-.051,5.645.049,8.467.016.475.055.64.641.63,2.894-.046,5.788,0,8.683,0,.5,0,.676.208.673.7q-.023,4.234,0,8.469c0,.5-.169.707-.672.711q-4.343.033-8.686.094c-.717.011-.646-.458-.647-.922,0-2.563.009-5.127-.027-7.69-.02-1.395-.059-1.386-1.482-1.386-2.538,0-5.077-.028-7.615-.009-.647,0-.9-.122-.885-.864.053-2.66-.037-5.322.032-7.981.026-1.009-.369-1.168-1.247-1.167q-13.667.027-27.334,0c-1.436,0-1.436,0-1.436-1.456,0-2.5.04-5-.022-7.5-.02-.846.257-.991,1.038-.989,9.241.027,18.483.017,27.725.017,1.335,0,1.334,0,1.323-1.285-.023-2.627-.066-5.256-.051-7.883,0-.665-.23-.814-.85-.826-6.084-.118-12.168-.144-18.251.027-.789.023-.917-.274-.914-.954.014-3.049-.014-6.1-.027-9.148l-.025.027a9.973,9.973,0,0,0,1.062.11q12.735,0,25.471-.012c.943,0,1.886-.013,2.829-.007.394,0,.709-.027.7-.553-.037-2.886-.07-5.772-.08-8.658,0-.687-.357-.762-.931-.757-2.732.021-5.465-.013-8.2.014-.646.006-.822-.184-.813-.833.035-2.724-.023-5.45.02-8.174.012-.791-.266-1.008-1.01-1-2.667.027-5.335.034-8-.012-.809-.014-1.065.233-1.049,1.041.051,2.692.021,5.385.049,8.077.007.649-.161.951-.891.886A19.527,19.527,0,0,0,17,69.8c-2.306.062-4.616-.129-6.919.1l.033.038c.007-3.017-.027-6.036.048-9.051.023-.917-.318-1.094-1.115-1.09-2.668.018-5.337-.041-8-.006-.74.009-.922-.209-.922-.929Q.151,29.86.123.851C.122.157.323,0,.994,0q39.049.025,78.1,0c.684,0,.986.127.982.9-.015,2.6.052,5.191.07,7.787.009,1.334-.009,1.286-1.316,1.282-5.955-.019-11.91,0-17.864-.021-.723,0-.864.3-.862.936q.018,9-.014,18.008c0,.793.215,1.07,1.051,1.054,2.6-.049,5.207.034,7.808-.03.99-.025,1.2.344,1.181,1.236-.049,2.692-.026,5.386-.022,8.079a3.1,3.1,0,0,0,.1.558c-3.022.018-6.045.066-9.066.034-.837-.009-1.041.266-1.038,1.061.022,5.967-.012,11.935.012,17.9,0,.8-.219,1.045-1.041,1.037-4.52-.046-9.041-.034-13.562-.037-1.529,0-3.058.026-4.586.017-.534,0-.826.1-.834.747-.036,2.918-.053,5.835.045,8.753.014.412.1.56.559.535,2.924-.155,5.848.006,8.772.033.718.006.666.42.665.892,0,2.724.02,5.449-.018,8.173-.01.725.193.942.935.922,2.665-.07,5.332-.086,8-.091,6.6-.014,13.2-.027,19.807,0,.976,0,1.318-.241,1.307-1.292-.062-5.708-.039-11.416-.043-17.124,0-1.544,0-1.543-1.505-1.547l-8.364-.019.018.017a1.257,1.257,0,0,1-.155-.747c.02-6.434-.1-12.869.062-19.3a12.121,12.121,0,0,0,3.3.159c1.919.031,3.84.043,5.758-.008.761-.02.944.268.929.961-.057,2.724-.049,5.451-.123,8.175-.018.663.186.829.814.828q9.273-.026,18.546,0c.652,0,.732-.25.727-.8-.022-2.725.02-5.451-.028-8.176-.013-.783.235-.994.994-.986q4.1.042,8.2-.034c.7-.012.857.2.841.881-.062,2.724-.029,5.451-.089,8.175-.016.724.173.95.916.938,2.7-.042,5.4,0,8.1-.03.722-.009,1.028.13,1.016.951-.037,2.692,0,5.385.046,8.078.013.762-.249.961-1.017.958-9.306-.033-18.611-.017-27.917-.043-.815,0-1.1.171-1.115,1.07-.07,6.034-.038,12.069-.033,18.1,0,.737.255.848.9.844,2.8-.017,5.6.04,8.392.014.7-.007.794.292.79.871-.019,2.725.014,5.451-.023,8.175-.01.7.146.956.91.937,2.667-.065,5.335-.059,8-.063.842,0,1.185-.206,1.169-1.215-.083-5.449-.043-10.9-.059-16.351-.007-2.4-.022-2.4,2.394-2.395,2.278,0,4.556-.028,6.833.016.619.012.769-.143.76-.751-.039-2.66-.023-5.321-.027-7.981,0-1.233,0-1.239,1.291-1.238,5.434,0,10.868,0,16.3.03.726,0,1.495-.25,2.18.221.358.262.232.644.218.982-.116,2.726-.027,5.45.041,8.175.009.353-.017.647.487.616,2.892-.176,5.785-.046,8.677.031.633.016.843-.161.835-.813-.034-2.79-.041-5.581,0-8.372.012-.744-.23-.94-.94-.929-2.734.041-5.467.034-8.2.039a2.191,2.191,0,0,0-1.121.276,3.693,3.693,0,0,0,.25-1.523q0-18.784.023-37.57c0-.9-.285-1.062-1.119-1.047-2.667.051-5.336-.021-8,.017-.755.011-.912-.229-.9-.944q.053-4.135-.032-8.271c-.016-.788.439-.746.931-.748,2.7-.011,5.4-.045,8.1,0,.776.014,1.015-.192,1.011-.965-.016-2.724.057-5.45.034-8.175-.006-.712.229-.858.887-.858q29.137.022,58.273,0c.662,0,.8.214.8.826q-.021,33.969,0,67.938c0,.747-.2,1.026-.978,1.017-2.765-.031-5.531-.015-8.3.016-.616.007-.753-.211-.746-.8.035-2.724-.012-5.45.041-8.175.016-.829-.266-1.044-1.056-1.042q-14.006.034-28.013,0c-.8,0-.986.271-.983,1.016.024,5.84.014,11.68.009,17.52,0,.452-.04.9-.061,1.356ZM50.125,29.9c0-6.295-.016-12.59.02-18.884,0-.839-.188-1.107-1.067-1.1Q30.19,9.966,11.3,9.936c-.93,0-1.2.248-1.2,1.2q.029,18.834-.045,37.67c0,.882.234,1.071,1.083,1.069q18.986-.041,37.972,0c.79,0,1.036-.162,1.03-1-.038-6.327-.02-12.654-.021-18.981m99.979,0c0,6.3.022,12.591-.023,18.886-.007.92.273,1.093,1.131,1.092q18.841-.04,37.684-.019c1.25,0,1.243,0,1.242-1.264q-.016-18.789-.01-37.576c0-.891-.287-1.086-1.113-1.085q-18.988.025-37.976-.017c-.816,0-.951.275-.948,1,.024,6.327.014,12.655.014,18.983M50.143,99.706c3.089,0,6.178-.018,9.267.014.68.007.88-.175.859-.872-.087-2.819-.123-5.64-.138-8.46,0-.578-.188-.683-.737-.684q-9.217-.014-18.435-.1c-.655-.005-.936.141-.931.851.022,2.788.021,5.577-.03,8.365-.014.773.291.9.975.894,3.056-.031,6.113-.014,9.17-.014" transform="translate(-0.025 0)"/>
    <path id="Path_18592" data-name="Path 18592" d="M189.835,142.114a1.654,1.654,0,0,0-.173,1.035q.014,8.761.03,17.522c0,1.291-.008,1.287,1.336,1.289,2.6,0,5.207.031,7.81,0,.691-.008.907.223.9.893-.041,2.725-.046,5.45-.054,8.175,0,.634-.224.911-.926.9-2.7-.038-5.4.012-8.1-.031-.789-.012-1.061.179-1.052,1.018.066,5.743.08,11.487.106,17.23.008,1.693,0,1.7-1.649,1.7-9.112.005-18.224.019-27.335-.01-.834,0-1.033.25-1.044,1.04-.04,2.758-.082,5.514.021,8.272.018.465.084.689.646.687q14.254-.043,28.506-.023c.762,0,.844-.283.839-.906-.024-2.628.018-5.257-.023-7.885-.014-.882.166-1.254,1.18-1.219,2.6.091,5.206.058,7.808.037.741-.005,1.033.231,1.022,1.007-.039,2.692,0,5.386-.036,8.078-.009.691.124.97.905.956,6.116-.111,12.234-.1,18.352-.009.684.01.807.262.805.857q-.022,9.15.005,18.3c0,.63-.214.746-.784.741-2.766-.026-5.532-.033-8.3,0-.68.009-.9-.2-.894-.875.012-2.758-.029-5.517-.037-8.275,0-.53.015-.891-.751-.9-6.117-.057-12.234-.077-18.351.026-.723.012-.937.2-.929.942.031,2.725-.034,5.451-.018,8.177,0,.667-.177.911-.876.9-2.7-.034-5.4-.039-8.1,0-.708.012-.877-.244-.88-.883-.014-2.79-.079-5.58-.084-8.37,0-.577-.1-.763-.745-.773-6.085-.1-12.17-.119-18.253.029-.848.02-1.022-.272-1.01-1.061.038-2.627-.026-5.256-.006-7.884.005-.747-.217-1.018-1-1-2.6.046-5.207-.005-7.809.032-.84.012-1.214-.158-1.189-1.126.066-2.659-.023-5.321.025-7.982.015-.787-.3-.911-.962-.908-2.669.016-5.338-.027-8.005.01-.79.011-1.075-.193-1.065-1.029.064-5.84-.087-11.682.1-17.521.007-.227-.018-.456.007-.68.074-.66-.308-.722-.837-.72-3.026.009-6.052,0-9.078-.01l.019.03c-.062-3.079-.116-6.158-.193-9.237-.015-.608.238-.755.818-.751,2.765.023,5.531-.017,8.3.013.676.008.909-.184.9-.87q-.05-4.185-.009-8.37c.007-.629-.2-.728-.787-.729q-9.174-.008-18.347-.1c-.707-.008-.871.177-.862.848.034,2.757.008,5.515.02,8.273,0,.5,0,.857-.69.851-2.925-.023-5.85.018-8.775,0-.442,0-.54.094-.549.522-.137,6.227-.065,12.456-.084,18.684,0,.729.3.835.939.836,3.056.007,6.115-.066,9.167.159l-.032-.016c.006,2.92.048,5.839,0,8.758-.016.914.261,1.161,1.165,1.135,2.6-.076,5.2-.033,7.8-.079.808-.014,1.047.275,1.035,1.078-.042,2.659-.031,5.32.017,7.979.014.749-.252.949-.955.937-2.732-.048-5.465-.077-8.2-.061-.709,0-.871-.256-.864-.91.03-2.66-.012-5.32.027-7.979.012-.776-.173-1.093-1.022-1.076-2.7.055-5.4.051-8.1.022-.672-.007-.9.177-.909.869-.019,2.692-.163,5.385.027,8.075.055.783-.162,1.085-1.016,1.08q-9.027-.052-18.055-.005c-.729,0-.971-.238-.963-.949.029-2.692.04-5.385.006-8.077-.009-.771.249-1.015,1.015-1.006,2.7.03,5.4-.019,8.1.011.733.009.95-.23.938-.951-.042-2.66-.053-5.321-.013-7.98.012-.8-.221-1.08-1.04-1.068-2.7.041-5.4-.005-8.1.032-.682.009-.916-.186-.9-.874.055-2.789.089-5.579.073-8.368,0-.653.243-.734.794-.73,2.732.022,5.466-.016,8.2.027.78.012,1.08-.162,1.055-1.008-.081-2.691-.049-5.385-.123-8.075-.021-.756.21-.919.937-.907,2.6.045,5.2,0,7.807.021.874.008,1.291-.269,1.279-1.219-.036-2.692,0-5.385.007-8.077,0-.4-.04-.688-.567-.687q-9.611.027-19.223.031a1.562,1.562,0,0,0-.287.054l.023.022c.015-2.984.065-5.97.025-8.953-.012-.916.281-1.165,1.172-1.149,2.667.047,5.337-.013,8.005.013.7.006.888-.247.878-.911-.039-2.758-.012-5.516-.059-8.274-.009-.566.175-.78.7-.778,2.9.015,5.792.037,8.688.045.523,0,.669.239.638.726-.177,2.852-.023,5.708-.077,8.562-.009.484.134.627.589.63,2.929.02,5.857.035,8.785.1.674.014.72-.3.717-.828-.016-2.726.027-5.453-.029-8.177-.016-.8.269-.972.993-.97,2.635,0,5.271-.026,7.906-.077.834-.016,1.192.192,1.161,1.143-.085,2.625-.023,5.256-.071,7.882-.013.734.223.938.947.936q14.155-.027,28.311.009c.6,0,.79-.149.786-.755-.023-2.79-.024-5.581.012-8.371.009-.7-.253-.889-.911-.887-9.209.02-18.418.013-27.627.035-1.439,0-1.458.052-1.461-1.45,0-2.5.045-5,.015-7.493-.01-.844.278-1.047,1.115-1.042,5.955.041,11.91,0,17.865.043.888.006,1.09-.259,1.065-1.1-.08-2.692-.07-5.385-.117-8.078-.01-.542.061-.833.729-.822,2.8.043,5.6.057,8.395.019.763-.01.939.262.921.957-.07,2.692-.077,5.385-.149,8.078-.02.711.183.943.929.941q14.2-.037,28.409,0c.777,0,.9-.259.876-.951-.074-2.594-.067-5.191-.127-7.786-.02-.88.13-1.269,1.215-1.257,5.921.067,11.845.006,17.767.029.869,0,1.1-.277,1.077-1.127-.072-2.724-.024-5.45-.094-8.174-.022-.854.533-.684.964-.686q3.563-.007,7.126.048c1.975.033,1.975.054,1.975,2.02,0,5.646-.017,11.293.02,16.939.005.79-.235.958-.978.947-2.766-.042-5.532,0-8.3-.033-.7-.009-.883.212-.87.882.052,2.692.029,5.386.087,8.078.016.747-.156,1.023-.969,1.008-2.635-.052-5.271.013-7.907-.034-.84-.015-1.127.2-1.1,1.082.066,2.562-.009,5.128.064,7.689.028.991-.287,1.279-1.263,1.258-2.634-.058-5.271-.017-7.907-.015a1.1,1.1,0,0,0-.75.13,2.568,2.568,0,0,1-.138-1.148c-.009-2.659-.037-5.317.013-7.975.014-.762-.177-1.019-.962-1.016q-9.07.03-18.141-.02c-.768,0-.909.255-.9.948.036,2.723.048,5.447-.005,8.169-.016.838.258,1,1.047.993,5.721-.059,11.443-.071,17.165-.085.646,0,1.292.077,1.937.118m-25.212,39.752v.023c4.748,0,9.5-.005,14.244.008.554,0,.883,0,.88-.752-.041-9.241-.039-18.483-.055-27.724,0-1.419-.019-1.426-1.481-1.426q-13.8,0-27.61,0c-.725,0-.906.179-.9.921q.052,14.057.006,28.115c0,.742.22.852.869.849,4.683-.022,9.366-.012,14.049-.012" transform="translate(-19.627 -22.358)"/>
    <path id="Path_18593" data-name="Path 18593" d="M10.071,165.822a44.992,44.992,0,0,0,4.77.08c4.75.026,9.5.041,14.247.013.817-.005,1.079.262,1.071,1.048-.031,2.66,0,5.32-.031,7.979-.007.665.109.981.9.979q14-.048,28.007-.009c.956,0,1.143-.337,1.129-1.178-.047-2.562.01-5.125-.064-7.686-.027-.954.24-1.191,1.2-1.158,2.437.084,4.878.024,7.319.034.483,0,.967.064,1.451.1L70.041,166c.022,1.037.062,2.074.061,3.109-.005,5.225-.04,10.449-.016,15.673,0,.852-.234,1.11-1.1,1.092-2.667-.055-5.337,0-8-.036-.74-.011-.932.224-.93.944q.048,18.934.03,37.868c0,.936.3,1.119,1.172,1.115,5.955-.031,11.91.005,17.864-.023.819,0,1.065.243,1.045,1.046-.064,2.692-.078,5.385-.081,8.078,0,.625-.211.915-.853.837a4.068,4.068,0,0,0-.488,0q-38.708,0-77.415.025c-.99,0-1.212-.241-1.211-1.215q.047-28.669.023-57.338c0-1.251,0-1.247,1.28-1.252,2.6-.009,5.207-.04,7.809-.022.651,0,.951-.157.941-.862-.043-3.081-.051-6.163-.071-9.244Zm40.054,39.989c0-6.36-.009-12.72.013-19.08,0-.639-.106-.893-.832-.891q-19.184.034-38.367,0c-.7,0-.876.233-.875.9q.042,19.031.036,38.063c0,.7.173.965.926.965q19.037-.019,38.074.031c.911,0,1.047-.294,1.042-1.1-.031-6.3-.017-12.591-.017-18.886" transform="translate(-0.025 -36.299)"/>
    <path id="Path_18594" data-name="Path 18594" d="M127.5,32.749c-4.686,0-9.371-.016-14.056.016-.758.005-.926-.259-.92-.961.02-2.692-.03-5.385-.026-8.077,0-.8-.305-1.009-1.113-.991-2.667.057-5.335-.009-8,.018-.692.006-.861-.2-.851-.9q.061-4.136-.027-8.272c-.012-.631.213-.815.764-.812,2.863.018,5.726.043,8.589.046.589,0,.7.28.665.794-.186,2.853-.031,5.707.026,8.56.006.343-.039.635.474.63q6-.052,12-.069c2.18-.008,4.361-.02,6.54.012.706.01,1.014-.086.99-.943-.077-2.723-.009-5.449-.042-8.174-.007-.6.169-.811.758-.81q4.294,0,8.588-.032c.626,0,.643.388.642.844,0,1.622.014,3.245.018,4.867q.013,6.473.021,12.945c0,1.323,0,1.311-1.27,1.311q-6.882-.008-13.763,0v-.005" transform="translate(-22.442 -2.797)"/>
    <path id="Path_18595" data-name="Path 18595" d="M240.581,198.645c-3.058,0-6.116-.019-9.174.015-.674.007-.89-.148-.876-.863.053-2.756.062-5.514.011-8.271-.013-.732.221-.858.875-.851,2.765.03,5.53-.007,8.295.027.673.008.9-.174.889-.868-.056-2.788-.042-5.578-.1-8.367-.009-.448.064-.721.523-.721q4.539-.007,9.076.015c.592,0,.43.469.431.785.011,2.952.007,5.9.007,8.856,0,3.082-.02,6.164.014,9.245.009.759-.209.986-1,.973-2.992-.052-5.985-.021-8.978-.021Z" transform="translate(-50.473 -39.135)"/>
    <path id="Path_18596" data-name="Path 18596" d="M150.976,242.561c2.994,0,5.988.023,8.981-.016.751-.01,1.038.184,1.02.972-.062,2.725-.078,5.451-.08,8.176,0,.65-.265.821-.879.819q-9.08-.026-18.16.005c-.665,0-.825-.234-.829-.831q-.027-4.186-.112-8.371c-.014-.674.277-.793.882-.787,3.059.027,6.117.012,9.177.012Z" transform="translate(-30.853 -53.1)"/>
    <path id="Path_18597" data-name="Path 18597" d="M217.667,99.439c.014-2.98.062-5.96.023-8.939-.012-.9.255-1.18,1.159-1.161,2.6.055,5.2.044,7.8.008.811-.012,1.063.277,1.056,1.072-.023,2.624,0,5.249.047,7.872.014.777-.2,1.088-1.048,1.072-2.761-.049-5.523-.019-8.285-.012-.258,0-.515.043-.772.066l.023.023" transform="translate(-47.651 -19.56)"/>
    <path id="Path_18598" data-name="Path 18598" d="M158.7,38.314c1.366,0,2.733.025,4.1-.011.644-.017.958.162.953.856q-.027,4.184,0,8.367c0,.58-.288.7-.794.7q-4.2-.007-8.39.027c-.6.005-.875-.163-.867-.833.034-2.692.021-5.383.017-8.075,0-.734.1-1.187,1.085-1.085a37.953,37.953,0,0,0,3.9.033Z" transform="translate(-33.65 -8.372)"/>
    <path id="Path_18599" data-name="Path 18599" d="M243.324,158.129c0-1.361.037-2.724-.017-4.083-.023-.587.148-.873.726-.869,2.925.025,5.85.06,8.775.085.44,0,.531.251.53.63q-.009,4.279,0,8.558c0,.461-.193.638-.636.642q-4.388.04-8.775.095c-.567.007-.6-.353-.594-.779.008-1.426,0-2.852,0-4.279h-.015" transform="translate(-53.269 -33.537)"/>
    <path id="Path_18600" data-name="Path 18600" d="M10.084,99.194a54.669,54.669,0,0,1-7.3.1c-.838-.005-1.917.331-2.456-.18-.594-.562-.185-1.661-.2-2.521C.089,94.485.113,92.376.113,90.267c0-.391-.061-.833.53-.833,3.119-.009,6.239-.265,9.356.037a.4.4,0,0,1,.092.031l-.033-.038q0,4.878,0,9.758Z" transform="translate(0 -19.557)"/>
    <path id="Path_18601" data-name="Path 18601" d="M10.1,163.037a65.244,65.244,0,0,1-7.884.079C.14,163.091.14,163.065.14,161.006c0-2.3.019-4.6-.012-6.9-.008-.629.193-.865.828-.865q4.094.008,8.189-.045c.755-.01.994.261.98,1.026-.054,2.947-.039,5.9-.051,8.844l.027-.027" transform="translate(-0.028 -33.54)"/>
    <path id="Path_18602" data-name="Path 18602" d="M138.293,191.457a3.928,3.928,0,0,0-.194,1.433c.012,2.556,0,5.114.037,7.67.009.673-.2.886-.9.872-2.627-.048-5.257-.03-7.886-.029a2.139,2.139,0,0,0-1.23.2l.031.016c0-3.133,0-6.266-.029-9.4-.006-.6.161-.766.761-.759,3.141.034,6.284.024,9.426.03Z" transform="translate(-28.052 -41.918)"/>
    <path id="Path_18603" data-name="Path 18603" d="M125.33,247.569c0,1.425-.017,2.851.009,4.276.009.493-.122.676-.649.673q-4.288-.035-8.577,0c-.551,0-.733-.184-.736-.725q-.025-4.323-.1-8.645c-.009-.518.294-.6.68-.594,2.956,0,5.913.023,8.869.018.576,0,.5.376.5.722.005,1.425,0,2.851,0,4.276" transform="translate(-25.238 -53.105)"/>
    <path id="Path_18604" data-name="Path 18604" d="M133.069,9.934c-1.364,0-2.729-.03-4.092.013-.619.02-.858-.131-.85-.794q.047-4.226,0-8.453c-.005-.57.191-.7.726-.7q4.239.034,8.477,0c.609-.005.78.228.778.8q-.022,4.177.013,8.355c.006.649-.236.829-.864.809-1.395-.042-2.792-.013-4.189-.013Z" transform="translate(-28.052 -0.001)"/>
    <path id="Path_18605" data-name="Path 18605" d="M204.846,102.008c2.856.032,5.713.06,8.568.1.484.006.967.064,1.45.1l-.023-.023c.019,3.045.029,6.091.062,9.135.007.575-.291.74-.779.723-2.859-.1-5.719-.111-8.578.023-.653.03-.612-.416-.613-.852q-.011-4.277-.029-8.556c0-.225-.02-.451-.031-.676l-.027.025" transform="translate(-44.849 -22.328)"/>
    <path id="Path_18606" data-name="Path 18606" d="M87.063,76.546a8.817,8.817,0,0,0-.144,2.791c-.032,2.1-.011,4.209.016,6.313.009.637-.145.907-.879.9-2.694-.042-5.389-.017-8.084.016-.758.009-1.073-.167-1.052-1.032.063-2.621.052-5.245-.012-7.866-.02-.82.25-1.067,1.022-1.061,2.727.018,5.454,0,8.181-.007.323,0,.646-.022.969-.033l-.017-.017" transform="translate(-16.838 -16.759)"/>
    <path id="Path_18607" data-name="Path 18607" d="M45.71,35.495c0,3.013-.019,6.027.014,9.041.008.69-.2.887-.893.883-6.078-.038-12.156-.112-18.233.045-.662.017-.905-.2-.9-.894q.043-8.994.012-17.989c0-.806.238-1.065,1.055-1.061q9.02.045,18.039,0c.728,0,1,.2.943.931-.217,3.01-.047,6.027-.035,9.04" transform="translate(-5.626 -5.587)"/>
    <path id="Path_18608" data-name="Path 18608" d="M214.912,45.469c-3.056,0-6.113-.014-9.17.012-.6.005-.8-.179-.8-.773q.008-9.147-.024-18.292c0-.653.209-.911.907-.908q8.929.04,17.857.011c.892,0,1.247.216,1.242,1.193q-.044,8.8.041,17.611c.009.928-.29,1.131-1.173,1.114-2.959-.057-5.919-.022-8.878-.022Z" transform="translate(-44.865 -5.585)"/>
    <path id="Path_18609" data-name="Path 18609" d="M189.33,183.818c0,1.393-.025,2.787.013,4.179.015.562-.177.707-.72.7q-4.239-.035-8.478,0c-.623.006-.763-.239-.765-.8q-.021-4.274-.1-8.547c-.012-.6.338-.623.746-.622,2.923,0,5.847.027,8.771.017.559,0,.535.327.535.7q0,2.186,0,4.373" transform="translate(-39.252 -39.132)"/>
    <path id="Path_18610" data-name="Path 18610" d="M45.713,214.274c-.03,2.984-.172,5.972.025,8.953.052.78-.24,1-1,1q-9.029-.041-18.06,0c-.718,0-.976-.216-.973-.938q.023-9.15-.007-18.3c0-.85.556-.732,1.058-.733q5.662-.008,11.325,0c2.278,0,4.555.027,6.833.026.537,0,.826.1.819.754-.034,3.081-.015,6.163-.015,9.245" transform="translate(-5.625 -44.717)"/>
  </g>
</svg>
