<svg id="Group_12913" data-name="Group 12913" xmlns="http://www.w3.org/2000/svg" xmlns:xlink="http://www.w3.org/1999/xlink" width="12.789" height="13.843" viewBox="0 0 12.789 13.843">
  <defs>
    <clipPath id="clip-path">
      <rect id="Rectangle_21063" data-name="Rectangle 21063" width="12.789" height="13.843" fill="gray"/>
    </clipPath>
  </defs>
  <g id="Group_12912" data-name="Group 12912" clip-path="url(#clip-path)">
    <path id="Path_18581" data-name="Path 18581" d="M111.654,6.92q0-3.032,0-6.064A.162.162,0,0,1,111.735.7c.242-.159.479-.324.719-.485a1.142,1.142,0,0,1,1.338,0c.381.254.763.507,1.141.767a.248.248,0,0,0,.321,0c.218-.153.442-.3.664-.444.128-.085.254-.172.384-.253a.812.812,0,0,1,1.239.579,1.988,1.988,0,0,1,.015.261q0,5.818,0,11.636a.952.952,0,0,1-.151.576.808.808,0,0,1-1.084.232c-.308-.193-.6-.4-.907-.605-.064-.043-.128-.085-.19-.13a.186.186,0,0,0-.239,0c-.228.157-.457.311-.687.465-.178.12-.355.243-.538.355a1.108,1.108,0,0,1-1.233.009c-.286-.175-.557-.373-.836-.56a.075.075,0,0,1-.038-.07c0-.023,0-.046,0-.069V6.92m2.951.492h0c.335,0,.671,0,1.006,0a.486.486,0,0,0,.467-.485.492.492,0,0,0-.479-.5h-1.982a.492.492,0,0,0,0,.983h.983m.021,1.642h0c-.346,0-.692-.007-1.037,0a.479.479,0,0,0-.444.616.509.509,0,0,0,.526.363q.941,0,1.882,0a.664.664,0,0,0,.167-.019.494.494,0,0,0,.355-.512.477.477,0,0,0-.467-.45c-.328,0-.656,0-.983,0M114.6,4.786h0c.34,0,.681.005,1.021,0a.474.474,0,0,0,.45-.559.482.482,0,0,0-.5-.42c-.325,0-.65,0-.975,0s-.635,0-.952,0a.5.5,0,0,0-.5.363.487.487,0,0,0,.494.618c.32,0,.64,0,.96,0" transform="translate(-104.767 0)" fill="gray"/>
    <path id="Path_18582" data-name="Path 18582" d="M5.9,6.92q0,3.016,0,6.032a.212.212,0,0,1-.107.206c-.229.146-.45.3-.675.455a1.142,1.142,0,0,1-1.37,0c-.34-.224-.68-.446-1.015-.678-.3-.206-.252-.2-.54-.011s-.595.4-.893.6a.819.819,0,0,1-.782.1.775.775,0,0,1-.5-.617A1.321,1.321,0,0,1,0,12.756Q0,6.881,0,1.006A.812.812,0,0,1,.534.214a.78.78,0,0,1,.661.046,8.337,8.337,0,0,1,.7.455c.139.1.281.187.419.285a.214.214,0,0,0,.274,0c.381-.259.765-.513,1.148-.77A1.146,1.146,0,0,1,5.1.227c.253.165.5.339.752.5A.118.118,0,0,1,5.9.849q0,3.035,0,6.071M2.96,7.414h0c.333,0,.666,0,1,0a.486.486,0,0,0,.467-.485.492.492,0,0,0-.479-.5H1.964a.488.488,0,0,0-.487.481.493.493,0,0,0,.492.5H2.96m.015,1.642H2.9c-.32,0-.64-.006-.96,0a.479.479,0,0,0-.446.614A.5.5,0,0,0,2,10.038q.956,0,1.913,0a.638.638,0,0,0,.159-.02.491.491,0,0,0,.351-.507.478.478,0,0,0-.465-.453c-.328,0-.656,0-.983,0M2.942,4.788h.952a.575.575,0,0,0,.24-.039.495.495,0,0,0-.2-.944c-.22,0-.44,0-.66,0-.427,0-.855,0-1.282,0a.491.491,0,1,0-.013.981c.32,0,.64,0,.96,0" transform="translate(0 -0.003)" fill="gray"/>
  </g>
</svg>
