<svg xmlns="http://www.w3.org/2000/svg" width="50" height="50" viewBox="0 0 50 50">
  <g id="Group_13012" data-name="Group 13012" transform="translate(0 0)">
    <circle id="Ellipse_334" data-name="Ellipse 334" cx="25" cy="25" r="25" transform="translate(0 0)" fill="#744ec8" opacity="0.35"/>
    <path id="Icon_awesome-telegram" data-name="Icon awesome-telegram" d="M12.792.563A12.792,12.792,0,1,0,25.584,13.354,12.79,12.79,0,0,0,12.792.563Zm6.282,8.763-2.1,9.893c-.155.7-.573.872-1.155.542l-3.2-2.357-1.542,1.485a.807.807,0,0,1-.645.315l.227-3.255,5.927-5.354c.258-.227-.057-.356-.4-.129L8.867,15.077,5.71,14.092c-.686-.217-.7-.686.144-1.016L18.187,8.32c.573-.206,1.073.139.887,1.006Z" transform="translate(11.963 11.892)"/>
  </g>
</svg>
