<svg xmlns="http://www.w3.org/2000/svg" width="50" height="50" viewBox="0 0 50 50">
  <g id="Group_13013" data-name="Group 13013" transform="translate(-0.493 0)">
    <circle id="Ellipse_335" data-name="Ellipse 335" cx="25" cy="25" r="25" transform="translate(0.493 0)" fill="#6fc9c0" opacity="0.35"/>
    <path id="Icon_ionic-logo-whatsapp" data-name="Icon ionic-logo-whatsapp" d="M14.149,2.25A11.431,11.431,0,0,0,2.674,13.636a11.269,11.269,0,0,0,1.647,5.879L2.25,25.625,8.6,23.606a11.494,11.494,0,0,0,17.021-9.97A11.431,11.431,0,0,0,14.149,2.25Zm5.706,15.711a2.964,2.964,0,0,1-2.03,1.308c-.538.029-.553.417-3.487-.857A11.973,11.973,0,0,1,9.5,13.837a5.627,5.627,0,0,1-1.083-3.05A3.251,3.251,0,0,1,9.535,8.4a1.124,1.124,0,0,1,.795-.335c.231,0,.381-.007.552,0s.427-.036.65.555.754,2.043.822,2.191a.532.532,0,0,1,.005.51,1.993,1.993,0,0,1-.311.474c-.153.164-.322.367-.459.493-.152.139-.311.291-.151.588A8.781,8.781,0,0,0,12.99,14.95a8.006,8.006,0,0,0,2.3,1.53c.288.157.459.139.638-.048s.764-.822.97-1.1.4-.228.665-.122,1.678.864,1.966,1.02.48.236.548.36A2.41,2.41,0,0,1,19.855,17.961Z" transform="translate(11.176 11.309)"/>
  </g>
</svg>
