<svg id="Group_580" data-name="Group 580" xmlns="http://www.w3.org/2000/svg" xmlns:xlink="http://www.w3.org/1999/xlink" width="16.52" height="20.436" viewBox="0 0 16.52 20.436">
  <defs>
    <clipPath id="clip-path">
      <rect id="Rectangle_17148" data-name="Rectangle 17148" width="16.52" height="20.436" fill="#b1b2b4"/>
    </clipPath>
  </defs>
  <g id="Group_578" data-name="Group 578" clip-path="url(#clip-path)">
    <path id="Path_507" data-name="Path 507" d="M38.112,74.408c0-1.757,0-3.513,0-5.27a3.328,3.328,0,0,1,.073-.8,1.407,1.407,0,0,1,1.418-1.062c.661-.006,1.321,0,1.982,0,1.724,0,3.448,0,5.172,0a1.863,1.863,0,0,1,.537.074A1.466,1.466,0,0,1,48.3,68.776c0,.1,0,.205,0,.308q0,5.321,0,10.642a3.437,3.437,0,0,1-.038.691,1.411,1.411,0,0,1-1.226,1.109,2.893,2.893,0,0,1-.351.022q-3.526,0-7.051,0A1.434,1.434,0,0,1,38.163,80.4a2.821,2.821,0,0,1-.049-.623q-.005-2.686,0-5.372m5.1,3.707a3.7,3.7,0,0,0,3.7-3.532,3.7,3.7,0,1,0-7.393-.182,3.69,3.69,0,0,0,3.693,3.714" transform="translate(-34.623 -61.113)" fill="#b1b2b4"/>
    <path id="Path_508" data-name="Path 508" d="M10.353,30.865H9.991l-5.012,0a2.175,2.175,0,0,0-2.193,1.847,2.136,2.136,0,0,0-.028.352q0,4.9.007,9.8c0,.116,0,.232,0,.379a1.206,1.206,0,0,1-.6-.712c-.09-.32-.145-.651-.205-.979-.19-1.034-.376-2.069-.563-3.1q-.381-2.1-.762-4.2Q.331,32.6.025,30.96A1.391,1.391,0,0,1,.6,29.537,2.029,2.029,0,0,1,1.36,29.3L4.2,28.79l3.849-.7c.168-.03.335-.069.5-.088A1.317,1.317,0,0,1,10.037,29.1c.114.566.213,1.134.318,1.7a.342.342,0,0,1,0,.066" transform="translate(0 -25.43)" fill="#b1b2b4"/>
    <path id="Path_509" data-name="Path 509" d="M77.254,11c0-1.1,0-2.181,0-3.26a2.2,2.2,0,0,0-.34-1.291A2.125,2.125,0,0,0,75.1,5.436c-.327,0-.653,0-.98-.006-.167,0-.177.011-.2-.173-.073-.484-.173-.964-.255-1.446a2.579,2.579,0,0,0-.316-.979,1.948,1.948,0,0,0-1.988-.991c-.65.078-1.293.217-1.939.329l-.251.045c.053-.188.1-.359.148-.528.077-.27.138-.546.236-.808A1.29,1.29,0,0,1,70.752,0a1.389,1.389,0,0,1,.458.07q3.558.993,7.115,1.994a1.3,1.3,0,0,1,1.026,1.2,1.835,1.835,0,0,1-.09.614q-.879,3.17-1.77,6.336c-.058.208-.115.417-.174.625-.013.047-.036.091-.063.158" transform="translate(-62.834 0)" fill="#b1b2b4"/>
    <path id="Path_510" data-name="Path 510" d="M64.5,118.8a2.866,2.866,0,0,1-2.954-3,2.956,2.956,0,0,1,5.911,0,2.875,2.875,0,0,1-2.957,3" transform="translate(-55.914 -102.564)" fill="#fff" stroke="#b1b2b4" stroke-width="0.5"/>
  </g>
</svg>
