<svg id="Group_576" data-name="Group 576" xmlns="http://www.w3.org/2000/svg" width="16.52" height="16.643" viewBox="0 0 16.52 16.643">
  <g id="Icon_feather-crosshair" data-name="Icon feather-crosshair" transform="translate(8.131 0.381) rotate(45)">
    <path id="Path_499" data-name="Path 499" d="M5.75,0A5.751,5.751,0,0,1,7.988,11.047,5.751,5.751,0,0,1,3.511.452,5.714,5.714,0,0,1,5.75,0Zm0,10.454a4.7,4.7,0,1,0-4.7-4.7A4.71,4.71,0,0,0,5.75,10.454Z" transform="translate(0 0)" fill="#b1b2b4"/>
    <path id="Path_500" data-name="Path 500" d="M2.613,1.045H.523A.523.523,0,0,1,.523,0H2.613a.523.523,0,1,1,0,1.045Z" transform="translate(8.363 5.227)" fill="#b1b2b4"/>
    <path id="Path_501" data-name="Path 501" d="M2.613,1.045H.523A.523.523,0,0,1,.523,0H2.613a.523.523,0,1,1,0,1.045Z" transform="translate(0 5.227)" fill="#b1b2b4"/>
    <path id="Path_502" data-name="Path 502" d="M.523,3.136A.523.523,0,0,1,0,2.613V.523a.523.523,0,0,1,1.045,0V2.613A.523.523,0,0,1,.523,3.136Z" transform="translate(5.227)" fill="#b1b2b4"/>
    <path id="Path_503" data-name="Path 503" d="M.523,3.136A.523.523,0,0,1,0,2.613V.523a.523.523,0,0,1,1.045,0V2.613A.523.523,0,0,1,.523,3.136Z" transform="translate(5.227 8.363)" fill="#b1b2b4"/>
  </g>
  <path id="Path_505" data-name="Path 505" d="M0,5.439l.86.795L6.188.762,5.48,0Z" transform="translate(7.322 1.468) rotate(90)" fill="#b1b2b4"/>
  <path id="Path_506" data-name="Path 506" d="M0,5.439l.86.795L6.188.762,5.48,0Z" transform="translate(14.988 9.135) rotate(90)" fill="#b1b2b4"/>
  <path id="Icon_awesome-long-arrow-alt-right" data-name="Icon awesome-long-arrow-alt-right" d="M18.246.924.152.813A.155.155,0,0,0,0,.971v.738a.155.155,0,0,0,.152.158l18.095.11v.607a.3.3,0,0,0,.518.224l1.088-1.134a.326.326,0,0,0,0-.447L18.764.093a.3.3,0,0,0-.518.224Z" transform="matrix(0.695, -0.719, 0.719, 0.695, 0.581, 14.344)" fill="#b1b2b4"/>
</svg>
