<svg id="Group_574" data-name="Group 574" xmlns="http://www.w3.org/2000/svg" xmlns:xlink="http://www.w3.org/1999/xlink" width="16.52" height="21.055" viewBox="0 0 16.52 21.055">
  <defs>
    <clipPath id="clip-path">
      <rect id="Rectangle_17147" data-name="Rectangle 17147" width="16.52" height="21.055" fill="none"/>
    </clipPath>
  </defs>
  <g id="Group_573" data-name="Group 573" clip-path="url(#clip-path)">
    <path id="Path_494" data-name="Path 494" d="M7.518,158.71l.468.235a1.015,1.015,0,0,0,.947.137q1.716-.3,3.435-.586a.864.864,0,0,0,.391-.164q.992-.751,1.991-1.493a1.24,1.24,0,0,1,.6-.279,1.04,1.04,0,0,1,.991,1.6,1.345,1.345,0,0,1-.24.271q-1.358,1.21-2.724,2.411a.771.771,0,0,1-.357.153c-1.008.187-2.018.363-3.028.543-.987.176-1.974.352-2.962.523a.616.616,0,0,1-.289-.022q-1.968-.66-3.933-1.331a1.633,1.633,0,0,0-.554-.1c-.595.007-1.19,0-1.785,0A.408.408,0,0,1,0,160.146q0-1.9,0-3.8a.407.407,0,0,1,.466-.467c.879,0,1.759.016,2.637-.007a5.072,5.072,0,0,0,.935-.166c.776-.17,1.548-.357,2.326-.516a1.776,1.776,0,0,1,.574.014c.983.129,1.965.267,2.948.4.5.069,1,.132,1.5.208a1.093,1.093,0,0,1,.9.753,1.138,1.138,0,0,1-.2,1.153,1.037,1.037,0,0,1-.768.407c-1.109.1-2.218.192-3.329.274-.225.017-.332.16-.475.308" transform="translate(0 -141.011)" fill="#b1b2b4"/>
    <path id="Path_495" data-name="Path 495" d="M21.477,52.107a4.36,4.36,0,1,1-4.439-4.256,4.36,4.36,0,0,1,4.439,4.256" transform="translate(-11.593 -43.483)" fill="#b1b2b4"/>
    <path id="Path_496" data-name="Path 496" d="M79.619,8.674c-.039-.331-.058-.653-.119-.967a4.939,4.939,0,0,0-1.859-3.028,4.634,4.634,0,0,0-1.579-.85c-.089-.026-.1-.078-.082-.153A4.263,4.263,0,0,1,78.939.242a4.1,4.1,0,0,1,3.791.531A4.232,4.232,0,0,1,84.617,4a4.354,4.354,0,0,1-3.544,4.665,3.678,3.678,0,0,1-1.454.011" transform="translate(-69.041 0)" fill="#b1b2b4"/>
    <path id="Path_497" data-name="Path 497" d="M35.968,68.3a2.743,2.743,0,1,1-2.743-2.743A2.743,2.743,0,0,1,35.968,68.3" transform="translate(-27.7 -59.579)" fill="#fff"/>
    <path id="Path_498" data-name="Path 498" d="M96.117,17.837a2.743,2.743,0,0,0-2.743,2.743c0,.087,0,.172.012.256l.067.051A4.969,4.969,0,0,1,95.1,23.125a2.743,2.743,0,1,0,1.021-5.288" transform="translate(-84.853 -16.209)" fill="#fff"/>
  </g>
</svg>
