<svg id="Group_459" data-name="Group 459" xmlns="http://www.w3.org/2000/svg" xmlns:xlink="http://www.w3.org/1999/xlink" width="30" height="30" viewBox="0 0 30 30">
  <defs>
    <clipPath id="clip-path">
      <rect id="Rectangle_17077" data-name="Rectangle 17077" width="13.653" height="17.344" fill="gray"/>
    </clipPath>
  </defs>
  <circle id="Ellipse_36" data-name="Ellipse 36" cx="15" cy="15" r="15" fill="#dbdbdb"/>
  <g id="Group_456" data-name="Group 456" transform="translate(8.37 6.523)">
    <g id="Group_455" data-name="Group 455" clip-path="url(#clip-path)">
      <path id="Path_437" data-name="Path 437" d="M8.067,0V.124c0,1.218-.007,2.437,0,3.655a1.783,1.783,0,0,0,.661,1.37,1.839,1.839,0,0,0,1.252.436h3.669V5.7q0,4.373,0,8.746A1.786,1.786,0,0,1,12.548,16.2a1.733,1.733,0,0,1-1.816-.185c-.126-.09-.244-.192-.366-.287a.643.643,0,0,0-.874.006c-.5.4-.989.8-1.488,1.2a1.871,1.871,0,0,1-2.378-.019L4.18,15.737a.653.653,0,0,0-.891-.015,4.679,4.679,0,0,1-.621.426,1.819,1.819,0,0,1-2.375-.67A1.917,1.917,0,0,1,0,14.429Q0,8.131,0,1.834A1.878,1.878,0,0,1,1.635.018,2.848,2.848,0,0,1,1.944,0H8.067m-2.8,8.068-.023-.035a.492.492,0,0,0,.08-.054c.239-.241.484-.476.712-.727a.6.6,0,0,0,.013-.783.638.638,0,0,0-.971-.037c-.6.6-1.2,1.2-1.8,1.809a.591.591,0,0,0-.129.688.6.6,0,0,0,.6.38H9.9a.8.8,0,0,0,.164-.011.626.626,0,0,0,.481-.651.618.618,0,0,0-.613-.58H5.271m3.115,3.723.028.038a.478.478,0,0,0-.089.056c-.227.225-.456.449-.677.68a.624.624,0,0,0-.063.808.632.632,0,0,0,.981.051c.276-.272.553-.544.826-.819.325-.328.65-.657.97-.99A.626.626,0,0,0,9.9,10.55q-3.078,0-6.155,0a.68.68,0,0,0-.144.011.611.611,0,0,0-.5.664.622.622,0,0,0,.638.566H8.386" transform="translate(0 0)" fill="gray"/>
      <path id="Path_438" data-name="Path 438" d="M119.59,1.142a1.64,1.64,0,0,1,.719.389c.24.23.476.465.712.7q1.172,1.172,2.343,2.345a1.979,1.979,0,0,1,.471.736c.007.018.013.036.018.055a.12.12,0,0,1,0,.031h-3.57a.625.625,0,0,1-.689-.692V1.142Z" transform="translate(-110.282 -1.053)" fill="gray"/>
    </g>
  </g>
</svg>
