<svg xmlns="http://www.w3.org/2000/svg" xmlns:xlink="http://www.w3.org/1999/xlink" width="21.647" height="21.574" viewBox="0 0 21.647 21.574">
  <defs>
    <clipPath id="clip-path">
      <rect id="Rectangle_17069" data-name="Rectangle 17069" width="21.647" height="21.574" fill="#b1b2b4"/>
    </clipPath>
  </defs>
  <g id="Group_435" data-name="Group 435" clip-path="url(#clip-path)">
    <path id="Path_404" data-name="Path 404" d="M3.693,13.243l-.169-.086Q2.058,12.42.593,11.683A.97.97,0,0,1,0,10.827a.948.948,0,0,1,.572-.921q.777-.4,1.56-.791c.484-.241.971-.477,1.457-.715.032-.016.063-.036.118-.069-.3-.146-.573-.278-.846-.414Q1.718,7.343.572,6.767A.931.931,0,0,1,0,5.849a.907.907,0,0,1,.515-.812c.329-.173.66-.345.993-.511l8.826-4.4A1.021,1.021,0,0,1,11.3.117L16.23,2.576q2.379,1.186,4.758,2.372a1.061,1.061,0,0,1,.637.75.946.946,0,0,1-.488,1.048c-.714.364-1.434.717-2.152,1.074-.336.167-.674.333-1.027.507.043.026.081.053.121.074L21.02,9.873a1.009,1.009,0,0,1,.6.762.9.9,0,0,1-.424.959c-.3.191-.632.345-.955.506-.721.359-1.445.712-2.167,1.069-.041.02-.078.046-.133.078.264.129.514.25.762.373.8.4,1.611.793,2.406,1.21a.971.971,0,0,1,.23,1.574,1.487,1.487,0,0,1-.346.223c-.937.467-1.878.927-2.815,1.395q-3.053,1.524-6.1,3.054c-.254.127-.511.247-.765.375a1.033,1.033,0,0,1-.983,0c-.947-.474-1.9-.939-2.846-1.411q-3.1-1.541-6.19-3.085c-.223-.111-.443-.229-.669-.334a.99.99,0,0,1-.035-1.823l2.781-1.386c.1-.049.2-.1.324-.165m-.513,2.45c.079.041.142.075.206.106Q7,17.6,10.613,19.405a.4.4,0,0,0,.4.013q3.669-1.835,7.345-3.658a1.067,1.067,0,0,0,.1-.068c-.027-.017-.036-.023-.046-.028-.809-.405-1.622-.8-2.426-1.22a.48.48,0,0,0-.5.007c-1.39.7-2.786,1.391-4.178,2.089a1.046,1.046,0,0,1-1.012-.008c-.531-.274-1.071-.533-1.605-.8Q7.348,15.055,6,14.373a.178.178,0,0,0-.181,0q-.65.333-1.3.66c-.435.218-.872.433-1.332.662m0-4.911c.057.031.089.05.123.067q1.061.528,2.123,1.056,2.626,1.311,5.249,2.628a.3.3,0,0,0,.315-.012q3.345-1.673,6.692-3.339l.783-.387c-.035-.022-.053-.035-.072-.045-.827-.414-1.655-.825-2.479-1.244a.324.324,0,0,0-.33,0q-2.112,1.063-4.23,2.115a1.717,1.717,0,0,1-.355.13,1.128,1.128,0,0,1-.791-.171Q8.1,10.526,6,9.471a.188.188,0,0,0-.193,0c-.275.144-.553.283-.831.421-.591.293-1.182.585-1.8.889" transform="translate(0 0)" fill="#b1b2b4"/>
  </g>
</svg>
