<svg id="Group_589" data-name="Group 589" xmlns="http://www.w3.org/2000/svg" xmlns:xlink="http://www.w3.org/1999/xlink" width="50.324" height="78.078" viewBox="0 0 50.324 78.078">
  <defs>
    <clipPath id="clip-path">
      <rect id="Rectangle_17152" data-name="Rectangle 17152" width="50.324" height="78.079" fill="none"/>
    </clipPath>
  </defs>
  <g id="Group_588" data-name="Group 588" clip-path="url(#clip-path)">
    <path id="Path_514" data-name="Path 514" d="M6.522,52.763a4.68,4.68,0,0,1-.354-1.524c-.071-.484-.12-.966-.233-1.446-.127-.541-.188-1.1-.3-1.644-.25-1.183-.587-2.346-.871-3.522-.315-1.306-.733-2.582-1.108-3.871-.745-2.565-1.666-5.075-2.383-7.648-.286-1.024-.536-2.057-.76-3.1a23.8,23.8,0,0,1-.5-4.227,24.116,24.116,0,0,1,.218-3.864C.341,21.042.5,20.167.7,19.311a24.339,24.339,0,0,1,.867-2.773A26.5,26.5,0,0,1,4.009,11.6,22.075,22.075,0,0,1,6.7,8.119,23.628,23.628,0,0,1,9.379,5.606a26.817,26.817,0,0,1,6.711-3.87A24.681,24.681,0,0,1,21.978.2,22.206,22.206,0,0,1,25.87.021a25.62,25.62,0,0,1,8.408,1.756A23.477,23.477,0,0,1,36.573,2.8a25.571,25.571,0,0,1,9.083,7.883,24.209,24.209,0,0,1,4.152,9.612,23.871,23.871,0,0,1,.439,3.252A20.874,20.874,0,0,1,50.3,26.2,33.27,33.27,0,0,1,49,33.31c-.716,2.418-1.523,4.806-2.288,7.208a78.559,78.559,0,0,0-2.658,10.961,6.14,6.14,0,0,1-.175,1.27c-.1,0-.2.012-.3.012l-37.055,0m14.5-24.544a2.479,2.479,0,0,0-.028.264c0,5.1-.013,10.208,0,15.311a3.971,3.971,0,0,0,.99,2.621,4.165,4.165,0,0,0,6.693-.424,4.4,4.4,0,0,0,.676-2.637q.022-7.371.009-14.742a4.921,4.921,0,0,0-.3-1.713,4.2,4.2,0,0,0-5.787-2.078,4.03,4.03,0,0,0-2.219,3.289l-.034.109m-.494-10.472a4.65,4.65,0,0,0,9.3-.1,4.581,4.581,0,0,0-5.06-4.595,4.661,4.661,0,0,0-4.238,4.69" transform="translate(0 0)" fill="#ffc600"/>
    <path id="Path_515" data-name="Path 515" d="M13.678,172.557l37.055,0c.1,0,.2-.008.3-.012.515.062,1.033-.029,1.552.081a2.225,2.225,0,0,1,1.681,1.8,8.048,8.048,0,0,1,.066,1.211c0,2.807-.036,5.615.015,8.421a2.4,2.4,0,0,1-2.563,2.539c-1.94-.039-3.882,0-5.824-.014-.3,0-.412.067-.477.407a14.329,14.329,0,0,1-1.118,3.363,16.723,16.723,0,0,1-1.645,2.627,9.855,9.855,0,0,1-2.288,2.132,13.581,13.581,0,0,1-5.193,2.406,12.164,12.164,0,0,1-3.265.349,13.809,13.809,0,0,1-7.912-2.894,13.373,13.373,0,0,1-4.265-5.758,12.387,12.387,0,0,1-.675-2.318c-.04-.219-.123-.316-.37-.313-2.093.019-4.186.045-6.278.02a2.426,2.426,0,0,1-2-1.544,5.777,5.777,0,0,1-.165-1.9c.05-.912.013-1.828.013-2.743,0-1.715.025-3.43-.01-5.144a2.948,2.948,0,0,1,.974-2.327,1.76,1.76,0,0,1,1.165-.373c.4-.022.812-.006,1.218-.007" transform="translate(-7.155 -119.795)" fill="#d9e2f2"/>
    <path id="Path_516" data-name="Path 516" d="M68.724,83.373a4.03,4.03,0,0,1,2.219-3.289,4.2,4.2,0,0,1,5.787,2.077,4.922,4.922,0,0,1,.3,1.713q.005,7.371-.009,14.742a4.4,4.4,0,0,1-.676,2.637,4.165,4.165,0,0,1-6.693.424,3.97,3.97,0,0,1-.99-2.62c-.016-5.1-.006-10.208,0-15.312a2.487,2.487,0,0,1,.028-.264l.034-.109" transform="translate(-47.667 -55.264)" fill="#f6fbfe"/>
    <path id="Path_517" data-name="Path 517" d="M67.151,47.375a4.661,4.661,0,0,1,4.238-4.69,4.638,4.638,0,1,1,.341,9.257,4.524,4.524,0,0,1-4.579-4.567" transform="translate(-46.622 -29.628)" fill="#f6fbfe"/>
    <path id="Path_518" data-name="Path 518" d="M68.8,91.948l-.034.109.034-.109" transform="translate(-47.744 -63.838)" fill="#d9e2f2"/>
  </g>
</svg>
