<svg xmlns="http://www.w3.org/2000/svg" width="13.809" height="15.781" viewBox="0 0 13.809 15.781">
  <path id="Icon_awesome-calendar" data-name="Icon awesome-calendar" d="M.37,5.918H13.439a.371.371,0,0,1,.37.37V14.3a1.48,1.48,0,0,1-1.479,1.479H1.479A1.48,1.48,0,0,1,0,14.3V6.288A.371.371,0,0,1,.37,5.918ZM13.809,4.562V3.452a1.48,1.48,0,0,0-1.479-1.479H10.85V.37A.371.371,0,0,0,10.48,0H9.247a.371.371,0,0,0-.37.37v1.6H4.932V.37A.371.371,0,0,0,4.562,0H3.329a.371.371,0,0,0-.37.37v1.6H1.479A1.48,1.48,0,0,0,0,3.452v1.11a.371.371,0,0,0,.37.37H13.439A.371.371,0,0,0,13.809,4.562Z" fill="#afafaf"/>
</svg>
