<svg id="Group_540" data-name="Group 540" xmlns="http://www.w3.org/2000/svg" xmlns:xlink="http://www.w3.org/1999/xlink" width="143.702" height="144.207" viewBox="0 0 143.702 144.207">
  <defs>
    <clipPath id="clip-path">
      <rect id="Rectangle_17137" data-name="Rectangle 17137" width="143.702" height="144.207" fill="none"/>
    </clipPath>
  </defs>
  <g id="Group_539" data-name="Group 539" clip-path="url(#clip-path)">
    <path id="Path_484" data-name="Path 484" d="M83.754,143.16c-2.331.441-4.691.616-7.049.834a58.8,58.8,0,0,1-8.888.086,64.635,64.635,0,0,1-13.766-2.194c-2.878-.813-5.718-1.745-8.529-2.762a31.622,31.622,0,0,1-3.285-1.438c-1.965-.975-4-1.8-5.89-2.936-1.147-.688-2.357-1.288-3.431-2.075-1.314-.962-2.671-1.864-3.992-2.81a67.508,67.508,0,0,1-10.138-9.143,52.694,52.694,0,0,1-6.823-8.81,72.4,72.4,0,0,1-3.6-6.336c-.271-.583-.626-1.126-.89-1.712-.839-1.865-1.76-3.693-2.477-5.613a70.439,70.439,0,0,1-2.623-8.165c-.5-2.087-.96-4.18-1.306-6.306C.755,81.894.5,80,.226,78.107a18.241,18.241,0,0,1-.2-2.746c.017-2.276-.079-4.556.029-6.828.093-1.96.377-3.913.625-5.863A71.12,71.12,0,0,1,7.016,41.209a72.622,72.622,0,0,1,9.057-14.443c.978-1.221,1.962-2.436,2.987-3.616.3-.349.761-.53,1.05-.911a25.329,25.329,0,0,1,4.419-4.326c1.284-1.032,2.456-2.192,3.837-3.139,1.246-.854,2.455-1.807,3.709-2.674A66.677,66.677,0,0,1,40.6,7.224a68.992,68.992,0,0,1,9.52-3.769A65.15,65.15,0,0,1,60.583.973,49.308,49.308,0,0,1,68.955.142C69.64.16,70.327-.009,71.026,0a91.529,91.529,0,0,1,9.586.59,71.168,71.168,0,0,1,15.3,3.647,75.362,75.362,0,0,1,8.678,3.779,73.135,73.135,0,0,1,11.561,7.269,65.508,65.508,0,0,1,5.9,5.058c1.914,1.857,3.628,3.886,5.366,5.9,1.074,1.245,1.974,2.623,3.1,3.837a19.554,19.554,0,0,1,1.312,2.121,72.646,72.646,0,0,1,4.644,8.254,70.566,70.566,0,0,1,5.52,16.009c.479,2.025.763,4.091,1.08,6.15a65.639,65.639,0,0,1,.608,7.8c.056,1.691-.01,3.358-.08,5.043-.08,1.9-.252,3.793-.408,5.685-.078.94-.315,1.867-.48,2.8a.955.955,0,0,1-.72-.333c-.452-.494-.919-.974-1.392-1.448q-14.6-14.634-29.2-29.267-2.592-2.6-5.157-5.223a.772.772,0,0,0-.668-.21l.028,0-.16-.163.013.011-.15-.163c-.574-.577-1.012-1.27-1.537-1.881a41.612,41.612,0,0,0-6.108-5.888,25.864,25.864,0,0,0-5.707-3.692c-.323-.135-.556-.714-.823-.709a3.525,3.525,0,0,1-1.644-.595,40.442,40.442,0,0,0-5-2.03c-1.493-.508-3.028-.736-4.532-1.123a38.344,38.344,0,0,0-5.518-.776,37.386,37.386,0,0,0-7.583.234,43.789,43.789,0,0,0-5.868,1.088c-6.175,1.462-11.434,4.678-16.215,8.735a41.68,41.68,0,0,0-9.242,11.277,32.635,32.635,0,0,0-2.545,5.324,61.646,61.646,0,0,0-1.735,6.262,37.286,37.286,0,0,0-.932,6.057,38.472,38.472,0,0,0,.729,11,42,42,0,0,0,15.439,24.608A5.557,5.557,0,0,1,48.1,106.41a1.73,1.73,0,0,0,.533,1.264c.811.912,1.755,1.691,2.626,2.533,1.249,1.208,2.476,2.441,3.7,3.668q13.706,13.688,27.356,27.434c.544.547,1.3.971,1.429,1.85" transform="translate(0 0)" fill="#45cc6a"/>
    <path id="Path_485" data-name="Path 485" d="M115.743,174.719c-.134-.88-.886-1.3-1.429-1.85q-13.656-13.74-27.356-27.434c-1.229-1.227-2.456-2.461-3.7-3.668-.871-.842-1.814-1.622-2.626-2.533a1.73,1.73,0,0,1-.533-1.264c1.877,1.052,3.659,2.264,5.6,3.214a40.1,40.1,0,0,0,13.972,4,49.317,49.317,0,0,0,9.4-.1,37.054,37.054,0,0,0,8.33-1.876,35.1,35.1,0,0,0,5.869-2.694c1.526-.855,3.041-1.723,4.474-2.711a42.871,42.871,0,0,0,13.428-15.46,9.1,9.1,0,0,0,.873-1.629c.159-.553.367-1.077.572-1.608.232-.6.908-1.234.867-1.647a5.828,5.828,0,0,1,.518-2.163,43.975,43.975,0,0,0,1.509-10.257,45.018,45.018,0,0,0-.23-5.6,42.925,42.925,0,0,0-1.667-8.63,37.9,37.9,0,0,0-3.8-8.441c-.715-1.135-1.486-2.233-2.232-3.348a.772.772,0,0,1,.668.21q2.558,2.632,5.157,5.223,14.6,14.636,29.2,29.267c.473.474.94.954,1.392,1.448a.955.955,0,0,0,.72.333,1.611,1.611,0,0,1-.035.756c-.017.05-.034.1-.051.15a59.256,59.256,0,0,1-1.805,7.641A60.674,60.674,0,0,1,168,136.357a78,78,0,0,1-8.864,13.49,77.53,77.53,0,0,1-13.025,12.229c-2.305,1.667-4.8,3-7.235,4.443a62.956,62.956,0,0,1-11.4,5.165,70.475,70.475,0,0,1-11.362,3.025,2.456,2.456,0,0,1-.371.01" transform="translate(-31.988 -31.559)" fill="#169c5e"/>
    <path id="Path_486" data-name="Path 486" d="M237.47,141.167l.051-.15c-.017.051-.034.1-.051.15" transform="translate(-94.844 -56.322)" fill="#45cc6a"/>
    <path id="Path_487" data-name="Path 487" d="M125.673,67.632c.746,1.115,1.517,2.214,2.232,3.349a37.9,37.9,0,0,1,3.8,8.44,42.925,42.925,0,0,1,1.667,8.63,45.139,45.139,0,0,1,.231,5.6,44.007,44.007,0,0,1-1.509,10.257,5.817,5.817,0,0,0-.519,2.163c.041.413-.634,1.043-.867,1.647-.2.531-.412,1.055-.572,1.608a9.1,9.1,0,0,1-.873,1.629,42.869,42.869,0,0,1-13.427,15.46c-1.432.988-2.948,1.856-4.475,2.711a35.119,35.119,0,0,1-5.868,2.694,37.062,37.062,0,0,1-8.33,1.876,49.267,49.267,0,0,1-9.4.1,40.092,40.092,0,0,1-13.972-4c-1.942-.95-3.724-2.161-5.6-3.213a5.55,5.55,0,0,0-1.618-1.375A42,42,0,0,1,51.142,100.6a38.449,38.449,0,0,1-.729-11,37.165,37.165,0,0,1,.932-6.057,61.641,61.641,0,0,1,1.734-6.262,32.588,32.588,0,0,1,2.545-5.324,41.658,41.658,0,0,1,9.242-11.277c4.781-4.058,10.04-7.273,16.215-8.735a43.8,43.8,0,0,1,5.869-1.088,37.385,37.385,0,0,1,7.583-.234,38.272,38.272,0,0,1,5.518.777c1.5.387,3.039.615,4.532,1.123a40.443,40.443,0,0,1,5,2.03,3.516,3.516,0,0,0,1.643.6c.268,0,.5.574.824.709a25.836,25.836,0,0,1,5.706,3.691,41.588,41.588,0,0,1,6.109,5.888c.524.611.963,1.3,1.537,1.881l.149.163-.013-.011.16.163ZM71.028,91.564a5.593,5.593,0,0,0,1.789,3.446c2.034,2.1,4.308,3.944,6.4,5.977,1.649,1.6,3.325,3.174,5.115,4.618a4.136,4.136,0,0,0,3.984,1.008,6.015,6.015,0,0,0,2.235-1.377q3.323-3.044,6.588-6.153c2.1-1.992,4.178-4.01,6.267-6.016,2.667-2.56,5.352-5.1,8-7.685A4.413,4.413,0,0,0,112.365,80a4.237,4.237,0,0,0-3.926-2.267,4.129,4.129,0,0,0-2.915,1.323c-1.5,1.444-3.156,2.7-4.6,4.215-1.5,1.581-3.229,2.945-4.769,4.492-2.2,2.21-4.441,4.378-6.667,6.561-.491.481-1.181.714-1.545,1.332-.491.831-.729.885-1.395.211-2.231-2.258-4.741-4.211-6.992-6.448a7.751,7.751,0,0,0-2.711-1.9,4.387,4.387,0,0,0-5.819,4.047" transform="translate(-20.093 -20.174)" fill="#f8f9fb"/>
    <path id="Path_488" data-name="Path 488" d="M175.49,78.66l-.149-.164.149.164" transform="translate(-70.03 -31.351)" fill="#169c5e"/>
    <path id="Path_489" data-name="Path 489" d="M175.728,78.914l-.16-.163.16.163" transform="translate(-70.121 -31.453)" fill="#169c5e"/>
    <path id="Path_490" data-name="Path 490" d="M84.807,109.662a4.387,4.387,0,0,1,5.819-4.047,7.751,7.751,0,0,1,2.711,1.9c2.252,2.237,4.761,4.19,6.992,6.448.666.674.9.62,1.395-.211.364-.617,1.053-.85,1.545-1.332,2.226-2.183,4.467-4.351,6.667-6.561,1.54-1.547,3.267-2.911,4.769-4.492,1.441-1.516,3.1-2.771,4.6-4.215a4.129,4.129,0,0,1,2.915-1.323,4.237,4.237,0,0,1,3.926,2.267,4.413,4.413,0,0,1-.958,5.389c-2.645,2.583-5.33,5.124-8,7.685-2.089,2.005-4.165,4.023-6.267,6.016q-3.271,3.1-6.588,6.153a6.015,6.015,0,0,1-2.235,1.377,4.136,4.136,0,0,1-3.984-1.008c-1.79-1.444-3.465-3.019-5.115-4.618-2.1-2.034-4.37-3.875-6.4-5.977a5.593,5.593,0,0,1-1.789-3.446" transform="translate(-33.871 -38.272)" fill="#169c5e"/>
  </g>
</svg>
