<svg xmlns="http://www.w3.org/2000/svg" width="36.593" height="27.078" viewBox="0 0 36.593 27.078">
  <g id="buysell" transform="translate(0 0)">
    <path id="Path_365" data-name="Path 365" d="M80.032,43.421h21.95v2.2H80.032Zm0,4.492h21.95v2.2H80.032Zm0,4.494h21.95v2.2H80.032Z" transform="translate(-65.389 -35.477)"/>
    <path id="Path_366" data-name="Path 366" d="M6.712,4.206,9.882,9.9,12.6,5.685H36.585v-2.2H11.407L10.021,5.633,6.882,0,2.425,6.666H0v2.2H3.6L6.712,4.206Z" transform="translate(0 0)" fill="red"/>
    <path id="Path_367" data-name="Path 367" d="M9.893,93.912,6.723,99.6,3.609,94.945H.011v2.2H2.436l4.457,6.666,3.139-5.634,1.386,2.146H36.594v-2.2H12.613l-2.72-4.211Z" transform="translate(-0.009 -76.73)" fill="#44f30a"/>
  </g>
</svg>
