<svg xmlns="http://www.w3.org/2000/svg" width="49" height="49" viewBox="0 0 49 49">
  <g id="candle" transform="translate(-300 -254)">
    <path id="Vector" d="M1.531,17.354A1.542,1.542,0,0,1,0,15.823V1.531A1.542,1.542,0,0,1,1.531,0,1.542,1.542,0,0,1,3.063,1.531V15.823A1.542,1.542,0,0,1,1.531,17.354Z" transform="translate(311.74 283.094)" fill="#fff"/>
    <path id="Vector-2" data-name="Vector" d="M1.531,9.188A1.542,1.542,0,0,1,0,7.656V1.531A1.542,1.542,0,0,1,1.531,0,1.542,1.542,0,0,1,3.063,1.531V7.656A1.542,1.542,0,0,1,1.531,9.188Z" transform="translate(311.74 256.552)" fill="#fff"/>
    <path id="Vector-3" data-name="Vector" d="M1.531,9.188A1.542,1.542,0,0,1,0,7.656V1.531A1.542,1.542,0,0,1,1.531,0,1.542,1.542,0,0,1,3.063,1.531V7.656A1.542,1.542,0,0,1,1.531,9.188Z" transform="translate(334.198 291.26)" fill="#fff"/>
    <path id="Vector-4" data-name="Vector" d="M1.531,17.354A1.542,1.542,0,0,1,0,15.823V1.531A1.542,1.542,0,0,1,1.531,0,1.542,1.542,0,0,1,3.063,1.531V15.823A1.542,1.542,0,0,1,1.531,17.354Z" transform="translate(334.198 256.552)" fill="#fff"/>
    <path id="Vector-5" data-name="Vector" d="M9.7,23.479H5.615C2.1,23.479,0,21.376,0,17.865V5.615C0,2.1,2.1,0,5.615,0H9.7c3.512,0,5.615,2.1,5.615,5.615v12.25C15.313,21.376,13.21,23.479,9.7,23.479ZM5.615,3.063c-1.817,0-2.552.735-2.552,2.552v12.25c0,1.817.735,2.552,2.552,2.552H9.7c1.817,0,2.552-.735,2.552-2.552V5.615c0-1.817-.735-2.552-2.552-2.552Z" transform="translate(305.615 262.677)" fill="#fff"/>
    <path id="Vector-6" data-name="Vector" d="M9.7,23.479H5.615C2.1,23.479,0,21.376,0,17.865V5.615C0,2.1,2.1,0,5.615,0H9.7c3.512,0,5.615,2.1,5.615,5.615v12.25C15.313,21.376,13.21,23.479,9.7,23.479ZM5.615,3.063c-1.817,0-2.552.735-2.552,2.552v12.25c0,1.817.735,2.552,2.552,2.552H9.7c1.817,0,2.552-.735,2.552-2.552V5.615c0-1.817-.735-2.552-2.552-2.552Z" transform="translate(328.073 270.844)" fill="#fff"/>
    <path id="Vector-7" data-name="Vector" d="M0,0H49V49H0Z" transform="translate(300 254)" fill="none" opacity="0"/>
  </g>
</svg>
