<svg xmlns="http://www.w3.org/2000/svg" width="20" height="13.907" viewBox="0 0 20 13.907">
  <g id="adjustment" transform="translate(-2 -5.665)">
    <path id="Path_1690" data-name="Path 1690" d="M25.571,18.478H22.613a2.857,2.857,0,1,0,0,1.429h2.959a.714.714,0,0,0,0-1.429Z" transform="translate(-4.286 -2.477)" fill="#b1b2b4"/>
    <path id="Path_1691" data-name="Path 1691" d="M2.714,20.759h7.857a.714.714,0,1,0,0-1.429H2.714a.714.714,0,0,0,0,1.429Z" transform="translate(0 -3.333)" fill="#b1b2b4"/>
    <path id="Path_1692" data-name="Path 1692" d="M2,10.522a.714.714,0,0,0,.714.714H4.959a2.857,2.857,0,1,0,0-1.429H2.714A.714.714,0,0,0,2,10.522Z" transform="translate(0 -2)" fill="#b1b2b4"/>
    <path id="Path_1693" data-name="Path 1693" d="M25.286,10.67H16.714a.714.714,0,1,0,0,1.429h8.571a.714.714,0,0,0,0-1.429Z" transform="translate(-4 -2.859)" fill="#b1b2b4"/>
  </g>
</svg>
