<svg xmlns="http://www.w3.org/2000/svg" width="17.948" height="20" viewBox="0 0 17.948 20">
  <g id="Group_1370" data-name="Group 1370" transform="translate(16078 -2704)">
    <g id="_x38_5_Budget_List" transform="translate(-16078 2704)">
      <g id="Group_1365" data-name="Group 1365" transform="translate(0 0)">
        <path id="Path_1678" data-name="Path 1678" d="M47.842,450.065v-1.057h-11.4v.8a1.315,1.315,0,0,0,1.314,1.314h10.6a1.935,1.935,0,0,1-.461-.881A.322.322,0,0,1,47.842,450.065Z" transform="translate(-36.445 -431.119)" fill="#b1b2b4"/>
        <path id="Path_1679" data-name="Path 1679" d="M412.536,11.337h0a1.317,1.317,0,0,0-1.312,1.314v.8h2.63v-.8A1.315,1.315,0,0,0,412.536,11.337Z" transform="translate(-395.902 -11.337)" fill="#b1b2b4"/>
        <path id="Path_1680" data-name="Path 1680" d="M84.3,12.65V28.58h9.764a.323.323,0,0,1,.323.323v1.261a.315.315,0,0,1,.02.072,1.314,1.314,0,0,0,2.61-.213V12.65a1.949,1.949,0,0,1,.508-1.314H85.611A1.315,1.315,0,0,0,84.3,12.65Z" transform="translate(-82.341 -11.336)" fill="#b1b2b4"/>
      </g>
    </g>
    <path id="Subtraction_9" data-name="Subtraction 9" d="M4.248,8.5A4.248,4.248,0,1,1,8.5,4.248,4.253,4.253,0,0,1,4.248,8.5Zm0-6.146h0l-1.9,1.9,1.9,1.9,1.9-1.9-1.9-1.9Z" transform="translate(-16073.917 2708.502)" fill="#fff"/>
  </g>
</svg>
