<svg xmlns="http://www.w3.org/2000/svg" width="20" height="20" viewBox="0 0 20 20">
  <g id="Group_1364" data-name="Group 1364" transform="translate(16018.175 -2537.622)">
    <path id="Icon_awesome-exchange-alt" data-name="Icon awesome-exchange-alt" d="M19.169,2.829H5.028V.944A.943.943,0,0,0,3.419.277L.276,3.42a.943.943,0,0,0,0,1.333L3.419,7.9a.943.943,0,0,0,1.609-.667V5.343H19.169a.943.943,0,0,0,.943-.943V3.772A.943.943,0,0,0,19.169,2.829Z" transform="translate(-15998.175 2543.4) rotate(135)" fill="#b1b2b4"/>
    <path id="Icon_awesome-exchange-alt-2" data-name="Icon awesome-exchange-alt" d="M6.83.576H0V3.09H6.83Z" transform="translate(-16012.069 2547.244) rotate(-135)" fill="#b1b2b4"/>
    <path id="Icon_awesome-exchange-alt-3" data-name="Icon awesome-exchange-alt" d="M6.83.576H0V3.09H6.83Z" transform="translate(-16003.345 2556.088) rotate(-135)" fill="#b1b2b4"/>
  </g>
</svg>
