<?xml version="1.0" encoding="UTF-8" standalone="no"?>
<svg
   width="18.001"
   height="15.041"
   viewBox="0 0 18.001 15.041"
   version="1.1"
   id="svg191"
   sodipodi:docname="gaugesMid.svg"
   inkscape:version="1.2.2 (b0a84865, 2022-12-01)"
   xmlns:inkscape="http://www.inkscape.org/namespaces/inkscape"
   xmlns:sodipodi="http://sodipodi.sourceforge.net/DTD/sodipodi-0.dtd"
   xmlns="http://www.w3.org/2000/svg"
   xmlns:svg="http://www.w3.org/2000/svg">
  <defs
     id="defs195" />
  <sodipodi:namedview
     id="namedview193"
     pagecolor="#ffffff"
     bordercolor="#000000"
     borderopacity="0.25"
     inkscape:showpageshadow="2"
     inkscape:pageopacity="0.0"
     inkscape:pagecheckerboard="0"
     inkscape:deskcolor="#d1d1d1"
     showgrid="false"
     inkscape:zoom="39.093144"
     inkscape:cx="9.0041363"
     inkscape:cy="7.5205002"
     inkscape:window-width="1390"
     inkscape:window-height="766"
     inkscape:window-x="0"
     inkscape:window-y="25"
     inkscape:window-maximized="0"
     inkscape:current-layer="svg191" />
  <path
     id="Path_1661"
     data-name="Path 1661"
     d="m 15.365,2.636 -1.3,0.739 -1.086,1.647 a 5.625,5.625 0 0 1 0.427,7.477 0.723,0.723 0 0 0 0.056,0.961 l 1.369,1.369 A 0.725,0.725 0 0 0 15.898,14.782 9,9 0 0 0 15.365,2.635 Z"
     fill="#e94444" />
  <path
     id="Path_1662"
     data-name="Path 1662"
     d="M 3.375,9 A 5.607,5.607 0 0 1 5.023,5.022 L 3.938,3.375 2.638,2.636 A 9,9 0 0 0 2.1,14.783 0.725,0.725 0 0 0 3.167,14.83 L 4.536,13.461 A 0.723,0.723 0 0 0 4.592,12.5 5.6,5.6 0 0 1 3.375,9 Z"
     fill="#80d261" />
  <path
     id="Path_1663"
     data-name="Path 1663"
     d="m 8.999,3.375 a 5.607,5.607 0 0 1 3.977,1.648 l 2.386,-2.386 a 9,9 0 0 0 -12.728,0 L 5.02,5.023 A 5.607,5.607 0 0 1 8.999,3.375 Z"
     fill="#ffc344" />
  <path
     id="Path_1667"
     data-name="Path 1667"
     d="M 7.8771244,7.4108116 7.5471538,8.4009557 10.359993,8.4009393 10.02945,7.4107486 A 4.528,4.528 0 0 1 9.7970018,5.9791321 L 9.7954122,2.4958509 A 0.844,0.844 0 1 0 8.1078444,2.4956177 l 0.00159,3.4832768 a 4.526,4.526 0 0 1 -0.232309,1.4319171 z"
     fill="#0067c5"
     inkscape:transform-center-x="0.06025307"
     inkscape:transform-center-y="-3.917556" />
  <circle
     id="Ellipse_143"
     data-name="Ellipse 143"
     cx="9.0270004"
     cy="9.0010004"
     r="1.688"
     fill="#004281" />
</svg>
