<svg xmlns="http://www.w3.org/2000/svg" width="18.001" height="15.041" viewBox="0 0 18.001 15.041">
  <g id="Group_1351" data-name="Group 1351" transform="translate(23049.5 -2015.534)">
    <path id="Path_1661" data-name="Path 1661" d="M371.523,91.514l-1.3.739L369.137,93.9a5.625,5.625,0,0,1,.427,7.477.723.723,0,0,0,.056.961l1.369,1.369a.725.725,0,0,0,1.067-.047,9,9,0,0,0-.533-12.147Z" transform="translate(-23405.658 1926.656)" fill="#e94444"/>
    <path id="Path_1662" data-name="Path 1662" d="M3.375,97.878A5.607,5.607,0,0,1,5.023,93.9L3.938,92.253l-1.3-.739A9,9,0,0,0,2.1,103.661a.725.725,0,0,0,1.067.047l1.369-1.369a.723.723,0,0,0,.056-.961A5.6,5.6,0,0,1,3.375,97.878Z" transform="translate(-23049.5 1926.656)" fill="#80d261"/>
    <path id="Path_1663" data-name="Path 1663" d="M81.345,19.909a5.607,5.607,0,0,1,3.977,1.648l2.386-2.386a9,9,0,0,0-12.728,0l2.386,2.386A5.607,5.607,0,0,1,81.345,19.909Z" transform="translate(-23121.846 1999)" fill="#ffc344"/>
    <g id="Group_1352" data-name="Group 1352" transform="translate(-23047.566 2022.016)">
      <path id="Path_1667" data-name="Path 1667" d="M266.415,204.061l.871.575.728-2.717-1.042.063a4.528,4.528,0,0,1-1.443-.146l-3.365-.9a.844.844,0,1,0-.437,1.63l3.365.9A4.526,4.526,0,0,1,266.415,204.061Z" transform="translate(-261.101 -200.905)" fill="#0067c5"/>
      <circle id="Ellipse_143" data-name="Ellipse 143" cx="1.688" cy="1.688" r="1.688" transform="translate(5.405 0.831)" fill="#004281"/>
    </g>
  </g>
</svg>
