<svg xmlns="http://www.w3.org/2000/svg" width="16" height="16" viewBox="0 0 16 16">
  <g id="Margin_Arrow" data-name="Margin Arrow" transform="translate(-4 -4)">
    <path id="Path_1668" data-name="Path 1668" d="M5,20a1,1,0,0,1-.707-1.707l14-14a1,1,0,1,1,1.414,1.414l-14,14A1,1,0,0,1,5,20Z" fill="#b1b2b4"/>
    <path id="Path_1669" data-name="Path 1669" d="M19,12a1,1,0,0,1-1-1V6H13a1,1,0,0,1,0-2h6a1,1,0,0,1,1,1v6A1,1,0,0,1,19,12Z" fill="#b1b2b4"/>
    <path id="Path_1670" data-name="Path 1670" d="M8,12a4,4,0,1,1,4-4A4,4,0,0,1,8,12ZM8,6a2,2,0,1,0,2,2A2,2,0,0,0,8,6Z" fill="#b1b2b4"/>
    <path id="Path_1671" data-name="Path 1671" d="M16,20a4,4,0,1,1,4-4A4,4,0,0,1,16,20Zm0-6a2,2,0,1,0,2,2A2,2,0,0,0,16,14Z" fill="#b1b2b4"/>
  </g>
</svg>
