<svg xmlns="http://www.w3.org/2000/svg" width="17.209" height="20" viewBox="0 0 17.209 20">
  <g id="lotus" transform="translate(-32.701)">
    <path id="Path_1694" data-name="Path 1694" d="M37.609,59.545a5.989,5.989,0,0,1-2.348-4.875,9.071,9.071,0,0,1,1.707-4.484,32.655,32.655,0,0,0-3.479-1.436c-.535,2.232-1.309,6.677-.29,8.521A4.308,4.308,0,0,0,37.609,59.545Z" transform="translate(0 -46.67)" fill="#b1b2b4"/>
    <path id="Path_1695" data-name="Path 1695" d="M122.662,8.021a4.765,4.765,0,1,0,9.529,0c.017-2.36-3.215-6.324-4.764-8.021C125.879,1.694,122.645,5.661,122.662,8.021Z" transform="translate(-86.121)" fill="#b1b2b4"/>
    <path id="Path_1696" data-name="Path 1696" d="M325.12,48.75a32.657,32.657,0,0,0-3.479,1.436,9.071,9.071,0,0,1,1.707,4.484A5.985,5.985,0,0,1,321,59.545a4.309,4.309,0,0,0,4.409-2.274C326.429,55.427,325.654,50.981,325.12,48.75Z" transform="translate(-275.998 -46.67)" fill="#b1b2b4"/>
    <path id="Path_1697" data-name="Path 1697" d="M49.247,322.7a5.6,5.6,0,0,1-1.545-.218L45.47,324.5a6.029,6.029,0,0,0,4.059.712,5.1,5.1,0,0,0,3.191-2.646,5.94,5.94,0,0,1-1.3-.315,5.54,5.54,0,0,1-2.177.445Z" transform="translate(-12.224 -308.5)" fill="#b1b2b4"/>
    <path id="Path_1698" data-name="Path 1698" d="M256.8,322.7a5.534,5.534,0,0,1-2.177-.445,5.954,5.954,0,0,1-1.3.314,5.1,5.1,0,0,0,3.192,2.646,6.01,6.01,0,0,0,4.06-.711l-2.232-2.022A5.6,5.6,0,0,1,256.8,322.7Z" transform="translate(-211.215 -308.5)" fill="#b1b2b4"/>
    <path id="Path_1699" data-name="Path 1699" d="M219.36,357.795v3.924h1.28v-3.924a6.537,6.537,0,0,1-.64-.845A6.537,6.537,0,0,1,219.36,357.795Z" transform="translate(-178.694 -341.719)" fill="#b1b2b4"/>
  </g>
</svg>
