<svg xmlns="http://www.w3.org/2000/svg" width="25" height="25" viewBox="0 0 25 25">
  <g id="Icon_ionic-ios-close-circle-outline" data-name="Icon ionic-ios-close-circle-outline" transform="translate(-3.375 -3.375)">
    <path id="Path_402" data-name="Path 402" d="M21.706,20.347,18.539,17.18l3.167-3.167a.96.96,0,0,0-1.358-1.358L17.18,15.822l-3.167-3.167a.96.96,0,0,0-1.358,1.358l3.167,3.167-3.167,3.167a.929.929,0,0,0,0,1.358.954.954,0,0,0,1.358,0l3.167-3.167L20.347,21.7a.965.965,0,0,0,1.358,0A.954.954,0,0,0,21.706,20.347Z" transform="translate(-1.305 -1.305)" fill="#060505"/>
    <path id="Path_403" data-name="Path 403" d="M15.875,5.058a10.813,10.813,0,1,1-7.65,3.167,10.746,10.746,0,0,1,7.65-3.167m0-1.683a12.5,12.5,0,1,0,12.5,12.5,12.5,12.5,0,0,0-12.5-12.5Z" transform="translate(0 0)" fill="#060505"/>
  </g>
</svg>
