<svg xmlns="http://www.w3.org/2000/svg" width="16" height="16" viewBox="0 0 16 16">
  <g id="Group_1332" data-name="Group 1332" transform="translate(-15 -433)">
    <rect id="Rectangle_17417" data-name="Rectangle 17417" width="16" height="16" rx="8" transform="translate(15 433)" fill="#b1b2b4"/>
    <path id="Icon_awesome-exclamation" data-name="Icon awesome-exclamation" d="M3.258,5.76A1.067,1.067,0,1,1,2.192,4.693,1.068,1.068,0,0,1,3.258,5.76ZM1.248.336,1.43,3.963a.32.32,0,0,0,.32.3h.885a.32.32,0,0,0,.32-.3L3.135.336A.32.32,0,0,0,2.815,0H1.568A.32.32,0,0,0,1.248.336Z" transform="translate(20.808 437.8)" fill="#fff"/>
  </g>
</svg>
