<svg id="Group_1362" data-name="Group 1362" xmlns="http://www.w3.org/2000/svg" width="13.57" height="15.002" viewBox="0 0 13.57 15.002">
  <path id="Subtraction_10" data-name="Subtraction 10" d="M22021.643-3075.713a4.649,4.649,0,0,1-4.643-4.643,4.649,4.649,0,0,1,4.643-4.644,4.65,4.65,0,0,1,4.645,4.644A4.649,4.649,0,0,1,22021.643-3075.713Zm0-6.821-2.178,2.177,2.178,2.172,2.178-2.172Z" transform="translate(-22017 3090.714)" fill="#b1b2b4"/>
  <path id="Subtraction_7" data-name="Subtraction 7" d="M5.69,9.167h0A4.627,4.627,0,0,0,1.071,5a4.67,4.67,0,0,0-1.047.118A4.717,4.717,0,0,1,0,4.643,4.642,4.642,0,1,1,5.69,9.167Z" transform="translate(4.286 0)" fill="#b1b2b4"/>
</svg>
