<svg xmlns="http://www.w3.org/2000/svg" width="12" height="11.946" viewBox="0 0 12 11.946">
  <path id="swap_1_" data-name="swap (1)" d="M5.933,7.725a.6.6,0,1,0,0,1.2h9.354l-1.416,1.314a.6.6,0,1,0,.852.852l2.4-2.4a.542.542,0,0,0,.15-.366V8.289a.6.6,0,0,0,0-.15.18.18,0,0,0,0-.06.6.6,0,0,0-.114-.18l-2.4-2.4a.6.6,0,0,0-.852.852l1.38,1.374Zm1.446,6h9.354a.6.6,0,0,1,0,1.2H7.379l1.386,1.314a.6.6,0,1,1-.852.852l-2.4-2.4a.542.542,0,0,1-.15-.366v-.036a.6.6,0,0,1,.03-.15.18.18,0,0,1,0-.06.6.6,0,0,1,.114-.18l2.4-2.4a.6.6,0,0,1,.852.852Z" transform="translate(-5.333 -5.322)" fill="#f0b80c" fill-rule="evenodd"/>
</svg>
