<svg id="Group_508" data-name="Group 508" xmlns="http://www.w3.org/2000/svg" xmlns:xlink="http://www.w3.org/1999/xlink" width="20.9" height="18.803" viewBox="0 0 20.9 18.803">
  <defs>
    <clipPath id="clip-path">
      <rect id="Rectangle_17121" data-name="Rectangle 17121" width="20.9" height="18.803" fill="none"/>
    </clipPath>
  </defs>
  <g id="Group_507" data-name="Group 507" clip-path="url(#clip-path)">
    <path id="Path_459" data-name="Path 459" d="M54.449,14.623H45.721c-1,0-2-.005-3-.005-.093,0-.137-.015-.137-.126q0-6.162,0-12.325a2.105,2.105,0,0,1,.232-1.028A2.058,2.058,0,0,1,44.736,0Q48.849,0,52.962,0a2.11,2.11,0,0,1,1.593.658,2.182,2.182,0,0,1,.569,1.579q0,6.107,0,12.214v.167h-.675m-4.857-6.05c0-1.269,0-2.537,0-3.805a1.462,1.462,0,0,0-.056-.457A.876.876,0,0,0,48.2,3.927a.762.762,0,0,0-.27.53,1.947,1.947,0,0,0-.011.244q0,1.976-.007,3.952c0,.055,0,.11,0,.2-.082-.074-.15-.129-.211-.19-.138-.139-.268-.286-.41-.421a.823.823,0,0,0-1-.105.838.838,0,0,0-.337.965.819.819,0,0,0,.179.286c.452.459.911.91,1.367,1.365a1.8,1.8,0,0,0,1.217.553,1.755,1.755,0,0,0,1.348-.5c.478-.461.952-.928,1.415-1.4a.827.827,0,0,0-.039-1.184.8.8,0,0,0-1.09.015c-.219.2-.426.416-.636.627a.511.511,0,0,0-.063.1l-.049-.035q0-.176,0-.351" transform="translate(-38.4 0)" fill="#f0b80c"/>
    <path id="Path_460" data-name="Path 460" d="M18.29,109.39v.171q0,1.884,0,3.769a1.528,1.528,0,0,1-.148.748,1.041,1.041,0,0,1-.3.358,2.2,2.2,0,0,1-1.273.4q-6.132-.009-12.264,0a2.446,2.446,0,0,1-.879-.12.846.846,0,0,1-.431-.344,2.2,2.2,0,0,1-.377-1.229c.013-1.183,0-2.366,0-3.549v-.172c-.117.054-.215.1-.312.144a3.9,3.9,0,0,0-2.038,2.257A4.035,4.035,0,0,0,.959,115.9a4.028,4.028,0,0,0,2.516,1.48,4.873,4.873,0,0,0,.816.061q6.193.006,12.387,0a4.051,4.051,0,0,0,3.158-1.409,4.107,4.107,0,0,0,1.016-2.12,4.336,4.336,0,0,0-.154-1.934,3.862,3.862,0,0,0-1.567-2.12c-.255-.176-.543-.3-.841-.467" transform="translate(0 -98.641)"/>
  </g>
</svg>
