<svg id="Group_510" data-name="Group 510" xmlns="http://www.w3.org/2000/svg" xmlns:xlink="http://www.w3.org/1999/xlink" width="20.89" height="19.402" viewBox="0 0 20.89 19.402">
  <defs>
    <clipPath id="clip-path">
      <rect id="Rectangle_17122" data-name="Rectangle 17122" width="20.89" height="19.402" fill="none"/>
    </clipPath>
  </defs>
  <g id="Group_509" data-name="Group 509" clip-path="url(#clip-path)">
    <path id="Path_461" data-name="Path 461" d="M5.973,103.134v.142c0,.68,0,1.36,0,2.04a.741.741,0,0,1-.615.79.686.686,0,0,1-.552-.121,1.386,1.386,0,0,1-.185-.16L.288,101.489a.754.754,0,0,1,0-1.183Q2.471,98.117,4.66,95.93a.745.745,0,0,1,1.065-.067.812.812,0,0,1,.247.643c0,.668,0,1.337,0,2v.145H17.028a2.277,2.277,0,0,1,1.369.377,2.221,2.221,0,0,1,.556,3.189,2.108,2.108,0,0,1-1.608.889c-.2.014-.4.022-.593.022H5.973" transform="translate(0 -86.719)"/>
    <path id="Path_462" data-name="Path 462" d="M29.46,2.983V2.845c0-.672,0-1.345,0-2.017a1.1,1.1,0,0,1,.084-.417A.731.731,0,0,1,30.635.138a1.3,1.3,0,0,1,.158.137q2.167,2.167,4.334,4.335a.861.861,0,0,1,.3.573.8.8,0,0,1-.275.63q-.839.833-1.674,1.671-1.343,1.343-2.685,2.688a.816.816,0,0,1-.549.273.742.742,0,0,1-.784-.757c0-.7,0-1.391,0-2.087V7.461H29.3q-5.465,0-10.929,0a2.291,2.291,0,0,1-1.957-1,2.132,2.132,0,0,1-.356-.974,2.22,2.22,0,0,1,1.712-2.441,3.231,3.231,0,0,1,.706-.06q5.406-.005,10.812,0Z" transform="translate(-14.539 0)" fill="#f0b80c"/>
  </g>
</svg>
