<svg xmlns="http://www.w3.org/2000/svg" xmlns:xlink="http://www.w3.org/1999/xlink" width="31" height="30" viewBox="0 0 31 30">
  <defs>
    <clipPath id="clip-path">
      <rect id="Rectangle_17078" data-name="Rectangle 17078" width="16.052" height="16.128" fill="gray"/>
    </clipPath>
  </defs>
  <g id="Group_460" data-name="Group 460" transform="translate(0.178)">
    <ellipse id="Ellipse_35" data-name="Ellipse 35" cx="15.5" cy="15" rx="15.5" ry="15" transform="translate(-0.178)" fill="#dbdbdb"/>
    <g id="Group_458" data-name="Group 458" transform="translate(6.571 7.133)">
      <g id="Group_457" data-name="Group 457" clip-path="url(#clip-path)">
        <path id="Path_439" data-name="Path 439" d="M63.227,16.128c.19-.166.375-.317.548-.481a5,5,0,0,0,1.517-2.706c.033-.167.057-.336.081-.5.009-.065.03-.092.1-.092,1.278,0,2.555,0,3.833.006a.482.482,0,0,0,.472-.66.456.456,0,0,0-.437-.289H65.385a5.077,5.077,0,0,0-.537-1.883c.026,0,.048-.007.069-.007,1.459,0,2.917-.005,4.376,0a.484.484,0,0,0,.488-.66.457.457,0,0,0-.437-.29q-2.511,0-5.022,0a.215.215,0,0,1-.181-.083A5.088,5.088,0,0,0,62.555,7.23a5.183,5.183,0,0,0-2.7-.541c-.112.007-.111.007-.111-.1,0-1.69,0-3.381,0-5.071A1.472,1.472,0,0,1,60.2.383a1.4,1.4,0,0,1,.9-.378c.058,0,.115-.006.173-.006h6.541c.11,0,.109,0,.109.113q0,1.713,0,3.425a.5.5,0,0,0,.289.513.518.518,0,0,0,.2.042q1.751,0,3.5,0c.08,0,.1.021.1.1q0,5.241,0,10.481A1.408,1.408,0,0,1,70.826,16.1a1.91,1.91,0,0,1-.306.023H63.227Zm2.657-10.4H62.429a.473.473,0,1,0,0,.945h6.885a.472.472,0,0,0,.5-.479.484.484,0,0,0-.5-.471c-1.144.008-2.287,0-3.431,0" transform="translate(-55.964 0)" fill="gray"/>
        <path id="Path_440" data-name="Path 440" d="M8.493,124.968a4.247,4.247,0,1,1-4.26-4.242,4.244,4.244,0,0,1,4.26,4.242m-4.724-.945h0c0,.323-.005.646,0,.968a.469.469,0,0,0,.445.457c.435,0,.871,0,1.306,0a.472.472,0,0,0-.013-.944H4.828c-.106,0-.106,0-.107-.107,0-.449,0-.9,0-1.346a.425.425,0,0,0-.3-.406.47.47,0,0,0-.65.433c-.007.315,0,.63,0,.945" transform="translate(0 -113.101)" fill="gray"/>
        <path id="Path_441" data-name="Path 441" d="M204.339,4.785l2.842,2.844c-.025,0-.05,0-.074,0-.892,0-1.784,0-2.676,0-.076,0-.1-.021-.1-.1,0-.9,0-1.8,0-2.7,0-.015,0-.03,0-.053" transform="translate(-191.428 -4.483)" fill="gray"/>
      </g>
    </g>
  </g>
</svg>
