<svg xmlns="http://www.w3.org/2000/svg" xmlns:xlink="http://www.w3.org/1999/xlink" width="108.535" height="101.776" viewBox="0 0 108.535 101.776">
  <defs>
    <clipPath id="clip-path">
      <rect id="Rectangle_17124" data-name="Rectangle 17124" width="108.535" height="101.776" fill="none"/>
    </clipPath>
  </defs>
  <g id="Group_513" data-name="Group 513" transform="translate(0)" opacity="0.45">
    <g id="Group_512" data-name="Group 512" transform="translate(0)" clip-path="url(#clip-path)">
      <path id="Path_464" data-name="Path 464" d="M26.709,21.2c0-1.43-.031-2.789.007-4.146a6.323,6.323,0,0,1,3.532-5.785,7.393,7.393,0,0,1,3.555-.667q9.459-.015,18.917,0h.7c0-.395-.007-.759,0-1.123.03-1.394-.042-2.8.119-4.177a6.16,6.16,0,0,1,5.438-5.2c.667-.063,1.339-.1,2.008-.1Q81.386,0,101.786,0a6.291,6.291,0,0,1,6.169,3.832,7.515,7.515,0,0,1,.577,3.259q.006,13.806,0,27.612,0,19.478,0,38.955a6.991,6.991,0,0,1-1.073,4.082,6.524,6.524,0,0,1-5.783,2.828c-6.376.015-12.753.005-19.129.005h-.721c0,.2,0,.386,0,.571-.031,1.465,0,2.934-.11,4.392a6.067,6.067,0,0,1-5.339,5.517,16.559,16.559,0,0,1-1.953.116q-9.3.012-18.6.005h-.709c0,.21,0,.4,0,.582-.031,1.464,0,2.934-.11,4.392a6.072,6.072,0,0,1-5.347,5.508,17.146,17.146,0,0,1-1.954.114q-20.427.009-40.854.006a6.634,6.634,0,0,1-4.735-1.635A6.541,6.541,0,0,1,0,95.124q0-4.85,0-9.7Q0,56.514,0,27.6a6.3,6.3,0,0,1,4.577-6.111,10.848,10.848,0,0,1,2.57-.275c6.288-.022,12.576-.012,18.864-.012Zm4.242,4.243v.742q0,29.07,0,58.139c0,1.826.779,2.6,2.611,2.6l41.7.008a2.058,2.058,0,0,0,2.321-2.309q0-29.282,0-58.564v-.621h-.671q-6.252,0-12.5-.005a4.736,4.736,0,0,1-1.1-.123A2.075,2.075,0,0,1,61.74,23.3a2.051,2.051,0,0,1,1.615-1.976,5.507,5.507,0,0,1,1.155-.115q6.226-.012,12.452-.005h.62c0-1.43.045-2.774-.012-4.114a2.109,2.109,0,0,0-2.343-2.258q-20.824.035-41.648.014c-.212,0-.424,0-.636.009a2.029,2.029,0,0,0-1.993,2.11c0,.972,0,1.943,0,2.915V21.2H44.165c.194,0,.39-.007.582.012a2.123,2.123,0,0,1,2.083,2.01,2.145,2.145,0,0,1-1.776,2.126,4.168,4.168,0,0,1-.89.09q-6.279.008-12.558,0h-.655M4.241,36.07v.64q0,29.15,0,58.3a2.207,2.207,0,0,0,2.533,2.522q15.155,0,30.31,0,5.8,0,11.6.005a2.017,2.017,0,0,0,2.185-2.177c0-.936,0-1.872,0-2.809V91.174H50.22c-5.6,0-11.2.009-16.8,0a6.153,6.153,0,0,1-6.112-3.811.593.593,0,0,0-.65-.435q-5.3.023-10.6,0a4.768,4.768,0,0,1-1.048-.114,2.081,2.081,0,0,1-1.606-1.989,2.058,2.058,0,0,1,1.631-2.018,5.355,5.355,0,0,1,1.1-.111q4.981-.013,9.962-.005h.566V78.453h-.616q-4.981,0-9.962,0a4.937,4.937,0,0,1-1.049-.109,2.049,2.049,0,0,1,.02-4.016,5.507,5.507,0,0,1,1.1-.108q4.981-.012,9.962,0h.554V69.972h-.6q-5.007,0-10.015-.006a4.66,4.66,0,0,1-1.1-.124,2.082,2.082,0,0,1-1.56-2.026,2.058,2.058,0,0,1,1.625-1.97,5.32,5.32,0,0,1,1.1-.112q4.981-.012,9.962,0h.575V61.491H26.06q-4.981,0-9.962-.005a4.906,4.906,0,0,1-1.1-.118,2.081,2.081,0,0,1-1.589-2,2.055,2.055,0,0,1,1.649-2,5.511,5.511,0,0,1,1.1-.109q4.981-.012,9.962,0h.561V53.01h-.594q-5.007,0-10.015-.005a4.707,4.707,0,0,1-1.1-.123,2.08,2.08,0,0,1-1.565-2.022,2.058,2.058,0,0,1,1.62-1.974,5.263,5.263,0,0,1,1.1-.114q4.981-.013,9.962-.005h.582V36.07Zm77.6,40.26h.555L102,76.338a2.051,2.051,0,0,0,2.29-2.286q0-29.312,0-58.624v-.549H81.55c.581,4.223.1,8.446.323,12.686H92.479a5.537,5.537,0,0,1,.582.011,2.1,2.1,0,0,1,1.893,1.234A1.99,1.99,0,0,1,94.647,31a2.42,2.42,0,0,1-1.99.811q-5.114.006-10.228,0h-.565v4.239h6.128c1.625,0,3.251-.019,4.876.006a2.09,2.09,0,0,1,2.216,2.55,2.257,2.257,0,0,1-2.392,1.684q-5.14.008-10.281,0h-.559v4.238h7.961c1.025,0,2.05-.02,3.073.006a2.1,2.1,0,0,1,2.176,2.672,2.3,2.3,0,0,1-2.388,1.563q-5.114.007-10.228,0h-.588v4.238H92.48a5.424,5.424,0,0,1,.582.012,2.1,2.1,0,0,1,1.893,1.235,1.991,1.991,0,0,1-.31,2.184,2.421,2.421,0,0,1-1.99.81q-5.114.006-10.228,0h-.564v4.239H88.1c1.59,0,3.18-.019,4.769.006a2.09,2.09,0,0,1,2.215,2.551,2.258,2.258,0,0,1-2.393,1.683q-5.141.008-10.281,0h-.571Zm22.438-65.752c0-1.445.076-2.86-.021-4.262-.1-1.446-.894-2.072-2.347-2.072H60.318a7.6,7.6,0,0,0-.794.02A1.946,1.946,0,0,0,57.689,5.96c-.063,1.529-.017,3.062-.017,4.618ZM26.686,25.447H6.631a4.412,4.412,0,0,0-.581.025,1.945,1.945,0,0,0-1.781,1.691c-.06,1.528-.017,3.061-.017,4.613H26.686Z" transform="translate(0 0)" fill="#707070"/>
      <path id="Path_465" data-name="Path 465" d="M72.8,45.5h.655q6.279,0,12.558,0a4.2,4.2,0,0,0,.89-.09,2.145,2.145,0,0,0,1.775-2.126,2.122,2.122,0,0,0-2.082-2.01c-.193-.019-.388-.012-.582-.012H72.8V39.935c0-.971,0-1.943,0-2.915a2.029,2.029,0,0,1,1.993-2.11c.211-.014.423-.009.636-.009q20.824,0,41.648-.014a2.109,2.109,0,0,1,2.343,2.258c.057,1.34.012,2.684.012,4.114h-.62q-6.226,0-12.452.005a5.533,5.533,0,0,0-1.155.115,2.052,2.052,0,0,0-1.615,1.976,2.076,2.076,0,0,0,1.568,2.018,4.752,4.752,0,0,0,1.1.122q6.253.012,12.505.005h.67v.621q0,29.281,0,58.563a2.058,2.058,0,0,1-2.321,2.309l-41.7-.008c-1.831,0-2.611-.778-2.611-2.6V45.5ZM85.578,73.064c.307.335.573.642.857.93a11.988,11.988,0,0,0,.921.874A2.007,2.007,0,0,0,90.1,74.8a2.029,2.029,0,0,0,.255-2.778c-.407-.528-.909-.983-1.367-1.472-.141-.151-.278-.306-.429-.472.629-.66,1.26-1.255,1.811-1.916A2.079,2.079,0,0,0,87.5,65.209a9.173,9.173,0,0,0-.859.784c-.374.363-.738.736-1.1,1.1-.625-.62-1.173-1.2-1.756-1.732a2.1,2.1,0,0,0-3.037,2.9,9.547,9.547,0,0,0,.732.764c.352.336.718.657,1.227,1.119a4.722,4.722,0,0,0-.608.4c-.421.4-.847.8-1.23,1.241a2.082,2.082,0,0,0-.033,2.921,1.987,1.987,0,0,0,2.811.169c.648-.539,1.235-1.152,1.938-1.816m21.235-5.873c-.668-.669-1.2-1.207-1.735-1.738a2.051,2.051,0,0,0-2.032-.6,2.074,2.074,0,0,0-1.088,3.425c.543.617,1.195,1.139,1.829,1.733-.247.262-.4.424-.554.59a15.064,15.064,0,0,0-1.476,1.65,2.057,2.057,0,0,0,3.016,2.688c.429-.335.805-.738,1.2-1.113.25-.235.5-.475.885-.849a24.162,24.162,0,0,0,1.718,1.9,1.94,1.94,0,0,0,2.691-.048,2.017,2.017,0,0,0,.3-2.771c-.414-.545-.929-1.012-1.4-1.516-.138-.149-.27-.3-.549-.616a20.119,20.119,0,0,0,1.892-1.7,2.057,2.057,0,0,0-.936-3.315,1.927,1.927,0,0,0-2.061.451c-.587.557-1.106,1.186-1.7,1.834m-1.469,18.4a2.2,2.2,0,0,0-.933-1.814,12.094,12.094,0,0,0-11.566-2.781,11.282,11.282,0,0,0-5.267,3.1,1.98,1.98,0,0,0-.593,2.076,2.007,2.007,0,0,0,1.569,1.485,2.281,2.281,0,0,0,2.091-.767,8.07,8.07,0,0,1,10.718-.162,6.027,6.027,0,0,0,.883.669,2.035,2.035,0,0,0,3.1-1.806M96.118,45.5a2.169,2.169,0,0,0,2.091-2.116,2.207,2.207,0,0,0-2.167-2.108,2.113,2.113,0,0,0,.076,4.225" transform="translate(-41.849 -20.055)" fill="#efefef"/>
      <path id="Path_466" data-name="Path 466" d="M9.977,84.843H32.411v12.7h-.582q-4.981,0-9.962.005a5.267,5.267,0,0,0-1.1.114,2.059,2.059,0,0,0-1.62,1.974,2.081,2.081,0,0,0,1.565,2.022,4.71,4.71,0,0,0,1.1.123c3.338.009,6.676.006,10.015.006h.594v4.238h-.561q-4.981,0-9.962,0a5.478,5.478,0,0,0-1.1.109,2.054,2.054,0,0,0-1.649,2,2.08,2.08,0,0,0,1.589,2,4.9,4.9,0,0,0,1.1.118q4.981.013,9.962.005h.612V114.5h-.575q-4.981,0-9.962,0a5.323,5.323,0,0,0-1.1.112,2.059,2.059,0,0,0-1.625,1.97,2.083,2.083,0,0,0,1.56,2.026,4.66,4.66,0,0,0,1.1.124q5.007.013,10.015.006h.6v4.238h-.554q-4.981,0-9.962,0a5.513,5.513,0,0,0-1.1.108,2.049,2.049,0,0,0-.02,4.016,4.935,4.935,0,0,0,1.049.109q4.981.011,9.962,0h.616v4.238H31.84q-4.981,0-9.962.005a5.322,5.322,0,0,0-1.1.111,2.057,2.057,0,0,0-1.631,2.018,2.081,2.081,0,0,0,1.606,1.989,4.772,4.772,0,0,0,1.048.114q5.3.012,10.6,0a.593.593,0,0,1,.65.435,6.152,6.152,0,0,0,6.111,3.811c5.6.013,11.2,0,16.8,0h.655v1.379c0,.936,0,1.872,0,2.808a2.017,2.017,0,0,1-2.185,2.177q-5.8.005-11.6-.005H12.51a2.207,2.207,0,0,1-2.533-2.522V84.843Z" transform="translate(-5.735 -48.773)" fill="#efefef"/>
      <path id="Path_467" data-name="Path 467" d="M192.107,96.449V85.85h.571q5.14,0,10.281,0a2.258,2.258,0,0,0,2.393-1.683,2.09,2.09,0,0,0-2.215-2.551c-1.59-.025-3.18-.006-4.769-.006h-6.236V77.369h.564q5.114,0,10.228,0a2.422,2.422,0,0,0,1.99-.81,1.991,1.991,0,0,0,.31-2.184,2.1,2.1,0,0,0-1.893-1.235,5.427,5.427,0,0,0-.582-.012H192.126V68.888h.588q5.114,0,10.228,0a2.3,2.3,0,0,0,2.388-1.563,2.1,2.1,0,0,0-2.175-2.672c-1.024-.026-2.049-.006-3.074-.006h-7.961V60.407h.559q5.141,0,10.281,0a2.257,2.257,0,0,0,2.392-1.684,2.09,2.09,0,0,0-2.216-2.55c-1.625-.025-3.25-.006-4.876-.006h-6.128V51.926h.565q5.114,0,10.228,0a2.42,2.42,0,0,0,1.99-.811,1.99,1.99,0,0,0,.308-2.184,2.1,2.1,0,0,0-1.893-1.234,5.538,5.538,0,0,0-.582-.011H192.14c-.227-4.24.258-8.463-.323-12.686h22.743v.549q0,29.312,0,58.624a2.052,2.052,0,0,1-2.29,2.286l-19.608-.008h-.556" transform="translate(-110.267 -20.119)" fill="#efefef"/>
      <path id="Path_468" data-name="Path 468" d="M182.236,16.318H135.631c0-1.556-.046-3.089.017-4.618a1.946,1.946,0,0,1,1.835-1.695,7.6,7.6,0,0,1,.794-.02h41.591c1.454,0,2.248.625,2.347,2.072.1,1.4.021,2.817.021,4.262" transform="translate(-77.959 -5.739)" fill="#efefef"/>
      <path id="Path_469" data-name="Path 469" d="M32.416,59.855v6.33H9.983c0-1.552-.044-3.084.017-4.613a1.945,1.945,0,0,1,1.781-1.691,4.411,4.411,0,0,1,.581-.025H32.416Z" transform="translate(-5.73 -34.408)" fill="#efefef"/>
      <path id="Path_470" data-name="Path 470" d="M95.617,113.488c-.7.664-1.289,1.277-1.937,1.815a1.987,1.987,0,0,1-2.812-.168,2.082,2.082,0,0,1,.033-2.921c.383-.437.809-.838,1.23-1.241a4.8,4.8,0,0,1,.608-.4c-.508-.462-.875-.783-1.227-1.119a9.487,9.487,0,0,1-.732-.765,2.1,2.1,0,0,1,3.037-2.9c.583.537,1.131,1.113,1.756,1.733.365-.365.729-.738,1.1-1.1a9.116,9.116,0,0,1,.859-.784,2.079,2.079,0,0,1,2.872,2.954c-.551.661-1.182,1.256-1.811,1.916.15.166.287.321.429.471.458.489.96.944,1.367,1.473a2.029,2.029,0,0,1-.255,2.778,2.008,2.008,0,0,1-2.743.067,12.076,12.076,0,0,1-.921-.875c-.284-.288-.549-.595-.857-.93" transform="translate(-51.888 -60.48)" fill="#707070"/>
      <path id="Path_471" data-name="Path 471" d="M145.5,107.612c.6-.648,1.114-1.277,1.7-1.834a1.926,1.926,0,0,1,2.061-.45,2.058,2.058,0,0,1,.936,3.315,20.123,20.123,0,0,1-1.892,1.7c.279.313.411.467.549.616.468.5.984.971,1.4,1.516a2.017,2.017,0,0,1-.3,2.771,1.94,1.94,0,0,1-2.691.048,24.235,24.235,0,0,1-1.717-1.9c-.389.374-.635.614-.885.849-.4.375-.774.778-1.2,1.113a2.057,2.057,0,0,1-3.016-2.688,15.068,15.068,0,0,1,1.477-1.65c.151-.166.307-.328.554-.591-.634-.594-1.285-1.116-1.829-1.733a2.073,2.073,0,0,1,1.088-3.424,2.05,2.05,0,0,1,2.031.6c.537.531,1.068,1.069,1.736,1.738" transform="translate(-80.54 -60.476)" fill="#707070"/>
      <path id="Path_472" data-name="Path 472" d="M124.4,147.333a2.035,2.035,0,0,1-3.1,1.806,6.023,6.023,0,0,1-.883-.668,8.069,8.069,0,0,0-10.718.161,2.281,2.281,0,0,1-2.091.767,2.007,2.007,0,0,1-1.569-1.485,1.981,1.981,0,0,1,.593-2.076,11.281,11.281,0,0,1,5.268-3.1,12.1,12.1,0,0,1,11.566,2.781,2.2,2.2,0,0,1,.933,1.814" transform="translate(-60.906 -81.802)" fill="#707070"/>
      <path id="Path_473" data-name="Path 473" d="M124.78,54.142a2.113,2.113,0,0,1-.076-4.225,2.207,2.207,0,0,1,2.167,2.108,2.169,2.169,0,0,1-2.091,2.116" transform="translate(-70.511 -28.695)" fill="#707070"/>
    </g>
  </g>
</svg>
