<svg xmlns="http://www.w3.org/2000/svg" xmlns:xlink="http://www.w3.org/1999/xlink" width="38" height="38" viewBox="0 0 38 38">
  <defs>
    <clipPath id="clip-path">
      <rect id="Rectangle_17146" data-name="Rectangle 17146" width="17.763" height="20.387" fill="#6fc9c0"/>
    </clipPath>
  </defs>
  <g id="Swap" transform="translate(-334 -151)">
    <path id="Ellipse_41" data-name="Ellipse 41" d="M19,0A19,19,0,1,1,0,19,19,19,0,0,1,19,0Z" transform="translate(334 151)" fill="#f0b80c"/>
    <g id="Group_571" data-name="Group 571" transform="translate(363.194 161.119) rotate(90)">
      <g id="Group_570" data-name="Group 570" clip-path="url(#clip-path)">
        <path id="Path_492" data-name="Path 492" d="M7.86,7.974a7.706,7.706,0,0,0-2.281.31A8.369,8.369,0,0,0,1.2,11.251c-.053.068-.1.137-.161.2a.572.572,0,0,1-.672.166.6.6,0,0,1-.36-.645,10.083,10.083,0,0,1,1.022-3.3,9.848,9.848,0,0,1,1.808-2.5,10.057,10.057,0,0,1,3.628-2.35,9.816,9.816,0,0,1,2.719-.6.582.582,0,0,1,.069-.006c.087,0,.106-.036.107-.121,0-.378,0-.757.03-1.133A1.2,1.2,0,0,1,9.52.538.892.892,0,0,1,10.728.085a1.794,1.794,0,0,1,.58.41q1.266,1.265,2.53,2.531c.285.286.574.57.847.867A1.865,1.865,0,0,1,14.7,6.481C14.225,7,13.715,7.5,13.217,8c-.567.572-1.132,1.146-1.708,1.709a3.975,3.975,0,0,1-.652.531.9.9,0,0,1-1.1-.069,1.049,1.049,0,0,1-.369-.717c-.029-.336-.026-.676-.036-1.014a1.209,1.209,0,0,1,0-.238c.017-.1-.031-.114-.1-.122l-1.39-.137v.028" transform="translate(0 -0.001)" fill="#ffff"/>
        <path id="Path_493" data-name="Path 493" d="M37.941,118.881c0,.267.01.536,0,.8a2.991,2.991,0,0,1-.084.657.926.926,0,0,1-.7.707,1.02,1.02,0,0,1-.843-.2,3.723,3.723,0,0,1-.449-.391q-1.537-1.535-3.069-3.075a2.2,2.2,0,0,1-.654-1.048,1.828,1.828,0,0,1,.456-1.751c.477-.511.977-1,1.47-1.5.607-.612,1.212-1.225,1.827-1.828a2.671,2.671,0,0,1,.56-.438.924.924,0,0,1,1.4.585,2.245,2.245,0,0,1,.082.538c.013.315,0,.631,0,.946,0,.061.016.088.078.1a8.792,8.792,0,0,0,2.442.055,8.189,8.189,0,0,0,3.069-1.007,8.346,8.346,0,0,0,2.326-1.916c.151-.18.289-.372.451-.542a.552.552,0,0,1,.772-.032.566.566,0,0,1,.2.552c-.066.4-.128.792-.222,1.181a9.8,9.8,0,0,1-1.275,2.962,10.278,10.278,0,0,1-1.3,1.631,10.032,10.032,0,0,1-3.187,2.19,9.4,9.4,0,0,1-2.343.684c-.333.052-.668.089-1.017.135" transform="translate(-29.529 -100.686)" fill="#ffff"/>
      </g>
    </g>
  </g>
</svg>
